<?xml version="1.0" encoding="utf-8"?>
<!-- Generator: Adobe Illustrator 18.0.0, SVG Export Plug-In . SVG Version: 6.00 Build 0)  -->
<!DOCTYPE svg PUBLIC "-//W3C//DTD SVG 1.1//EN" "http://www.w3.org/Graphics/SVG/1.1/DTD/svg11.dtd">
<svg version="1.1" id="Layer_1" xmlns="http://www.w3.org/2000/svg" xmlns:xlink="http://www.w3.org/1999/xlink" x="0px" y="0px"
	 viewBox="376.7 0 101.9 560" enable-background="new 376.7 0 101.9 560" xml:space="preserve">
<g>
	
		<linearGradient id="SVGID_1_" gradientUnits="userSpaceOnUse" x1="-345.9084" y1="462.5515" x2="-305.5272" y2="462.5515" gradientTransform="matrix(2.0356 0 0 -2.0356 1093.2382 1138.9028)">
		<stop  offset="0" style="stop-color:#A2A9AC"/>
		<stop  offset="3.634416e-002" style="stop-color:#B4B9BC"/>
		<stop  offset="0.1058" style="stop-color:#CFD3D4"/>
		<stop  offset="0.1813" style="stop-color:#E4E6E7"/>
		<stop  offset="0.2647" style="stop-color:#F3F4F5"/>
		<stop  offset="0.3624" style="stop-color:#FCFCFD"/>
		<stop  offset="0.5085" style="stop-color:#FFFFFF"/>
		<stop  offset="0.7288" style="stop-color:#FDFDFD"/>
		<stop  offset="0.8507" style="stop-color:#F5F5F6"/>
		<stop  offset="0.9483" style="stop-color:#E7E9EA"/>
		<stop  offset="1" style="stop-color:#DCDFE0"/>
	</linearGradient>
	<path fill="url(#SVGID_1_)" d="M395.2,147.8c0,0,34.2,10.4,62.1-1l14,92c0,0-62.5,19.5-82.2,1"/>
	<polyline fill="#720400" points="395.2,143.2 396.8,151.5 393.2,239.8 381.8,238.8 	"/>
	
		<linearGradient id="SVGID_2_" gradientUnits="userSpaceOnUse" x1="-366.917" y1="302.7824" x2="-296.2166" y2="415.7455" gradientTransform="matrix(2.0356 0 0 -2.0356 1093.2382 1138.9028)">
		<stop  offset="0" style="stop-color:#4A0000"/>
		<stop  offset="0.1779" style="stop-color:#510000"/>
		<stop  offset="0.4424" style="stop-color:#650000"/>
		<stop  offset="0.7589" style="stop-color:#860000"/>
		<stop  offset="1" style="stop-color:#A40000"/>
	</linearGradient>
	<path fill="url(#SVGID_2_)" d="M377.7,237.2c0,0,54.8,14.5,100.4-1l-1,312.5c0,0-64.1,25.9-100.4-1
		C376.7,547.8,377.7,237.2,377.7,237.2z"/>
	<path fill="#983327" d="M377.7,237.2l12.4-96.1h5.7l-9.8,96.1c0,0,50.7,7.3,83.3-1.6l-13-95.5h6.1l15.5,96.1
		C478.1,236.2,434.5,259,377.7,237.2z"/>
	
		<linearGradient id="SVGID_3_" gradientUnits="userSpaceOnUse" x1="-368.5756" y1="482.183" x2="-320.6038" y2="482.183" gradientTransform="matrix(2.0222 -0.2341 -0.2341 -2.0222 1238.9169 1163.1716)">
		<stop  offset="0" style="stop-color:#FFC99F"/>
		<stop  offset="7.388758e-003" style="stop-color:#FEC59A"/>
		<stop  offset="0.1444" style="stop-color:#EF863B"/>
		<stop  offset="0.2061" style="stop-color:#E96D16"/>
		<stop  offset="0.2303" style="stop-color:#D05814"/>
		<stop  offset="0.6" style="stop-color:#AB3800"/>
		<stop  offset="0.7576" style="stop-color:#BC4612"/>
		<stop  offset="1" style="stop-color:#A22E0F"/>
	</linearGradient>
	<path fill="url(#SVGID_3_)" d="M381.6,259.6c0,0,23,21.6,93.2,5.1c0,0,7.7,6.3,1.2,10.6c-36.2,11.4-83.1,8.5-94.2-4.9
		C377.1,264.7,381.6,259.6,381.6,259.6z"/>
	
		<linearGradient id="SVGID_4_" gradientUnits="userSpaceOnUse" x1="-371.2554" y1="458.9836" x2="-323.2927" y2="458.9836" gradientTransform="matrix(2.0222 -0.2341 -0.2341 -2.0222 1238.9169 1163.1716)">
		<stop  offset="0" style="stop-color:#FFC99F"/>
		<stop  offset="7.388758e-003" style="stop-color:#FEC59A"/>
		<stop  offset="0.1444" style="stop-color:#EF863B"/>
		<stop  offset="0.2061" style="stop-color:#E96D16"/>
		<stop  offset="0.2303" style="stop-color:#D05814"/>
		<stop  offset="0.6" style="stop-color:#AB3800"/>
		<stop  offset="0.7576" style="stop-color:#BC4612"/>
		<stop  offset="1" style="stop-color:#A22E0F"/>
	</linearGradient>
	<path fill="url(#SVGID_4_)" d="M381.6,307.2c0,0,23,21.6,93.2,5.1c0,0,7.7,6.3,1.2,10.6c-36.2,11.2-83.1,8.3-94.2-5.1
		C377.1,312.1,381.6,307.2,381.6,307.2z"/>
	
		<linearGradient id="SVGID_5_" gradientUnits="userSpaceOnUse" x1="-383.5867" y1="362.6483" x2="-335.6241" y2="362.6483" gradientTransform="matrix(2.0222 -0.2341 -0.2341 -2.0222 1238.9169 1163.1716)">
		<stop  offset="0" style="stop-color:#FFC99F"/>
		<stop  offset="7.388758e-003" style="stop-color:#FEC59A"/>
		<stop  offset="0.1444" style="stop-color:#EF863B"/>
		<stop  offset="0.2061" style="stop-color:#E96D16"/>
		<stop  offset="0.2303" style="stop-color:#D05814"/>
		<stop  offset="0.6" style="stop-color:#AB3800"/>
		<stop  offset="0.7576" style="stop-color:#BC4612"/>
		<stop  offset="1" style="stop-color:#A22E0F"/>
	</linearGradient>
	<path fill="url(#SVGID_5_)" d="M379.2,505c0,0,23,21.6,93.2,5.1c0,0,7.7,6.3,1.2,10.6c-36.4,11-83.1,8.3-94.2-5.1
		C374.7,509.9,379.2,505,379.2,505z"/>
	<line fill="none" stroke="#6A0000" stroke-width="2" stroke-miterlimit="10" x1="380.4" y1="238.4" x2="379.4" y2="549"/>
	<line fill="none" stroke="#6A0000" stroke-width="2" stroke-miterlimit="10" x1="476.8" y1="237.8" x2="475.8" y2="548.2"/>
</g>
</svg>
