<?xml version="1.0" encoding="utf-8"?>
<!-- Generator: Adobe Illustrator 18.0.0, SVG Export Plug-In . SVG Version: 6.00 Build 0)  -->
<!DOCTYPE svg PUBLIC "-//W3C//DTD SVG 1.1//EN" "http://www.w3.org/Graphics/SVG/1.1/DTD/svg11.dtd">
<svg version="1.1" id="Layer_1" xmlns="http://www.w3.org/2000/svg" xmlns:xlink="http://www.w3.org/1999/xlink" x="0px" y="0px"
	 viewBox="526.8 -8 101.3 560" enable-background="new 526.8 -8 101.3 560" xml:space="preserve">
<g>
	
		<linearGradient id="SVGID_1_" gradientUnits="userSpaceOnUse" x1="-272.6797" y1="419.8962" x2="-232.2985" y2="419.8962" gradientTransform="matrix(2.0356 0 0 -2.0356 1093.2382 1138.9028)">
		<stop  offset="0" style="stop-color:#A2A9AC"/>
		<stop  offset="3.634416e-002" style="stop-color:#B4B9BC"/>
		<stop  offset="0.1058" style="stop-color:#CFD3D4"/>
		<stop  offset="0.1813" style="stop-color:#E4E6E7"/>
		<stop  offset="0.2647" style="stop-color:#F3F4F5"/>
		<stop  offset="0.3624" style="stop-color:#FCFCFD"/>
		<stop  offset="0.5085" style="stop-color:#FFFFFF"/>
		<stop  offset="0.7288" style="stop-color:#FDFDFD"/>
		<stop  offset="0.8507" style="stop-color:#F5F5F6"/>
		<stop  offset="0.9483" style="stop-color:#E7E9EA"/>
		<stop  offset="1" style="stop-color:#DCDFE0"/>
	</linearGradient>
	<path fill="url(#SVGID_1_)" d="M544.3,234.7c0,0,34.2,10.4,62.1-1l14,92c0,0-62.5,19.5-82.2,1"/>
	<polyline fill="#720400" points="544.3,230.1 545.9,238.4 542.3,326.7 530.9,325.7 	"/>
	
		<linearGradient id="SVGID_2_" gradientUnits="userSpaceOnUse" x1="-283.1335" y1="299.7345" x2="-230.468" y2="383.8819" gradientTransform="matrix(2.0356 0 0 -2.0356 1093.2382 1138.9028)">
		<stop  offset="0" style="stop-color:#4A0000"/>
		<stop  offset="0.1779" style="stop-color:#510000"/>
		<stop  offset="0.4424" style="stop-color:#650000"/>
		<stop  offset="0.7589" style="stop-color:#860000"/>
		<stop  offset="1" style="stop-color:#A40000"/>
	</linearGradient>
	<path fill="url(#SVGID_2_)" d="M526.8,324.1c0,0,54.8,14.5,100.4-1l0.4,217.7c0,0-64.1,25.9-100.4-1
		C527.2,539.8,526.8,324.1,526.8,324.1z"/>
	<path fill="#983327" d="M526.8,324.1l12.4-96.1h5.7l-9.8,96.1c0,0,50.7,7.3,83.3-1.6l-13-95.5h6.1l15.5,96.1
		C627.2,323.1,583.6,345.9,526.8,324.1z"/>
	
		<linearGradient id="SVGID_3_" gradientUnits="userSpaceOnUse" x1="-300.7414" y1="431.3922" x2="-252.7697" y2="431.3922" gradientTransform="matrix(2.0222 -0.2341 -0.2341 -2.0222 1238.9169 1163.1716)">
		<stop  offset="0" style="stop-color:#FFC99F"/>
		<stop  offset="7.388758e-003" style="stop-color:#FEC59A"/>
		<stop  offset="0.1444" style="stop-color:#EF863B"/>
		<stop  offset="0.2061" style="stop-color:#E96D16"/>
		<stop  offset="0.2303" style="stop-color:#D05814"/>
		<stop  offset="0.6" style="stop-color:#AB3800"/>
		<stop  offset="0.7576" style="stop-color:#BC4612"/>
		<stop  offset="1" style="stop-color:#A22E0F"/>
	</linearGradient>
	<path fill="url(#SVGID_3_)" d="M530.7,346.5c0,0,23,21.6,93.2,5.1c0,0,7.7,6.3,1.2,10.6c-36.2,11.4-83.1,8.5-94.2-4.9
		C526.2,351.6,530.7,346.5,530.7,346.5z"/>
	
		<linearGradient id="SVGID_4_" gradientUnits="userSpaceOnUse" x1="-303.4213" y1="408.1928" x2="-255.4586" y2="408.1928" gradientTransform="matrix(2.0222 -0.2341 -0.2341 -2.0222 1238.9169 1163.1716)">
		<stop  offset="0" style="stop-color:#FFC99F"/>
		<stop  offset="7.388758e-003" style="stop-color:#FEC59A"/>
		<stop  offset="0.1444" style="stop-color:#EF863B"/>
		<stop  offset="0.2061" style="stop-color:#E96D16"/>
		<stop  offset="0.2303" style="stop-color:#D05814"/>
		<stop  offset="0.6" style="stop-color:#AB3800"/>
		<stop  offset="0.7576" style="stop-color:#BC4612"/>
		<stop  offset="1" style="stop-color:#A22E0F"/>
	</linearGradient>
	<path fill="url(#SVGID_4_)" d="M530.7,394.1c0,0,23,21.6,93.2,5.1c0,0,7.7,6.3,1.2,10.6c-36.2,11.2-83.1,8.3-94.2-5.1
		C526.2,399,530.7,394.1,530.7,394.1z"/>
	
		<linearGradient id="SVGID_5_" gradientUnits="userSpaceOnUse" x1="-309.7126" y1="358.0524" x2="-261.7498" y2="358.0524" gradientTransform="matrix(2.0222 -0.2341 -0.2341 -2.0222 1238.9169 1163.1716)">
		<stop  offset="0" style="stop-color:#FFC99F"/>
		<stop  offset="7.388758e-003" style="stop-color:#FEC59A"/>
		<stop  offset="0.1444" style="stop-color:#EF863B"/>
		<stop  offset="0.2061" style="stop-color:#E96D16"/>
		<stop  offset="0.2303" style="stop-color:#D05814"/>
		<stop  offset="0.6" style="stop-color:#AB3800"/>
		<stop  offset="0.7576" style="stop-color:#BC4612"/>
		<stop  offset="1" style="stop-color:#A22E0F"/>
	</linearGradient>
	<path fill="url(#SVGID_5_)" d="M529.7,497c0,0,23,21.6,93.2,5.1c0,0,7.7,6.3,1.2,10.6c-36.4,11-83.1,8.3-94.2-5.1
		C525.2,501.9,529.7,497,529.7,497z"/>
	<line fill="none" stroke="#6A0000" stroke-width="2" stroke-miterlimit="10" x1="529.5" y1="325.3" x2="529.9" y2="541"/>
	<line fill="none" stroke="#6A0000" stroke-width="2" stroke-miterlimit="10" x1="625.9" y1="324.7" x2="626.3" y2="540.2"/>
</g>
</svg>
