<?xml version="1.0" encoding="utf-8"?>
<!-- Generator: Adobe Illustrator 18.0.0, SVG Export Plug-In . SVG Version: 6.00 Build 0)  -->
<!DOCTYPE svg PUBLIC "-//W3C//DTD SVG 1.1//EN" "http://www.w3.org/Graphics/SVG/1.1/DTD/svg11.dtd">
<svg version="1.1" id="Layer_1" xmlns="http://www.w3.org/2000/svg" xmlns:xlink="http://www.w3.org/1999/xlink" x="0px" y="0px"
	 viewBox="427.3 0 101.3 560" enable-background="new 427.3 0 101.3 560" xml:space="preserve">
<g>
	
		<linearGradient id="SVGID_1_" gradientUnits="userSpaceOnUse" x1="-321.5699" y1="508.1097" x2="-281.1888" y2="508.1097" gradientTransform="matrix(2.0356 0 0 -2.0356 1093.2382 1138.9028)">
		<stop  offset="0" style="stop-color:#A2A9AC"/>
		<stop  offset="3.634416e-002" style="stop-color:#B4B9BC"/>
		<stop  offset="0.1058" style="stop-color:#CFD3D4"/>
		<stop  offset="0.1813" style="stop-color:#E4E6E7"/>
		<stop  offset="0.2647" style="stop-color:#F3F4F5"/>
		<stop  offset="0.3624" style="stop-color:#FCFCFD"/>
		<stop  offset="0.5085" style="stop-color:#FFFFFF"/>
		<stop  offset="0.7288" style="stop-color:#FDFDFD"/>
		<stop  offset="0.8507" style="stop-color:#F5F5F6"/>
		<stop  offset="0.9483" style="stop-color:#E7E9EA"/>
		<stop  offset="1" style="stop-color:#DCDFE0"/>
	</linearGradient>
	<path fill="url(#SVGID_1_)" d="M444.8,55.1c0,0,34.2,10.4,62.1-1l14,92c0,0-62.5,19.5-82.2,1"/>
	<polyline fill="#720400" points="444.8,50.5 446.4,58.8 442.8,147.1 431.4,146.1 	"/>
	
		<linearGradient id="SVGID_2_" gradientUnits="userSpaceOnUse" x1="-352.0878" y1="309.8842" x2="-264.0569" y2="450.5372" gradientTransform="matrix(2.0356 0 0 -2.0356 1093.2382 1138.9028)">
		<stop  offset="0" style="stop-color:#4A0000"/>
		<stop  offset="0.1779" style="stop-color:#510000"/>
		<stop  offset="0.4424" style="stop-color:#650000"/>
		<stop  offset="0.7589" style="stop-color:#860000"/>
		<stop  offset="1" style="stop-color:#A40000"/>
	</linearGradient>
	<path fill="url(#SVGID_2_)" d="M427.3,144.5c0,0,54.8,14.5,100.4-1l0.3,405.3c0,0-64.1,25.9-100.4-1
		C427.5,547.8,427.3,144.5,427.3,144.5z"/>
	<path fill="#983327" d="M427.3,144.5l12.4-96.1h5.7l-9.8,96.1c0,0,50.7,7.3,83.3-1.6l-13-95.5h6.1l15.5,96.1
		C527.7,143.5,484.1,166.3,427.3,144.5z"/>
	
		<linearGradient id="SVGID_3_" gradientUnits="userSpaceOnUse" x1="-339.1611" y1="524.6379" x2="-291.1893" y2="524.6379" gradientTransform="matrix(2.0222 -0.2341 -0.2341 -2.0222 1238.9169 1163.1716)">
		<stop  offset="0" style="stop-color:#FFC99F"/>
		<stop  offset="7.388758e-003" style="stop-color:#FEC59A"/>
		<stop  offset="0.1444" style="stop-color:#EF863B"/>
		<stop  offset="0.2061" style="stop-color:#E96D16"/>
		<stop  offset="0.2303" style="stop-color:#D05814"/>
		<stop  offset="0.6" style="stop-color:#AB3800"/>
		<stop  offset="0.7576" style="stop-color:#BC4612"/>
		<stop  offset="1" style="stop-color:#A22E0F"/>
	</linearGradient>
	<path fill="url(#SVGID_3_)" d="M431.2,166.9c0,0,23,21.6,93.2,5.1c0,0,7.7,6.3,1.2,10.6c-36.2,11.4-83.1,8.5-94.2-4.9
		C426.7,172,431.2,166.9,431.2,166.9z"/>
	
		<linearGradient id="SVGID_4_" gradientUnits="userSpaceOnUse" x1="-341.8409" y1="501.4385" x2="-293.8782" y2="501.4385" gradientTransform="matrix(2.0222 -0.2341 -0.2341 -2.0222 1238.9169 1163.1716)">
		<stop  offset="0" style="stop-color:#FFC99F"/>
		<stop  offset="7.388758e-003" style="stop-color:#FEC59A"/>
		<stop  offset="0.1444" style="stop-color:#EF863B"/>
		<stop  offset="0.2061" style="stop-color:#E96D16"/>
		<stop  offset="0.2303" style="stop-color:#D05814"/>
		<stop  offset="0.6" style="stop-color:#AB3800"/>
		<stop  offset="0.7576" style="stop-color:#BC4612"/>
		<stop  offset="1" style="stop-color:#A22E0F"/>
	</linearGradient>
	<path fill="url(#SVGID_4_)" d="M431.2,214.5c0,0,23,21.6,93.2,5.1c0,0,7.7,6.3,1.2,10.6c-36.2,11.2-83.1,8.3-94.2-5.1
		C426.7,219.4,431.2,214.5,431.2,214.5z"/>
	
		<linearGradient id="SVGID_5_" gradientUnits="userSpaceOnUse" x1="-358.8095" y1="359.78" x2="-310.8468" y2="359.78" gradientTransform="matrix(2.0222 -0.2341 -0.2341 -2.0222 1238.9169 1163.1716)">
		<stop  offset="0" style="stop-color:#FFC99F"/>
		<stop  offset="7.388758e-003" style="stop-color:#FEC59A"/>
		<stop  offset="0.1444" style="stop-color:#EF863B"/>
		<stop  offset="0.2061" style="stop-color:#E96D16"/>
		<stop  offset="0.2303" style="stop-color:#D05814"/>
		<stop  offset="0.6" style="stop-color:#AB3800"/>
		<stop  offset="0.7576" style="stop-color:#BC4612"/>
		<stop  offset="1" style="stop-color:#A22E0F"/>
	</linearGradient>
	<path fill="url(#SVGID_5_)" d="M430,505c0,0,23,21.6,93.2,5.1c0,0,7.7,6.3,1.2,10.6c-36.4,11-83.1,8.3-94.2-5.1
		C425.5,509.9,430,505,430,505z"/>
	<line fill="none" stroke="#6A0000" stroke-width="2" stroke-miterlimit="10" x1="430" y1="145.7" x2="430.2" y2="549"/>
	<line fill="none" stroke="#6A0000" stroke-width="2" stroke-miterlimit="10" x1="526.4" y1="145.1" x2="526.6" y2="548.2"/>
</g>
</svg>
