<?xml version="1.0" encoding="utf-8"?>
<!-- Generator: Adobe Illustrator 18.0.0, SVG Export Plug-In . SVG Version: 6.00 Build 0)  -->
<!DOCTYPE svg PUBLIC "-//W3C//DTD SVG 1.1//EN" "http://www.w3.org/Graphics/SVG/1.1/DTD/svg11.dtd">
<svg version="1.1" xmlns="http://www.w3.org/2000/svg" xmlns:xlink="http://www.w3.org/1999/xlink" x="0px" y="0px"
	 viewBox="0 0 288 288" enable-background="new 0 0 288 288" xml:space="preserve">
<g id="Layer_2">
</g>
<g id="Layer_1">
	<g>
		<radialGradient id="XMLID_2_" cx="145.1235" cy="86.8144" r="211.1483" gradientUnits="userSpaceOnUse">
			<stop  offset="0.1882" style="stop-color:#FFFFFF"/>
			<stop  offset="0.4129" style="stop-color:#FBFBFB"/>
			<stop  offset="0.6435" style="stop-color:#EFEFEF"/>
			<stop  offset="0.876" style="stop-color:#DADADB"/>
			<stop  offset="1" style="stop-color:#CCCCCD"/>
		</radialGradient>
		<rect id="XMLID_16_" x="0" y="0" fill="url(#XMLID_2_)" width="288" height="288"/>
		
			<radialGradient id="XMLID_3_" cx="145.1235" cy="2446.3694" r="211.1514" gradientTransform="matrix(1 0 0 0.2824 0 -459.6717)" gradientUnits="userSpaceOnUse">
			<stop  offset="0.1882" style="stop-color:#FFFFFF"/>
			<stop  offset="0.4129" style="stop-color:#FBFBFB"/>
			<stop  offset="0.6435" style="stop-color:#EFEFEF"/>
			<stop  offset="0.876" style="stop-color:#DADADB"/>
			<stop  offset="1" style="stop-color:#CCCCCD"/>
		</radialGradient>
		<rect id="XMLID_15_" x="0" y="206.7" fill="url(#XMLID_3_)" width="288" height="81.3"/>
		<g>
			<g>
				<g>
					<polygon fill="#0091B5" points="40.1,174.7 46.1,169.6 38.6,166.9 					"/>
				</g>
				<g>
					<polygon fill="#0091B5" points="27.8,147.6 23.2,150 27.5,152.8 					"/>
				</g>
				<g>
					<polygon fill="#0091B5" points="24.9,131.8 34.9,134.6 32.3,124.6 					"/>
				</g>
				<g>
					<polygon fill="#0091B5" points="70.5,94.6 69.8,85.8 62.5,90.8 					"/>
				</g>
				<g>
					<polygon fill="#0091B5" points="26.2,82.5 23.1,76.5 19.4,82.2 					"/>
				</g>
				<g>
					<polygon fill="#0091B5" points="28.6,39.2 22.8,46.6 32.1,47.9 					"/>
				</g>
				<g>
					<polygon fill="#0091B5" points="54.9,41.3 61,36.3 53.7,33.5 					"/>
				</g>
				<g>
					<polygon fill="#0091B5" points="72.4,66.1 82,66.9 77.9,58.2 					"/>
				</g>
				<g>
					<polygon fill="#0091B5" points="96.5,39.8 91.6,37.7 92.2,43 					"/>
				</g>
				<g>
					<polygon fill="#0091B5" points="121.2,64.7 114.4,63.1 116.4,69.8 					"/>
				</g>
				<g>
					<polygon fill="#0091B5" points="140,26.3 134.8,23.4 134.9,29.4 					"/>
				</g>
				<g>
					<polygon fill="#0091B5" points="149,77.2 144,69.1 139.4,77.5 					"/>
				</g>
				<g>
					<polygon fill="#0091B5" points="181,47 174.4,52.3 182.3,55.3 					"/>
				</g>
				<g>
					<polygon fill="#0091B5" points="190.8,92.6 184.5,97.2 191.6,100.3 					"/>
				</g>
				<g>
					<polygon fill="#0091B5" points="207.9,40.9 216.3,43.8 214.6,35.1 					"/>
				</g>
				<g>
					<polygon fill="#0091B5" points="262.7,32.8 259,37.2 264.7,38.2 					"/>
				</g>
				<g>
					<polygon fill="#0091B5" points="227.1,81 234.4,84.3 233.7,76.3 					"/>
				</g>
				<g>
					<polygon fill="#0091B5" points="256.4,62.3 265.6,65.8 264.1,56.1 					"/>
				</g>
				<g>
					<polygon fill="#0091B5" points="272.6,101.3 267.7,93.6 263.5,101.7 					"/>
				</g>
				<g>
					<polygon fill="#0091B5" points="275.6,141.3 269.6,137.6 269.4,144.6 					"/>
				</g>
				<g>
					<polygon fill="#0091B5" points="219.3,142.2 226.3,141.3 222,135.8 					"/>
				</g>
				<g>
					<polygon fill="#0091B5" points="253.5,177.4 257.9,169.7 249,169.7 					"/>
				</g>
				<g>
					<polygon fill="#0091B5" points="225.3,170.5 217.4,174.1 224.6,179.2 					"/>
				</g>
				<g>
					<polygon fill="#0091B5" points="247.8,194.7 244.8,190.2 242.4,195.1 					"/>
				</g>
			</g>
			<g>
				<g>
					<polygon fill="#ED3A4F" points="31.4,168.3 26.8,162 23.6,169.1 					"/>
				</g>
				<g>
					<polygon fill="#ED3A4F" points="47,140.5 43.2,135.4 40.8,141.2 					"/>
				</g>
				<g>
					<polygon fill="#ED3A4F" points="28.6,101.2 18.6,103.6 25.7,111 					"/>
				</g>
				<g>
					<polygon fill="#ED3A4F" points="99.5,81.8 97.2,76.4 93.7,81.1 					"/>
				</g>
				<g>
					<polygon fill="#ED3A4F" points="30.3,69.8 36.1,68.3 31.9,64 					"/>
				</g>
				<g>
					<polygon fill="#ED3A4F" points="19.5,68.9 17.5,59.7 10.6,66 					"/>
				</g>
				<g>
					<polygon fill="#ED3A4F" points="102.1,111.5 98.6,102.7 92.8,110.1 					"/>
				</g>
				<g>
					<polygon fill="#ED3A4F" points="31.8,29.7 36.9,36.1 39.9,28.4 					"/>
				</g>
				<g>
					<polygon fill="#ED3A4F" points="80.4,20.5 74.7,19.3 76.5,24.9 					"/>
				</g>
				<g>
					<polygon fill="#ED3A4F" points="110.3,34.2 106.3,27.1 102.2,34.2 					"/>
				</g>
				<g>
					<polygon fill="#ED3A4F" points="139.4,50.3 134.5,53.8 139.9,56.3 					"/>
				</g>
				<g>
					<polygon fill="#ED3A4F" points="161,59.1 157.3,63.1 162.7,64.3 					"/>
				</g>
				<g>
					<polygon fill="#ED3A4F" points="162.1,25.5 167.2,19 159,17.8 					"/>
				</g>
				<g>
					<polygon fill="#ED3A4F" points="198.8,38.4 196.2,32.7 192.6,37.8 					"/>
				</g>
				<g>
					<polygon fill="#ED3A4F" points="232.9,28.1 242.1,35 243.5,23.5 					"/>
				</g>
				<g>
					<polygon fill="#ED3A4F" points="200,113.3 192.3,106.2 190,116.3 					"/>
				</g>
				<g>
					<polygon fill="#ED3A4F" points="244.9,77 237.2,82.1 245.5,86.2 					"/>
				</g>
				<g>
					<polygon fill="#ED3A4F" points="278.3,34.5 274.4,25.7 268.8,33.5 					"/>
				</g>
				<g>
					<polygon fill="#ED3A4F" points="251.1,108.6 260.1,106 253.3,99.5 					"/>
				</g>
				<g>
					<polygon fill="#ED3A4F" points="279.3,124.2 270.3,120.5 271.6,130.2 					"/>
				</g>
				<g>
					<polygon fill="#ED3A4F" points="243.1,122.5 248.1,123.9 246.8,118.8 					"/>
				</g>
				<g>
					<polygon fill="#ED3A4F" points="263.8,202.6 258.1,197 256.1,204.8 					"/>
				</g>
				<g>
					<polygon fill="#ED3A4F" points="47.3,98.8 54.3,102.8 54.3,94.7 					"/>
				</g>
				<g>
					<polygon fill="#ED3A4F" points="273.7,177.5 281.6,173.2 273.9,168.5 					"/>
				</g>
				<g>
					<polygon fill="#ED3A4F" points="39.1,190 31.3,188.7 34,196.1 					"/>
				</g>
			</g>
			<g>
				<g>
					<polygon fill="#FDB913" points="226.7,114.6 220.3,115 223.8,120.4 					"/>
				</g>
				<g>
					<polygon fill="#FDB913" points="235.4,154.6 229.4,159.6 236.7,162.4 					"/>
				</g>
				<g>
					<polygon fill="#FDB913" points="267.4,73.4 275.1,77.7 275,68.8 					"/>
				</g>
				<g>
					<polygon fill="#FDB913" points="194.5,103.7 199.6,104.7 197.9,99.8 					"/>
				</g>
				<g>
					<polygon fill="#FDB913" points="53.6,65.7 58.6,60.5 51.5,58.8 					"/>
				</g>
				<g>
					<polygon fill="#FDB913" points="237.1,90.3 232.2,88.6 233.2,93.7 					"/>
				</g>
				<g>
					<polygon fill="#FDB913" points="205.5,62.1 210.9,59.6 206,56.3 					"/>
				</g>
				<g>
					<polygon fill="#FDB913" points="135.5,29.4 132.3,33.4 137.4,34.2 					"/>
				</g>
				<g>
					<polygon fill="#FDB913" points="169.6,71.4 173.5,65.2 166.2,64.9 					"/>
				</g>
				<g>
					<polygon fill="#FDB913" points="130.3,67.3 126.4,71.4 131.9,72.7 					"/>
				</g>
				<g>
					<polygon fill="#FDB913" points="103.7,67.1 105.2,61 99.2,62.7 					"/>
				</g>
				<g>
					<polygon fill="#FDB913" points="82.6,77.6 92.1,77.9 87.6,69.5 					"/>
				</g>
				<g>
					<polygon fill="#FDB913" points="10.5,93.7 18.7,96.9 17.4,88.2 					"/>
				</g>
				<g>
					<polygon fill="#FDB913" points="77.8,117.1 79.6,111.9 74.2,112.9 					"/>
				</g>
				<g>
					<polygon fill="#FDB913" points="31.8,39.2 27.2,34.2 25.3,40.6 					"/>
				</g>
				<g>
					<polygon fill="#FDB913" points="47.2,123.7 37.6,121.4 40.5,130.9 					"/>
				</g>
				<g>
					<polygon fill="#FDB913" points="47.1,153.6 53.2,148.4 45.6,145.7 					"/>
				</g>
				<g>
					<polygon fill="#FDB913" points="100.9,90.2 105,85.6 98.9,84.3 					"/>
				</g>
				<g>
					<polygon fill="#FDB913" points="63.2,179.1 54.7,181.6 61.2,187.7 					"/>
				</g>
				<g>
					<polygon fill="#FDB913" points="13.3,178.8 18.9,184.1 20.6,176.6 					"/>
				</g>
				<g>
					<polygon fill="#FDB913" points="242.5,112.3 248.5,118 250.5,109.9 					"/>
				</g>
				<g>
					<polygon fill="#FDB913" points="63.3,152 69.2,147.7 62.5,144.7 					"/>
				</g>
			</g>
			<g>
				<path fill="#FDB913" d="M235.3,127.8c2.6,0.8,5.1,2.2,7.2,4c1.6,1.4,2,2.9,1.9,4.9c0,2.5-1.7,4.3-3.9,5.4
					c-1.4,0.7-5.6,1-5.6-1.4c0-1.8,0.2-2.6,2.1-3.1c2.4-0.7,4.4-0.3,6.2,1.4c1.4,1.2,2.4,2.8,2.4,4.6c0,2.1-0.5,3.1-2.9,3.3
					c0,0-0.1-1.7,0-1.7c1.3-0.1,2.7-0.5,2.9-2c0,0.5,0,1.1,0,1.6c0-2.2-2.3-4.4-4.1-5.4c-1.4-0.8-6.2-0.7-6.6,1.4c0-0.6,0-1.2,0-1.7
					c0.2,2.2,3.8,2,5.2,1.5c2.1-0.8,4.2-2.9,4.2-5.2c0,0.5,0,1.1,0,1.6c-0.3-3.8-5.9-6.4-9.1-7.4
					C235.1,129.5,235.4,127.8,235.3,127.8L235.3,127.8z"/>
			</g>
			<g>
				<path fill="#0091B5" d="M59.3,98.4c2.1,0.9,4,2.1,5.5,3.9c1,1.3,1.1,2.6,1.1,4.1c0,3.9-5.3,4.4-5.6,8c0-0.6,0-1.2,0-1.7
					c0.2,3.4,4.4,4,6.3,6.1c0.6,0.7,1.3,2.6,0.5,3.4c-0.8,0.8-2,1.2-2.8,2.1c-1.1,1.3-0.7,1.9-0.4,3.5c0.3,1.5,0.3,3.4-0.2,4.9
					c0.2-0.5-0.2-1.2,0-1.8c0.6-1.7-0.2-3.8-0.2-5.7c0-1.2,0.4-2.1,1.2-3c0.5-0.6,2.6-1.3,2.6-2.1c0,0.6,0,1.2,0,1.7
					c-0.7-2.4-3.8-3.1-5.5-4.4c-1.4-1.1-1.5-2.6-1.5-4.2c0-3.8,5.5-4.3,5.6-8.1c0,0.6,0,1.2,0,1.7c-0.3-3.2-3.9-5.4-6.6-6.5
					C59.1,100.1,59.5,98.5,59.3,98.4L59.3,98.4z"/>
			</g>
			<g>
				<path fill="#FDB913" d="M144.9,39.4c2.1,0.9,4,2.1,5.5,3.9c1,1.3,1.1,2.6,1.1,4.1c0,3.9-5.3,4.4-5.6,8c0-0.6,0-1.2,0-1.7
					c0.2,3.4,4.4,4,6.3,6.1c0.6,0.7,1.3,2.6,0.5,3.4c-0.8,0.8-2,1.2-2.8,2.1c-1.1,1.3-0.7,1.9-0.4,3.5c0.3,1.5,0.3,3.4-0.2,4.9
					c0.2-0.5-0.2-1.2,0-1.8c0.6-1.7-0.2-3.8-0.2-5.7c0-1.2,0.4-2.1,1.2-3c0.5-0.6,2.6-1.3,2.6-2.1c0,0.6,0,1.2,0,1.7
					c-0.7-2.4-3.8-3.1-5.5-4.4c-1.4-1.1-1.5-2.6-1.5-4.2c0-3.8,5.5-4.3,5.6-8.1c0,0.6,0,1.2,0,1.7c-0.3-3.2-3.9-5.4-6.6-6.5
					C144.7,41.1,145.1,39.5,144.9,39.4L144.9,39.4z"/>
			</g>
			<g>
				<path fill="#ED3A4F" d="M80.4,84.1c4.3-1.2,6.4,4.2,4.5,7.4c-0.9,1.5-3.2,2.2-4.8,1.5c-0.8-0.4-0.5-1.8-0.5-2.5
					c0.1-0.8,1.3-1.2,1.9-1.4c1-0.2,2.2,0.2,3.1,0.6c1.6,0.7,3.5,2.1,3.5,4c0,1.6,0,2.8-1.2,4c-1.5,1.5-4.1,2.5-6.2,2.2
					c-0.1,0,0.1-1.7,0-1.7c1.7,0.3,3.5-0.4,5-1.2c0.8-0.4,1.4-1.1,2-1.8c0.3-0.5,0.3-1.3,0.4-0.4c-0.1-0.4-0.3-0.8-0.5-1.1
					c-0.9-1.4-2.7-2.3-4.3-2.7c-1.2-0.3-3.4-0.1-3.6,1.4c0-0.6,0-1.1,0-1.7c0.2,1.2,2,1,2.8,0.8c1.7-0.3,2.9-1.7,3.1-3.4
					c0,0.5,0,1,0,1.6c0-2.7-2.6-4.5-5.1-3.8C80.6,85.8,80.3,84.2,80.4,84.1L80.4,84.1z"/>
			</g>
			<g>
				<path fill="#0091B5" d="M264.4,145.3c-1.2-0.9-2.8-1.7-4.1-0.6c-1.3,1.1-0.9,2.6-0.2,3.9c0.6,1.2,1.4,3,2.8,3.3
					c0.6,0.1,1.3-0.4,1.6-1c0.1-0.3,0.1-0.3,0.1,0.2c0-0.1-0.1-0.3-0.2-0.4c-0.1-0.3-0.4-0.5-0.6-0.7c-1.1-0.8-2.9,0.1-3.7,1
					c-1,1-1.3,2.6-1.5,4c-0.1,0.5,0.1,1.2,0.2,2.1c0.2,0.7,0.3,1.2,1,1.6c1.1,0.6,3.1,0.2,3.3-1.2c0,0.4,0,0.8,0,1.3
					c-0.1-1.3-2.7,0.4-3.1,0.7c-1.8,1.5-1.2,4.1,0.4,5.4c0.2,0.2-0.2,1.1,0,1.3c-2.8-2.3-2.1-9,2.2-9.1c0.6,0,0.5,0.7,0.5,1.1
					c0,0.8-0.1,1.4-0.8,1.8c-0.9,0.5-2.3,0.4-3-0.4c-0.6-0.6-0.6-2.1-0.7-2.9c-0.1-1.7,0-3.4,0.5-5c0.6-1.8,2.9-4.1,4.9-2.6
					c1,0.7,0.9,3,0.1,3.8c-2,1.9-4.1-2.7-4.5-4c-0.4-1.1-0.4-2.8-0.1-4c0.7-2.5,3.3-2,4.9-0.7C264.6,144.2,264.2,145.1,264.4,145.3
					L264.4,145.3z"/>
			</g>
			<g>
				<path fill="#ED3A4F" d="M45.9,52.8c-1.4,0.8-2,2.6-1.7,4.1c0.4,1.8,1.9,3.1,2.2,4.9c0.1,0.9,0.2,1.7,0.3,2.6
					c0.1,1.3-0.7,1.5-1.6,2.2c-3,2.1-1.3,5.4-1,8.4c0.4,3.5-0.2,6.4-1.8,9.6c0.2-0.4-0.4-1.3-0.2-1.8c0.9-1.9,1.7-3.8,2-5.9
					c0.2-2-0.5-3.8-0.8-5.7c-0.4-2.5-0.4-4.9,1.9-6.6c1.2-0.8,1.6-1.1,0.8-2.5c-0.8-1.5-1.6-2.7-1.8-4.4c-0.3-2.3-0.9-5.3,1.5-6.7
					C45.5,51.1,46.1,52.7,45.9,52.8L45.9,52.8z"/>
			</g>
			<g>
				<path fill="#ED3A4F" d="M246.3,45.6c2.6,0.6,5.2,2.5,7.3,4.1c2,1.5,3.3,2.9,3.3,5.4c0,2.4-0.2,3.9-2.1,5.7
					c-2.3,2.1-5.7,3.5-5.8,7.2c0-0.9,0-1.9,0-2.8c0.4,3.4,5.4,3.8,5.4,7.2c0,1.1,0.1,2.2,0,3.3c-0.3,2.7-3.6,3.2-3.7,6.2
					c0-1,0-2,0-2.9c0.3,2.2,1.4,3.8,2.7,5.4c0.5,0.6-0.5,2.4,0,3c-2-2.5-2.8-4.6-2.7-7.7c0-1.3,0-2.2,0.9-3.2
					c1.1-1.3,2.6-1.9,2.8-3.7c0,0.9,0,1.9,0,2.8c0-2.3-2.3-3.2-3.9-4.4c-1.6-1.3-1.6-2.9-1.6-4.7c0-2.4,0.5-4.1,2.3-5.7
					c2.1-1.9,5.4-3.3,5.5-6.5c0,1,0,2,0,2.9c-0.3-2.3-2.7-3.9-4.5-5.2c-1.8-1.3-3.9-2.7-6.1-3.2C246,48.6,246.4,45.7,246.3,45.6
					L246.3,45.6z"/>
			</g>
			<g>
				<path fill="#FDB913" d="M13.3,127.1c2.6,0.6,5.2,2.5,7.3,4.1c2,1.5,3.3,2.9,3.3,5.4c0,2.4-0.2,3.9-2.1,5.7
					c-2.3,2.1-5.7,3.5-5.8,7.2c0-0.9,0-1.9,0-2.8c0.4,3.4,5.4,3.8,5.4,7.2c0,1.1,0.1,2.2,0,3.3c-0.3,2.7-3.6,3.2-3.7,6.2
					c0-1,0-2,0-2.9c0.3,2.2,1.4,3.8,2.7,5.4c0.5,0.6-0.5,2.4,0,3c-2-2.5-2.8-4.6-2.7-7.7c0-1.3,0-2.2,0.9-3.2
					c1.1-1.3,2.6-1.9,2.8-3.7c0,0.9,0,1.9,0,2.8c0-2.3-2.3-3.2-3.9-4.4c-1.6-1.3-1.6-2.9-1.6-4.7c0-2.4,0.5-4.1,2.3-5.7
					c2.1-1.9,5.4-3.3,5.5-6.5c0,1,0,2,0,2.9c-0.3-2.3-2.7-3.9-4.5-5.2c-1.8-1.3-3.9-2.7-6.1-3.2C13,130.1,13.4,127.2,13.3,127.1
					L13.3,127.1z"/>
			</g>
			<g>
				<path fill="#ED3A4F" d="M69.4,23.6c-2,0.4-3.9,1.8-5.4,3c-1.5,1.1-2.5,2.2-2.5,4.1c0,1.8,0.1,3,1.6,4.3c1.7,1.6,4.3,2.7,4.3,5.4
					c0-0.7,0-1.4,0-2.1c-0.3,2.6-4,2.9-4.1,5.4c0,0.8-0.1,1.7,0,2.5c0.3,2,2.7,2.4,2.8,4.6c0-0.7,0-1.5,0-2.2c-0.2,1.6-1,2.8-2,4.1
					c-0.4,0.5,0.4,1.8,0,2.2c1.5-1.9,2.1-3.4,2.1-5.7c0-1,0-1.6-0.7-2.4c-0.8-1-1.9-1.4-2.1-2.8c0,0.7,0,1.4,0,2.1
					c0-1.7,1.8-2.4,2.9-3.3c1.2-0.9,1.2-2.2,1.2-3.5c0-1.8-0.4-3-1.7-4.3c-1.5-1.4-4.1-2.5-4.1-4.9c0,0.7,0,1.5,0,2.2
					c0.2-1.7,2-2.9,3.3-3.9c1.3-1,2.9-2.1,4.6-2.4C69.5,25.8,69.2,23.7,69.4,23.6L69.4,23.6z"/>
			</g>
			<g>
				<path fill="#0091B5" d="M217,72.1c-2.1,0.4-4,1.9-5.7,3.2c-1.5,1.2-2.6,2.3-2.6,4.2c0,1.9,0.1,3.1,1.6,4.4
					c1.8,1.7,4.5,2.8,4.5,5.6c0-0.7,0-1.5,0-2.2c-0.3,2.7-4.2,3-4.2,5.6c0,0.8-0.1,1.7,0,2.6c0.3,2.1,2.8,2.5,2.9,4.8
					c0-0.8,0-1.5,0-2.3c-0.2,1.7-1.1,2.9-2.1,4.2c-0.4,0.5,0.4,1.9,0,2.3c1.6-1.9,2.2-3.6,2.1-6c0-1,0-1.7-0.7-2.5
					c-0.8-1-2-1.4-2.2-2.9c0,0.7,0,1.5,0,2.2c0-1.8,1.8-2.5,3-3.5c1.2-1,1.2-2.2,1.2-3.7c0-1.9-0.4-3.2-1.8-4.5
					c-1.6-1.5-4.2-2.6-4.3-5.1c0,0.8,0,1.5,0,2.3c0.2-1.8,2.1-3,3.5-4c1.4-1,3.1-2.1,4.8-2.5C217.2,74.4,216.9,72.1,217,72.1
					L217,72.1z"/>
			</g>
			<g>
				<g>
					<circle fill="#ED3A4F" cx="58.6" cy="170.1" r="0.7"/>
				</g>
				<g>
					<circle fill="#ED3A4F" cx="31.7" cy="152.4" r="1.1"/>
				</g>
				<g>
					<circle fill="#ED3A4F" cx="55" cy="133.1" r="1.2"/>
				</g>
				<g>
					<circle fill="#ED3A4F" cx="49.6" cy="109.6" r="0.9"/>
				</g>
				<g>
					<circle fill="#ED3A4F" cx="48.9" cy="104.2" r="1.1"/>
				</g>
				<g>
					<circle fill="#ED3A4F" cx="50.1" cy="89.8" r="0.8"/>
				</g>
				<g>
					<circle fill="#ED3A4F" cx="39.2" cy="49" r="0.7"/>
				</g>
				<g>
					<circle fill="#ED3A4F" cx="65.4" cy="59.2" r="0.8"/>
				</g>
				<g>
					<circle fill="#ED3A4F" cx="61.3" cy="29.5" r="0.6"/>
				</g>
				<g>
					<circle fill="#ED3A4F" cx="99" cy="42.3" r="1.1"/>
				</g>
				<g>
					<circle fill="#ED3A4F" cx="108.1" cy="63.3" r="0.5"/>
				</g>
				<g>
					<circle fill="#ED3A4F" cx="130.1" cy="25.1" r="0.6"/>
				</g>
				<g>
					<circle fill="#ED3A4F" cx="139.6" cy="34.9" r="1.2"/>
				</g>
				<g>
					<circle fill="#ED3A4F" cx="146.2" cy="30.5" r="0.9"/>
				</g>
				<g>
					<circle fill="#ED3A4F" cx="175.8" cy="35.8" r="1"/>
				</g>
				<g>
					<circle fill="#ED3A4F" cx="208.8" cy="20.4" r="1.2"/>
				</g>
				<g>
					<circle fill="#ED3A4F" cx="219.1" cy="69.6" r="0.9"/>
				</g>
				<g>
					<circle fill="#ED3A4F" cx="267.4" cy="71.7" r="0.5"/>
				</g>
				<g>
					<circle fill="#ED3A4F" cx="259.7" cy="93.7" r="0.5"/>
				</g>
				<g>
					<circle fill="#ED3A4F" cx="275.1" cy="98.6" r="0.5"/>
				</g>
				<g>
					<circle fill="#ED3A4F" cx="250.8" cy="124.8" r="0.5"/>
				</g>
				<g>
					<circle fill="#ED3A4F" cx="267.7" cy="156" r="0.6"/>
				</g>
				<g>
					<circle fill="#ED3A4F" cx="280.8" cy="172.9" r="1"/>
				</g>
				<g>
					<circle fill="#ED3A4F" cx="262.2" cy="188.2" r="0.5"/>
				</g>
				<g>
					<circle fill="#ED3A4F" cx="256" cy="197.3" r="0.9"/>
				</g>
			</g>
			<g>
				<g>
					<circle fill="#0091B5" cx="20.5" cy="190.5" r="0.5"/>
				</g>
				<g>
					<circle fill="#0091B5" cx="46.7" cy="160.1" r="0.8"/>
				</g>
				<g>
					<circle fill="#0091B5" cx="15.1" cy="131.4" r="0.7"/>
				</g>
				<g>
					<circle fill="#0091B5" cx="22.8" cy="120" r="0.5"/>
				</g>
				<g>
					<circle fill="#0091B5" cx="50.8" cy="116.7" r="0.5"/>
				</g>
				<g>
					<circle fill="#0091B5" cx="62.7" cy="93.5" r="1.2"/>
				</g>
				<g>
					<circle fill="#0091B5" cx="59.2" cy="76.7" r="0.6"/>
				</g>
				<g>
					<circle fill="#0091B5" cx="65.7" cy="40" r="0.5"/>
				</g>
				<g>
					<circle fill="#0091B5" cx="86.5" cy="26.2" r="0.7"/>
				</g>
				<g>
					<circle fill="#0091B5" cx="111.8" cy="59.1" r="0.6"/>
				</g>
				<g>
					<circle fill="#0091B5" cx="139" cy="16.5" r="0.5"/>
				</g>
				<g>
					<circle fill="#0091B5" cx="166.8" cy="48.9" r="1"/>
				</g>
				<g>
					<circle fill="#0091B5" cx="196.3" cy="44.8" r="1.1"/>
				</g>
				<g>
					<circle fill="#0091B5" cx="215.6" cy="48" r="1.1"/>
				</g>
				<g>
					<circle fill="#0091B5" cx="222.2" cy="57.3" r="1"/>
				</g>
				<g>
					<circle fill="#0091B5" cx="237.9" cy="80.9" r="0.7"/>
				</g>
				<g>
					<circle fill="#0091B5" cx="270.3" cy="95.8" r="1.3"/>
				</g>
				<g>
					<circle fill="#0091B5" cx="270.5" cy="129.9" r="0.5"/>
				</g>
				<g>
					<circle fill="#0091B5" cx="259.6" cy="141.9" r="1"/>
				</g>
				<g>
					<circle fill="#0091B5" cx="282.8" cy="158.9" r="0.7"/>
				</g>
				<g>
					<circle fill="#0091B5" cx="237.8" cy="176.3" r="0.8"/>
				</g>
				<g>
					<circle fill="#0091B5" cx="264.1" cy="186.6" r="1"/>
				</g>
				<g>
					<circle fill="#0091B5" cx="252.1" cy="197" r="0.9"/>
				</g>
			</g>
			<g>
				<g>
					<circle fill="#FDB913" cx="21.9" cy="191.6" r="1"/>
				</g>
				<g>
					<circle fill="#FDB913" cx="23.1" cy="165.6" r="1.2"/>
				</g>
				<g>
					<circle fill="#FDB913" cx="11.8" cy="141.5" r="0.7"/>
				</g>
				<g>
					<circle fill="#FDB913" cx="22.1" cy="129.9" r="0.6"/>
				</g>
				<g>
					<circle fill="#FDB913" cx="22.5" cy="110.4" r="1.1"/>
				</g>
				<g>
					<circle fill="#FDB913" cx="38.3" cy="90.2" r="1.2"/>
				</g>
				<g>
					<circle fill="#FDB913" cx="44.1" cy="67.2" r="1.2"/>
				</g>
				<g>
					<circle fill="#FDB913" cx="70.3" cy="67.5" r="0.6"/>
				</g>
				<g>
					<circle fill="#FDB913" cx="81.5" cy="36.7" r="1.1"/>
				</g>
				<g>
					<circle fill="#FDB913" cx="102.8" cy="27.7" r="1.2"/>
				</g>
				<g>
					<circle fill="#FDB913" cx="119.5" cy="27.5" r="0.9"/>
				</g>
				<g>
					<circle fill="#FDB913" cx="146.5" cy="56.6" r="1.2"/>
				</g>
				<g>
					<circle fill="#FDB913" cx="172.5" cy="33.5" r="0.5"/>
				</g>
				<g>
					<circle fill="#FDB913" cx="194.2" cy="53.3" r="0.9"/>
				</g>
				<g>
					<circle fill="#FDB913" cx="214.6" cy="52.6" r="0.6"/>
				</g>
				<g>
					<circle fill="#FDB913" cx="242.6" cy="65" r="0.4"/>
				</g>
				<g>
					<circle fill="#FDB913" cx="259" cy="84.3" r="1.1"/>
				</g>
				<g>
					<circle fill="#FDB913" cx="261.8" cy="104.1" r="1.2"/>
				</g>
				<g>
					<circle fill="#FDB913" cx="271.2" cy="127.4" r="0.9"/>
				</g>
				<g>
					<circle fill="#FDB913" cx="249.8" cy="152.4" r="0.9"/>
				</g>
				<g>
					<circle fill="#FDB913" cx="269.5" cy="165.1" r="0.5"/>
				</g>
				<g>
					<circle fill="#FDB913" cx="237.2" cy="174.4" r="0.5"/>
				</g>
				<g>
					<circle fill="#FDB913" cx="263.8" cy="182.3" r="0.8"/>
				</g>
				<g>
					<circle fill="#FDB913" cx="261.4" cy="197.8" r="0.5"/>
				</g>
			</g>
		</g>
		<g>
			<defs>
				<rect id="XMLID_14_" x="0" y="0" width="288" height="288"/>
			</defs>
			<clipPath id="XMLID_4_">
				<use xlink:href="#XMLID_14_"  overflow="visible"/>
			</clipPath>
			<g clip-path="url(#XMLID_4_)">
				<g>
					<g>
						<polygon fill="#ED3A4F" points="-18.9,154.7 -26,155.6 -21.7,161.2 						"/>
					</g>
					<g>
						<polygon fill="#ED3A4F" points="21.4,136.9 18.8,140.6 23.4,141 						"/>
					</g>
					<g>
						<polygon fill="#ED3A4F" points="14.5,127.9 10.1,129.6 13.8,132.5 						"/>
					</g>
					<g>
						<polygon fill="#ED3A4F" points="-42.3,123.8 -37.1,123.2 -40.2,119 						"/>
					</g>
					<g>
						<polygon fill="#ED3A4F" points="-32.9,107.9 -27.2,108.4 -29.6,103.2 						"/>
					</g>
					<g>
						<polygon fill="#ED3A4F" points="-10.9,98.3 -9.6,93.8 -14.2,94.9 						"/>
					</g>
					<g>
						<polygon fill="#ED3A4F" points="10,88 15,93.4 17.2,86.4 						"/>
					</g>
					<g>
						<polygon fill="#ED3A4F" points="-10.9,73.8 -17.1,76.5 -11.8,80.5 						"/>
					</g>
					<g>
						<polygon fill="#ED3A4F" points="7,73.6 3.4,68.2 0.5,74 						"/>
					</g>
					<g>
						<polygon fill="#ED3A4F" points="18.9,62.5 22.4,56.9 15.8,56.7 						"/>
					</g>
					<g>
						<polygon fill="#ED3A4F" points="31.2,41.5 33.7,37.4 28.9,37.3 						"/>
					</g>
					<g>
						<polygon fill="#ED3A4F" points="53.7,42.6 46.4,40.2 48,47.7 						"/>
					</g>
					<g>
						<polygon fill="#ED3A4F" points="30.5,-3.5 27.7,0.1 32.2,0.8 						"/>
					</g>
					<g>
						<polygon fill="#ED3A4F" points="75.7,20.9 70.6,25.8 77.4,27.7 						"/>
					</g>
					<g>
						<polygon fill="#ED3A4F" points="93.9,26.4 94.6,18 87,21.5 						"/>
					</g>
					<g>
						<polygon fill="#ED3A4F" points="106.1,12.7 100.6,13.1 103.7,17.6 						"/>
					</g>
					<g>
						<polygon fill="#ED3A4F" points="113.7,-12.7 106.5,-13.7 109.2,-7 						"/>
					</g>
					<g>
						<polygon fill="#ED3A4F" points="124,-8.6 119.1,-4.7 124.9,-2.4 						"/>
					</g>
					<g>
						<polygon fill="#ED3A4F" points="134.6,-5.8 131,-10.5 128.7,-5.1 						"/>
					</g>
					<g>
						<polygon fill="#ED3A4F" points="147.7,-36.4 152.1,-30.7 154.9,-37.4 						"/>
					</g>
					<g>
						<polygon fill="#ED3A4F" points="157.2,13.4 151.4,18.8 158.9,21.1 						"/>
					</g>
					<g>
						<polygon fill="#ED3A4F" points="171.6,11.4 177.2,6.1 169.8,3.9 						"/>
					</g>
					<g>
						<polygon fill="#ED3A4F" points="198.6,-31 196.2,-36.5 192.7,-31.7 						"/>
					</g>
					<g>
						<polygon fill="#ED3A4F" points="213.8,-26.8 210.1,-21.4 216.7,-20.9 						"/>
					</g>
					<g>
						<polygon fill="#ED3A4F" points="220.2,-26.2 216.8,-21.6 222.5,-20.9 						"/>
					</g>
					<g>
						<polygon fill="#ED3A4F" points="222.1,15.4 225.9,10.4 219.7,9.6 						"/>
					</g>
					<g>
						<polygon fill="#ED3A4F" points="239.3,17.4 235.9,13.3 234,18.2 						"/>
					</g>
					<g>
						<polygon fill="#ED3A4F" points="227.2,42 228.1,37.5 223.7,39 						"/>
					</g>
					<g>
						<polygon fill="#ED3A4F" points="260.7,18.4 254.7,21.1 260,24.9 						"/>
					</g>
					<g>
						<polygon fill="#ED3A4F" points="275.3,24 279.4,23.7 277,20.4 						"/>
					</g>
					<g>
						<polygon fill="#ED3A4F" points="273.4,46.7 278.4,46 275.3,42 						"/>
					</g>
					<g>
						<polygon fill="#ED3A4F" points="242.7,65.2 249.6,67.8 248.4,60.6 						"/>
					</g>
					<g>
						<polygon fill="#ED3A4F" points="271.8,65.5 266.1,69.1 272,72.2 						"/>
					</g>
					<g>
						<polygon fill="#ED3A4F" points="278.8,80 284.4,77.4 279.4,73.9 						"/>
					</g>
					<g>
						<polygon fill="#ED3A4F" points="272.1,92.6 276.3,92.4 274,88.8 						"/>
					</g>
					<g>
						<polygon fill="#ED3A4F" points="257.5,102 260.9,106.2 262.9,101.1 						"/>
					</g>
					<g>
						<polygon fill="#ED3A4F" points="280.8,116.7 284.4,119.4 284.9,115 						"/>
					</g>
					<g>
						<polygon fill="#ED3A4F" points="302.3,137.1 297.6,133 296.4,139.1 						"/>
					</g>
					<g>
						<polygon fill="#ED3A4F" points="300.6,150.3 296.5,148.5 297,152.9 						"/>
					</g>
					<g>
						<polygon fill="#ED3A4F" points="274.2,165.9 278.7,163.3 274.2,160.7 						"/>
					</g>
					<g>
						<polygon fill="#ED3A4F" points="273.8,179.3 269.6,185 276.7,185.8 						"/>
					</g>
					<g>
						<polygon fill="#ED3A4F" points="256.7,195.5 251.9,192.5 251.7,198.1 						"/>
					</g>
					<g>
						<polygon fill="#ED3A4F" points="278.4,198.8 273.5,196.4 273.9,201.8 						"/>
					</g>
				</g>
				<g>
					<g>
						<polygon fill="#0091B5" points="68.5,185.7 66.7,179.6 62.3,184.2 						"/>
					</g>
					<g>
						<polygon fill="#0091B5" points="73.9,172.2 67.6,172.8 71.3,177.9 						"/>
					</g>
					<g>
						<polygon fill="#0091B5" points="14.9,162.1 9.6,158.2 8.9,164.8 						"/>
					</g>
					<g>
						<polygon fill="#0091B5" points="24.6,138.9 17,137.9 19.9,144.9 						"/>
					</g>
					<g>
						<polygon fill="#0091B5" points="38.8,124.7 35.9,127.6 39.9,128.6 						"/>
					</g>
					<g>
						<polygon fill="#0091B5" points="28.3,110.8 25.8,105.7 22.6,110.4 						"/>
					</g>
					<g>
						<polygon fill="#0091B5" points="59,96.1 59.5,88.4 52.6,91.8 						"/>
					</g>
					<g>
						<polygon fill="#0091B5" points="61.7,79.4 67,74.8 60.4,72.5 						"/>
					</g>
					<g>
						<polygon fill="#0091B5" points="18.2,70.7 11.1,71.5 15.3,77.3 						"/>
					</g>
					<g>
						<polygon fill="#0091B5" points="56.7,50 54,46 51.9,50.3 						"/>
					</g>
					<g>
						<polygon fill="#0091B5" points="21.1,32.2 25,37.9 28,31.7 						"/>
					</g>
					<g>
						<polygon fill="#0091B5" points="18.1,13.7 25.6,10.4 19.1,5.5 						"/>
					</g>
					<g>
						<polygon fill="#0091B5" points="44.3,14.8 47.6,9 41,9.1 						"/>
					</g>
					<g>
						<polygon fill="#0091B5" points="37.8,-38.2 36.8,-43.1 33,-39.7 						"/>
					</g>
					<g>
						<polygon fill="#0091B5" points="45,-41.8 47.8,-46 42.7,-46.4 						"/>
					</g>
					<g>
						<polygon fill="#0091B5" points="58.8,-41.8 63.6,-42.5 60.7,-46.3 						"/>
					</g>
					<g>
						<polygon fill="#0091B5" points="83.7,-24.1 89,-28.4 82.7,-30.9 						"/>
					</g>
					<g>
						<polygon fill="#0091B5" points="100.6,-42.8 105.4,-37.4 107.6,-44.3 						"/>
					</g>
					<g>
						<polygon fill="#0091B5" points="125.5,-8.2 121,-9.2 122.4,-4.8 						"/>
					</g>
					<g>
						<polygon fill="#0091B5" points="130.5,-13.8 134,-17.8 128.7,-18.9 						"/>
					</g>
					<g>
						<polygon fill="#0091B5" points="146.5,-15.7 148,-22.4 141.4,-20.4 						"/>
					</g>
					<g>
						<polygon fill="#0091B5" points="153.1,-26.8 150.1,-22.5 155.3,-22.1 						"/>
					</g>
					<g>
						<polygon fill="#0091B5" points="152.4,-72.1 155.7,-66.9 158.6,-72.4 						"/>
					</g>
					<g>
						<polygon fill="#0091B5" points="175.6,-31.5 176.8,-36.6 171.8,-35 						"/>
					</g>
					<g>
						<polygon fill="#0091B5" points="173.3,-63.2 176.9,-66 172.7,-67.7 						"/>
					</g>
					<g>
						<polygon fill="#0091B5" points="189.1,-67.4 183.2,-71.4 182.7,-64.3 						"/>
					</g>
					<g>
						<polygon fill="#0091B5" points="209.5,-81.1 201.6,-80.7 205.8,-74.1 						"/>
					</g>
					<g>
						<polygon fill="#0091B5" points="205.5,-30.1 202.6,-34.2 200.5,-29.6 						"/>
					</g>
					<g>
						<polygon fill="#0091B5" points="212.5,-38.8 208,-32.5 215.7,-31.8 						"/>
					</g>
					<g>
						<polygon fill="#0091B5" points="227,-68.5 226.1,-73.6 222.1,-70.3 						"/>
					</g>
					<g>
						<polygon fill="#0091B5" points="236,-56.3 239.8,-55.6 238.5,-59.3 						"/>
					</g>
					<g>
						<polygon fill="#0091B5" points="246.8,-41.5 251.9,-35.7 254.4,-43 						"/>
					</g>
					<g>
						<polygon fill="#0091B5" points="281.4,-45.4 285.6,-49.2 280.1,-50.9 						"/>
					</g>
					<g>
						<polygon fill="#0091B5" points="304.2,-29.7 307.6,-26.3 308.9,-31 						"/>
					</g>
					<g>
						<polygon fill="#0091B5" points="311.4,11.2 309,4.1 304.1,9.8 						"/>
					</g>
					<g>
						<polygon fill="#0091B5" points="291.6,24.2 290.1,20.4 287.6,23.7 						"/>
					</g>
					<g>
						<polygon fill="#0091B5" points="261.9,45 266.9,38.3 258.6,37.3 						"/>
					</g>
					<g>
						<polygon fill="#0091B5" points="262.4,61.2 258.2,56.2 255.9,62.3 						"/>
					</g>
					<g>
						<polygon fill="#0091B5" points="278.8,81 286.9,81.6 283.4,74.3 						"/>
					</g>
					<g>
						<polygon fill="#0091B5" points="271,87 267.7,79.3 262.8,86 						"/>
					</g>
					<g>
						<polygon fill="#0091B5" points="288.6,118.8 292,117 288.7,114.9 						"/>
					</g>
					<g>
						<polygon fill="#0091B5" points="260.2,112.4 259.7,104.5 253,108.8 						"/>
					</g>
					<g>
						<polygon fill="#0091B5" points="260.7,131.1 255.1,126.4 253.9,133.5 						"/>
					</g>
					<g>
						<polygon fill="#0091B5" points="276.5,151.6 280.8,146.2 273.9,145.2 						"/>
					</g>
					<g>
						<polygon fill="#0091B5" points="248.6,151.8 251.4,155.5 253.2,151.2 						"/>
					</g>
					<g>
						<polygon fill="#0091B5" points="247.1,174 248.8,165.9 241,168.5 						"/>
					</g>
					<g>
						<polygon fill="#0091B5" points="256.3,183.5 262.2,177.6 254.2,175.5 						"/>
					</g>
					<g>
						<polygon fill="#0091B5" points="253.6,191.5 258.4,191.3 255.8,187.3 						"/>
					</g>
					<g>
						<polygon fill="#0091B5" points="252.6,208.2 245.8,209.4 250.2,214.6 						"/>
					</g>
				</g>
				<g>
					<g>
						<polygon fill="#69C400" points="20.7,159.3 15.9,161 19.8,164.4 						"/>
					</g>
					<g>
						<polygon fill="#69C400" points="3.5,149.4 8.2,143.6 0.9,142.4 						"/>
					</g>
					<g>
						<polygon fill="#69C400" points="-15.9,141.6 -23,145 -16.5,149.5 						"/>
					</g>
					<g>
						<polygon fill="#69C400" points="-36.9,148.4 -37.2,141.2 -43.3,145 						"/>
					</g>
					<g>
						<polygon fill="#69C400" points="-18.6,121.4 -22.8,117.7 -23.9,123.2 						"/>
					</g>
					<g>
						<polygon fill="#69C400" points="-35.1,107.7 -40.2,109.4 -36.2,113 						"/>
					</g>
					<g>
						<polygon fill="#69C400" points="6.2,99 9.2,103.4 11.5,98.6 						"/>
					</g>
					<g>
						<polygon fill="#69C400" points="-40,92.5 -36.1,87.4 -42.6,86.5 						"/>
					</g>
					<g>
						<polygon fill="#69C400" points="-19.7,80.3 -15.4,85.1 -13.4,78.9 						"/>
					</g>
					<g>
						<polygon fill="#69C400" points="-40.2,57.2 -34.7,61.4 -33.8,54.6 						"/>
					</g>
					<g>
						<polygon fill="#69C400" points="6.8,58.9 11.9,65.6 15.1,57.8 						"/>
					</g>
					<g>
						<polygon fill="#69C400" points="-21.6,31.6 -18.7,26.4 -24.7,26.6 						"/>
					</g>
					<g>
						<polygon fill="#69C400" points="12.2,33.6 14.2,27.4 7.8,28.8 						"/>
					</g>
					<g>
						<polygon fill="#69C400" points="-6.8,7.1 -11.6,7.2 -9,11.3 						"/>
					</g>
					<g>
						<polygon fill="#69C400" points="36.8,24 34.2,20.4 32.4,24.4 						"/>
					</g>
					<g>
						<polygon fill="#69C400" points="28.8,17.2 33.3,11.1 25.8,10.3 						"/>
					</g>
					<g>
						<polygon fill="#69C400" points="44.3,15.3 45.3,9.2 39.6,11.3 						"/>
					</g>
					<g>
						<polygon fill="#69C400" points="37.7,-8.7 41.3,-15.5 33.6,-15.1 						"/>
					</g>
					<g>
						<polygon fill="#69C400" points="56.9,-12.1 59.6,-16.5 54.5,-16.6 						"/>
					</g>
					<g>
						<polygon fill="#69C400" points="75.1,-45.8 70.4,-44.9 73.6,-41.3 						"/>
					</g>
					<g>
						<polygon fill="#69C400" points="90.8,-34.9 85.3,-30.8 91.6,-28.1 						"/>
					</g>
					<g>
						<polygon fill="#69C400" points="113.6,-48.7 106.6,-48.2 110.6,-42.4 						"/>
					</g>
					<g>
						<polygon fill="#69C400" points="124.7,-14.4 119.2,-16.6 120,-10.8 						"/>
					</g>
					<g>
						<polygon fill="#69C400" points="131.8,-22.4 132,-28.2 126.8,-25.5 						"/>
					</g>
					<g>
						<polygon fill="#69C400" points="141.8,-18.3 141.6,-25.1 135.8,-21.5 						"/>
					</g>
					<g>
						<polygon fill="#69C400" points="145.9,2 151.7,-1.9 145.4,-5 						"/>
					</g>
					<g>
						<polygon fill="#69C400" points="169.4,-1.2 165.4,0.8 169.1,3.3 						"/>
					</g>
					<g>
						<polygon fill="#69C400" points="184.2,-7.5 186,-12.9 180.5,-11.7 						"/>
					</g>
					<g>
						<polygon fill="#69C400" points="204.8,-17.9 199.9,-17.6 202.6,-13.5 						"/>
					</g>
					<g>
						<polygon fill="#69C400" points="212.2,-34.2 211.9,-39.3 207.6,-36.5 						"/>
					</g>
					<g>
						<polygon fill="#69C400" points="224.9,-39 222.5,-35.7 226.5,-35.3 						"/>
					</g>
					<g>
						<polygon fill="#69C400" points="240.1,11.1 243.6,9.4 240.4,7.2 						"/>
					</g>
					<g>
						<polygon fill="#69C400" points="260.9,8.1 254.7,13.9 262.8,16.3 						"/>
					</g>
					<g>
						<polygon fill="#69C400" points="311.1,-4.2 305,0.2 311.8,3.3 						"/>
					</g>
					<g>
						<polygon fill="#69C400" points="275.5,24.9 268.7,25.5 272.6,31.1 						"/>
					</g>
					<g>
						<polygon fill="#69C400" points="294.1,48.7 299.9,52.7 300.4,45.7 						"/>
					</g>
					<g>
						<polygon fill="#69C400" points="278.5,58.9 272.3,55.3 272.3,62.5 						"/>
					</g>
					<g>
						<polygon fill="#69C400" points="243.9,61.7 239,59.9 239.9,65.1 						"/>
					</g>
					<g>
						<polygon fill="#69C400" points="275.2,79.3 268.9,76.2 269.4,83.3 						"/>
					</g>
					<g>
						<polygon fill="#69C400" points="265,88 259.5,86.1 260.6,91.8 						"/>
					</g>
					<g>
						<polygon fill="#69C400" points="244.3,98.6 249.7,100.2 248.4,94.7 						"/>
					</g>
					<g>
						<polygon fill="#69C400" points="272.6,110.4 279.1,110.2 275.6,104.7 						"/>
					</g>
					<g>
						<polygon fill="#69C400" points="263,123.1 257.1,126.5 263,129.9 						"/>
					</g>
					<g>
						<polygon fill="#69C400" points="262.2,137.7 258.2,143.6 265.2,144.2 						"/>
					</g>
					<g>
						<polygon fill="#69C400" points="261.2,151.8 254.5,152.1 258.1,157.8 						"/>
					</g>
					<g>
						<polygon fill="#69C400" points="233.2,166.1 238.4,160.6 231.1,158.8 						"/>
					</g>
					<g>
						<polygon fill="#69C400" points="264.5,178.7 258,175.7 258.6,182.8 						"/>
					</g>
					<g>
						<polygon fill="#69C400" points="256.4,191.6 264.5,189.7 258.9,183.6 						"/>
					</g>
					<g>
						<polygon fill="#69C400" points="238.6,202 243.4,205.9 244.4,199.8 						"/>
					</g>
				</g>
				<g>
					<g>
						<polygon fill="#FDB913" points="309,185.5 303.4,190.1 310.2,192.6 						"/>
					</g>
					<g>
						<polygon fill="#FDB913" points="283.9,164.7 279,169.1 285.3,171.2 						"/>
					</g>
					<g>
						<polygon fill="#FDB913" points="266.2,148 264,151.1 267.9,151.5 						"/>
					</g>
					<g>
						<polygon fill="#FDB913" points="267.5,131.5 272.9,137.3 275.2,129.7 						"/>
					</g>
					<g>
						<polygon fill="#FDB913" points="268.2,120.5 264.1,123 268.2,125.3 						"/>
					</g>
					<g>
						<polygon fill="#FDB913" points="268,106.3 262,107.5 266,112.1 						"/>
					</g>
					<g>
						<polygon fill="#FDB913" points="274.1,105.9 276.3,102.5 272.3,102.3 						"/>
					</g>
					<g>
						<polygon fill="#FDB913" points="319.8,88.1 315.5,90.5 319.7,93 						"/>
					</g>
					<g>
						<polygon fill="#FDB913" points="277.1,89.7 269.2,92.1 275.2,97.8 						"/>
					</g>
					<g>
						<polygon fill="#FDB913" points="280.6,61.7 277.1,69.3 285.4,68.5 						"/>
					</g>
					<g>
						<polygon fill="#FDB913" points="279.3,46.5 283.4,42.4 277.8,40.9 						"/>
					</g>
					<g>
						<polygon fill="#FDB913" points="250.5,46.2 255.7,41.1 248.7,39.1 						"/>
					</g>
					<g>
						<polygon fill="#FDB913" points="240.4,25.5 243.9,23.8 240.6,21.5 						"/>
					</g>
					<g>
						<polygon fill="#FDB913" points="228.7,21.8 226.1,18 224.1,22.2 						"/>
					</g>
					<g>
						<polygon fill="#FDB913" points="209.1,16.3 202.2,15.7 205.1,22 						"/>
					</g>
					<g>
						<polygon fill="#FDB913" points="208.4,-18.7 204.6,-17.5 207.6,-14.8 						"/>
					</g>
					<g>
						<polygon fill="#FDB913" points="192.4,-27.1 189.6,-21.4 195.9,-21.8 						"/>
					</g>
					<g>
						<polygon fill="#FDB913" points="171.2,17.9 167.4,19.4 170.6,21.9 						"/>
					</g>
					<g>
						<polygon fill="#FDB913" points="166.8,7.9 163.3,4.3 161.8,9.1 						"/>
					</g>
					<g>
						<polygon fill="#FDB913" points="149.6,10.2 153.8,9 150.6,5.9 						"/>
					</g>
					<g>
						<polygon fill="#FDB913" points="140.4,-25.1 146.9,-20.5 147.7,-28.5 						"/>
					</g>
					<g>
						<polygon fill="#FDB913" points="129,-8.4 131.5,-15 124.5,-13.8 						"/>
					</g>
					<g>
						<polygon fill="#FDB913" points="118.7,-18.8 114.1,-23 112.7,-16.8 						"/>
					</g>
					<g>
						<polygon fill="#FDB913" points="92.3,-35.7 96.3,-30.2 99,-36.4 						"/>
					</g>
					<g>
						<polygon fill="#FDB913" points="90.3,-5 86,1 93.3,1.7 						"/>
					</g>
					<g>
						<polygon fill="#FDB913" points="79.1,10.4 75.3,11 77.7,14 						"/>
					</g>
					<g>
						<polygon fill="#FDB913" points="50.1,-22.7 56.7,-27.2 49.4,-30.6 						"/>
					</g>
					<g>
						<polygon fill="#FDB913" points="41.1,-13.8 47.5,-18.2 40.4,-21.5 						"/>
					</g>
					<g>
						<polygon fill="#FDB913" points="39.1,-8.5 35.4,-15 31.6,-8.5 						"/>
					</g>
					<g>
						<polygon fill="#FDB913" points="53.6,25.8 45.8,23.9 48.1,31.7 						"/>
					</g>
					<g>
						<polygon fill="#FDB913" points="21.5,22.8 24.7,25.3 25.3,21.3 						"/>
					</g>
					<g>
						<polygon fill="#FDB913" points="11,23.7 6.1,21.2 6.4,26.7 						"/>
					</g>
					<g>
						<polygon fill="#FDB913" points="14,41 19.1,47.3 22,39.7 						"/>
					</g>
					<g>
						<polygon fill="#FDB913" points="43.5,62.4 49.5,64.1 48,58 						"/>
					</g>
					<g>
						<polygon fill="#FDB913" points="31,70.5 22.8,72.1 28.3,78.4 						"/>
					</g>
					<g>
						<polygon fill="#FDB913" points="6.8,92.1 4.8,86.5 1,91.1 						"/>
					</g>
					<g>
						<polygon fill="#FDB913" points="33.6,106.7 38.5,102.3 32.2,100.3 						"/>
					</g>
					<g>
						<polygon fill="#FDB913" points="7.4,128.6 4.4,121 -0.7,127.4 						"/>
					</g>
					<g>
						<polygon fill="#FDB913" points="52.2,124 46.9,124.9 50.4,129.1 						"/>
					</g>
					<g>
						<polygon fill="#FDB913" points="22.3,154 24.7,149.1 19.2,149.5 						"/>
					</g>
					<g>
						<polygon fill="#FDB913" points="40,157.6 31.9,159.9 37.9,165.7 						"/>
					</g>
					<g>
						<polygon fill="#FDB913" points="29.4,173.8 32.7,168.5 26.4,168.3 						"/>
					</g>
					<g>
						<polygon fill="#FDB913" points="43.8,181.3 37.1,181.6 40.7,187.2 						"/>
					</g>
				</g>
			</g>
		</g>
	</g>
</g>
</svg>
