<?xml version="1.0" encoding="utf-8"?>
<!-- Generator: Adobe Illustrator 18.0.0, SVG Export Plug-In . SVG Version: 6.00 Build 0)  -->
<!DOCTYPE svg PUBLIC "-//W3C//DTD SVG 1.1//EN" "http://www.w3.org/Graphics/SVG/1.1/DTD/svg11.dtd">
<svg version="1.1" id="Layer_1" xmlns="http://www.w3.org/2000/svg" xmlns:xlink="http://www.w3.org/1999/xlink" x="0px" y="0px"
	 viewBox="1008.4 -0.6 268.9 560.4" enable-background="new 1008.4 -0.6 268.9 560.4" xml:space="preserve">
<g>
	<g>
		<g>
			<g>
				<path fill="#F6B292" d="M1092.6,412.1c4.8,5.1,11.5,9.9,18.9,12.7c0.3,0.8,0.6,1.4,0.8,2c3.9,8.7,8.7,16.6,16.6,22.3
					c5.6,4.2,12.4,5.4,18.3,9l45.1,11c6.8,0,8.2-9.9,7.6-15.2c-2-11-11-16.3-18.6-22.3c-5.6-4.8-9.3-10.4-14.4-16.1
					c-4.2-4.2-9.9-6.5-14.6-9.9c-4.2-2.5-5.9-5.6-8.7-8.7c-2.5-8.7-4.8-19.2-12.4-23.7l-40.9,17.8
					C1079.3,391.6,1089.7,409,1092.6,412.1z"/>
				<path fill="#E48C69" d="M1122.9,435.4c11.5,14.4,23.9,18.6,41.1,23.4l28.2,7.6c10.4-15.2-16.1-31.8-23.9-41.1
					c-3.4-4.2-6.5-7-11.8-9.3c-4.8-2.5-10.4-2-14.4-4.5c-8.7-6.5-4.8-22.5-11.8-29.9c-9.6-9.3-24.5,3.7-24.8,14.4
					C1104,409.6,1114.7,425.3,1122.9,435.4z"/>
				
					<linearGradient id="SVGID_1_" gradientUnits="userSpaceOnUse" x1="516.4156" y1="-289.2537" x2="512.6094" y2="-275.9321" gradientTransform="matrix(-1.6562 -0.8693 0.8693 -1.6562 2241.6304 412.7767)">
					<stop  offset="0" style="stop-color:#914533"/>
					<stop  offset="1" style="stop-color:#E48C69"/>
				</linearGradient>
				<path fill="url(#SVGID_1_)" d="M1191.8,465.6c-6.2-21.1-31.5-25.4-45.6-38.3c-5.6-4.8-10.4-11.5-14.1-18.6
					c-2.5-4.8-7.3-25.9-11.5-27.9c-8.5-4.5-12.1,15.2-12.1,20.6c0.6,29.9,31,52.3,57.6,57.9L1191.8,465.6z"/>
			</g>
			<g>
				<path fill="#914533" d="M1191.8,468.8c7.6,0.3,9.3-9.9,8.7-15.5c-1.1-9.3-9-15.5-16.1-20.8c-4.2-3.1-7.9-7-11.5-11
					c-3.1-3.7-5.9-7-9.9-9.9c-3.7-2.5-7.6-4.5-11-6.8c-3.7-2.3-7.6-4.8-9.3-8.7c-0.3-0.8-2-0.3-1.4,0.3c2.8,6.5,10.4,9.9,16.1,13.2
					c3.1,2,6.5,3.9,9.3,6.8c3.7,3.7,6.8,8.2,10.4,12.1c5.9,6.8,14.6,10.7,19.4,18.6c2,3.7,2.8,7.9,2.5,12.1c-0.3,3.9-2,8.7-6.5,9
					C1191.2,468,1191.2,468.8,1191.8,468.8L1191.8,468.8z"/>
			</g>
			<g>
				<path fill="#914533" d="M1144.9,404c-0.8-2.8-0.8-5.6-1.4-8.5c-0.8-3.1-1.4-6.5-2.5-9.6c-1.7-4.8-4.2-12.1-9.6-14.1
					c-1.4-0.6-2.3,0.8-1.4,2c2,2,3.7,3.7,5.1,5.9c1.7,2.5,2.8,5.4,3.7,8.5c0.8,2.5,1.7,5.4,2.5,8.2c0.8,2.8,2,5.4,2.8,8.2
					C1144,404.8,1144.9,404.5,1144.9,404L1144.9,404z"/>
			</g>
		</g>
		<g>
			<path fill="#F6B292" d="M1217.4,498.4c4.5-9.3-1.1-20-8.2-25.4c-4.5-3.7-9.9-5.4-14.4-7.6c-6.8-3.1-10.4-7-16.1-12.1
				c-6.8-5.9-15.5-7.9-23.4-10.7c-7.9-2.8-18-2.5-23.1-9.9c-4.2-5.6-4.5-12.1-6.5-18.3c-2.5-8.2-8.2-15.5-11.5-23.1
				c-0.3-0.6-5.1,6.8-5.4,7.3c-1.4,3.4-2,7.3-2,11c-0.6,6.5-1.4,12.1-3.1,18.3c-3.4,11.3,2.3,20.6,9.9,28.7
				c15.5,17.7,41.4,33.2,65,35.5L1217.4,498.4z"/>
			<path fill="#914533" d="M1217.4,498.4c4.2-8.7,0.3-18.6-5.9-24.8c-4.5-4.5-10.4-6.5-16.1-9.3c-5.9-2.8-10.1-7-14.9-11.5
				c-5.4-4.5-11.5-7-18.3-9.3c-3.1-0.8-6.2-2-9.3-3.1c-3.1-0.8-6.5-1.4-9.3-2.3c-3.1-0.8-6.2-2.3-8.7-4.2c-2.5-2.3-4.2-5.6-5.1-8.7
				c-2-5.6-2.5-11.5-5.1-16.9c-2.5-5.6-5.9-11-8.7-16.6c-0.6-1.4-1.4-2.8-3.1-1.4c-1.1,0.8-2,2.3-2.5,3.4c-0.8,1.4-1.7,2.5-2.5,3.7
				c-1.4,2.3-1.7,5.4-2,7.6c-0.8,6.5-0.8,12.7-2.5,19.2c-1.4,5.4-2.3,9.6-1.1,14.9c0.8,4.8,3.7,9,6.5,12.7
				c6.5,8.7,15.2,16.3,24.2,22.5c13.2,9.3,29.3,16.9,45.6,17.7c0.8,0,0.8-1.4,0.3-1.4c-23.7-3.1-46.2-15.5-62.4-33
				c-7-7.6-14.4-17.2-12.1-27.9c0.6-2.8,1.4-5.6,2.3-8.7c0.9-3.1,1.1-6.5,1.4-9.9c0.6-5.4,0.6-10.7,3.7-14.9c0.8-0.8,1.4-2,2-3.1
				c0.3-0.3,0.6-0.8,0.8-1.1c0.3-0.3,0.8-0.8,0.3-0.6c-0.3-0.3-0.8-0.3-1.4-0.3c0.6,0.3,1.1,2.5,1.4,3.1c0.8,1.4,1.4,2.5,2.3,3.9
				c1.7,2.8,3.1,5.9,4.8,8.7c2.8,5.4,3.9,11.3,5.9,17.2c1.7,5.4,4.8,9.9,9.9,12.7c5.4,2.8,11.5,3.4,17.2,5.4
				c7,2.3,14.1,4.5,20.3,8.5c5.4,3.4,9.3,8.7,14.6,12.1c5.6,3.7,12.7,5.4,18.3,9.3c4.2,3.1,7.6,7.3,9.3,12.1c1.7,4.2,1.7,8.7-0.3,13
				C1216.9,498.4,1217.4,499,1217.4,498.4L1217.4,498.4z"/>
			<path fill="#E48C69" d="M1214.6,492.8c-0.8-10.7-8.5-15.2-16.6-18.3c-11.8-5.6-19.4-15.5-31-20.6c-13.8-5.4-28.5-3.4-37.7-16.6
				c-4.2-5.6-9.9-30.4-15.2-31.8c-8.7-2-9.9,13-9,17.5c1.4,16.1,12.1,29.3,25.9,37.7c23.9,14.6,57.9,15.5,78.5,36.6L1214.6,492.8z"
				/>
			
				<linearGradient id="SVGID_2_" gradientUnits="userSpaceOnUse" x1="501.4617" y1="-297.915" x2="501.4617" y2="-287.4484" gradientTransform="matrix(-1.6562 -0.8693 0.8693 -1.6562 2241.6304 412.7767)">
				<stop  offset="0" style="stop-color:#914533"/>
				<stop  offset="1" style="stop-color:#E48C69"/>
			</linearGradient>
			<path fill="url(#SVGID_2_)" d="M1212.9,493.3c-3.7-6.8-9.3-13.8-16.3-17.7c-10.7-5.9-22.5-14.6-34.4-17.7
				c-12.1-2.3-23.7-4.2-32.7-14.4c-8.2-9.3-8.7-25.4-17.7-34.1c-8.2,7.6-2,27.6,2.8,35.2c18.3,32.7,51.2,32.7,82.7,45.1
				L1212.9,493.3z"/>
		</g>
		<g>
			<path fill="#F6B292" d="M1170.8,512.2c7,4.2,16.9,3.1,24.8,4.8c8.7,1.4,26.5,8.2,27-5.4c1.1-19.4-26.8-31.5-40.8-40
				c-11.5-6.2-22.8-9.6-35.2-12.4c-5.9-1.4-16.6-5.1-20.8-9.6c-7-7-9.9-44.8-23.7-38.9c-24.8,10.7-4.2,60.5,6.5,73.1L1170.8,512.2z"
				/>
			<path fill="#E48C69" d="M1109.6,449.8c0.8,8.7-0.3,20.3,4.2,28.5c5.1,9.6,18.3,11.3,27.3,14.6c12.1,4.2,19.4,11,28.2,18.9
				l1.7,0.8c7,4.2,16.9,3.1,24.8,4.8c8.7,1.4,26.5,8.2,27-5.4c0.3-5.6-2-10.7-5.4-15.2l-1.4,1.1c2.8,9.9-13.2,8.7-18.3,7.6
				c-12.1-2.3-23.7-9.3-33.2-16.6c-7.6-5.9-13.5-14.4-22.3-18.9c-10.4-4.8-13.2-6.8-16.3-18.3c-0.3-0.8-0.6-2-0.8-2.8
				c-3.9-5.4-6.5-20.3-11-29.9C1104.6,418.3,1109.1,446.1,1109.6,449.8z"/>
			
				<linearGradient id="SVGID_3_" gradientUnits="userSpaceOnUse" x1="501.8026" y1="-313.5401" x2="495.4508" y2="-291.3086" gradientTransform="matrix(-1.6562 -0.8693 0.8693 -1.6562 2241.6304 412.7767)">
				<stop  offset="0" style="stop-color:#914533"/>
				<stop  offset="1" style="stop-color:#E48C69"/>
			</linearGradient>
			<path fill="url(#SVGID_3_)" d="M1113.9,446.4c1.7,9-3.9,31.3,4.8,35.8c4.8,2.5,11,1.4,16.1,4.5c6.5,3.7,13.2,9,19.4,13.5
				c4.2,3.4,7.6,6.5,11.3,9.3l5.9,2.5c7,4.2,16.9,3.1,24.8,4.8c8.7,1.4,26.5,8.2,27-5.4c0.3-3.4-0.6-6.5-2-9.6
				c-3.7,16.6-27.3,11.5-39.4,5.9c-7-3.4-15.5-8.2-21.1-13.2c-4.8-3.9-8.7-10.1-13.2-14.9c-4.8-4.8-10.7-5.9-15.8-9.9
				c-3.7-3.1-6.8-7.3-8.2-11.8c-2.5-7.9-3.7-16.6-5.1-24.8c-0.3-1.1-0.3-3.4-0.8-5.9c-1.4-4.2-2.8-8.2-4.5-11
				C1103.7,412.4,1113.3,443.6,1113.9,446.4z"/>
			<path fill="#914533" d="M1170.5,512.5c5.4,3.1,11.5,3.7,17.5,4.2c4.5,0.3,9,1.4,13.2,2.5c5.9,1.4,14.9,3.9,20-0.8
				c2.5-2.5,2.8-6.5,2.5-9.9c-0.3-3.7-2-7.3-4.2-10.4c-4.8-7-12.4-12.4-19.4-16.9c-3.7-2.3-7.6-4.5-11.5-6.5c-4.2-2.5-8.5-4.8-13-7
				c-5.9-2.8-12.1-4.8-18.3-6.8c-5.6-1.7-11.5-2.8-17.2-4.5c-4.8-1.7-10.4-3.7-14.4-7c-2-2-3.1-5.1-3.9-7.6c-1.1-3.7-2-7.6-3.1-11.3
				c-1.1-3.7-2.3-7.6-3.9-11c-2-4.8-5.6-11-11.5-9.9c-6.5,1.1-11,7.6-12.7,13.2c-2.3,7.3-1.4,15.5,0,22.8c1.7,8.2,4.5,16.3,8.2,23.9
				c2.5,5.4,5.4,10.7,8.7,15.2c0.6,0.8,1.7,0,1.1-0.8c-4.2-5.4-7.3-11.5-9.9-17.7c-3.4-8.2-5.9-16.6-7.3-25.1
				c-1.1-7.6-1.4-15.8,2.5-22.5c2.8-4.8,9.9-10.4,14.9-5.1c2.3,2.5,3.7,5.9,4.8,8.7c1.4,3.7,2.5,7.6,3.9,11.3
				c1.1,3.7,2.5,7,3.9,10.4c0.8,2.5,2,4.8,3.7,6.8c3.4,3.7,8.7,5.9,13.2,7.6c5.4,2,11,3.1,16.6,4.2c6.8,1.7,13.2,3.7,19.4,6.5
				c4.5,2,8.7,4.2,13.2,6.8c7.9,4.2,15.8,8.7,22.5,14.6c6.5,5.4,12.1,13,11,21.7c-1.1,8.7-12.7,5.9-18.3,4.8
				c-4.2-0.8-8.2-1.7-12.7-2c-6.5-0.6-13.2-0.3-18.9-3.1c-0.3-0.3-0.3-0.3-0.6-0.3C1170.5,511.4,1170.2,512.2,1170.5,512.5
				L1170.5,512.5z"/>
		</g>
	</g>
	<g>
		<path fill="#F6B292" d="M1044.8,22.9c-1.4,2.3-2.5,4.8-3.7,7.6c-4.8,12.4-5.4,27.3-13.2,38c-4.8,7-20.3,12.7-19.4,22.5
			c0.8,8.7,18.6,23.4,23.9,31c17.2,23.7,32.1,51.7,31.3,81.6c-0.8,27.6-8.7,57.4-19.4,83.3c-7.6,18-14.9,35.5-21.7,53.7
			c-4.8,13.2-1.1,24.2,5.4,35.8c0.8,1.7,2,3.1,3.1,4.5c0.8,17.7,14.6,33.8,19.2,50c3.4,12.7,7.6,24.8,11,37.5
			c2.3,11,3.1,24.2,9.6,33.2c4.8,6.5,12.1,8.7,19.2,12.7c8.7,4.5,16.9,9.3,25.6,13.5c15.5,7.3,30.4,14.9,46.2,22
			c7.3,3.4,22.5,11,31,7.6l-0.8-0.8l1.1,0.8c7.9-8.7-2.5-27.3-7.9-34.4c-5.9-7.6-16.6-18-27-20.8c-6.2-11.3-21.1-19.7-33.2-23.1
			l-3.9-4.8c0.3-12.4-5.9-29.3-7.6-35.5c-3.4-11.5,3.4-25.1,4.5-36.9c0.8-5.4,1.7-13,3.9-17.2c4.2-1.4,8.5-3.1,12.1-4.2
			c11.5-3.7,22.5-7.6,33.5-12.1c4.8,2.3,9.9,4.8,14.4,7.3l0.6-0.3c2,4.5,4.5,8.7,5.9,13.2c8.2,28.2,11,57.4,27.6,82.2
			c9.9,14.9,24.5,40.3,46.5,35.5c6.5-1.4,13.5-8.7,14.4-15.5v-0.3c0-0.3,0-0.6,0-0.8c0.6-12.1-4.8-25.6-9.3-36.6
			c-5.4-13.2-7-31.5-15.5-42.5l0.6-0.3c-0.3,0-0.6-0.3-0.8-0.3c0.3-1.1,0.3-2.3,0.3-3.7c-0.6-15.2-6.2-29.3-7-44.5
			c-0.8-15.2-0.6-27-5.9-40.6c0.6-2.5,0.8-5.4,1.1-8.5c0.8-6.8,1.4-13.5,2-20.3c0.8-13.2-0.3-26.5-3.7-39.4
			c-6.8-23.9-18.9-45.9-30.4-67.8c-5.9-10.7-11.5-21.4-16.9-32.7c-5.4-11-9.3-22.5-14.4-33.8c-11-25.4-25.1-49.8-39.4-73.7
			c-3.1-5.9-6.8-11-9.9-16.1c-3.3-11.4-9.2-16.2-19.4-22.1C1084.4-7,1057.9-0.5,1044.8,22.9z"/>
		<g>
			<path fill="#E48C69" d="M1185.4,522.5c-5.9-7.6-16.6-18-27-20.8c-6.2-11.3-21.1-19.7-33.2-23.1l-3.9-4.8
				c0.3-12.4-5.9-29.3-7.6-35.5c-3.4-11.5,3.4-25.1,4.5-36.9c0.8-5.4,1.7-13,3.9-17.2c4.2-1.4,8.5-3.1,12.1-4.2
				c11.5-3.7,22.5-7.6,33.5-12.1c2.5,1.1,4.8,2.3,7.3,3.7c-9.9-8.7-27.6-13.2-38.3-14.6l-0.6,0.6c9.9,13.2,9.3,17.2-7.9,22.5
				c-12.1,3.9-17.7,2.8-23.1,14.4c-14.1,27.9-3.1,51.2,1.4,80.7c2.3,12.7,5.4,15.5,15.5,20c8.2,3.4,18.9,3.9,25.6,9.6
				c3.4,3.4,4.5,9,7.6,12.1c12.7,12.7,36.1,16.3,37.2,40.8c0.3,0,0.6-0.3,0.8-0.3l-0.8-0.8l1.1,0.8
				C1201.1,548.2,1190.7,529.6,1185.4,522.5z M1084.4,12.7c17.2,28.2,31,56.2,45.6,85.8c26.8,54.5,59.6,108,71.4,168.4
				c2.5,13.5-2.5,27,0,40.3c2.8,14.9,13.2,25.9,22,37.7c8.7,12.4,7.9,24.5,12.4,38c1.1,3.4,5.4,30.4-2,30.4c9.3,0,9.3,6.8,3.9,12.1
				c9.3,0,12.7,10.1,2.8,14.4c11,1.7,13.2,16.6,16.1,20.6c4.5,6.8,19.4,20.6,15.5,29.9c2,2.5,1.4,5.4,0.8,8.7c2-2.5,3.1-5.4,3.4-7.9
				v-0.3c0-0.3,0-0.6,0-0.8c0.6-12.1-4.8-25.6-9.3-36.6c-5.4-13.2-7-31.5-15.5-42.5l0.6-0.3c-0.3,0-0.6-0.3-0.8-0.3
				c0.3-1.1,0.3-2.3,0.3-3.7c-0.6-15.2-6.2-29.3-7-44.5c-0.8-15.2-0.6-27-5.9-40.6c0.6-2.5,0.8-5.4,1.1-8.5c0.8-6.8,1.4-13.5,2-20.3
				c0.8-13.2-0.3-26.5-3.7-39.4c-6.8-23.9-18.9-45.9-30.4-67.8c-5.9-10.7-11.5-21.4-16.9-32.7c-5.4-11-9.3-22.5-14.4-33.8
				c-11-25.4-25.1-49.8-39.4-73.7c-3.1-5.9-6.8-11-9.9-16.1c-2.8-11.5-8.7-16.3-18.9-22.3c-10.4-6.2-20.8-8.5-31-7.3
				C1079,4.6,1082.4,9.6,1084.4,12.7z"/>
			
				<linearGradient id="SVGID_4_" gradientUnits="userSpaceOnUse" x1="600.9359" y1="-289.6051" x2="583.4916" y2="-234.7352" gradientTransform="matrix(-1.6562 -0.8693 0.8693 -1.6562 2241.6304 412.7767)">
				<stop  offset="0" style="stop-color:#E48C69"/>
				<stop  offset="1" style="stop-color:#F6B292"/>
			</linearGradient>
			<path fill="url(#SVGID_4_)" d="M1033.5,358.6c1.1-28.5,21.4-60.2,32.1-85.8C1062.1,304.9,1045.9,330.4,1033.5,358.6z"/>
			
				<linearGradient id="SVGID_5_" gradientUnits="userSpaceOnUse" x1="620.7115" y1="-259.7251" x2="552.2037" y2="-207.3924" gradientTransform="matrix(-1.6562 -0.8693 0.8693 -1.6562 2241.6304 412.7767)">
				<stop  offset="0" style="stop-color:#FADBCA"/>
				<stop  offset="1" style="stop-color:#F6B292"/>
			</linearGradient>
			<path fill="url(#SVGID_5_)" d="M1039.7,32.5c-1.4,4.2-2,8.5-2.3,12.7c-0.3,3.1-0.6,5.9-1.1,8.7c-0.8,3.7-3.7,5.4-5.9,8.5
				c-4.2,5.4,1.4,13.8,4.8,18.3c5.1,7,11.3,12.7,15.8,20c6.5,11,12.7,21.7,18.3,33c9.9,20,17.5,41.4,22,63.3
				c7.6,34.6,8.2,68.6-3.1,102.1c-5.9,18.3-13.2,36.1-26.8,50c-5.1,5.4-10.4,10.1-14.9,16.1c-4.8,6.2-7,13.8-7,21.4
				c0,0.8,0.8,1.4,1.4,1.1c1.7,8.5,6.5,17.2,10.4,23.4c5.1,8.2,7.9,17.5,9.9,26.8c2,9.3,4.2,18.3,6.5,27.3
				c2.5,9.9,5.6,19.7,10.4,28.7c2,3.7,4.2,7.3,7,10.4c3.7,3.9,8.5,6.5,13.2,8.7c11.5,5.4,23.7,9.3,34.9,15.5
				c10.7,5.9,20.6,13.8,32.1,17.7l-0.3,0.6c0,0,0,0-0.3,0c-0.6,0-0.6,0.8,0,0.8c11.5-0.3,1.4-9.9-2.5-13.2c-4.2-3.7-8.7-6.8-13-10.1
				c-5.9-4.2-11-9-17.5-12.1c-9.6-4.8-20.6-7-28.2-14.9c-7.3-7.6-10.4-18-12.7-27.6c-6.5-27-8.7-55.7,6.5-81
				c7.6-13.2,19.2-18.9,29.3-29.9c11-11.5,11.8-14.9,28.5-9.6c9.9,3.1,18.6,9.3,27.6,13.8c13.8,6.8,22.5,21.1,27.6,35.5
				c-0.3,0.3-0.3,0.6-0.3,0.8c0.8,5.6,1.4,23.7,11.5,21.4c6.2-1.4,7.3-7,7-12.7c-0.3-8.2-2.8-16.6-5.1-24.2
				c-1.4-4.2-2.8-8.7-4.2-13.2c-1.1-3.9-2-8.2-3.7-12.1c-5.1-11.8-17.2-16.6-21.1-29.3c-4.5-13.2-4.8-27.3-5.9-41.1
				c-2-26.5-13.2-52.6-26.8-75.4c-5.9-9.9-8.5-20.6-14.1-30.7c-7.3-13.2-15.5-25.9-21.4-39.7c-10.4-23.1-20-46.7-29-70.3
				c-6.2-16.3-10.1-36.1-23.9-47.8c-5.6-4.8-14.4-7.9-21.7-6.2C1045.3,19.2,1041.7,26.3,1039.7,32.5z"/>
			<path fill="#EE9F7F" d="M1148.2,82.8c13.8,25.9,25.1,54,38.6,80.5c12.1,23.4,24.8,46.9,35.5,71.2c5.4,12.1,5.9,24.8,7.6,38
				c1.1,9.3,6.5,27.9-2.3,33.5c5.9,17.2,12.7,31,12.7,49.8c0,9.3,0.8,17.7,2.5,27c1.4,7.3,6.5,17.5,2,24.2c3.4,2.3,2.5,4.8,3.7,7.3
				c0,0-0.3,2.8,0.3,3.7c0.6,1.4,3.1,0.8,3.7,2.3c2.3,5.6,0.3,9.9,2,15.2c2.5,9.9,11.8,19.4,16.6,29v-2.5c-1.1-3.1-2.3-5.9-3.4-8.7
				c-5.4-13.2-7-31.5-15.5-42.5l0.6-0.3c-0.3,0-0.6-0.3-0.8-0.3c0.3-1.1,0.3-2.3,0.3-3.7c-0.6-15.2-6.2-29.3-7-44.5
				s-0.6-27-5.9-40.6c0.6-2.5,0.8-5.4,1.1-8.5c0.8-6.8,1.4-13.5,2-20.3c0.8-13.2-0.3-26.5-3.7-39.4c-6.8-23.9-18.9-45.9-30.4-67.8
				c-5.9-10.7-11.5-21.4-16.9-32.7c-5.4-11-9.3-22.5-14.4-33.8c-11-25.4-25.1-49.8-39.4-73.7c-3.1-5.9-6.8-11-9.9-16.1
				c-2.8-11.3-8.7-16.1-18.9-22.1c-2-1.1-3.9-2-5.9-3.1c5.4,12.7,17.2,25.9,23.7,36.1C1134.7,54,1140.9,68.7,1148.2,82.8z"/>
		</g>
		<path fill="#914533" d="M1011.3,95.9c14.1,16.3,26.8,33.8,36.9,52.9c5.1,9.6,9.3,19.7,12.1,30.4c2.8,11,3.7,21.7,2.5,33
			c-2,26.5-9.6,52.9-20,76.8c-5.6,13.5-11.3,27-16.6,40.6c-2.3,5.9-5.4,11.8-6.5,18c-0.8,4.5-0.6,9,0.3,13.2c2,7.9,7,14.4,11,21.1
			c0,0.3,0.3,0.3,0.3,0.3c1.4,14.6,10.4,28.2,16.1,41.4c2.3,5.4,3.7,10.4,5.1,16.1c2,6.8,4.2,13.5,5.9,20.3
			c1.7,6.2,3.1,12.7,4.2,18.9c0.8,5.6,2,11,3.9,16.6c2,5.4,5.1,9.9,9.9,13c2.5,1.7,5.4,3.1,8.2,4.2c3.1,1.4,6.5,3.1,9.3,4.8
			c6.5,3.7,12.7,7,19.4,10.4c6.5,3.4,13.2,6.5,19.7,9.9c11.3,5.9,23.1,11.3,34.6,16.6c7.6,3.4,16.9,7.6,25.1,4.5
			c0.3,0,0.3-0.3,0.3-0.3c0.3,0,0.3-0.3,0.3-0.3s0,0,0.3,0c7.9-7.9,1.4-21.4-3.1-29.3c-6.8-11.5-18.3-20.3-30.1-25.9
			c-0.3-0.3-0.6,0-0.8,0.3c-2-4.2-5.4-8.2-9-11.5c-8.2-7-18.9-12.1-29.3-13.8c1.1-6.2,0.8-12.4-0.3-18.9c-0.8-4.2-2-8.2-3.1-12.1
			c-1.4-4.2-3.1-8.2-3.7-12.7c-0.8-8.2,2-16.3,3.9-23.9c0.8-3.7,1.4-7.6,2-11.5c0.6-4.2,1.1-9,3.4-12.7c0.3-0.3,0.3-0.3,0-0.6
			c15.2-3.9,30.1-8.7,44.5-15.5c4.8,2,9.9,4.5,14.4,7c0.3,0,0.3,0,0.3-0.3c4.8,9.6,7,20.6,9.9,30.4c3.1,11.5,5.9,23.1,9.3,34.4
			s8.2,22,14.4,31.5c5.9,8.7,11.5,17.7,18.9,25.4c7.6,7.3,16.9,11.8,27.3,9.9c4.5-0.8,8.2-3.7,11.3-7c2.5-3.1,3.9-6.8,3.7-11
			c0.3-7-0.8-14.1-2.5-20.8c-2.3-7.3-5.4-14.4-7.6-21.4c-3.7-12.7-4.2-27.6-14.1-37.5l0,0c0.3-8.2-0.8-15.8-2.3-23.7
			c-1.7-8.2-3.7-16.6-3.9-24.8c-0.6-13.5-1.4-28.2-7-40.8c0.3,0,0.3-0.3,0.3-0.3c2-11.8,3.7-23.7,3.9-35.8c0.3-12.4-2-24.2-5.4-36.1
			c-8.2-25.6-22-48.6-34.4-72.3c-6.8-12.7-13.2-25.4-18.3-38.9c-4.8-12.7-10.4-25.4-16.3-37.7c-6.5-12.8-13.6-24.6-20.6-36.7
			c-3.7-5.9-7-12.1-10.7-18c-3.7-5.9-7-11.5-10.7-17.5c-0.8-1.4-2-3.1-2.8-4.8c-0.3-0.8-1.4,0-1.1,0.8c3.1,5.9,7,11.5,10.4,17.2
			c3.7,5.9,7,12.1,10.4,18c7,12.1,13.5,24.2,20,36.9c12.7,24.8,22,51.2,34.9,76c12.7,23.9,26.2,47.8,34.9,73.4
			c4.2,12.1,6.5,24.2,6.8,36.9c0.3,12.1-1.4,24.2-2,36.1c0,0.3,0,0.8,0,0.8c-0.3-0.8-0.8-1.7-1.1-2.5c-0.3-0.3-0.8,0-0.8,0.3
			c3.1,7.3,5.4,14.4,5.9,22c0.8,7.6,0.3,14.9,0.8,22.5c0.8,16.1,7,31.5,7.6,47.5c-6.8-1.4-13.8,3.1-19.7,5.9c-0.3,0.3,0,0.8,0.3,0.8
			c3.1-1.4,5.9-2.5,9.3-3.7c3.4-1.1,7.3-2.5,11-2c7.3,11.5,8.7,24.5,12.4,37.2c3.7,13.2,11.5,26.2,11.8,40.6v0.3
			c0.3,4.2-3.1,9-6.2,12.1c-3.9,3.9-8.7,5.4-14.1,5.4c-11.3-0.3-20-9.3-26.5-17.5c-3.4-4.2-6.5-8.7-9.3-13.2
			c-3.1-4.8-6.2-9.3-8.7-14.1c-5.9-10.4-9.6-22-12.7-33.8c-2.5-9.6-3.9-19.2-6.5-28.7c-1.4-4.8-2.5-9.9-4.5-14.6
			c-2-4.5-4.2-8.7-7-12.7c-0.3-0.3-0.8,0-0.6,0.3c0.8,1.1,1.4,2.3,2,3.4c-6.5-3.7-13.2-7.3-20.6-10.1c-7-2.8-14.1-4.5-21.4-5.9
			c-0.3,0-0.6,0.6-0.3,0.6c9,2,17.7,4.8,26.2,8.7c-17.2,6.8-34.6,12.4-52.3,17.7c-0.3,0.3-0.3,0.8,0.3,0.8c2.3-0.6,4.2-1.1,6.5-1.7
			c-3.1,7-3.1,15.5-4.2,22.5c-1.4,7.9-4.2,15.8-4.5,23.7c-0.3,3.9,0.8,7.3,2,11c1.4,4.2,2.8,8.7,3.9,13c2.3,8.7,3.1,18.3,1.7,27
			c0,0.3,0.6,0.6,0.6,0.3c0.3-1.4,0.8-2.8,0.8-4.2c9.9,2.5,19.2,7,27,13.5c7.9,6.5,14.9,15.5,12.7,25.9c0,0.3,0.6,0.6,0.6,0.3
			c1.1-5.4,0.3-10.1-1.4-14.9c10.7,5.6,20.8,14.1,27.3,24.2c2.8,4.5,5.4,9.3,6.8,14.6c1.4,4.8,2.3,10.7-1.1,14.9l0,0c0,0,0,0-0.3,0
			c-4.2,1.4-9.3,0-13.2-1.1c-4.8-1.4-9-3.4-13.2-5.4c-12.1-5.6-24.2-11.5-36.3-17.2c-13.2-5.9-26.2-13-39.2-20
			c-5.6-3.1-11.8-5.9-16.6-10.4c-4.2-4.2-6.2-10.4-7.6-16.1c-1.4-5.4-2-10.4-3.1-15.8c-1.1-6.2-3.1-12.1-5.1-18
			c-2-6.2-3.9-12.4-5.9-18.6c-1.4-4.5-2.5-9-4.8-13.5c-7-16.1-19.7-32.1-14.9-50.6c0.3-0.8-0.8-0.8-1.1-0.3c-0.8,3.7-1.1,7-0.8,10.4
			c-2-4.2-4.2-8.5-5.9-13c-2-4.2-3.4-8.5-3.7-13.2c-0.6-5.6,1.1-10.7,3.1-15.8c2.5-7,5.4-14.1,8.2-21.1c5.4-13.2,11-26.2,16.1-39.4
			c4.5-12.1,8.2-24.5,11-37.2c5.1-22.5,7.6-46.2,0.8-68.4c-6.2-20.8-18-39.4-31.3-56.5c-5.6-7.3-11.5-14.4-17.7-21.4
			C1011.5,94.5,1010.7,95.3,1011.3,95.9z M1241.6,487.7c0.8,2,2.3,3.4,3.7,4.8c3.1,2.5,7,3.9,11.3,4.2c2.3,0,4.5-0.3,6.8-1.1
			c2.3-0.8,4.2-2,6.2-3.4c1.4-1.1,3.1-2.5,3.7-4.8c0.6-1.7,0.3-3.4-0.3-4.8c-0.8-2.5-2.5-4.8-3.7-7c-2-3.7-3.1-7.9-5.4-11.5
			c-0.8-1.4-2-2.8-3.4-3.7c-1.4-0.9-3.1-0.8-4.8-0.3c-2.3,0.8-4.2,2.5-6.2,3.7c-2,1.4-3.7,3.1-5.4,4.8c-1.4,1.7-2.5,3.7-3.7,5.9
			c-0.8,2.3-1.1,4.5-0.8,7C1239.9,483.5,1240.4,485.7,1241.6,487.7z M1251.7,462.5c1.7-1.4,3.7-2.5,5.9-2.5c1.7,0,3.1,1.1,4.2,2.5
			c1.4,1.4,2,3.4,3.1,5.4c0.8,2,1.7,4.2,2.5,5.9c0.3,0.8,0.8,1.4,0.8,2.3c0.8,1.7,2,3.4,3.1,5.1c0.8,1.7,1.4,3.4,1.4,5.4
			c-0.3,2-1.4,3.7-2.8,5.1c-2,1.7-3.9,2.8-6.2,3.7c-2.3,0.9-4.5,1.4-7,1.4c-2,0-4.2-0.3-6.5-1.1c-3.9-1.4-7.3-4.2-9-8.2
			c-2-4.5-2-9.9,0.3-14.1C1243.8,468.6,1247.8,465.3,1251.7,462.5z M1221.9,441.3c-0.8,0-0.8,1.1-0.3,1.1c6.2,1.4,13.8-0.8,19.4-3.1
			c5.6-2.3,12.7-5.9,13.8-12.7c0-0.3-0.6-0.6-0.6-0.3c-1.4,6.5-9,9.6-14.6,11.5C1234,440.2,1227.9,441.3,1221.9,441.3z M1246.6,418
			c-4.5,2.5-8.7,5.4-13.2,7.6c-4.2,2.5-8.5,5.4-11.8,8.7c-0.3,0.3,0.3,0.8,0.3,0.3c3.7-3.7,8.2-6.2,12.7-8.7c4.2-2.3,9.3-4.2,13-7.3
			C1247.8,418.6,1247.2,417.8,1246.6,418z"/>
	</g>
</g>
<text transform="matrix(1 0 0 1 1096.1523 272.8564)" font-family="'FingerPaint-Regular'" font-size="126.7962">L</text>
</svg>
