<?xml version="1.0" encoding="utf-8"?>
<!-- Generator: Adobe Illustrator 18.0.0, SVG Export Plug-In . SVG Version: 6.00 Build 0)  -->
<!DOCTYPE svg PUBLIC "-//W3C//DTD SVG 1.1//EN" "http://www.w3.org/Graphics/SVG/1.1/DTD/svg11.dtd">
<svg version="1.1"
	 id="svg1878" xmlns:inkscape="http://www.inkscape.org/namespaces/inkscape" xmlns:rdf="http://www.w3.org/1999/02/22-rdf-syntax-ns#" xmlns:cc="http://creativecommons.org/ns#" xmlns:sodipodi="http://sodipodi.sourceforge.net/DTD/sodipodi-0.dtd" xmlns:dc="http://purl.org/dc/elements/1.1/" xmlns:svg="http://www.w3.org/2000/svg" sodipodi:docname="pivot.svg" inkscape:version="0.92.4 (5da689c313, 2019-01-14)"
	 xmlns="http://www.w3.org/2000/svg" xmlns:xlink="http://www.w3.org/1999/xlink" x="0px" y="0px"
	 viewBox="537.3 -33.4 483.2 553.1" enable-background="new 537.3 -33.4 483.2 553.1" xml:space="preserve">
<sodipodi:namedview  inkscape:cy="18.257" borderopacity="1" inkscape:zoom="6.4632744" objecttolerance="10" guidetolerance="10" id="namedview11" pagecolor="#ffffff" showgrid="false" inkscape:cx="13.8885" bordercolor="#666666" gridtolerance="10" inkscape:current-layer="svg1878" inkscape:window-maximized="1" inkscape:pageshadow="2" inkscape:window-y="-8" inkscape:window-x="-8" inkscape:pageopacity="0" inkscape:window-width="1440" inkscape:window-height="837">
	</sodipodi:namedview>
<g id="layer1" transform="translate(-265.65 -73.096)">
	
		<linearGradient id="path10089_1_" gradientUnits="userSpaceOnUse" x1="685.9661" y1="-455.3188" x2="701.5742" y2="-438.7355" gradientTransform="matrix(0 24.0748 -16.5123 0 -6463.3018 -16423.5996)">
		<stop  offset="0" style="stop-color:#FF2A26"/>
		<stop  offset="1" style="stop-color:#96000D"/>
	</linearGradient>
	<path id="path10089" fill="url(#path10089_1_)" stroke="#6B1A11" stroke-width="1.75" stroke-linejoin="round" d="M1049.8,372
		h-50.6V40.6H854.7V372h-50.8l123.1,220L1049.8,372L1049.8,372z"/>
</g>
<g>
	<g>
		<g>
			<g>
				<path fill="#F6B292" d="M943.3,347.8L905,331.2c-7.1,4.2-9.3,14-11.6,22.2c-2.6,2.9-4.2,5.8-8.2,8.2c-4.5,3.2-9.8,5.3-13.7,9.3
					c-4.8,5.3-8.2,10.6-13.5,15.1c-7.1,5.5-15.6,10.6-17.5,20.9c-0.6,5.1,0.8,14.3,7.1,14.3l42.3-10.3c5.5-3.5,11.9-4.5,17.2-8.4
					c7.4-5.3,11.9-12.7,15.6-20.9c0.3-0.6,0.6-1,0.8-1.9c6.8-2.6,13.2-7.1,17.7-11.9C943.7,364.8,953.6,348.4,943.3,347.8z"/>
				<path fill="#E48C69" d="M929,352.6c-0.3-10-14.3-22.2-23.3-13.5c-6.6,6.8-2.9,22-11.1,28.1c-3.7,2.3-9,1.9-13.5,4.2
					c-5.1,2.2-8,4.8-11.1,8.7c-7.4,8.7-32.3,24.3-22.4,38.6l26.5-7.1c16.1-4.5,27.8-8.4,38.6-22C920.3,380.1,930.3,365.3,929,352.6z
					"/>
				
					<linearGradient id="SVGID_1_" gradientUnits="userSpaceOnUse" x1="628.4536" y1="897.1198" x2="624.6475" y2="883.7982" gradientTransform="matrix(1.5563 -0.8169 0.8169 1.5563 -809.631 -486.1509)">
					<stop  offset="0" style="stop-color:#914533"/>
					<stop  offset="1" style="stop-color:#E48C69"/>
				</linearGradient>
				<path fill="url(#SVGID_1_)" d="M871.9,412.1c25.1-5.3,53.7-26.5,54.1-54.4c0-5.1-3.5-23.5-11.4-19.3
					c-3.9,1.9-8.4,21.7-10.8,26.2c-3.5,6.6-8,12.9-13.2,17.5c-13.2,12.2-37,16.1-42.8,35.9L871.9,412.1z"/>
			</g>
			<g>
				<path fill="#914533" d="M847.9,421.1c0.6,0,0.6-0.8-0.8-0.6c-4.2-0.3-5.8-4.8-6.1-8.4c-0.3-3.9,0.6-8,2.3-11.4
					c4.5-7.4,12.7-11.1,18.2-17.5c3.5-3.7,6.4-8,9.8-11.4c2.6-2.6,5.8-4.5,8.7-6.4c5.3-3.2,12.4-6.4,15.1-12.4c0.6-0.6-1-1-1.3-0.3
					c-1.6,3.7-5.3,6.1-8.7,8.2c-3.2,2.2-6.8,3.9-10.3,6.4c-3.7,2.6-6.4,5.8-9.3,9.3c-3.5,3.7-6.8,7.4-10.8,10.3
					c-6.6,5.1-14,10.8-15.1,19.5C839.1,411.8,840.7,421.3,847.9,421.1L847.9,421.1z"/>
			</g>
			<g>
				<path fill="#914533" d="M891.9,360c0,0.6,0.8,0.8,0.8,0.6c0.8-2.6,1.9-5.1,2.6-7.7c0.8-2.6,1.6-5.3,2.3-7.7
					c0.8-2.9,1.9-5.5,3.5-8c1.3-2.2,2.9-3.7,4.8-5.5c0.8-1,0-2.3-1.3-1.9c-5.1,1.9-7.4,8.7-9,13.2c-1,2.9-1.6,6.1-2.3,9
					C892.8,354.8,892.8,357.4,891.9,360L891.9,360z"/>
			</g>
		</g>
		<g>
			<path fill="#F6B292" d="M860,443c22.2-2.2,46.5-16.6,61.1-33.3c7.1-7.7,12.4-16.4,9.3-26.9c-1.6-5.8-2.3-11.1-2.9-17.2
				c0-3.5-0.6-7.1-1.9-10.3c-0.3-0.6-4.8-7.4-5.1-6.8c-3.2,7.1-8.4,14-10.8,21.7c-1.9,5.8-2.2,11.9-6.1,17.2
				c-4.8,6.8-14.3,6.6-21.7,9.3c-7.4,2.7-15.6,4.5-22,10c-5.3,4.8-8.7,8.4-15.1,11.4c-4.2,2.2-9.3,3.7-13.5,7.1
				c-6.6,5.1-11.9,15.1-7.7,23.8L860,443z"/>
			<path fill="#914533" d="M823.7,448.8c0,0.6,0.6,0,0.6-1.3c-1.9-3.9-1.9-8.2-0.3-12.2c1.6-4.5,4.8-8.4,8.7-11.4
				c5.3-3.7,11.9-5.3,17.2-8.7c5.1-3.2,8.7-8.2,13.7-11.4c5.8-3.7,12.4-5.8,19-8c5.3-1.9,11.1-2.3,16.1-5.1
				c4.8-2.6,7.7-6.8,9.3-11.9c1.9-5.5,2.9-11.1,5.5-16.1c1.6-2.6,2.9-5.5,4.5-8.2c0.8-1.3,1.3-2.3,2.2-3.7c0.3-0.6,0.8-2.6,1.3-2.9
				c-0.6,0-1,0-1.3,0.3c-0.6-0.3,0,0.3,0.3,0.6s0.6,0.8,0.8,1c0.6,1,1,2.2,1.9,2.9c2.9,3.9,2.9,9,3.5,14c0.3,3.2,0.6,6.4,1.3,9.3
				s1.6,5.5,2.2,8.2c2.2,10-4.8,19-11.4,26.2c-15.3,16.4-36.5,28.1-58.6,31c-0.6,0-0.6,1.3,0.3,1.3c15.3-0.8,30.4-8,42.8-16.6
				c8.4-5.8,16.6-12.9,22.7-21.1c2.6-3.5,5.3-7.4,6.1-11.9c1-5.1,0.3-9-1-14c-1.6-6.1-1.6-11.9-2.3-18c-0.3-2.2-0.6-5.1-1.9-7.1
				c-0.8-1-1.6-2.2-2.3-3.5c-0.6-1-1.3-2.3-2.3-3.2c-1.6-1.3-2.3,0-2.9,1.3c-2.6,5.3-5.8,10.3-8.2,15.6c-2.3,5.1-2.9,10.6-4.8,15.9
				c-0.8,2.9-2.3,6.1-4.8,8.2c-2.3,1.9-5.3,3.2-8.2,3.9c-2.6,0.8-5.8,1.3-8.7,2.2c-2.9,1-5.8,2.2-8.7,2.9
				c-6.4,2.2-12.2,4.5-17.2,8.7c-4.5,4.2-8.4,8.2-14,10.8c-5.3,2.6-10.8,4.5-15.1,8.7C823.6,431.3,819.8,440.6,823.7,448.8
				L823.7,448.8z"/>
			<path fill="#E48C69" d="M831.2,447.7c19.3-19.8,51.2-20.6,73.7-34.3c12.9-8,23-20.4,24.3-35.4c0.8-4.2-0.3-18.2-8.4-16.4
				c-5.1,1.3-10.3,24.6-14.3,29.8c-8.7,12.4-22.4,10.6-35.4,15.6c-10.8,4.8-18,14-29.1,19.3c-7.7,2.9-14.8,7.1-15.6,17.2
				L831.2,447.7z"/>
			
				<linearGradient id="SVGID_2_" gradientUnits="userSpaceOnUse" x1="613.4658" y1="905.7754" x2="613.4658" y2="895.3088" gradientTransform="matrix(1.5563 -0.8169 0.8169 1.5563 -809.631 -486.1509)">
				<stop  offset="0" style="stop-color:#914533"/>
				<stop  offset="1" style="stop-color:#E48C69"/>
			</linearGradient>
			<path fill="url(#SVGID_2_)" d="M842.5,440.6c29.6-11.6,60.5-11.6,77.7-42.3c4.5-7.1,10.3-25.9,2.6-33c-8.4,8.2-9,23.3-16.6,32
				c-8.4,9.5-19.3,11.4-30.7,13.5c-11.1,2.9-22.2,11.1-32.3,16.6c-6.6,3.7-11.9,10.3-15.3,16.6L842.5,440.6z"/>
		</g>
		<g>
			<path fill="#F6B292" d="M926.1,435.4c10-11.9,29.4-58.6,6.1-68.7c-12.9-5.5-15.6,29.8-22.2,36.5c-3.9,4.2-14,7.7-19.5,9
				c-11.6,2.6-22.2,5.8-33,11.6c-13.2,8-39.4,19.3-38.3,37.5c0.6,12.7,17.2,6.4,25.3,5.1c7.4-1.6,16.6-0.6,23.3-4.5L926.1,435.4z"/>
			<path fill="#E48C69" d="M920.7,374.3c-4.2,9-6.6,23-10.3,28.1c-0.3,0.8-0.6,1.9-0.8,2.6c-2.9,10.8-5.5,12.7-15.3,17.2
				c-8.2,4.2-13.7,12.2-20.9,17.7c-9,6.8-19.8,13.5-31.1,15.6c-4.8,1-19.8,2.2-17.2-7.1l-1.3-1c-3.2,4.2-5.3,9-5.1,14.3
				c0.6,12.7,17.2,6.4,25.3,5.1c7.4-1.6,16.6-0.6,23.3-4.5l1.6-0.8c8.2-7.4,15.1-13.7,26.5-17.7c8.4-3.2,20.9-4.8,25.6-13.7
				c4.2-7.7,3.2-18.5,3.9-26.7C925.5,399.6,929.8,373.5,920.7,374.3z"/>
			
				<linearGradient id="SVGID_3_" gradientUnits="userSpaceOnUse" x1="613.892" y1="921.3914" x2="607.5402" y2="899.1599" gradientTransform="matrix(1.5563 -0.8169 0.8169 1.5563 -809.631 -486.1509)">
				<stop  offset="0" style="stop-color:#914533"/>
				<stop  offset="1" style="stop-color:#E48C69"/>
			</linearGradient>
			<path fill="url(#SVGID_3_)" d="M921.8,371.7c-1.6,2.6-2.9,6.4-4.2,10.3c-0.6,2.3-0.6,4.5-0.8,5.5c-1.3,7.7-2.3,15.9-4.8,23.3
				c-1.3,4.2-4.2,8.2-7.7,11.1c-4.8,3.7-10.3,4.8-14.8,9.3c-4.2,4.5-8,10.3-12.4,14c-5.3,4.8-13.2,9.3-19.8,12.4
				c-11.4,5.3-33.6,10-37-5.5c-1.3,2.9-2.2,5.8-1.9,9c0.6,12.7,17.2,6.4,25.3,5.1c7.4-1.6,16.6-0.6,23.3-4.5l5.5-2.3
				c3.5-2.6,6.6-5.5,10.6-8.7c5.8-4.2,12.2-9.3,18.2-12.7c4.8-2.9,10.6-1.9,15.1-4.2c8.2-4.2,2.9-25.1,4.5-33.6
				C921.6,397.3,930.5,367.9,921.8,371.7z"/>
			<path fill="#914533" d="M867.9,462c0.3-0.3,0-1-0.3-0.8c-0.3,0-0.3,0-0.6,0.3c-5.3,2.6-11.6,2.3-17.7,2.9c-4.2,0.3-8,1-11.9,1.9
				c-5.3,1-16.1,3.7-17.2-4.5s4.2-15.3,10.3-20.4c6.4-5.5,13.7-9.8,21.1-13.7c4.2-2.3,8.2-4.5,12.4-6.4c5.8-2.6,11.9-4.5,18.2-6.1
				c5.3-1,10.6-2.2,15.6-3.9c4.2-1.6,9.3-3.7,12.4-7.1c1.6-1.9,2.6-3.9,3.5-6.4c1.3-3.2,2.6-6.4,3.7-9.8c1.3-3.5,2.3-7.1,3.7-10.6
				c1-2.6,2.3-5.8,4.5-8.2c4.8-5.1,11.4,0.3,14,4.8c3.7,6.4,3.5,14,2.3,21.1c-1.3,8-3.7,15.9-6.8,23.5c-2.3,5.8-5.3,11.6-9.3,16.6
				c-0.6,0.8,0.6,1.6,1,0.8c3.2-4.2,5.8-9.3,8.2-14.3c3.5-7.1,6.1-14.8,7.7-22.4c1.3-6.8,2.2-14.5,0-21.4
				c-1.6-5.3-5.8-11.4-11.9-12.4c-5.5-1-9,4.8-10.8,9.3c-1.6,3.2-2.6,6.8-3.7,10.3s-1.9,7.1-2.9,10.6c-0.8,2.3-1.9,5.3-3.7,7.1
				c-3.7,3.2-9,5.1-13.5,6.6c-5.3,1.6-10.8,2.6-16.1,4.2c-5.8,1.9-11.6,3.7-17.2,6.4c-4.2,2.2-8.2,4.2-12.2,6.6
				c-3.7,1.9-7.4,3.9-10.8,6.1c-6.6,4.2-13.7,9.3-18.2,15.9c-2.2,2.9-3.7,6.4-3.9,9.8c-0.3,3.2,0,6.8,2.3,9.3
				c4.8,4.5,13.2,2.2,18.8,0.8c3.9-1,8.2-2.2,12.4-2.3C857,465.5,862.9,464.9,867.9,462L867.9,462z"/>
		</g>
	</g>
	<g>
		<path fill="#F6B292" d="M926.3-12.9c-9.5,5.5-15.1,10-17.7,20.9c-2.9,4.8-6.4,9.5-9.3,15.1c-13.5,22.4-26.7,45.5-37,69.2
			c-4.8,10.6-8.4,21.4-13.5,31.7c-5.1,10.6-10.3,20.6-15.9,30.7c-10.8,20.6-22.2,41.2-28.5,63.7c-3.2,12.2-4.2,24.6-3.5,37
			c0.6,6.4,1,12.7,1.9,19c0.3,2.9,0.6,5.5,1,8c-5.1,12.7-4.8,23.8-5.5,38.1c-0.8,14.3-6.1,27.5-6.6,41.7c0,1.3,0,2.3,0.3,3.5
			c-0.3,0-0.6,0.3-0.8,0.3l0.6,0.3c-8,10.3-9.5,27.5-14.5,39.9c-4.2,10.3-9.3,23-8.7,34.3c0,0.3,0,0.6,0,0.8v0.3
			c0.8,6.4,7.4,13.2,13.5,14.5c20.6,4.5,34.3-19.3,43.6-33.3c15.6-23.3,18.2-50.8,25.9-77.2c1.3-4.2,3.7-8.2,5.5-12.4l0.6,0.3
			c4.2-2.3,9-4.8,13.5-6.8c10.3,4.2,20.6,8,31.4,11.4c3.5,1,7.4,2.6,11.4,3.9c2.2,3.9,2.9,11.1,3.7,16.1c1,11.1,7.4,23.8,4.2,34.6
			c-1.6,5.8-7.4,21.7-7.1,33.3l-3.7,4.5c-11.4,3.2-25.3,11.1-31.1,21.7c-9.8,2.6-19.8,12.4-25.3,19.5c-5.1,6.6-14.8,24-7.4,32.3
			l1-0.8l-0.8,0.8c8,3.2,22.2-3.9,29.1-7.1c14.8-6.6,28.8-13.7,43.3-20.6c8.2-3.9,15.9-8.4,24-12.7c6.6-3.7,13.5-5.8,18-11.9
			c6.1-8.4,6.8-20.9,9-31.1c3.2-11.9,7.1-23.3,10.3-35.2c4.2-15.3,17.2-30.4,18-47c1-1.3,2.2-2.6,2.9-4.2
			c6.1-10.8,9.5-21.1,5.1-33.6c-6.4-17.2-13.2-33.6-20.4-50.5c-10-24.3-17.5-52.4-18.2-78.2c-0.8-28.1,13.2-54.4,29.4-76.6
			c5.1-7.1,21.7-20.9,22.4-29.1c0.8-9.3-13.7-14.5-18.2-21.1c-7.4-10-8-24-12.4-35.7c-1-2.6-2.2-5.1-3.5-7.1
			C973.7-20,948.8-26.1,926.3-12.9z"/>
		<g>
			<path fill="#E48C69" d="M846.3,504.3l1-0.8l-0.8,0.8c0.3,0,0.6,0.3,0.8,0.3c1-23,23-26.5,34.9-38.3c2.9-2.9,3.9-8.2,7.1-11.4
				c6.4-5.3,16.4-5.8,24-9c9.5-4.2,12.4-6.8,14.5-18.8c4.2-27.8,14.5-49.7,1.3-75.8c-5.1-10.8-10.3-9.8-21.7-13.5
				c-16.1-5.1-16.6-8.7-7.4-21.1l-0.6-0.6c-10,1.3-26.7,5.5-35.9,13.7c2.3-1.3,4.5-2.3,6.8-3.5c10.3,4.2,20.6,8,31.4,11.4
				c3.5,1,7.4,2.6,11.4,3.9c2.2,3.9,2.9,11.1,3.7,16.1c1,11.1,7.4,23.8,4.2,34.6c-1.6,5.8-7.4,21.7-7.1,33.3l-3.7,4.5
				c-11.4,3.2-25.3,11.1-31.1,21.7c-9.8,2.6-19.8,12.4-25.3,19.5C848.9,478.1,839.1,495.6,846.3,504.3z M955.4-19.5
				c-9.5-1-19.3,1-29.1,6.8c-9.5,5.5-15.1,10-17.7,20.9c-2.9,4.8-6.4,9.5-9.3,15.1c-13.5,22.4-26.7,45.5-37,69.2
				c-4.8,10.6-8.4,21.4-13.5,31.7c-5.1,10.6-10.3,20.6-15.9,30.7c-10.8,20.6-22.2,41.2-28.5,63.7c-3.2,12.2-4.2,24.6-3.5,37
				c0.6,6.4,1,12.7,1.9,19c0.3,2.9,0.6,5.5,1,8c-5.1,12.7-4.8,23.8-5.5,38.1c-0.8,14.3-6.1,27.5-6.6,41.7c0,1.3,0,2.3,0.3,3.5
				c-0.3,0-0.6,0.3-0.8,0.3l0.6,0.3c-8,10.3-9.5,27.5-14.5,39.9c-4.2,10.3-9.3,23-8.7,34.3c0,0.3,0,0.6,0,0.8v0.3
				c0.3,2.3,1.3,5.1,3.2,7.4c-0.6-3.2-1-5.8,0.8-8.2c-3.7-8.7,10.3-21.7,14.5-28.1c2.6-3.7,4.8-17.7,15.1-19.3
				c-9.3-3.9-6.1-13.5,2.6-13.5c-5.1-5.1-5.1-11.4,3.7-11.4c-6.8,0-2.9-25.3-1.9-28.5c4.2-12.7,3.5-24,11.6-35.7
				c8.2-11.1,18-21.4,20.6-35.4c2.3-12.4-2.3-25.1,0-37.8c11.1-56.9,42-107,67.1-158.3c13.7-27.8,26.7-54.1,42.8-80.6
				C950.7-10.5,953.8-15.3,955.4-19.5z"/>
			
				<linearGradient id="SVGID_4_" gradientUnits="userSpaceOnUse" x1="713.0267" y1="897.4551" x2="695.5823" y2="842.5851" gradientTransform="matrix(1.5563 -0.8169 0.8169 1.5563 -809.631 -486.1509)">
				<stop  offset="0" style="stop-color:#E48C69"/>
				<stop  offset="1" style="stop-color:#F6B292"/>
			</linearGradient>
			<path fill="url(#SVGID_4_)" d="M966.5,236.8c10,24,29.1,53.9,30.1,80.6C985,291.1,969.6,267,966.5,236.8z"/>
			
				<linearGradient id="SVGID_5_" gradientUnits="userSpaceOnUse" x1="732.9099" y1="867.4019" x2="664.402" y2="815.0693" gradientTransform="matrix(1.5563 -0.8169 0.8169 1.5563 -809.631 -486.1509)">
				<stop  offset="0" style="stop-color:#FADBCA"/>
				<stop  offset="1" style="stop-color:#F6B292"/>
			</linearGradient>
			<path fill="url(#SVGID_5_)" d="M979.5-2.9c-6.8-1.6-15.1,1.3-20.4,5.8c-12.9,11.1-16.6,29.6-22.4,44.9
				c-8.4,22.2-17.5,44.4-27.2,66c-5.5,12.9-13.2,24.9-20.1,37.2c-5.3,9.5-7.7,19.5-13.2,28.8c-12.7,21.4-23.3,46-25.1,70.8
				c-1,12.9-1.3,26.2-5.5,38.6c-3.7,11.9-15.1,16.4-19.8,27.5c-1.6,3.7-2.3,7.7-3.5,11.4c-1.3,4.2-2.6,8.4-3.9,12.4
				c-2.2,7.1-4.5,15.1-4.8,22.7c-0.3,5.3,0.8,10.6,6.6,11.9c9.5,2.2,10-14.8,10.8-20.1c0-0.3,0-0.6-0.3-0.8
				c4.8-13.5,12.9-26.9,25.9-33.3c8.4-4.2,16.6-10,25.9-12.9c15.6-5.1,16.4-1.9,26.7,9c9.5,10.3,20.4,15.6,27.5,28.1
				c14.3,23.8,12.2,50.8,6.1,76.1c-2.2,9-5.1,18.8-11.9,25.9c-7.1,7.4-17.5,9.5-26.5,14c-6.1,2.9-10.8,7.4-16.4,11.4
				c-3.9,3.2-8.2,6.1-12.2,9.5c-3.7,3.2-13.2,12.2-2.3,12.4c0.6,0,0.6-0.8,0-0.8c-0.3,0-0.3,0-0.3,0l-0.3-0.6
				c10.8-3.7,20.1-11.1,30.1-16.6c10.6-5.8,22-9.5,32.7-14.5c4.5-2.2,9-4.5,12.4-8.2c2.6-2.9,4.8-6.4,6.6-9.8
				c4.5-8.4,7.4-17.7,9.8-26.9c2.2-8.4,4.2-16.9,6.1-25.6s4.5-17.5,9.3-25.1c3.7-5.8,8.2-14,9.8-22c0.6,0.3,1.3-0.3,1.3-1
				c0-7.1-2.2-14.3-6.6-20.1c-4.2-5.5-9.3-10-14-15.1c-12.7-13.2-19.5-29.8-25.1-47c-10.6-31.4-10-63.4-2.9-96
				c4.2-20.6,11.4-40.7,20.6-59.5c5.3-10.6,11.1-20.6,17.2-31c4.2-6.8,10-12.2,14.8-18.8c3.2-4.2,8.4-12.2,4.5-17.2
				c-2.2-2.9-4.8-4.5-5.5-8c-0.6-2.6-0.8-5.3-1-8.2c-0.3-3.9-0.8-8-2.2-11.9C989,5.1,985.5-1.6,979.5-2.9z"/>
			<path fill="#EE9F7F" d="M909.1,18.1c6.1-9.5,17.2-22,22.2-33.9c-1.9,1-3.7,1.9-5.5,2.9c-9.5,5.5-15.1,10-17.7,20.9
				c-2.9,4.8-6.4,9.5-9.3,15.1c-13.5,22.4-26.7,45.5-37,69.2c-4.8,10.6-8.4,21.4-13.5,31.7c-5.1,10.6-10.3,20.6-15.9,30.7
				c-10.8,20.6-22.2,41.2-28.5,63.7c-3.2,12.2-4.2,24.6-3.5,37c0.6,6.4,1,12.7,1.9,19c0.3,2.9,0.6,5.5,1,8
				c-5.1,12.7-4.8,23.8-5.5,38.1c-0.8,14.3-6.1,27.5-6.6,41.7c0,1.3,0,2.3,0.3,3.5c-0.3,0-0.6,0.3-0.8,0.3l0.6,0.3
				c-8,10.3-9.5,27.5-14.5,39.9c-1,2.6-2.2,5.3-3.2,8.2v2.3c4.5-9,13.2-18,15.6-27.2c1.6-5.1-0.3-9,1.9-14.3
				c0.6-1.3,2.9-0.8,3.5-2.2c0.6-0.8,0.3-3.5,0.3-3.5c1-2.3,0.3-4.8,3.5-6.8c-4.2-6.4,0.6-15.9,1.9-22.7c1.6-8.7,2.3-16.6,2.3-25.3
				c0-17.7,6.4-30.7,11.9-46.8c-8.2-5.3-3.2-22.7-2.2-31.4c1.6-12.4,2.2-24.3,7.1-35.7c10-22.7,22-44.9,33.3-66.9
				c12.7-24.9,23.3-51.2,36.2-75.6C895.7,45,901.5,31.3,909.1,18.1z"/>
		</g>
		<path fill="#914533" d="M1017.2,69.3c-5.8,6.6-11.4,13.2-16.6,20.1c-12.4,16.1-23.5,33.6-29.4,53.1c-6.4,20.9-3.9,43.1,0.8,64.3
			c2.6,11.9,6.1,23.5,10.3,34.9c4.8,12.4,10,24.6,15.1,37c2.6,6.6,5.3,13.2,7.7,19.8c1.9,4.8,3.5,9.5,2.9,14.8
			c-0.3,4.5-1.6,8.4-3.5,12.4c-1.6,4.2-3.7,8.2-5.5,12.2c0.3-3.2,0-6.4-0.8-9.8c-0.3-0.6-1.3-0.6-1,0.3c4.5,17.5-7.4,32.5-14,47.6
			c-2.2,4.2-3.2,8.4-4.5,12.7c-1.9,5.8-3.7,11.6-5.5,17.5c-1.9,5.5-3.7,11.1-4.8,16.9c-1,5.1-1.6,9.8-2.9,14.8
			c-1.3,5.3-3.2,11.1-7.1,15.1c-4.5,4.2-10.3,6.8-15.6,9.8c-12.2,6.6-24.3,13.2-36.8,18.8c-11.4,5.3-22.7,10.8-34.1,16.1
			c-3.9,1.9-8,3.7-12.4,5.1c-3.7,1-8.4,2.3-12.4,1c-0.3,0-0.3,0-0.3,0l0,0c-3.2-3.9-2.3-9.5-1-14c1.3-5.1,3.7-9.5,6.4-13.7
			c6.1-9.5,15.6-17.5,25.6-22.7c-1.6,4.5-2.3,9-1.3,14c0,0.3,0.6,0,0.6-0.3c-2.2-9.8,4.5-18.2,11.9-24.3
			c7.4-6.1,16.1-10.3,25.3-12.7c0,1.3,0.6,2.6,0.8,3.9c0,0.3,0.6,0,0.6-0.3c-1.3-8.2-0.6-17.2,1.6-25.3c1-3.9,2.3-8.2,3.7-12.2
			c1-3.5,2.2-6.6,1.9-10.3c-0.3-7.4-2.9-14.8-4.2-22.2c-1-6.6-1-14.5-3.9-21.1c2.2,0.6,3.9,1,6.1,1.6c0.6,0,0.6-0.6,0.3-0.8
			c-16.6-5.1-33-10.3-49.2-16.6c8-3.7,16.1-6.4,24.6-8.2c0.3,0,0-0.6-0.3-0.6c-6.8,1.3-13.5,2.9-20.1,5.5
			c-6.8,2.6-13.2,6.1-19.3,9.5c0.6-1,1-2.2,1.9-3.2c0.3-0.3-0.3-0.6-0.6-0.3c-2.6,3.7-4.8,7.7-6.6,11.9c-1.9,4.5-2.9,9.3-4.2,13.7
			c-2.3,9-3.7,18-6.1,26.9c-2.9,11.1-6.4,22-11.9,31.7c-2.3,4.5-5.3,8.7-8.2,13.2c-2.6,4.2-5.5,8.4-8.7,12.4
			c-6.1,7.7-14.3,16.1-24.9,16.4c-5.1,0-9.5-1.3-13.2-5.1c-2.9-2.9-6.1-7.4-5.8-11.4V439c0.3-13.5,7.7-25.6,11.1-38.1
			c3.5-11.9,4.8-24,11.6-34.9c3.5-0.6,7.1,0.8,10.3,1.9c3.2,1.1,5.8,2.2,8.7,3.5c0.3,0,0.6-0.6,0.3-0.8c-5.5-2.6-12.2-6.8-18.5-5.5
			c0.6-15.1,6.4-29.6,7.1-44.7c0.6-7.1,0-14,0.8-21.1c0.6-7.1,2.6-13.7,5.5-20.6c0-0.3-0.6-0.6-0.8-0.3c-0.3,0.8-0.8,1.6-1,2.3
			c0,0,0-0.6,0-0.8c-0.6-11.1-2.2-22.4-1.9-33.9c0.3-11.9,2.3-23.3,6.4-34.6c8.2-24,20.9-46.5,32.7-69
			c12.2-23.3,20.9-48.1,32.7-71.4c6.1-11.9,12.2-23.3,18.8-34.6c3.2-5.5,6.4-11.4,9.8-16.9c3.2-5.3,6.8-10.6,9.8-16.1
			c0.3-0.8-0.8-1.6-1-0.8c-0.8,1.6-1.9,3.2-2.6,4.5c-3.5,5.5-6.6,10.8-10,16.4c-3.5,5.5-6.6,11.4-10,16.9
			c-6.6,11.4-13.2,22.4-19,34.3c-5.5,11.6-10.8,23.5-15.3,35.4c-4.8,12.7-10.8,24.6-17.2,36.5c-11.6,22.2-24.6,43.9-32.3,67.9
			c-3.2,11.1-5.3,22.2-5.1,33.9c0.3,11.4,1.9,22.4,3.7,33.6c0,0,0,0.3,0.3,0.3c-5.3,11.9-6.1,25.6-6.6,38.3
			c-0.3,7.7-2.2,15.6-3.7,23.3c-1.3,7.4-2.3,14.5-2.2,22.2l0,0c-9.3,9.3-9.8,23.3-13.2,35.2c-2.2,6.6-5.1,13.2-7.1,20.1
			c-1.6,6.4-2.6,12.9-2.3,19.5c-0.3,3.9,1,7.4,3.5,10.3c2.9,3.2,6.4,5.8,10.6,6.6c9.8,1.9,18.5-2.3,25.6-9.3
			c6.8-7.1,12.2-15.6,17.7-23.8c5.8-9,10.3-19,13.5-29.6c3.2-10.6,5.8-21.4,8.7-32.3c2.6-9.3,4.8-19.5,9.3-28.5c0,0.3,0,0.3,0.3,0.3
			c4.2-2.3,9-4.8,13.5-6.6c13.5,6.4,27.5,10.8,41.7,14.5c-0.3,0.3-0.3,0.3,0,0.6c2.2,3.5,2.6,8,3.2,11.9c0.6,3.7,1,7.4,1.9,10.8
			c1.9,7.1,4.5,14.8,3.7,22.4c-0.6,4.2-2.2,8-3.5,11.9c-1,3.7-2.2,7.4-2.9,11.4c-1,6.1-1.3,11.9-0.3,17.7
			c-9.8,1.6-19.8,6.4-27.5,12.9c-3.5,3.2-6.6,6.8-8.4,10.8c-0.3-0.3-0.6-0.6-0.8-0.3c-11.1,5.3-22,13.5-28.2,24.3
			c-4.2,7.4-10.3,20.1-2.9,27.5c0.3,0,0.3,0,0.3,0s0,0.3,0.3,0.3c0,0,0,0.3,0.3,0.3c7.7,2.9,16.4-1,23.5-4.2
			c10.8-5.1,22-10,32.5-15.6c6.1-3.2,12.4-6.1,18.5-9.3c6.4-3.2,12.2-6.4,18.2-9.8c2.6-1.6,5.8-3.2,8.7-4.5c2.6-1,5.3-2.3,7.7-3.9
			c4.5-2.9,7.4-7.1,9.3-12.2c1.9-5.3,2.9-10.3,3.7-15.6c1-5.8,2.3-11.9,3.9-17.7c1.6-6.4,3.7-12.7,5.5-19c1.3-5.3,2.6-10,4.8-15.1
			c5.3-12.4,13.7-25.1,15.1-38.8c0,0,0.3,0,0.3-0.3c3.7-6.4,8.4-12.4,10.3-19.8c0.8-3.9,1-8.2,0.3-12.4c-1-5.8-3.9-11.4-6.1-16.9
			c-5.1-12.7-10.3-25.3-15.6-38.1c-9.8-22.4-16.9-47.3-18.8-72.1c-1-10.6-0.3-20.6,2.3-31c2.6-10,6.6-19.5,11.4-28.5
			c9.5-18,21.4-34.3,34.6-49.7C1018,70.1,1017.2,69.3,1017.2,69.3z M802.9,432.9c0.3-2.3,0-4.5-0.8-6.6c-1-2.2-2.2-3.9-3.5-5.5
			c-1.6-1.6-3.2-3.2-5.1-4.5c-1.9-1-3.7-2.6-5.8-3.5c-1.6-0.6-3.2-0.6-4.5,0.3c-1.3,0.8-2.3,2.2-3.2,3.5c-2.2,3.5-3.2,7.4-5.1,10.8
			c-1,2.2-2.6,4.2-3.5,6.6c-0.6,1.3-0.8,2.9-0.3,4.5c0.6,2.2,2.2,3.5,3.5,4.5c1.9,1.3,3.7,2.3,5.8,3.2c2.2,0.8,4.2,1,6.4,1
			c3.9-0.3,7.7-1.6,10.6-3.9c1.3-1.3,2.6-2.6,3.5-4.5C802.1,437,802.6,434.8,802.9,432.9z M801,425c2.2,3.9,2.2,9,0.3,13.2
			c-1.6,3.7-4.8,6.4-8.4,7.7c-2.2,0.8-4.2,1-6.1,1c-2.3,0-4.5-0.6-6.6-1.3c-2.2-0.8-3.9-1.9-5.8-3.5c-1.3-1.3-2.3-2.9-2.6-4.8
			c0-1.9,0.6-3.5,1.3-5.1c1-1.6,2.2-3.2,2.9-4.8c0-0.8,0.6-1.3,0.8-2.2c0.8-1.6,1.6-3.7,2.3-5.5c1-1.9,1.6-3.7,2.9-5.1
			c1-1.3,2.3-2.3,3.9-2.3c2.2,0,3.9,1,5.5,2.3C795.2,417.6,799,420.8,801,425z M802.9,392c-5.3-1.9-12.4-4.8-13.7-10.8
			c0-0.3-0.6,0-0.6,0.3c1,6.4,7.7,9.8,12.9,11.9c5.3,2.2,12.4,4.2,18.2,2.9c0.6,0,0.6-1-0.3-1C814,395.2,808.2,394.1,802.9,392z
			 M795.5,373.7c3.5,2.9,8.2,4.8,12.2,6.8c4.2,2.3,8.4,4.8,11.9,8.2c0,0.6,0.6,0,0.3-0.3c-3.2-3.2-7.1-5.8-11.1-8.2
			c-4.2-2.2-8.2-4.8-12.4-7.1C795.8,373,795.2,373.7,795.5,373.7z"/>
	</g>
</g>
<text transform="matrix(1 0 0 1 850.421 236.8579)" font-family="'FingerPaint-Regular'" font-size="119.1489">R</text>
</svg>
