<?xml version="1.0" encoding="utf-8"?>
<!-- Generator: Adobe Illustrator 18.0.0, SVG Export Plug-In . SVG Version: 6.00 Build 0)  -->
<!DOCTYPE svg PUBLIC "-//W3C//DTD SVG 1.1//EN" "http://www.w3.org/Graphics/SVG/1.1/DTD/svg11.dtd">
<svg version="1.1"
	 id="svg1878" xmlns:inkscape="http://www.inkscape.org/namespaces/inkscape" xmlns:rdf="http://www.w3.org/1999/02/22-rdf-syntax-ns#" xmlns:cc="http://creativecommons.org/ns#" xmlns:sodipodi="http://sodipodi.sourceforge.net/DTD/sodipodi-0.dtd" xmlns:dc="http://purl.org/dc/elements/1.1/" xmlns:svg="http://www.w3.org/2000/svg" sodipodi:docname="pivot.svg" inkscape:version="0.92.4 (5da689c313, 2019-01-14)"
	 xmlns="http://www.w3.org/2000/svg" xmlns:xlink="http://www.w3.org/1999/xlink" x="0px" y="0px"
	 viewBox="278.9 -33.4 487.8 553.1" enable-background="new 278.9 -33.4 487.8 553.1" xml:space="preserve">
<sodipodi:namedview  inkscape:cy="18.257" borderopacity="1" inkscape:zoom="6.4632744" objecttolerance="10" guidetolerance="10" id="namedview11" pagecolor="#ffffff" showgrid="false" inkscape:cx="13.8885" bordercolor="#666666" gridtolerance="10" inkscape:current-layer="svg1878" inkscape:window-maximized="1" inkscape:pageshadow="2" inkscape:window-y="-8" inkscape:window-x="-8" inkscape:pageopacity="0" inkscape:window-width="1440" inkscape:window-height="837">
	</sodipodi:namedview>
<g id="layer1" transform="translate(-265.65 -73.096)">
	
		<linearGradient id="path10089_1_" gradientUnits="userSpaceOnUse" x1="685.9662" y1="-455.3188" x2="701.5741" y2="-438.7354" gradientTransform="matrix(0 24.0748 -16.5123 0 -6481.5669 -16423.5996)">
		<stop  offset="0" style="stop-color:#FF2A26"/>
		<stop  offset="1" style="stop-color:#96000D"/>
	</linearGradient>
	<path id="path10089" fill="url(#path10089_1_)" stroke="#6B1A11" stroke-width="1.75" stroke-linejoin="round" d="M1031.5,372
		h-50.6V40.6H836.4V372h-50.8l123.1,220L1031.5,372L1031.5,372z"/>
</g>
<g>
	<g>
		<g>
			<g>
				<path fill="#F6B292" d="M357.9,380.4c4.5,4.8,10.8,9.3,17.7,11.9c0.3,0.8,0.6,1.3,0.8,1.9c3.7,8.2,8.2,15.6,15.6,20.9
					c5.3,3.9,11.6,5.1,17.2,8.4l42.3,10.3c6.4,0,7.7-9.3,7.1-14.3c-1.9-10.3-10.3-15.3-17.5-20.9c-5.3-4.5-8.7-9.8-13.5-15.1
					c-3.9-3.9-9.3-6.1-13.7-9.3c-3.9-2.3-5.5-5.3-8.2-8.2c-2.3-8.2-4.5-18-11.6-22.2l-38.3,16.7
					C345.5,361.1,355.2,377.5,357.9,380.4z"/>
				<path fill="#E48C69" d="M386.4,402.3c10.8,13.5,22.4,17.5,38.6,22l26.5,7.1c9.8-14.3-15.1-29.8-22.4-38.6
					c-3.2-3.9-6.1-6.6-11.1-8.7c-4.5-2.3-9.8-1.9-13.5-4.2c-8.2-6.1-4.5-21.1-11.1-28.1c-9-8.7-23,3.5-23.3,13.5
					C368.7,378,378.7,392.9,386.4,402.3z"/>
				
					<linearGradient id="SVGID_1_" gradientUnits="userSpaceOnUse" x1="810.7601" y1="-441.264" x2="806.954" y2="-427.9424" gradientTransform="matrix(-1.5547 -0.816 0.816 -1.5547 2018.1841 384.9756)">
					<stop  offset="0" style="stop-color:#914533"/>
					<stop  offset="1" style="stop-color:#E48C69"/>
				</linearGradient>
				<path fill="url(#SVGID_1_)" d="M451,430.7c-5.8-19.8-29.6-23.8-42.8-35.9c-5.3-4.5-9.8-10.8-13.2-17.5
					c-2.3-4.5-6.8-24.3-10.8-26.2c-8-4.2-11.4,14.3-11.4,19.3c0.6,28.1,29.1,49.1,54,54.3L451,430.7z"/>
			</g>
			<g>
				<path fill="#914533" d="M451,433.8c7.1,0.3,8.7-9.3,8.2-14.5c-1-8.7-8.4-14.5-15.1-19.5c-3.9-2.9-7.4-6.6-10.8-10.3
					c-2.9-3.5-5.5-6.6-9.3-9.3c-3.5-2.3-7.1-4.2-10.3-6.4c-3.5-2.2-7.1-4.5-8.7-8.2c-0.3-0.8-1.9-0.3-1.3,0.3
					c2.6,6.1,9.8,9.3,15.1,12.4c2.9,1.9,6.1,3.7,8.7,6.4c3.5,3.5,6.4,7.7,9.8,11.4c5.5,6.4,13.7,10,18.2,17.5
					c1.9,3.5,2.6,7.4,2.3,11.4c-0.3,3.7-1.9,8.2-6.1,8.4C450.5,433,450.5,433.8,451,433.8L451,433.8z"/>
			</g>
			<g>
				<path fill="#914533" d="M407,372.8c-0.8-2.6-0.8-5.3-1.3-8c-0.8-2.9-1.3-6.1-2.3-9c-1.6-4.5-3.9-11.4-9-13.2
					c-1.3-0.6-2.2,0.8-1.3,1.9c1.9,1.9,3.5,3.5,4.8,5.5c1.6,2.3,2.6,5.1,3.5,8c0.8,2.3,1.6,5.1,2.3,7.7c0.8,2.6,1.9,5.1,2.6,7.7
					C406.2,373.5,407,373.3,407,372.8L407,372.8z"/>
			</g>
		</g>
		<g>
			<path fill="#F6B292" d="M475,461.4c4.2-8.7-1-18.8-7.7-23.8c-4.2-3.5-9.3-5.1-13.5-7.1c-6.4-2.9-9.8-6.6-15.1-11.4
				c-6.4-5.5-14.5-7.4-22-10s-16.9-2.3-21.7-9.3c-3.9-5.3-4.2-11.4-6.1-17.2c-2.3-7.7-7.7-14.5-10.8-21.7c-0.3-0.6-4.8,6.4-5.1,6.8
				c-1.3,3.2-1.9,6.8-1.9,10.3c-0.6,6.1-1.3,11.4-2.9,17.2c-3.2,10.6,2.2,19.3,9.3,26.9c14.5,16.6,38.8,31.1,61,33.3L475,461.4z"/>
			<path fill="#914533" d="M475,461.4c3.9-8.2,0.3-17.5-5.5-23.3c-4.2-4.2-9.8-6.1-15.1-8.7c-5.5-2.6-9.5-6.6-14-10.8
				c-5.1-4.2-10.8-6.6-17.2-8.7c-2.9-0.8-5.8-1.9-8.7-2.9c-2.9-0.8-6.1-1.3-8.7-2.2c-2.9-0.8-5.8-2.2-8.2-3.9
				c-2.3-2.2-3.9-5.3-4.8-8.2c-1.9-5.3-2.3-10.8-4.8-15.9c-2.3-5.3-5.5-10.3-8.2-15.6c-0.6-1.3-1.3-2.6-2.9-1.3
				c-1,0.8-1.9,2.2-2.3,3.2c-0.8,1.3-1.6,2.3-2.3,3.5c-1.3,2.2-1.6,5.1-1.9,7.1c-0.8,6.1-0.8,11.9-2.3,18c-1.3,5.1-2.2,9-1,14
				c0.8,4.5,3.5,8.4,6.1,11.9c6.1,8.2,14.3,15.3,22.7,21.1c12.4,8.7,27.5,15.9,42.8,16.6c0.8,0,0.8-1.3,0.3-1.3
				c-22.2-2.9-43.3-14.5-58.5-31C373.8,416,366.9,407,369,397c0.6-2.6,1.3-5.3,2.2-8.2c0.8-2.9,1-6.1,1.3-9.3c0.6-5.1,0.6-10,3.5-14
				c0.8-0.8,1.3-1.9,1.9-2.9c0.3-0.3,0.6-0.8,0.8-1c0.3-0.3,0.8-0.8,0.3-0.6c-0.3-0.3-0.8-0.3-1.3-0.3c0.6,0.3,1,2.3,1.3,2.9
				c0.8,1.3,1.3,2.3,2.2,3.7c1.6,2.6,2.9,5.5,4.5,8.2c2.6,5.1,3.7,10.6,5.5,16.1c1.6,5.1,4.5,9.3,9.3,11.9
				c5.1,2.6,10.8,3.2,16.1,5.1c6.6,2.2,13.2,4.2,19,8c5.1,3.2,8.7,8.2,13.7,11.4c5.3,3.5,11.9,5.1,17.2,8.7
				c3.9,2.9,7.1,6.8,8.7,11.4c1.6,3.9,1.6,8.2-0.3,12.2C474.6,461.4,475,462,475,461.4L475,461.4z"/>
			<path fill="#E48C69" d="M472.4,456.2c-0.8-10-8-14.3-15.6-17.2c-11.1-5.3-18.2-14.5-29.1-19.3c-12.9-5.1-26.7-3.2-35.4-15.6
				c-3.9-5.3-9.3-28.5-14.3-29.8c-8.2-1.9-9.3,12.2-8.4,16.4c1.3,15.1,11.4,27.5,24.3,35.4c22.4,13.7,54.3,14.5,73.6,34.3
				L472.4,456.2z"/>
			
				<linearGradient id="SVGID_2_" gradientUnits="userSpaceOnUse" x1="795.8361" y1="-449.9202" x2="795.8361" y2="-439.4536" gradientTransform="matrix(-1.5547 -0.816 0.816 -1.5547 2018.1841 384.9756)">
				<stop  offset="0" style="stop-color:#914533"/>
				<stop  offset="1" style="stop-color:#E48C69"/>
			</linearGradient>
			<path fill="url(#SVGID_2_)" d="M470.8,456.7c-3.5-6.4-8.7-12.9-15.3-16.6c-10-5.5-21.1-13.7-32.3-16.6
				c-11.4-2.2-22.2-3.9-30.7-13.5c-7.7-8.7-8.2-23.8-16.6-32c-7.7,7.1-1.9,25.9,2.6,33c17.2,30.7,48,30.7,77.6,42.3L470.8,456.7z"/>
		</g>
		<g>
			<path fill="#F6B292" d="M431.3,474.4c6.6,3.9,15.9,2.9,23.3,4.5c8.2,1.3,24.9,7.7,25.3-5.1c1-18.2-25.1-29.6-38.3-37.5
				c-10.8-5.8-21.4-9-33-11.6c-5.5-1.3-15.6-4.8-19.5-9c-6.6-6.6-9.3-42-22.2-36.5c-23.3,10-3.9,56.8,6.1,68.6L431.3,474.4z"/>
			<path fill="#E48C69" d="M373.9,415.8c0.8,8.2-0.3,19,3.9,26.7c4.8,9,17.2,10.6,25.6,13.7c11.4,3.9,18.2,10.3,26.5,17.7l1.6,0.8
				c6.6,3.9,15.9,2.9,23.3,4.5c8.2,1.3,24.9,7.7,25.3-5.1c0.3-5.3-1.9-10-5.1-14.3l-1.3,1c2.6,9.3-12.4,8.2-17.2,7.1
				c-11.4-2.2-22.2-8.7-31.1-15.6c-7.1-5.5-12.7-13.5-20.9-17.7c-9.8-4.5-12.4-6.4-15.3-17.2c-0.3-0.8-0.6-1.9-0.8-2.6
				c-3.7-5.1-6.1-19-10.3-28.1C369.2,386.2,373.4,412.4,373.9,415.8z"/>
			
				<linearGradient id="SVGID_3_" gradientUnits="userSpaceOnUse" x1="796.1526" y1="-465.5487" x2="789.8009" y2="-443.3173" gradientTransform="matrix(-1.5547 -0.816 0.816 -1.5547 2018.1841 384.9756)">
				<stop  offset="0" style="stop-color:#914533"/>
				<stop  offset="1" style="stop-color:#E48C69"/>
			</linearGradient>
			<path fill="url(#SVGID_3_)" d="M377.9,412.7c1.6,8.4-3.7,29.4,4.5,33.6c4.5,2.3,10.3,1.3,15.1,4.2c6.1,3.5,12.4,8.4,18.2,12.7
				c3.9,3.2,7.1,6.1,10.6,8.7l5.5,2.3c6.6,3.9,15.9,2.9,23.3,4.5c8.2,1.3,24.9,7.7,25.3-5.1c0.3-3.2-0.6-6.1-1.9-9
				c-3.5,15.6-25.6,10.8-37,5.5c-6.6-3.2-14.5-7.7-19.8-12.4c-4.5-3.7-8.2-9.5-12.4-14c-4.5-4.5-10-5.5-14.8-9.3
				c-3.5-2.9-6.4-6.8-7.7-11.1c-2.3-7.4-3.5-15.6-4.8-23.3c-0.3-1-0.3-3.2-0.8-5.5c-1.3-3.9-2.6-7.7-4.2-10.3
				C368.4,380.7,377.4,410,377.9,412.7z"/>
			<path fill="#914533" d="M431,474.7c5.1,2.9,10.8,3.5,16.4,3.9c4.2,0.3,8.4,1.3,12.4,2.3c5.5,1.3,14,3.7,18.8-0.8
				c2.3-2.3,2.6-6.1,2.3-9.3c-0.3-3.5-1.9-6.8-3.9-9.8c-4.5-6.6-11.6-11.6-18.2-15.9c-3.5-2.2-7.1-4.2-10.8-6.1
				c-3.9-2.3-8-4.5-12.2-6.6c-5.5-2.6-11.4-4.5-17.2-6.4c-5.3-1.6-10.8-2.6-16.1-4.2c-4.5-1.6-9.8-3.5-13.5-6.6
				c-1.9-1.9-2.9-4.8-3.7-7.1c-1-3.5-1.9-7.1-2.9-10.6s-2.2-7.1-3.7-10.3c-1.9-4.5-5.3-10.3-10.8-9.3c-6.1,1-10.3,7.1-11.9,12.4
				c-2.2,6.8-1.3,14.5,0,21.4c1.6,7.7,4.2,15.3,7.7,22.4c2.3,5.1,5.1,10,8.2,14.3c0.6,0.8,1.6,0,1-0.8c-3.9-5.1-6.8-10.8-9.3-16.6
				c-3.2-7.7-5.5-15.6-6.8-23.5c-1-7.1-1.3-14.8,2.3-21.1c2.6-4.5,9.3-9.8,14-4.8c2.2,2.3,3.5,5.5,4.5,8.2c1.3,3.5,2.3,7.1,3.7,10.6
				c1,3.5,2.3,6.6,3.7,9.8c0.8,2.3,1.9,4.5,3.5,6.4c3.2,3.5,8.2,5.5,12.4,7.1c5.1,1.9,10.3,2.9,15.6,3.9c6.4,1.6,12.4,3.5,18.2,6.1
				c4.2,1.9,8.2,3.9,12.4,6.4c7.4,3.9,14.8,8.2,21.1,13.7c6.1,5.1,11.4,12.2,10.3,20.4c-1,8.2-11.9,5.5-17.2,4.5
				c-3.9-0.8-7.7-1.6-11.9-1.9c-6.1-0.6-12.4-0.3-17.7-2.9c-0.3-0.3-0.3-0.3-0.6-0.3C431,473.6,430.8,474.4,431,474.7L431,474.7z"/>
		</g>
	</g>
	<g>
		<path fill="#F6B292" d="M313,15.1c-1.3,2.2-2.3,4.5-3.5,7.1c-4.5,11.6-5.1,25.6-12.4,35.7c-4.5,6.6-19,11.9-18.2,21.1
			c0.8,8.2,17.5,22,22.4,29.1c16.1,22.2,30.1,48.5,29.4,76.6c-0.8,25.9-8.2,53.9-18.2,78.2c-7.1,16.9-14,33.3-20.4,50.4
			c-4.5,12.4-1,22.7,5.1,33.6c0.8,1.6,1.9,2.9,2.9,4.2c0.8,16.6,13.7,31.7,18,46.9c3.2,11.9,7.1,23.3,10.3,35.2
			c2.2,10.3,2.9,22.7,9,31.1c4.5,6.1,11.4,8.2,18,11.9c8.2,4.2,15.9,8.7,24,12.7c14.5,6.8,28.5,14,43.3,20.6
			c6.8,3.2,21.1,10.3,29.1,7.1l-0.8-0.8l1,0.8c7.4-8.2-2.3-25.6-7.4-32.3c-5.5-7.1-15.6-16.9-25.3-19.5
			c-5.8-10.6-19.8-18.5-31.1-21.7l-3.7-4.5c0.3-11.6-5.5-27.5-7.1-33.3c-3.2-10.8,3.2-23.5,4.2-34.6c0.8-5.1,1.6-12.2,3.7-16.1
			c3.9-1.3,8-2.9,11.4-3.9c10.8-3.5,21.1-7.1,31.4-11.4c4.5,2.2,9.3,4.5,13.5,6.8l0.6-0.3c1.9,4.2,4.2,8.2,5.5,12.4
			c7.7,26.5,10.3,53.9,25.9,77.1c9.3,14,23,37.8,43.6,33.3c6.1-1.3,12.7-8.2,13.5-14.5v-0.3c0-0.3,0-0.6,0-0.8
			c0.6-11.4-4.5-24-8.7-34.3c-5.1-12.4-6.6-29.6-14.5-39.9l0.6-0.3c-0.3,0-0.6-0.3-0.8-0.3c0.3-1,0.3-2.2,0.3-3.5
			c-0.6-14.3-5.8-27.5-6.6-41.7c-0.8-14.3-0.6-25.3-5.5-38.1c0.6-2.3,0.8-5.1,1-8c0.8-6.4,1.3-12.7,1.9-19c0.8-12.4-0.3-24.9-3.5-37
			c-6.4-22.4-17.7-43.1-28.5-63.6c-5.5-10-10.8-20.1-15.9-30.7c-5.1-10.3-8.7-21.1-13.5-31.7c-10.3-23.8-23.5-46.7-37-69.1
			c-2.9-5.5-6.4-10.3-9.3-15.1c-3.1-10.7-8.6-15.2-18.2-20.7C350.3-12.9,325.4-6.8,313,15.1z"/>
		<g>
			<path fill="#E48C69" d="M444.9,484.1c-5.5-7.1-15.6-16.9-25.3-19.5c-5.8-10.6-19.8-18.5-31.1-21.7l-3.7-4.5
				c0.3-11.6-5.5-27.5-7.1-33.3c-3.2-10.8,3.2-23.5,4.2-34.6c0.8-5.1,1.6-12.2,3.7-16.1c3.9-1.3,8-2.9,11.4-3.9
				c10.8-3.5,21.1-7.1,31.4-11.4c2.3,1,4.5,2.2,6.8,3.5c-9.3-8.2-25.9-12.4-35.9-13.7l-0.6,0.6c9.3,12.4,8.7,16.1-7.4,21.1
				c-11.4,3.7-16.6,2.6-21.7,13.5c-13.2,26.2-2.9,48,1.3,75.7c2.2,11.9,5.1,14.5,14.5,18.8c7.7,3.2,17.7,3.7,24,9
				c3.2,3.2,4.2,8.4,7.1,11.4c11.9,11.9,33.9,15.3,34.9,38.3c0.3,0,0.6-0.3,0.8-0.3l-0.8-0.8l1,0.8
				C459.8,508.3,450,490.8,444.9,484.1z M350.3,5.6C366.4,32,379.4,58.3,393,86.1c25.1,51.1,55.9,101.4,67,158.1
				c2.3,12.7-2.3,25.3,0,37.8c2.6,14,12.4,24.3,20.6,35.4c8.2,11.6,7.4,23,11.6,35.7c1,3.2,5.1,28.5-1.9,28.5
				c8.7,0,8.7,6.4,3.7,11.4c8.7,0,11.9,9.5,2.6,13.5c10.3,1.6,12.4,15.6,15.1,19.3c4.2,6.4,18.2,19.3,14.5,28.1
				c1.9,2.3,1.3,5.1,0.8,8.2c1.9-2.3,2.9-5.1,3.2-7.4v-0.3c0-0.3,0-0.6,0-0.8c0.6-11.4-4.5-24-8.7-34.3
				c-5.1-12.4-6.6-29.6-14.5-39.9l0.6-0.3c-0.3,0-0.6-0.3-0.8-0.3c0.3-1,0.3-2.2,0.3-3.5c-0.6-14.3-5.8-27.5-6.6-41.7
				c-0.8-14.3-0.6-25.3-5.5-38.1c0.6-2.3,0.8-5.1,1-8c0.8-6.4,1.3-12.7,1.9-19c0.8-12.4-0.3-24.9-3.5-37
				c-6.4-22.4-17.7-43.1-28.5-63.6c-5.5-10-10.8-20.1-15.9-30.7c-5.1-10.3-8.7-21.1-13.5-31.7c-10.3-23.8-23.5-46.7-37-69.1
				c-2.9-5.5-6.4-10.3-9.3-15.1c-2.6-10.8-8.2-15.2-17.7-20.8c-9.8-5.8-19.5-8-29.1-6.8C345.2-2,348.4,2.7,350.3,5.6z"/>
			
				<linearGradient id="SVGID_4_" gradientUnits="userSpaceOnUse" x1="895.2801" y1="-441.6161" x2="877.8358" y2="-386.7463" gradientTransform="matrix(-1.5547 -0.816 0.816 -1.5547 2018.1841 384.9756)">
				<stop  offset="0" style="stop-color:#E48C69"/>
				<stop  offset="1" style="stop-color:#F6B292"/>
			</linearGradient>
			<path fill="url(#SVGID_4_)" d="M302.4,330.3c1-26.7,20.1-56.5,30.1-80.5C329.3,279.8,314.1,303.8,302.4,330.3z"/>
			
				<linearGradient id="SVGID_5_" gradientUnits="userSpaceOnUse" x1="915.0903" y1="-411.7088" x2="846.5825" y2="-359.3761" gradientTransform="matrix(-1.5547 -0.816 0.816 -1.5547 2018.1841 384.9756)">
				<stop  offset="0" style="stop-color:#FADBCA"/>
				<stop  offset="1" style="stop-color:#F6B292"/>
			</linearGradient>
			<path fill="url(#SVGID_5_)" d="M308.2,24.1c-1.3,3.9-1.9,8-2.2,11.9c-0.3,2.9-0.6,5.5-1,8.2c-0.8,3.5-3.5,5.1-5.5,8
				c-3.9,5.1,1.3,12.9,4.5,17.2c4.8,6.6,10.6,11.9,14.8,18.8c6.1,10.3,11.9,20.4,17.2,31c9.3,18.8,16.4,38.8,20.6,59.4
				c7.1,32.5,7.7,64.4-2.9,95.9c-5.5,17.2-12.4,33.9-25.1,46.9c-4.8,5.1-9.8,9.5-14,15.1c-4.5,5.8-6.6,12.9-6.6,20.1
				c0,0.8,0.8,1.3,1.3,1c1.6,8,6.1,16.1,9.8,22c4.8,7.7,7.4,16.4,9.3,25.1c1.9,8.7,3.9,17.2,6.1,25.6c2.3,9.3,5.3,18.5,9.8,26.9
				c1.9,3.5,3.9,6.8,6.6,9.8c3.5,3.7,8,6.1,12.4,8.2c10.8,5.1,22.2,8.7,32.7,14.5c10,5.5,19.3,12.9,30.1,16.6l-0.3,0.6
				c0,0,0,0-0.3,0c-0.6,0-0.6,0.8,0,0.8c10.8-0.3,1.3-9.3-2.3-12.4c-3.9-3.5-8.2-6.4-12.2-9.5c-5.5-3.9-10.3-8.4-16.4-11.4
				c-9-4.5-19.3-6.6-26.5-14c-6.8-7.1-9.8-16.9-11.9-25.9c-6.1-25.3-8.2-52.3,6.1-76c7.1-12.4,18-17.7,27.5-28.1
				c10.3-10.8,11.1-14,26.7-9c9.3,2.9,17.5,8.7,25.9,12.9c12.9,6.4,21.1,19.8,25.9,33.3c-0.3,0.3-0.3,0.6-0.3,0.8
				c0.8,5.3,1.3,22.2,10.8,20.1c5.8-1.3,6.8-6.6,6.6-11.9c-0.3-7.7-2.6-15.6-4.8-22.7c-1.3-3.9-2.6-8.2-3.9-12.4
				c-1-3.7-1.9-7.7-3.5-11.4c-4.8-11.1-16.1-15.6-19.8-27.5c-4.2-12.4-4.5-25.6-5.5-38.6c-1.9-24.9-12.4-49.3-25.1-70.7
				c-5.5-9.3-8-19.3-13.2-28.8c-6.8-12.4-14.5-24.3-20.1-37.2c-9.8-21.7-18.8-43.8-27.2-66c-5.8-15.3-9.5-33.9-22.4-44.8
				c-5.3-4.5-13.5-7.4-20.4-5.8C313.5,11.6,310.1,18.2,308.2,24.1z"/>
			<path fill="#EE9F7F" d="M410.1,71.3c12.9,24.3,23.5,50.7,36.2,75.5c11.4,22,23.3,44,33.3,66.8c5.1,11.4,5.5,23.3,7.1,35.7
				c1,8.7,6.1,26.2-2.2,31.4c5.5,16.1,11.9,29.1,11.9,46.7c0,8.7,0.8,16.6,2.3,25.3c1.3,6.8,6.1,16.4,1.9,22.7
				c3.2,2.2,2.3,4.5,3.5,6.8c0,0-0.3,2.6,0.3,3.5c0.6,1.3,2.9,0.8,3.5,2.2c2.2,5.3,0.3,9.3,1.9,14.3c2.3,9.3,11.1,18.2,15.6,27.2
				v-2.3c-1-2.9-2.2-5.5-3.2-8.2c-5.1-12.4-6.6-29.6-14.5-39.9l0.6-0.3c-0.3,0-0.6-0.3-0.8-0.3c0.3-1,0.3-2.2,0.3-3.5
				c-0.6-14.3-5.8-27.5-6.6-41.7c-0.8-14.3-0.6-25.3-5.5-38.1c0.6-2.3,0.8-5.1,1-8c0.8-6.4,1.3-12.7,1.9-19
				c0.8-12.4-0.3-24.9-3.5-37c-6.4-22.4-17.7-43.1-28.5-63.6c-5.5-10-10.8-20.1-15.9-30.7c-5.1-10.3-8.7-21.1-13.5-31.7
				c-10.3-23.8-23.5-46.7-37-69.1c-2.9-5.5-6.4-10.3-9.3-15.1c-2.6-10.8-8.2-15.3-17.7-20.9c-1.9-1-3.7-1.9-5.5-2.9
				C372.8,9,383.9,21.4,390,31C397.5,44.3,403.3,58.1,410.1,71.3z"/>
		</g>
		<path fill="#914533" d="M281.6,83.7c13.2,15.3,25.1,31.7,34.6,49.6c4.8,9,8.7,18.5,11.4,28.5c2.6,10.3,3.5,20.4,2.3,31
			c-1.9,24.9-9,49.6-18.8,72.1c-5.3,12.7-10.6,25.3-15.6,38.1c-2.2,5.5-5.1,11.1-6.1,16.9c-0.8,4.2-0.6,8.4,0.3,12.4
			c1.9,7.4,6.6,13.5,10.3,19.8c0,0.3,0.3,0.3,0.3,0.3c1.3,13.7,9.8,26.5,15.1,38.8c2.2,5.1,3.5,9.8,4.8,15.1
			c1.9,6.4,3.9,12.7,5.5,19c1.6,5.8,2.9,11.9,3.9,17.7c0.8,5.3,1.9,10.3,3.7,15.6c1.9,5.1,4.8,9.3,9.3,12.2c2.3,1.6,5.1,2.9,7.7,3.9
			c2.9,1.3,6.1,2.9,8.7,4.5c6.1,3.5,11.9,6.6,18.2,9.8c6.1,3.2,12.4,6.1,18.5,9.3c10.6,5.5,21.7,10.6,32.5,15.6
			c7.1,3.2,15.9,7.1,23.5,4.2c0.3,0,0.3-0.3,0.3-0.3c0.3,0,0.3-0.3,0.3-0.3s0,0,0.3,0c7.4-7.4,1.3-20.1-2.9-27.5
			c-6.4-10.8-17.2-19-28.2-24.3c-0.3-0.3-0.6,0-0.8,0.3c-1.9-3.9-5.1-7.7-8.4-10.8c-7.7-6.6-17.7-11.4-27.5-12.9
			c1-5.8,0.8-11.6-0.3-17.7c-0.8-3.9-1.9-7.7-2.9-11.4c-1.3-3.9-2.9-7.7-3.5-11.9c-0.8-7.7,1.9-15.3,3.7-22.4
			c0.8-3.5,1.3-7.1,1.9-10.8c0.6-3.9,1-8.4,3.2-11.9c0.3-0.3,0.3-0.3,0-0.6c14.3-3.7,28.2-8.2,41.7-14.5c4.5,1.9,9.3,4.2,13.5,6.6
			c0.3,0,0.3,0,0.3-0.3c4.5,9,6.6,19.3,9.3,28.5c2.9,10.8,5.5,21.7,8.7,32.3s7.7,20.6,13.5,29.6c5.5,8.2,10.8,16.6,17.7,23.8
			c7.1,6.8,15.9,11.1,25.6,9.3c4.2-0.8,7.7-3.5,10.6-6.6c2.3-2.9,3.7-6.4,3.5-10.3c0.3-6.6-0.8-13.2-2.3-19.5
			c-2.2-6.8-5.1-13.5-7.1-20.1c-3.5-11.9-3.9-25.9-13.2-35.2l0,0c0.3-7.7-0.8-14.8-2.2-22.2c-1.6-7.7-3.5-15.6-3.7-23.3
			c-0.6-12.7-1.3-26.5-6.6-38.3c0.3,0,0.3-0.3,0.3-0.3c1.9-11.1,3.5-22.2,3.7-33.6c0.3-11.6-1.9-22.7-5.1-33.9
			c-7.7-24-20.6-45.6-32.3-67.8c-6.4-11.9-12.4-23.8-17.2-36.5c-4.5-11.9-9.8-23.8-15.3-35.4c-6.1-12-12.8-23.1-19.3-34.4
			c-3.5-5.5-6.6-11.4-10-16.9c-3.5-5.5-6.6-10.8-10-16.4c-0.8-1.3-1.9-2.9-2.6-4.5c-0.3-0.8-1.3,0-1,0.8c2.9,5.5,6.6,10.8,9.8,16.1
			c3.5,5.5,6.6,11.4,9.8,16.9c6.6,11.4,12.7,22.7,18.8,34.6c11.9,23.3,20.6,48,32.7,71.3c11.9,22.4,24.6,44.8,32.7,68.9
			c3.9,11.4,6.1,22.7,6.4,34.6c0.3,11.4-1.3,22.7-1.9,33.9c0,0.3,0,0.8,0,0.8c-0.3-0.8-0.8-1.6-1-2.3c-0.3-0.3-0.8,0-0.8,0.3
			c2.9,6.8,5.1,13.5,5.5,20.6c0.8,7.1,0.3,14,0.8,21.1c0.8,15.1,6.6,29.6,7.1,44.6c-6.4-1.3-12.9,2.9-18.5,5.5
			c-0.3,0.3,0,0.8,0.3,0.8c2.9-1.3,5.5-2.3,8.7-3.5c3.2-1,6.8-2.3,10.3-1.9c6.8,10.8,8.2,23,11.6,34.9c3.5,12.4,10.8,24.6,11.1,38.1
			v0.3c0.3,3.9-2.9,8.4-5.8,11.4c-3.7,3.7-8.2,5.1-13.2,5.1c-10.6-0.3-18.8-8.7-24.9-16.4c-3.2-3.9-6.1-8.2-8.7-12.4
			c-2.9-4.5-5.8-8.7-8.2-13.2c-5.5-9.8-9-20.6-11.9-31.7c-2.3-9-3.7-18-6.1-26.9c-1.3-4.5-2.3-9.3-4.2-13.7
			c-1.9-4.2-3.9-8.2-6.6-11.9c-0.3-0.3-0.8,0-0.6,0.3c0.8,1,1.3,2.2,1.9,3.2c-6.1-3.5-12.4-6.8-19.3-9.5c-6.6-2.6-13.2-4.2-20.1-5.5
			c-0.3,0-0.6,0.6-0.3,0.6c8.4,1.9,16.6,4.5,24.6,8.2c-16.1,6.4-32.5,11.6-49.1,16.6c-0.3,0.3-0.3,0.8,0.3,0.8
			c2.2-0.6,3.9-1,6.1-1.6c-2.9,6.6-2.9,14.5-3.9,21.1c-1.3,7.4-3.9,14.8-4.2,22.2c-0.3,3.7,0.8,6.8,1.9,10.3
			c1.3,3.9,2.6,8.2,3.7,12.2c2.2,8.2,2.9,17.2,1.6,25.3c0,0.3,0.6,0.6,0.6,0.3c0.3-1.3,0.8-2.6,0.8-3.9c9.3,2.3,18,6.6,25.3,12.7
			c7.4,6.1,14,14.5,11.9,24.3c0,0.3,0.6,0.6,0.6,0.3c1-5.1,0.3-9.5-1.3-14c10,5.3,19.5,13.2,25.6,22.7c2.6,4.2,5.1,8.7,6.4,13.7
			c1.3,4.5,2.2,10-1,14l0,0c0,0,0,0-0.3,0c-3.9,1.3-8.7,0-12.4-1c-4.5-1.3-8.4-3.2-12.4-5.1c-11.4-5.3-22.7-10.8-34.1-16.1
			c-12.4-5.5-24.6-12.2-36.8-18.8c-5.3-2.9-11.1-5.5-15.6-9.8c-3.9-3.9-5.8-9.8-7.1-15.1c-1.3-5.1-1.9-9.8-2.9-14.8
			c-1-5.8-2.9-11.4-4.8-16.9c-1.9-5.8-3.7-11.6-5.5-17.5c-1.3-4.2-2.3-8.4-4.5-12.7c-6.6-15.1-18.5-30.1-14-47.5
			c0.3-0.8-0.8-0.8-1-0.3c-0.8,3.5-1,6.6-0.8,9.8c-1.9-3.9-3.9-8-5.5-12.2c-1.9-3.9-3.2-8-3.5-12.4c-0.6-5.3,1-10,2.9-14.8
			c2.3-6.6,5.1-13.2,7.7-19.8c5.1-12.4,10.3-24.6,15.1-37c4.2-11.4,7.7-23,10.3-34.9c4.8-21.1,7.1-43.3,0.8-64.2
			c-5.8-19.5-16.9-37-29.4-53c-5.3-6.8-10.8-13.5-16.6-20.1C281.8,82.4,281,83.2,281.6,83.7z M497.8,451.4c0.8,1.9,2.2,3.2,3.5,4.5
			c2.9,2.3,6.6,3.7,10.6,3.9c2.2,0,4.2-0.3,6.4-1c2.2-0.8,3.9-1.9,5.8-3.2c1.3-1,2.9-2.3,3.5-4.5c0.6-1.6,0.3-3.2-0.3-4.5
			c-0.8-2.3-2.3-4.5-3.5-6.6c-1.9-3.5-2.9-7.4-5.1-10.8c-0.8-1.3-1.9-2.6-3.2-3.5c-1.3-0.8-2.9-0.8-4.5-0.3
			c-2.2,0.8-3.9,2.3-5.8,3.5c-1.9,1.3-3.5,2.9-5.1,4.5c-1.3,1.6-2.3,3.5-3.5,5.5c-0.8,2.2-1,4.2-0.8,6.6
			C496.2,447.5,496.7,449.5,497.8,451.4z M507.3,427.8c1.6-1.3,3.5-2.3,5.5-2.3c1.6,0,2.9,1,3.9,2.3c1.3,1.3,1.9,3.2,2.9,5.1
			c0.8,1.9,1.6,3.9,2.3,5.5c0.3,0.8,0.8,1.3,0.8,2.2c0.8,1.6,1.9,3.2,2.9,4.8c0.8,1.6,1.3,3.2,1.3,5.1c-0.3,1.9-1.3,3.5-2.6,4.8
			c-1.9,1.6-3.7,2.6-5.8,3.5c-2.2,0.8-4.2,1.3-6.6,1.3c-1.9,0-3.9-0.3-6.1-1c-3.7-1.3-6.8-3.9-8.4-7.7c-1.9-4.2-1.9-9.3,0.3-13.2
			C499.9,433.6,503.7,430.4,507.3,427.8z M479.3,407.9c-0.8,0-0.8,1-0.3,1c5.8,1.3,12.9-0.8,18.2-2.9c5.3-2.2,11.9-5.5,12.9-11.9
			c0-0.3-0.6-0.6-0.6-0.3c-1.3,6.1-8.4,9-13.7,10.8C490.6,406.8,484.9,407.9,479.3,407.9z M502.5,385.9c-4.2,2.3-8.2,5.1-12.4,7.1
			c-3.9,2.3-8,5.1-11.1,8.2c-0.3,0.3,0.3,0.8,0.3,0.3c3.5-3.5,7.7-5.8,11.9-8.2c3.9-2.2,8.7-3.9,12.2-6.8
			C503.7,386.5,503.1,385.7,502.5,385.9z"/>
	</g>
</g>
<text transform="matrix(1 0 0 1 361.2671 249.7549)" font-family="'FingerPaint-Regular'" font-size="119.0214">L</text>
</svg>
