<?xml version="1.0" encoding="utf-8"?>
<!-- Generator: Adobe Illustrator 18.0.0, SVG Export Plug-In . SVG Version: 6.00 Build 0)  -->
<!DOCTYPE svg PUBLIC "-//W3C//DTD SVG 1.1//EN" "http://www.w3.org/Graphics/SVG/1.1/DTD/svg11.dtd">
<svg version="1.1"
	 id="svg1878" xmlns:inkscape="http://www.inkscape.org/namespaces/inkscape" xmlns:rdf="http://www.w3.org/1999/02/22-rdf-syntax-ns#" xmlns:cc="http://creativecommons.org/ns#" xmlns:sodipodi="http://sodipodi.sourceforge.net/DTD/sodipodi-0.dtd" xmlns:dc="http://purl.org/dc/elements/1.1/" xmlns:svg="http://www.w3.org/2000/svg" sodipodi:docname="pivot.svg" inkscape:version="0.92.4 (5da689c313, 2019-01-14)"
	 xmlns="http://www.w3.org/2000/svg" xmlns:xlink="http://www.w3.org/1999/xlink" x="0px" y="0px"
	 viewBox="159.7 -33.4 726.6 553.1" enable-background="new 159.7 -33.4 726.6 553.1" xml:space="preserve">
<sodipodi:namedview  inkscape:cy="18.257" borderopacity="1" inkscape:zoom="6.4632744" objecttolerance="10" guidetolerance="10" id="namedview11" pagecolor="#ffffff" showgrid="false" inkscape:cx="13.8885" bordercolor="#666666" gridtolerance="10" inkscape:current-layer="svg1878" inkscape:window-maximized="1" inkscape:pageshadow="2" inkscape:window-y="-8" inkscape:window-x="-8" inkscape:pageopacity="0" inkscape:window-width="1440" inkscape:window-height="837">
	</sodipodi:namedview>
<g id="layer1" transform="translate(-265.65 -73.096)">
	
		<linearGradient id="path10089_1_" gradientUnits="userSpaceOnUse" x1="685.9662" y1="-455.3188" x2="701.5741" y2="-438.7354" gradientTransform="matrix(0 23.9425 -16.4215 0 -6562.1885 -16333.1211)">
		<stop  offset="0" style="stop-color:#FF2A26"/>
		<stop  offset="1" style="stop-color:#96000D"/>
	</linearGradient>
	<path id="path10089" fill="url(#path10089_1_)" stroke="#6B1A11" stroke-width="1.75" stroke-linejoin="round" d="M909.6,370.1
		h-50.3V40.5H715.6v329.5H665l122.4,218.8L909.6,370.1L909.6,370.1z"/>
</g>
<g>
	<g>
		<g>
			<g>
				<path fill="#F6B292" d="M238.2,378.1c4.5,4.8,10.7,9.2,17.6,11.8c0.3,0.7,0.6,1.3,0.7,1.9c3.6,8.1,8.1,15.5,15.5,20.8
					c5.2,3.9,11.6,5,17.1,8.4l42.1,10.3c6.3,0,7.7-9.2,7.1-14.2c-1.9-10.3-10.3-15.2-17.4-20.8c-5.2-4.5-8.7-9.7-13.4-15
					c-3.9-3.9-9.2-6.1-13.6-9.2c-3.9-2.3-5.5-5.2-8.1-8.1c-2.3-8.1-4.5-17.9-11.6-22.1l-38.1,16.6
					C225.9,358.9,235.6,375.2,238.2,378.1z"/>
				<path fill="#E48C69" d="M266.5,399.9c10.7,13.4,22.3,17.4,38.3,21.8l26.3,7.1c9.7-14.2-15-29.7-22.3-38.3
					c-3.2-3.9-6.1-6.5-11-8.7c-4.5-2.3-9.7-1.9-13.4-4.2c-8.1-6.1-4.5-21-11-27.9c-9-8.7-22.9,3.5-23.1,13.4
					C248.9,375.7,258.9,390.5,266.5,399.9z"/>
				
					<linearGradient id="SVGID_1_" gradientUnits="userSpaceOnUse" x1="810.7601" y1="-441.264" x2="806.954" y2="-427.9424" gradientTransform="matrix(-1.5461 -0.8115 0.8115 -1.5461 1889.3691 382.6374)">
					<stop  offset="0" style="stop-color:#914533"/>
					<stop  offset="1" style="stop-color:#E48C69"/>
				</linearGradient>
				<path fill="url(#SVGID_1_)" d="M330.8,428.1c-5.8-19.7-29.4-23.7-42.5-35.7c-5.2-4.5-9.7-10.7-13.2-17.4
					c-2.3-4.5-6.8-24.2-10.7-26c-7.9-4.2-11.3,14.2-11.3,19.2c0.6,27.9,28.9,48.8,53.7,54L330.8,428.1z"/>
			</g>
			<g>
				<path fill="#914533" d="M330.8,431.2c7.1,0.3,8.7-9.2,8.1-14.5c-1-8.7-8.4-14.5-15-19.4c-3.9-2.9-7.4-6.5-10.7-10.3
					c-2.9-3.5-5.5-6.5-9.2-9.2c-3.5-2.3-7.1-4.2-10.3-6.3c-3.5-2.1-7.1-4.5-8.7-8.1c-0.3-0.7-1.9-0.3-1.3,0.3
					c2.6,6.1,9.7,9.2,15,12.3c2.9,1.9,6.1,3.6,8.7,6.3c3.5,3.5,6.3,7.7,9.7,11.3c5.5,6.3,13.6,10,18.1,17.4
					c1.9,3.5,2.6,7.4,2.3,11.3c-0.3,3.6-1.9,8.1-6.1,8.4C330.3,430.4,330.3,431.2,330.8,431.2L330.8,431.2z"/>
			</g>
			<g>
				<path fill="#914533" d="M287.1,370.5c-0.7-2.6-0.7-5.2-1.3-7.9c-0.7-2.9-1.3-6.1-2.3-9c-1.6-4.5-3.9-11.3-9-13.2
					c-1.3-0.6-2.1,0.7-1.3,1.9c1.9,1.9,3.5,3.5,4.8,5.5c1.6,2.3,2.6,5,3.5,7.9c0.7,2.3,1.6,5,2.3,7.7c0.7,2.6,1.9,5,2.6,7.7
					C286.2,371.3,287.1,371,287.1,370.5L287.1,370.5z"/>
			</g>
		</g>
		<g>
			<path fill="#F6B292" d="M354.7,458.7c4.2-8.7-1-18.7-7.7-23.7c-4.2-3.5-9.2-5-13.4-7.1c-6.3-2.9-9.7-6.5-15-11.3
				c-6.3-5.5-14.5-7.4-21.8-10c-7.4-2.6-16.8-2.3-21.6-9.2c-3.9-5.2-4.2-11.3-6.1-17.1c-2.3-7.7-7.7-14.5-10.7-21.6
				c-0.3-0.6-4.8,6.3-5,6.8c-1.3,3.2-1.9,6.8-1.9,10.3c-0.6,6.1-1.3,11.3-2.9,17.1c-3.2,10.5,2.1,19.2,9.2,26.8
				c14.5,16.5,38.6,31,60.6,33.1L354.7,458.7z"/>
			<path fill="#914533" d="M354.7,458.7c3.9-8.1,0.3-17.4-5.5-23.1c-4.2-4.2-9.7-6.1-15-8.7c-5.5-2.6-9.4-6.5-13.9-10.7
				c-5-4.2-10.7-6.5-17.1-8.7c-2.9-0.7-5.8-1.9-8.7-2.9c-2.9-0.7-6.1-1.3-8.7-2.1c-2.9-0.7-5.8-2.1-8.1-3.9
				c-2.3-2.1-3.9-5.2-4.8-8.1c-1.9-5.2-2.3-10.7-4.8-15.8c-2.3-5.2-5.5-10.3-8.1-15.5c-0.6-1.3-1.3-2.6-2.9-1.3
				c-1,0.7-1.9,2.1-2.3,3.2c-0.7,1.3-1.6,2.3-2.3,3.5c-1.3,2.1-1.6,5-1.9,7.1c-0.7,6.1-0.7,11.8-2.3,17.9c-1.3,5-2.1,9-1,13.9
				c0.7,4.5,3.5,8.4,6.1,11.8c6.1,8.1,14.2,15.2,22.6,21c12.3,8.7,27.3,15.8,42.5,16.5c0.7,0,0.7-1.3,0.3-1.3
				c-22.1-2.9-43.1-14.5-58.2-30.8c-6.5-7.1-13.4-16-11.3-26c0.6-2.6,1.3-5.2,2.1-8.1c0.8-2.9,1-6.1,1.3-9.2c0.6-5,0.6-10,3.5-13.9
				c0.7-0.7,1.3-1.9,1.9-2.9c0.3-0.3,0.6-0.7,0.7-1c0.3-0.3,0.7-0.7,0.3-0.6c-0.3-0.3-0.7-0.3-1.3-0.3c0.6,0.3,1,2.3,1.3,2.9
				c0.7,1.3,1.3,2.3,2.1,3.6c1.6,2.6,2.9,5.5,4.5,8.1c2.6,5,3.6,10.5,5.5,16c1.6,5,4.5,9.2,9.2,11.8c5,2.6,10.7,3.2,16,5
				c6.5,2.1,13.2,4.2,18.9,7.9c5,3.2,8.7,8.1,13.6,11.3c5.2,3.5,11.8,5,17.1,8.7c3.9,2.9,7.1,6.8,8.7,11.3c1.6,3.9,1.6,8.1-0.3,12.1
				C354.2,458.7,354.7,459.2,354.7,458.7L354.7,458.7z"/>
			<path fill="#E48C69" d="M352.1,453.5c-0.7-10-7.9-14.2-15.5-17.1c-11-5.2-18.1-14.5-28.9-19.2c-12.9-5-26.6-3.2-35.2-15.5
				c-3.9-5.2-9.2-28.4-14.2-29.7c-8.1-1.9-9.2,12.1-8.4,16.3c1.3,15,11.3,27.3,24.2,35.2c22.3,13.6,54,14.5,73.2,34.1L352.1,453.5z"
				/>
			
				<linearGradient id="SVGID_2_" gradientUnits="userSpaceOnUse" x1="795.8361" y1="-449.9202" x2="795.8361" y2="-439.4536" gradientTransform="matrix(-1.5461 -0.8115 0.8115 -1.5461 1889.3691 382.6374)">
				<stop  offset="0" style="stop-color:#914533"/>
				<stop  offset="1" style="stop-color:#E48C69"/>
			</linearGradient>
			<path fill="url(#SVGID_2_)" d="M350.5,453.9c-3.5-6.3-8.7-12.9-15.2-16.5c-10-5.5-21-13.6-32.1-16.5
				c-11.3-2.1-22.1-3.9-30.5-13.4c-7.7-8.7-8.1-23.7-16.5-31.8c-7.7,7.1-1.9,25.8,2.6,32.8c17.1,30.5,47.8,30.5,77.2,42.1
				L350.5,453.9z"/>
		</g>
		<g>
			<path fill="#F6B292" d="M311.2,471.6c6.5,3.9,15.8,2.9,23.1,4.5c8.1,1.3,24.7,7.7,25.2-5c1-18.1-25-29.4-38.1-37.3
				c-10.7-5.8-21.3-9-32.8-11.6c-5.5-1.3-15.5-4.8-19.4-9c-6.5-6.5-9.2-41.8-22.1-36.3c-23.1,10-3.9,56.4,6.1,68.2L311.2,471.6z"/>
			<path fill="#E48C69" d="M254.1,413.3c0.7,8.1-0.3,18.9,3.9,26.6c4.8,9,17.1,10.5,25.5,13.6c11.3,3.9,18.1,10.3,26.3,17.6l1.6,0.7
				c6.5,3.9,15.8,2.9,23.1,4.5c8.1,1.3,24.7,7.7,25.2-5c0.3-5.2-1.9-10-5-14.2l-1.3,1c2.6,9.2-12.3,8.1-17.1,7.1
				c-11.3-2.1-22.1-8.7-31-15.5c-7.1-5.5-12.6-13.4-20.8-17.6c-9.7-4.5-12.3-6.3-15.2-17.1c-0.3-0.7-0.6-1.9-0.7-2.6
				c-3.6-5-6.1-18.9-10.3-27.9C249.5,383.9,253.7,409.9,254.1,413.3z"/>
			
				<linearGradient id="SVGID_3_" gradientUnits="userSpaceOnUse" x1="796.1526" y1="-465.5487" x2="789.8009" y2="-443.3173" gradientTransform="matrix(-1.5461 -0.8115 0.8115 -1.5461 1889.3691 382.6374)">
				<stop  offset="0" style="stop-color:#914533"/>
				<stop  offset="1" style="stop-color:#E48C69"/>
			</linearGradient>
			<path fill="url(#SVGID_3_)" d="M258.1,410.2c1.6,8.4-3.6,29.2,4.5,33.4c4.5,2.3,10.3,1.3,15,4.2c6.1,3.5,12.3,8.4,18.1,12.6
				c3.9,3.2,7.1,6.1,10.5,8.7l5.5,2.3c6.5,3.9,15.8,2.9,23.1,4.5c8.1,1.3,24.7,7.7,25.2-5c0.3-3.2-0.6-6.1-1.9-9
				c-3.5,15.5-25.5,10.7-36.8,5.5c-6.5-3.2-14.5-7.7-19.7-12.3c-4.5-3.6-8.1-9.4-12.3-13.9c-4.5-4.5-10-5.5-14.7-9.2
				c-3.5-2.9-6.3-6.8-7.7-11c-2.3-7.4-3.5-15.5-4.8-23.1c-0.3-1-0.3-3.2-0.7-5.5c-1.3-3.9-2.6-7.7-4.2-10.3
				C248.6,378.3,257.6,407.6,258.1,410.2z"/>
			<path fill="#914533" d="M311,471.8c5,2.9,10.7,3.5,16.3,3.9c4.2,0.3,8.4,1.3,12.3,2.3c5.5,1.3,13.9,3.6,18.7-0.7
				c2.3-2.3,2.6-6.1,2.3-9.2c-0.3-3.5-1.9-6.8-3.9-9.7c-4.5-6.5-11.6-11.6-18.1-15.8c-3.5-2.1-7.1-4.2-10.7-6.1
				c-3.9-2.3-7.9-4.5-12.1-6.5c-5.5-2.6-11.3-4.5-17.1-6.3c-5.2-1.6-10.7-2.6-16-4.2c-4.5-1.6-9.7-3.5-13.4-6.5
				c-1.9-1.9-2.9-4.8-3.6-7.1c-1-3.5-1.9-7.1-2.9-10.5c-1-3.5-2.1-7.1-3.6-10.3c-1.9-4.5-5.2-10.3-10.7-9.2
				c-6.1,1-10.3,7.1-11.8,12.3c-2.1,6.8-1.3,14.5,0,21.3c1.6,7.7,4.2,15.2,7.7,22.3c2.3,5,5,10,8.1,14.2c0.6,0.7,1.6,0,1-0.7
				c-3.9-5-6.8-10.7-9.2-16.5c-3.2-7.7-5.5-15.5-6.8-23.4c-1-7.1-1.3-14.7,2.3-21c2.6-4.5,9.2-9.7,13.9-4.8c2.1,2.3,3.5,5.5,4.5,8.1
				c1.3,3.5,2.3,7.1,3.6,10.5c1,3.5,2.3,6.5,3.6,9.7c0.7,2.3,1.9,4.5,3.5,6.3c3.2,3.5,8.1,5.5,12.3,7.1c5,1.9,10.3,2.9,15.5,3.9
				c6.3,1.6,12.3,3.5,18.1,6.1c4.2,1.9,8.1,3.9,12.3,6.3c7.4,3.9,14.7,8.1,21,13.6c6.1,5,11.3,12.1,10.3,20.2
				c-1,8.1-11.8,5.5-17.1,4.5c-3.9-0.7-7.7-1.6-11.8-1.9c-6.1-0.6-12.3-0.3-17.6-2.9c-0.3-0.3-0.3-0.3-0.6-0.3
				C311,470.8,310.7,471.6,311,471.8L311,471.8z"/>
		</g>
	</g>
	<g>
		<path fill="#F6B292" d="M193.6,14.7c-1.3,2.1-2.3,4.5-3.5,7.1c-4.5,11.6-5,25.5-12.3,35.5c-4.5,6.5-18.9,11.8-18.1,21
			c0.7,8.1,17.4,21.8,22.3,28.9c16,22.1,30,48.2,29.2,76.1c-0.7,25.8-8.1,53.6-18.1,77.7c-7.1,16.8-13.9,33.1-20.2,50.1
			c-4.5,12.3-1,22.6,5,33.4c0.7,1.6,1.9,2.9,2.9,4.2c0.7,16.5,13.6,31.5,17.9,46.7c3.2,11.8,7.1,23.1,10.3,35
			c2.1,10.3,2.9,22.6,9,31c4.5,6.1,11.3,8.1,17.9,11.8c8.1,4.2,15.8,8.7,23.9,12.6c14.5,6.8,28.4,13.9,43.1,20.5
			c6.8,3.2,21,10.3,28.9,7.1l-0.7-0.7l1,0.7c7.4-8.1-2.3-25.5-7.4-32.1c-5.5-7.1-15.5-16.8-25.2-19.4c-5.8-10.5-19.7-18.4-31-21.6
			l-3.6-4.5c0.3-11.6-5.5-27.3-7.1-33.1c-3.2-10.7,3.2-23.4,4.2-34.4c0.7-5,1.6-12.1,3.6-16c3.9-1.3,7.9-2.9,11.3-3.9
			c10.7-3.5,21-7.1,31.3-11.3c4.5,2.1,9.2,4.5,13.4,6.8l0.6-0.3c1.9,4.2,4.2,8.1,5.5,12.3c7.7,26.3,10.3,53.6,25.8,76.7
			c9.2,13.9,22.9,37.6,43.4,33.1c6.1-1.3,12.6-8.1,13.4-14.5V451c0-0.3,0-0.6,0-0.7c0.6-11.3-4.5-23.9-8.7-34.1
			c-5-12.3-6.5-29.4-14.5-39.7l0.6-0.3c-0.3,0-0.6-0.3-0.7-0.3c0.3-1,0.3-2.1,0.3-3.5c-0.6-14.2-5.8-27.3-6.5-41.5
			c-0.7-14.2-0.6-25.2-5.5-37.9c0.6-2.3,0.7-5,1-7.9c0.7-6.3,1.3-12.6,1.9-18.9c0.7-12.3-0.3-24.7-3.5-36.8
			c-6.3-22.3-17.6-42.8-28.4-63.3c-5.5-10-10.7-20-15.8-30.5c-5-10.3-8.7-21-13.4-31.5c-10.3-23.7-23.4-46.5-36.8-68.8
			c-2.9-5.5-6.3-10.3-9.2-15c-3.1-10.6-8.6-15.1-18.1-20.6C230.6-13.1,205.9-7,193.6,14.7z"/>
		<g>
			<path fill="#E48C69" d="M324.8,481.3c-5.5-7.1-15.5-16.8-25.2-19.4c-5.8-10.5-19.7-18.4-31-21.6l-3.6-4.5
				c0.3-11.6-5.5-27.3-7.1-33.1c-3.2-10.7,3.2-23.4,4.2-34.4c0.7-5,1.6-12.1,3.6-16c3.9-1.3,7.9-2.9,11.3-3.9
				c10.7-3.5,21-7.1,31.3-11.3c2.3,1,4.5,2.1,6.8,3.5c-9.2-8.1-25.8-12.3-35.7-13.6l-0.6,0.6c9.2,12.3,8.7,16-7.4,21
				c-11.3,3.6-16.5,2.6-21.6,13.4c-13.2,26-2.9,47.8,1.3,75.3c2.1,11.8,5,14.5,14.5,18.7c7.7,3.2,17.6,3.6,23.9,9
				c3.2,3.2,4.2,8.4,7.1,11.3c11.8,11.8,33.7,15.2,34.7,38.1c0.3,0,0.6-0.3,0.7-0.3l-0.7-0.7l1,0.7
				C339.5,505.2,329.8,487.9,324.8,481.3z M230.6,5.3c16,26.3,28.9,52.4,42.5,80.1c25,50.8,55.6,100.9,66.6,157.2
				c2.3,12.6-2.3,25.2,0,37.6c2.6,13.9,12.3,24.2,20.5,35.2c8.1,11.6,7.4,22.9,11.6,35.5c1,3.2,5,28.4-1.9,28.4
				c8.7,0,8.7,6.3,3.6,11.3c8.7,0,11.8,9.4,2.6,13.4c10.3,1.6,12.3,15.5,15,19.2c4.2,6.3,18.1,19.2,14.5,27.9c1.9,2.3,1.3,5,0.7,8.1
				c1.9-2.3,2.9-5,3.2-7.4v-0.3c0-0.3,0-0.6,0-0.7c0.6-11.3-4.5-23.9-8.7-34.1c-5-12.3-6.5-29.4-14.5-39.7l0.6-0.3
				c-0.3,0-0.6-0.3-0.7-0.3c0.3-1,0.3-2.1,0.3-3.5c-0.6-14.2-5.8-27.3-6.5-41.5c-0.7-14.2-0.6-25.2-5.5-37.9c0.6-2.3,0.7-5,1-7.9
				c0.7-6.3,1.3-12.6,1.9-18.9c0.7-12.3-0.3-24.7-3.5-36.8c-6.3-22.3-17.6-42.8-28.4-63.3c-5.5-10-10.7-20-15.8-30.5
				c-5-10.3-8.7-21-13.4-31.5c-10.3-23.7-23.4-46.5-36.8-68.8c-2.9-5.5-6.3-10.3-9.2-15c-2.6-10.7-8.1-15.1-17.6-20.7
				c-9.7-5.8-19.4-7.9-28.9-6.8C225.6-2.2,228.8,2.4,230.6,5.3z"/>
			
				<linearGradient id="SVGID_4_" gradientUnits="userSpaceOnUse" x1="895.2801" y1="-441.6161" x2="877.8358" y2="-386.7463" gradientTransform="matrix(-1.5461 -0.8115 0.8115 -1.5461 1889.3691 382.6374)">
				<stop  offset="0" style="stop-color:#E48C69"/>
				<stop  offset="1" style="stop-color:#F6B292"/>
			</linearGradient>
			<path fill="url(#SVGID_4_)" d="M183,328.2c1-26.6,20-56.2,30-80.1C209.8,278,194.6,301.9,183,328.2z"/>
			
				<linearGradient id="SVGID_5_" gradientUnits="userSpaceOnUse" x1="915.0903" y1="-411.7088" x2="846.5825" y2="-359.3761" gradientTransform="matrix(-1.5461 -0.8115 0.8115 -1.5461 1889.3691 382.6374)">
				<stop  offset="0" style="stop-color:#FADBCA"/>
				<stop  offset="1" style="stop-color:#F6B292"/>
			</linearGradient>
			<path fill="url(#SVGID_5_)" d="M188.8,23.7c-1.3,3.9-1.9,7.9-2.1,11.8c-0.3,2.9-0.6,5.5-1,8.1c-0.7,3.5-3.5,5-5.5,7.9
				c-3.9,5,1.3,12.9,4.5,17.1c4.8,6.5,10.5,11.8,14.7,18.7c6.1,10.3,11.8,20.2,17.1,30.8c9.2,18.7,16.3,38.6,20.5,59.1
				c7.1,32.3,7.7,64-2.9,95.4c-5.5,17.1-12.3,33.7-25,46.7c-4.8,5-9.7,9.4-13.9,15c-4.5,5.8-6.5,12.9-6.5,20c0,0.7,0.7,1.3,1.3,1
				c1.6,7.9,6.1,16,9.7,21.8c4.8,7.7,7.4,16.3,9.2,25c1.9,8.7,3.9,17.1,6.1,25.5c2.3,9.2,5.2,18.4,9.7,26.8c1.9,3.5,3.9,6.8,6.5,9.7
				c3.5,3.6,7.9,6.1,12.3,8.1c10.7,5,22.1,8.7,32.6,14.5c10,5.5,19.2,12.9,30,16.5l-0.3,0.6c0,0,0,0-0.3,0c-0.6,0-0.6,0.7,0,0.7
				c10.7-0.3,1.3-9.2-2.3-12.3c-3.9-3.5-8.1-6.3-12.1-9.4c-5.5-3.9-10.3-8.4-16.3-11.3c-9-4.5-19.2-6.5-26.3-13.9
				c-6.8-7.1-9.7-16.8-11.8-25.8c-6.1-25.2-8.1-52,6.1-75.6c7.1-12.3,17.9-17.6,27.3-27.9c10.3-10.7,11-13.9,26.6-9
				c9.2,2.9,17.4,8.7,25.8,12.9c12.9,6.3,21,19.7,25.8,33.1c-0.3,0.3-0.3,0.6-0.3,0.7c0.7,5.2,1.3,22.1,10.7,20
				c5.8-1.3,6.8-6.5,6.5-11.8c-0.3-7.7-2.6-15.5-4.8-22.6c-1.3-3.9-2.6-8.1-3.9-12.3c-1-3.6-1.9-7.7-3.5-11.3
				c-4.8-11-16-15.5-19.7-27.3c-4.2-12.3-4.5-25.5-5.5-38.3c-1.9-24.7-12.3-49.1-25-70.3c-5.5-9.2-7.9-19.2-13.2-28.6
				c-6.8-12.3-14.5-24.2-20-37c-9.7-21.6-18.7-43.6-27.1-65.6c-5.8-15.2-9.4-33.7-22.3-44.6c-5.2-4.5-13.4-7.4-20.2-5.8
				C194,11.3,190.7,17.9,188.8,23.7z"/>
			<path fill="#EE9F7F" d="M290.2,70.7c12.9,24.2,23.4,50.4,36,75.1c11.3,21.8,23.1,43.8,33.1,66.4c5,11.3,5.5,23.1,7.1,35.5
				c1,8.7,6.1,26-2.1,31.3c5.5,16,11.8,28.9,11.8,46.5c0,8.7,0.7,16.5,2.3,25.2c1.3,6.8,6.1,16.3,1.9,22.6c3.2,2.1,2.3,4.5,3.5,6.8
				c0,0-0.3,2.6,0.3,3.5c0.6,1.3,2.9,0.7,3.5,2.1c2.1,5.2,0.3,9.2,1.9,14.2c2.3,9.2,11,18.1,15.5,27.1v-2.3c-1-2.9-2.1-5.5-3.2-8.1
				c-5-12.3-6.5-29.4-14.5-39.7l0.6-0.3c-0.3,0-0.6-0.3-0.7-0.3c0.3-1,0.3-2.1,0.3-3.5c-0.6-14.2-5.8-27.3-6.5-41.5
				s-0.6-25.2-5.5-37.9c0.6-2.3,0.7-5,1-7.9c0.7-6.3,1.3-12.6,1.9-18.9c0.7-12.3-0.3-24.7-3.5-36.8c-6.3-22.3-17.6-42.8-28.4-63.3
				c-5.5-10-10.7-20-15.8-30.5c-5-10.3-8.7-21-13.4-31.5c-10.3-23.7-23.4-46.5-36.8-68.8c-2.9-5.5-6.3-10.3-9.2-15
				C268.5,9.9,263,5.4,253.5-0.2c-1.9-1-3.6-1.9-5.5-2.9c5,11.8,16,24.2,22.1,33.7C277.6,43.9,283.3,57.6,290.2,70.7z"/>
		</g>
		<path fill="#914533" d="M162.3,83c13.2,15.2,25,31.5,34.4,49.4c4.8,9,8.7,18.4,11.3,28.4c2.6,10.3,3.5,20.2,2.3,30.8
			c-1.9,24.7-9,49.4-18.7,71.7c-5.2,12.6-10.5,25.2-15.5,37.9c-2.1,5.5-5,11-6.1,16.8c-0.7,4.2-0.6,8.4,0.3,12.3
			c1.9,7.4,6.5,13.4,10.3,19.7c0,0.3,0.3,0.3,0.3,0.3c1.3,13.6,9.7,26.3,15,38.6c2.1,5,3.5,9.7,4.8,15c1.9,6.3,3.9,12.6,5.5,18.9
			c1.6,5.8,2.9,11.8,3.9,17.6c0.7,5.2,1.9,10.3,3.6,15.5c1.9,5,4.8,9.2,9.2,12.1c2.3,1.6,5,2.9,7.7,3.9c2.9,1.3,6.1,2.9,8.7,4.5
			c6.1,3.5,11.8,6.5,18.1,9.7c6.1,3.2,12.3,6.1,18.4,9.2c10.5,5.5,21.6,10.5,32.3,15.5c7.1,3.2,15.8,7.1,23.4,4.2
			c0.3,0,0.3-0.3,0.3-0.3c0.3,0,0.3-0.3,0.3-0.3s0,0,0.3,0c7.4-7.4,1.3-20-2.9-27.3c-6.3-10.7-17.1-18.9-28.1-24.2
			c-0.3-0.3-0.6,0-0.7,0.3c-1.9-3.9-5-7.7-8.4-10.7c-7.7-6.5-17.6-11.3-27.3-12.9c1-5.8,0.7-11.6-0.3-17.6
			c-0.7-3.9-1.9-7.7-2.9-11.3c-1.3-3.9-2.9-7.7-3.5-11.8c-0.7-7.7,1.9-15.2,3.6-22.3c0.7-3.5,1.3-7.1,1.9-10.7
			c0.6-3.9,1-8.4,3.2-11.8c0.3-0.3,0.3-0.3,0-0.6c14.2-3.6,28.1-8.1,41.5-14.5c4.5,1.9,9.2,4.2,13.4,6.5c0.3,0,0.3,0,0.3-0.3
			c4.5,9,6.5,19.2,9.2,28.4c2.9,10.7,5.5,21.6,8.7,32.1s7.7,20.5,13.4,29.4c5.5,8.1,10.7,16.5,17.6,23.7c7.1,6.8,15.8,11,25.5,9.2
			c4.2-0.7,7.7-3.5,10.5-6.5c2.3-2.9,3.6-6.3,3.5-10.3c0.3-6.5-0.7-13.2-2.3-19.4c-2.1-6.8-5-13.4-7.1-20
			c-3.5-11.8-3.9-25.8-13.2-35l0,0c0.3-7.7-0.7-14.7-2.1-22.1c-1.6-7.7-3.5-15.5-3.6-23.1c-0.6-12.6-1.3-26.3-6.5-38.1
			c0.3,0,0.3-0.3,0.3-0.3c1.9-11,3.5-22.1,3.6-33.4c0.3-11.6-1.9-22.6-5-33.7c-7.7-23.9-20.5-45.3-32.1-67.5
			c-6.3-11.8-12.3-23.7-17.1-36.3c-4.5-11.8-9.7-23.7-15.2-35.2c-6.1-11.9-12.7-23-19.2-34.2c-3.5-5.5-6.5-11.3-10-16.8
			s-6.5-10.7-10-16.3c-0.7-1.3-1.9-2.9-2.6-4.5c-0.3-0.7-1.3,0-1,0.7c2.9,5.5,6.5,10.7,9.7,16c3.5,5.5,6.5,11.3,9.7,16.8
			c6.5,11.3,12.6,22.6,18.7,34.4c11.8,23.1,20.5,47.8,32.6,70.9c11.8,22.3,24.4,44.6,32.6,68.5c3.9,11.3,6.1,22.6,6.3,34.4
			c0.3,11.3-1.3,22.6-1.9,33.7c0,0.3,0,0.7,0,0.7c-0.3-0.7-0.7-1.6-1-2.3c-0.3-0.3-0.7,0-0.7,0.3c2.9,6.8,5,13.4,5.5,20.5
			c0.7,7.1,0.3,13.9,0.7,21c0.7,15,6.5,29.4,7.1,44.3c-6.3-1.3-12.9,2.9-18.4,5.5c-0.3,0.3,0,0.7,0.3,0.7c2.9-1.3,5.5-2.3,8.7-3.5
			c3.2-1,6.8-2.3,10.3-1.9c6.8,10.7,8.1,22.9,11.6,34.7c3.5,12.3,10.7,24.4,11,37.9v0.3c0.3,3.9-2.9,8.4-5.8,11.3
			c-3.6,3.6-8.1,5-13.2,5c-10.5-0.3-18.7-8.7-24.7-16.3c-3.2-3.9-6.1-8.1-8.7-12.3c-2.9-4.5-5.8-8.7-8.1-13.2
			c-5.5-9.7-9-20.5-11.8-31.5c-2.3-9-3.6-17.9-6.1-26.8c-1.3-4.5-2.3-9.2-4.2-13.6c-1.9-4.2-3.9-8.1-6.5-11.8
			c-0.3-0.3-0.7,0-0.6,0.3c0.7,1,1.3,2.1,1.9,3.2c-6.1-3.5-12.3-6.8-19.2-9.4c-6.5-2.6-13.2-4.2-20-5.5c-0.3,0-0.6,0.6-0.3,0.6
			c8.4,1.9,16.5,4.5,24.4,8.1c-16,6.3-32.3,11.6-48.8,16.5c-0.3,0.3-0.3,0.7,0.3,0.7c2.1-0.6,3.9-1,6.1-1.6
			c-2.9,6.5-2.9,14.5-3.9,21c-1.3,7.4-3.9,14.7-4.2,22.1c-0.3,3.6,0.7,6.8,1.9,10.3c1.3,3.9,2.6,8.1,3.6,12.1
			c2.1,8.1,2.9,17.1,1.6,25.2c0,0.3,0.6,0.6,0.6,0.3c0.3-1.3,0.7-2.6,0.7-3.9c9.2,2.3,17.9,6.5,25.2,12.6
			c7.4,6.1,13.9,14.5,11.8,24.2c0,0.3,0.6,0.6,0.6,0.3c1-5,0.3-9.4-1.3-13.9c10,5.2,19.4,13.2,25.5,22.6c2.6,4.2,5,8.7,6.3,13.6
			c1.3,4.5,2.1,10-1,13.9l0,0c0,0,0,0-0.3,0c-3.9,1.3-8.7,0-12.3-1c-4.5-1.3-8.4-3.2-12.3-5c-11.3-5.2-22.6-10.7-33.9-16
			c-12.3-5.5-24.4-12.1-36.6-18.7c-5.2-2.9-11-5.5-15.5-9.7c-3.9-3.9-5.8-9.7-7.1-15c-1.3-5-1.9-9.7-2.9-14.7
			c-1-5.8-2.9-11.3-4.8-16.8c-1.9-5.8-3.6-11.6-5.5-17.4c-1.3-4.2-2.3-8.4-4.5-12.6c-6.5-15-18.4-30-13.9-47.2
			c0.3-0.7-0.7-0.7-1-0.3c-0.7,3.5-1,6.5-0.7,9.7c-1.9-3.9-3.9-7.9-5.5-12.1c-1.9-3.9-3.2-7.9-3.5-12.3c-0.6-5.2,1-10,2.9-14.7
			c2.3-6.5,5-13.2,7.7-19.7c5-12.3,10.3-24.4,15-36.8c4.2-11.3,7.7-22.9,10.3-34.7c4.8-21,7.1-43.1,0.7-63.8
			c-5.8-19.4-16.8-36.8-29.2-52.7c-5.2-6.8-10.7-13.4-16.5-20C162.5,81.7,161.8,82.5,162.3,83z M377.4,448.7
			c0.7,1.9,2.1,3.2,3.5,4.5c2.9,2.3,6.5,3.6,10.5,3.9c2.1,0,4.2-0.3,6.3-1c2.1-0.7,3.9-1.9,5.8-3.2c1.3-1,2.9-2.3,3.5-4.5
			c0.6-1.6,0.3-3.2-0.3-4.5c-0.7-2.3-2.3-4.5-3.5-6.5c-1.9-3.5-2.9-7.4-5-10.7c-0.7-1.3-1.9-2.6-3.2-3.5c-1.3-0.8-2.9-0.7-4.5-0.3
			c-2.1,0.7-3.9,2.3-5.8,3.5c-1.9,1.3-3.5,2.9-5,4.5c-1.3,1.6-2.3,3.5-3.5,5.5c-0.7,2.1-1,4.2-0.7,6.5
			C375.8,444.8,376.3,446.8,377.4,448.7z M386.8,425.2c1.6-1.3,3.5-2.3,5.5-2.3c1.6,0,2.9,1,3.9,2.3c1.3,1.3,1.9,3.2,2.9,5
			c0.7,1.9,1.6,3.9,2.3,5.5c0.3,0.7,0.7,1.3,0.7,2.1c0.7,1.6,1.9,3.2,2.9,4.8c0.7,1.6,1.3,3.2,1.3,5c-0.3,1.9-1.3,3.5-2.6,4.8
			c-1.9,1.6-3.6,2.6-5.8,3.5c-2.1,0.8-4.2,1.3-6.5,1.3c-1.9,0-3.9-0.3-6.1-1c-3.6-1.3-6.8-3.9-8.4-7.7c-1.9-4.2-1.9-9.2,0.3-13.2
			C379.4,431,383.2,427.8,386.8,425.2z M358.9,405.4c-0.7,0-0.7,1-0.3,1c5.8,1.3,12.9-0.7,18.1-2.9c5.2-2.1,11.8-5.5,12.9-11.8
			c0-0.3-0.6-0.6-0.6-0.3c-1.3,6.1-8.4,9-13.6,10.7C370.2,404.4,364.5,405.4,358.9,405.4z M382.1,383.6c-4.2,2.3-8.1,5-12.3,7.1
			c-3.9,2.3-7.9,5-11,8.1c-0.3,0.3,0.3,0.7,0.3,0.3c3.5-3.5,7.7-5.8,11.8-8.1c3.9-2.1,8.7-3.9,12.1-6.8
			C383.2,384.1,382.6,383.4,382.1,383.6z"/>
	</g>
</g>
<text transform="matrix(1 0 0 1 241.562 248.1602)" font-family="'FingerPaint-Regular'" font-size="118.367">L</text>
<g>
	<g>
		<g>
			<g>
				<path fill="#F6B292" d="M809.4,362.2l-38.1-16.5c-7.1,4.2-9.2,13.9-11.6,22.1c-2.6,2.9-4.2,5.8-8.1,8.1
					c-4.5,3.2-9.7,5.2-13.6,9.2c-4.8,5.2-8.1,10.5-13.4,15c-7.1,5.5-15.5,10.5-17.4,20.8c-0.6,5,0.7,14.2,7.1,14.2l42.1-10.3
					c5.5-3.5,11.8-4.5,17.1-8.4c7.4-5.2,11.8-12.6,15.5-20.8c0.3-0.6,0.6-1,0.7-1.9c6.8-2.6,13.2-7.1,17.6-11.8
					C809.9,379.1,819.6,362.8,809.4,362.2z"/>
				<path fill="#E48C69" d="M795.2,367c-0.3-10-14.2-22.1-23.1-13.4c-6.5,6.8-2.9,21.8-11,27.9c-3.6,2.3-9,1.9-13.4,4.2
					c-5,2.1-7.9,4.8-11,8.7c-7.4,8.7-32.1,24.2-22.3,38.3l26.3-7.1c16-4.5,27.6-8.4,38.3-21.8C786.5,394.3,796.5,379.6,795.2,367z"
					/>
				
					<linearGradient id="SVGID_6_" gradientUnits="userSpaceOnUse" x1="627.7446" y1="907.4039" x2="623.9387" y2="894.0823" gradientTransform="matrix(1.5478 -0.8124 0.8124 1.5478 -941.0629 -483.6995)">
					<stop  offset="0" style="stop-color:#914533"/>
					<stop  offset="1" style="stop-color:#E48C69"/>
				</linearGradient>
				<path fill="url(#SVGID_6_)" d="M738.5,426.1c25-5.2,53.4-26.3,53.8-54.1c0-5-3.5-23.4-11.3-19.2c-3.9,1.9-8.4,21.6-10.7,26
					c-3.5,6.5-7.9,12.9-13.2,17.4c-13.2,12.1-36.8,16-42.5,35.7L738.5,426.1z"/>
			</g>
			<g>
				<path fill="#914533" d="M714.5,435.1c0.6,0,0.6-0.7-0.7-0.6c-4.2-0.3-5.8-4.8-6.1-8.4c-0.3-3.9,0.6-7.9,2.3-11.3
					c4.5-7.4,12.6-11,18.1-17.4c3.5-3.6,6.3-7.9,9.7-11.3c2.6-2.6,5.8-4.5,8.7-6.3c5.2-3.2,12.3-6.3,15-12.3c0.6-0.6-1-1-1.3-0.3
					c-1.6,3.6-5.2,6.1-8.7,8.1c-3.2,2.1-6.8,3.9-10.3,6.3c-3.6,2.6-6.3,5.8-9.2,9.2c-3.5,3.6-6.8,7.4-10.7,10.3
					c-6.5,5-13.9,10.7-15,19.4C705.8,425.8,707.4,435.4,714.5,435.1L714.5,435.1z"/>
			</g>
			<g>
				<path fill="#914533" d="M758.4,374.3c0,0.6,0.7,0.7,0.7,0.6c0.7-2.6,1.9-5,2.6-7.7s1.6-5.2,2.3-7.7c0.7-2.9,1.9-5.5,3.5-7.9
					c1.3-2.1,2.9-3.6,4.8-5.5c0.7-1,0-2.3-1.3-1.9c-5,1.9-7.4,8.7-9,13.2c-1,2.9-1.6,6.1-2.3,9C759.2,369.1,759.2,371.7,758.4,374.3
					L758.4,374.3z"/>
			</g>
		</g>
		<g>
			<path fill="#F6B292" d="M726.6,456.8c22.1-2.1,46.3-16.5,60.7-33.1c7.1-7.7,12.3-16.3,9.2-26.8c-1.6-5.8-2.3-11-2.9-17.1
				c0-3.5-0.6-7.1-1.9-10.3c-0.3-0.6-4.8-7.4-5-6.8c-3.2,7.1-8.4,13.9-10.7,21.6c-1.9,5.8-2.1,11.8-6.1,17.1
				c-4.8,6.8-14.2,6.5-21.6,9.2c-7.4,2.6-15.5,4.5-21.8,10c-5.2,4.8-8.7,8.4-15,11.3c-4.2,2.1-9.2,3.6-13.4,7.1
				c-6.5,5-11.8,15-7.7,23.7L726.6,456.8z"/>
			<path fill="#914533" d="M690.6,462.6c0,0.6,0.6,0,0.6-1.3c-1.9-3.9-1.9-8.1-0.3-12.1c1.6-4.5,4.8-8.4,8.7-11.3
				c5.2-3.6,11.8-5.2,17.1-8.7c5-3.2,8.7-8.1,13.6-11.3c5.8-3.6,12.3-5.8,18.9-7.9c5.2-1.9,11-2.3,16-5c4.8-2.6,7.7-6.8,9.2-11.8
				c1.9-5.5,2.9-11,5.5-16c1.6-2.6,2.9-5.5,4.5-8.1c0.7-1.3,1.3-2.3,2.1-3.6c0.3-0.6,0.7-2.6,1.3-2.9c-0.6,0-1,0-1.3,0.3
				c-0.6-0.3,0,0.3,0.3,0.6s0.6,0.7,0.7,1c0.6,1,1,2.1,1.9,2.9c2.9,3.9,2.9,9,3.5,13.9c0.3,3.2,0.6,6.3,1.3,9.2
				c0.7,2.9,1.6,5.5,2.1,8.1c2.1,10-4.8,18.9-11.3,26c-15.2,16.3-36.3,27.9-58.3,30.8c-0.6,0-0.6,1.3,0.3,1.3
				c15.2-0.7,30.2-7.9,42.5-16.5c8.4-5.8,16.5-12.9,22.6-21c2.6-3.5,5.2-7.4,6.1-11.8c1-5,0.3-9-1-13.9c-1.6-6.1-1.6-11.8-2.3-17.9
				c-0.3-2.1-0.6-5-1.9-7.1c-0.7-1-1.6-2.1-2.3-3.5c-0.6-1-1.3-2.3-2.3-3.2c-1.6-1.3-2.3,0-2.9,1.3c-2.6,5.2-5.8,10.3-8.1,15.5
				c-2.3,5-2.9,10.5-4.8,15.8c-0.7,2.9-2.3,6.1-4.8,8.1c-2.3,1.9-5.2,3.2-8.1,3.9c-2.6,0.7-5.8,1.3-8.7,2.1c-2.9,1-5.8,2.1-8.7,2.9
				c-6.3,2.1-12.1,4.5-17.1,8.7c-4.5,4.2-8.4,8.1-13.9,10.7c-5.2,2.6-10.7,4.5-15,8.7C690.3,445.3,686.7,454.5,690.6,462.6
				L690.6,462.6z"/>
			<path fill="#E48C69" d="M698,461.6c19.2-19.7,50.9-20.5,73.3-34.1c12.9-7.9,22.9-20.2,24.2-35.2c0.7-4.2-0.3-18.1-8.4-16.3
				c-5,1.3-10.3,24.4-14.2,29.7c-8.7,12.3-22.3,10.5-35.2,15.5c-10.7,4.8-17.9,13.9-28.9,19.2c-7.7,2.9-14.7,7.1-15.5,17.1
				L698,461.6z"/>
			
				<linearGradient id="SVGID_7_" gradientUnits="userSpaceOnUse" x1="612.7615" y1="916.0664" x2="612.7615" y2="905.5999" gradientTransform="matrix(1.5478 -0.8124 0.8124 1.5478 -941.0629 -483.6995)">
				<stop  offset="0" style="stop-color:#914533"/>
				<stop  offset="1" style="stop-color:#E48C69"/>
			</linearGradient>
			<path fill="url(#SVGID_7_)" d="M709.3,454.5c29.4-11.6,60.2-11.6,77.3-42.1c4.5-7.1,10.3-25.8,2.6-32.8
				c-8.4,8.1-9,23.1-16.5,31.8c-8.4,9.4-19.2,11.3-30.5,13.4c-11,2.9-22.1,11-32.1,16.5c-6.5,3.6-11.8,10.3-15.2,16.5L709.3,454.5z"
				/>
		</g>
		<g>
			<path fill="#F6B292" d="M792.3,449.3c10-11.8,29.2-58.3,6.1-68.3c-12.9-5.5-15.5,29.7-22.1,36.3c-3.9,4.2-13.9,7.7-19.4,9
				c-11.6,2.6-22.1,5.8-32.8,11.6c-13.2,7.9-39.2,19.2-38.1,37.3c0.6,12.6,17.1,6.3,25.2,5c7.4-1.6,16.5-0.6,23.1-4.5L792.3,449.3z"
				/>
			<path fill="#E48C69" d="M787.1,388.5c-4.2,9-6.5,22.9-10.3,27.9c-0.3,0.7-0.6,1.9-0.7,2.6c-2.9,10.7-5.5,12.6-15.2,17.1
				c-8.1,4.2-13.6,12.1-20.8,17.6c-9,6.8-19.7,13.4-31,15.5c-4.8,1-19.7,2.1-17.1-7.1l-1.3-1c-3.2,4.2-5.2,9-5,14.2
				c0.6,12.6,17.1,6.3,25.2,5c7.4-1.6,16.5-0.6,23.1-4.5l1.6-0.7c8.1-7.4,15-13.6,26.3-17.6c8.4-3.2,20.8-4.8,25.5-13.6
				c4.2-7.7,3.2-18.4,3.9-26.6C791.7,413.8,795.9,387.8,787.1,388.5z"/>
			
				<linearGradient id="SVGID_8_" gradientUnits="userSpaceOnUse" x1="613.1822" y1="931.6758" x2="606.8304" y2="909.4443" gradientTransform="matrix(1.5478 -0.8124 0.8124 1.5478 -941.0629 -483.6995)">
				<stop  offset="0" style="stop-color:#914533"/>
				<stop  offset="1" style="stop-color:#E48C69"/>
			</linearGradient>
			<path fill="url(#SVGID_8_)" d="M788.1,385.9c-1.6,2.6-2.9,6.3-4.2,10.3c-0.6,2.3-0.6,4.5-0.7,5.5c-1.3,7.7-2.3,15.8-4.8,23.1
				c-1.3,4.2-4.2,8.1-7.7,11c-4.8,3.6-10.3,4.8-14.7,9.2c-4.2,4.5-7.9,10.3-12.3,13.9c-5.2,4.8-13.2,9.2-19.7,12.3
				c-11.3,5.2-33.4,10-36.8-5.5c-1.3,2.9-2.1,5.8-1.9,9c0.6,12.6,17.1,6.3,25.2,5c7.4-1.6,16.5-0.6,23.1-4.5l5.5-2.3
				c3.5-2.6,6.5-5.5,10.5-8.7c5.8-4.2,12.1-9.2,18.1-12.6c4.8-2.9,10.5-1.9,15-4.2c8.1-4.2,2.9-25,4.5-33.4
				C787.8,411.4,796.8,382.2,788.1,385.9z"/>
			<path fill="#914533" d="M734.5,475.8c0.3-0.3,0-1-0.3-0.7c-0.3,0-0.3,0-0.6,0.3c-5.2,2.6-11.6,2.3-17.6,2.9
				c-4.2,0.3-7.9,1-11.8,1.9c-5.2,1-16,3.6-17.1-4.5s4.2-15.2,10.3-20.2c6.3-5.5,13.6-9.7,21-13.6c4.2-2.3,8.1-4.5,12.3-6.3
				c5.8-2.6,11.8-4.5,18.1-6.1c5.2-1,10.5-2.1,15.5-3.9c4.2-1.6,9.2-3.6,12.3-7.1c1.6-1.9,2.6-3.9,3.5-6.3c1.3-3.2,2.6-6.3,3.6-9.7
				c1.3-3.5,2.3-7.1,3.6-10.5c1-2.6,2.3-5.8,4.5-8.1c4.8-5,11.3,0.3,13.9,4.8c3.6,6.3,3.5,13.9,2.3,21c-1.3,7.9-3.6,15.8-6.8,23.4
				c-2.3,5.8-5.2,11.6-9.2,16.5c-0.6,0.7,0.6,1.6,1,0.7c3.2-4.2,5.8-9.2,8.1-14.2c3.5-7.1,6.1-14.7,7.7-22.3
				c1.3-6.8,2.1-14.5,0-21.3c-1.6-5.2-5.8-11.3-11.8-12.3c-5.5-1-9,4.8-10.7,9.2c-1.6,3.2-2.6,6.8-3.6,10.3c-1,3.5-1.9,7.1-2.9,10.5
				c-0.7,2.3-1.9,5.2-3.6,7.1c-3.6,3.2-9,5-13.4,6.5c-5.2,1.6-10.7,2.6-16,4.2c-5.8,1.9-11.6,3.6-17.1,6.3
				c-4.2,2.1-8.1,4.2-12.1,6.5c-3.6,1.9-7.4,3.9-10.7,6.1c-6.5,4.2-13.6,9.2-18.1,15.8c-2.1,2.9-3.6,6.3-3.9,9.7
				c-0.3,3.2,0,6.8,2.3,9.2c4.8,4.5,13.2,2.1,18.7,0.7c3.9-1,8.1-2.1,12.3-2.3C723.7,479.2,729.5,478.6,734.5,475.8L734.5,475.8z"/>
		</g>
	</g>
	<g>
		<path fill="#F6B292" d="M792.6,3.5c-9.4,5.5-15,10-17.6,20.8c-2.9,4.8-6.3,9.4-9.2,15c-13.4,22.3-26.6,45.3-36.8,68.9
			c-4.8,10.5-8.4,21.3-13.4,31.5c-5,10.5-10.3,20.5-15.8,30.5c-10.7,20.5-22.1,41-28.4,63.4c-3.2,12.1-4.2,24.4-3.5,36.8
			c0.6,6.3,1,12.6,1.9,18.9c0.3,2.9,0.6,5.5,1,7.9c-5,12.6-4.8,23.7-5.5,37.9c-0.7,14.2-6.1,27.3-6.5,41.5c0,1.3,0,2.3,0.3,3.5
			c-0.3,0-0.6,0.3-0.7,0.3l0.6,0.3c-7.9,10.3-9.4,27.3-14.5,39.7c-4.2,10.3-9.2,22.9-8.7,34.1c0,0.3,0,0.6,0,0.7v0.3
			c0.7,6.3,7.4,13.2,13.4,14.5c20.5,4.5,34.1-19.2,43.4-33.1c15.5-23.1,18.1-50.5,25.8-76.8c1.3-4.2,3.6-8.1,5.5-12.3l0.6,0.3
			c4.2-2.3,9-4.8,13.4-6.8c10.3,4.2,20.5,7.9,31.3,11.3c3.5,1,7.4,2.6,11.3,3.9c2.1,3.9,2.9,11,3.6,16c1,11,7.4,23.7,4.2,34.4
			c-1.6,5.8-7.4,21.6-7.1,33.1l-3.6,4.5c-11.3,3.2-25.2,11-31,21.6c-9.7,2.6-19.7,12.3-25.2,19.4c-5,6.5-14.7,23.9-7.4,32.1l1-0.7
			l-0.7,0.7c7.9,3.2,22.1-3.9,28.9-7.1c14.7-6.5,28.6-13.6,43.1-20.5c8.1-3.9,15.8-8.4,23.9-12.6c6.5-3.6,13.4-5.8,17.9-11.8
			c6.1-8.4,6.8-20.8,9-31c3.2-11.8,7.1-23.1,10.3-35c4.2-15.2,17.1-30.2,17.9-46.7c1-1.3,2.1-2.6,2.9-4.2c6.1-10.7,9.4-21,5-33.4
			c-6.3-17.1-13.2-33.4-20.2-50.2c-10-24.2-17.4-52.1-18.1-77.8c-0.7-27.9,13.2-54.1,29.2-76.2c5-7.1,21.6-20.8,22.3-28.9
			c0.7-9.2-13.6-14.5-18.1-21c-7.4-10-7.9-23.9-12.3-35.5c-1-2.6-2.1-5-3.5-7.1C839.6-3.6,814.9-9.7,792.6,3.5z"/>
		<g>
			<path fill="#E48C69" d="M712.9,517.8l1-0.7l-0.7,0.7c0.3,0,0.6,0.3,0.7,0.3c1-22.9,22.9-26.3,34.7-38.1c2.9-2.9,3.9-8.1,7.1-11.3
				c6.3-5.2,16.3-5.8,23.9-9c9.4-4.2,12.3-6.8,14.5-18.7c4.2-27.6,14.5-49.5,1.3-75.4c-5-10.7-10.3-9.7-21.6-13.4
				c-16-5-16.5-8.7-7.4-21l-0.6-0.6c-10,1.3-26.6,5.5-35.7,13.6c2.3-1.3,4.5-2.3,6.8-3.5c10.3,4.2,20.5,7.9,31.3,11.3
				c3.5,1,7.4,2.6,11.3,3.9c2.1,3.9,2.9,11,3.6,16c1,11,7.4,23.7,4.2,34.4c-1.6,5.8-7.4,21.6-7.1,33.1l-3.6,4.5
				c-11.3,3.2-25.2,11-31,21.6c-9.7,2.6-19.7,12.3-25.2,19.4C715.5,491.8,705.8,509.2,712.9,517.8z M821.5-3.1
				c-9.4-1-19.2,1-28.9,6.8c-9.4,5.5-15,10-17.6,20.8c-2.9,4.8-6.3,9.4-9.2,15c-13.3,22.3-26.5,45.2-36.8,68.8
				c-4.8,10.5-8.4,21.3-13.4,31.5c-5,10.5-10.3,20.5-15.8,30.5c-10.7,20.5-22.1,41-28.4,63.4c-3.2,12.1-4.2,24.4-3.5,36.8
				c0.6,6.3,1,12.6,1.9,18.9c0.3,2.9,0.6,5.5,1,7.9c-5,12.6-4.8,23.7-5.5,37.9s-6.1,27.3-6.5,41.5c0,1.3,0,2.3,0.3,3.5
				c-0.3,0-0.6,0.3-0.7,0.3l0.6,0.3c-7.9,10.3-9.4,27.3-14.5,39.7c-4.2,10.3-9.2,22.9-8.7,34.1c0,0.3,0,0.6,0,0.7v0.3
				c0.3,2.3,1.3,5,3.2,7.4c-0.6-3.2-1-5.8,0.7-8.1c-3.6-8.7,10.3-21.6,14.5-27.9c2.6-3.6,4.8-17.6,15-19.2
				c-9.2-3.9-6.1-13.4,2.6-13.4c-5-5-5-11.3,3.6-11.3c-6.8,0-2.9-25.2-1.9-28.4c4.2-12.6,3.5-23.9,11.6-35.5
				c8.1-11,17.9-21.3,20.5-35.2c2.3-12.3-2.3-25,0-37.6c11-56.5,41.8-106.5,66.7-157.4c13.6-27.7,26.5-54,42.5-80.2
				C816.7,5.9,819.9,1.1,821.5-3.1z"/>
			
				<linearGradient id="SVGID_9_" gradientUnits="userSpaceOnUse" x1="712.2814" y1="907.7499" x2="694.8371" y2="852.8801" gradientTransform="matrix(1.5478 -0.8124 0.8124 1.5478 -941.0629 -483.6995)">
				<stop  offset="0" style="stop-color:#E48C69"/>
				<stop  offset="1" style="stop-color:#F6B292"/>
			</linearGradient>
			<path fill="url(#SVGID_9_)" d="M832.5,251.8c10,23.9,28.9,53.6,30,80.1C850.9,305.8,835.7,281.8,832.5,251.8z"/>
			
				<linearGradient id="SVGID_10_" gradientUnits="userSpaceOnUse" x1="732.1775" y1="877.6918" x2="663.6696" y2="825.3591" gradientTransform="matrix(1.5478 -0.8124 0.8124 1.5478 -941.0629 -483.6995)">
				<stop  offset="0" style="stop-color:#FADBCA"/>
				<stop  offset="1" style="stop-color:#F6B292"/>
			</linearGradient>
			<path fill="url(#SVGID_10_)" d="M845.4,13.4c-6.8-1.6-15,1.3-20.2,5.8c-12.9,11-16.5,29.4-22.3,44.7
				c-8.4,22.1-17.4,44.1-27.1,65.7c-5.5,12.9-13.2,24.7-20,37c-5.2,9.4-7.7,19.4-13.2,28.6c-12.6,21.3-23.1,45.7-25,70.4
				c-1,12.9-1.3,26-5.5,38.3c-3.6,11.8-15,16.3-19.7,27.3c-1.6,3.6-2.3,7.7-3.5,11.3c-1.3,4.2-2.6,8.4-3.9,12.3
				c-2.1,7.1-4.5,15-4.8,22.6c-0.3,5.2,0.7,10.5,6.5,11.8c9.4,2.1,10-14.7,10.7-20c0-0.3,0-0.6-0.3-0.7
				c4.8-13.4,12.9-26.8,25.8-33.1c8.4-4.2,16.5-10,25.8-12.9c15.5-5,16.3-1.9,26.6,9c9.4,10.3,20.2,15.5,27.3,27.9
				c14.2,23.7,12.1,50.5,6.1,75.7c-2.1,9-5,18.7-11.8,25.8c-7.1,7.4-17.4,9.4-26.3,13.9c-6.1,2.9-10.7,7.4-16.3,11.3
				c-3.9,3.2-8.1,6.1-12.1,9.4c-3.6,3.2-13.2,12.1-2.3,12.3c0.6,0,0.6-0.7,0-0.7c-0.3,0-0.3,0-0.3,0l-0.3-0.6
				c10.7-3.6,20-11,29.9-16.5c10.5-5.8,21.8-9.4,32.6-14.5c4.5-2.1,9-4.5,12.3-8.1c2.6-2.9,4.8-6.3,6.5-9.7
				c4.5-8.4,7.4-17.6,9.7-26.8c2.1-8.4,4.2-16.8,6.1-25.5c1.9-8.7,4.5-17.4,9.2-25c3.6-5.8,8.1-13.9,9.7-21.8c0.6,0.3,1.3-0.3,1.3-1
				c0-7.1-2.1-14.2-6.5-20c-4.2-5.5-9.2-10-13.9-15c-12.6-13.2-19.4-29.7-25-46.7c-10.5-31.3-10-63.1-2.9-95.4
				c4.2-20.5,11.3-40.5,20.5-59.2c5.2-10.5,11-20.5,17.1-30.8c4.2-6.8,10-12.1,14.7-18.7c3.2-4.2,8.4-12.1,4.5-17.1
				c-2.1-2.9-4.8-4.5-5.5-7.9c-0.6-2.6-0.7-5.2-1-8.1c-0.3-3.9-0.7-7.9-2.1-11.8C854.8,21.4,851.5,14.7,845.4,13.4z"/>
			<path fill="#EE9F7F" d="M775.5,34.2c6.1-9.4,17.1-21.8,22.1-33.7c-1.9,1-3.6,1.9-5.5,2.9c-9.4,5.5-15,10-17.6,20.8
				c-2.9,4.8-6.3,9.4-9.2,15c-13.4,22.3-26.6,45.3-36.8,68.9c-4.8,10.5-8.4,21.3-13.4,31.5c-5,10.5-10.3,20.5-15.8,30.5
				c-10.7,20.5-22.1,41-28.4,63.4c-3.2,12.1-4.2,24.4-3.5,36.8c0.6,6.3,1,12.6,1.9,18.9c0.3,2.9,0.6,5.5,1,7.9
				c-5,12.6-4.8,23.7-5.5,37.9c-0.7,14.2-6.1,27.3-6.5,41.5c0,1.3,0,2.3,0.3,3.5c-0.3,0-0.6,0.3-0.7,0.3l0.6,0.3
				c-7.9,10.3-9.4,27.3-14.5,39.7c-1,2.6-2.1,5.2-3.2,8.1v2.3c4.5-9,13.2-17.9,15.5-27.1c1.6-5-0.3-9,1.9-14.2
				c0.6-1.3,2.9-0.7,3.5-2.1c0.6-0.7,0.3-3.5,0.3-3.5c1-2.3,0.3-4.8,3.5-6.8c-4.2-6.3,0.6-15.8,1.9-22.6c1.6-8.7,2.3-16.5,2.3-25.2
				c0-17.6,6.3-30.5,11.8-46.6c-8.1-5.2-3.2-22.6-2.1-31.3c1.6-12.3,2.1-24.2,7.1-35.5c10-22.6,21.8-44.7,33.1-66.5
				c12.6-24.7,23.1-50.9,36-75.2C762.1,61,767.9,47.4,775.5,34.2z"/>
		</g>
		<path fill="#914533" d="M883,85.2c-5.8,6.5-11.3,13.2-16.5,20c-12.3,16-23.4,33.4-29.2,52.8c-6.3,20.8-3.9,42.8,0.7,63.9
			c2.6,11.8,6.1,23.4,10.3,34.7c4.8,12.3,10,24.4,15,36.8c2.6,6.5,5.2,13.2,7.7,19.7c1.9,4.8,3.5,9.4,2.9,14.7
			c-0.3,4.5-1.6,8.4-3.5,12.3c-1.6,4.2-3.6,8.1-5.5,12.1c0.3-3.2,0-6.3-0.7-9.7c-0.3-0.6-1.3-0.6-1,0.3c4.5,17.4-7.4,32.3-13.9,47.3
			c-2.1,4.2-3.2,8.4-4.5,12.6c-1.9,5.8-3.6,11.6-5.5,17.4c-1.9,5.5-3.6,11-4.8,16.8c-1,5-1.6,9.7-2.9,14.7c-1.3,5.2-3.2,11-7.1,15
			c-4.5,4.2-10.3,6.8-15.5,9.7c-12.1,6.5-24.2,13.2-36.6,18.7c-11.3,5.2-22.6,10.7-33.9,16c-3.9,1.9-7.9,3.6-12.3,5
			c-3.6,1-8.4,2.3-12.3,1c-0.3,0-0.3,0-0.3,0l0,0c-3.2-3.9-2.3-9.4-1-13.9c1.3-5,3.6-9.4,6.3-13.6c6.1-9.4,15.5-17.4,25.5-22.6
			c-1.6,4.5-2.3,9-1.3,13.9c0,0.3,0.6,0,0.6-0.3c-2.1-9.7,4.5-18.1,11.8-24.2c7.4-6.1,16-10.3,25.2-12.6c0,1.3,0.6,2.6,0.7,3.9
			c0,0.3,0.6,0,0.6-0.3c-1.3-8.1-0.6-17.1,1.6-25.2c1-3.9,2.3-8.1,3.6-12.1c1-3.5,2.1-6.5,1.9-10.3c-0.3-7.4-2.9-14.7-4.2-22.1
			c-1-6.5-1-14.5-3.9-21c2.1,0.6,3.9,1,6.1,1.6c0.6,0,0.6-0.6,0.3-0.7c-16.5-5-32.8-10.3-48.9-16.5c7.9-3.6,16-6.3,24.4-8.1
			c0.3,0,0-0.6-0.3-0.6c-6.8,1.3-13.4,2.9-20,5.5c-6.8,2.6-13.2,6.1-19.2,9.4c0.6-1,1-2.1,1.9-3.2c0.3-0.3-0.3-0.6-0.6-0.3
			c-2.6,3.6-4.8,7.7-6.5,11.8c-1.9,4.5-2.9,9.2-4.2,13.6c-2.3,9-3.6,17.9-6.1,26.8c-2.9,11-6.3,21.8-11.8,31.5
			c-2.3,4.5-5.2,8.7-8.1,13.2c-2.6,4.2-5.5,8.4-8.7,12.3c-6.1,7.7-14.2,16-24.7,16.3c-5,0-9.4-1.3-13.2-5c-2.9-2.9-6.1-7.4-5.8-11.3
			v-0.3c0.3-13.4,7.7-25.5,11-37.9c3.5-11.8,4.8-23.9,11.6-34.7c3.5-0.6,7.1,0.7,10.3,1.9c3.2,1,5.8,2.1,8.7,3.5
			c0.3,0,0.6-0.6,0.3-0.7c-5.5-2.6-12.1-6.8-18.4-5.5c0.6-15,6.3-29.4,7.1-44.4c0.6-7.1,0-13.9,0.7-21c0.6-7.1,2.6-13.6,5.5-20.5
			c0-0.3-0.6-0.6-0.7-0.3c-0.3,0.7-0.7,1.6-1,2.3c0,0,0-0.6,0-0.7c-0.6-11-2.1-22.3-1.9-33.7c0.3-11.8,2.3-23.1,6.3-34.4
			c8.1-23.9,20.8-46.3,32.6-68.6c12.1-23.1,20.8-47.9,32.6-71c6.1-11.8,12.1-23.1,18.7-34.4c3.2-5.5,6.3-11.3,9.7-16.8
			c3.2-5.2,6.8-10.5,9.7-16c0.3-0.7-0.7-1.6-1-0.7c-0.7,1.6-1.9,3.2-2.6,4.5c-3.5,5.5-6.5,10.7-10,16.3c-3.5,5.5-6.5,11.3-10,16.8
			c-6.5,11.3-13.2,22.3-18.9,34.1c-5.5,11.6-10.7,23.4-15.2,35.2c-4.8,12.6-10.7,24.4-17.1,36.3c-11.6,22.1-24.4,43.7-32.1,67.6
			c-3.2,11-5.2,22.1-5,33.7c0.3,11.3,1.9,22.3,3.6,33.4c0,0,0,0.3,0.3,0.3c-5.2,11.8-6.1,25.5-6.5,38.1c-0.3,7.7-2.1,15.5-3.6,23.1
			c-1.3,7.4-2.3,14.5-2.1,22.1l0,0c-9.2,9.2-9.7,23.1-13.2,35c-2.1,6.5-5,13.2-7.1,20c-1.6,6.3-2.6,12.9-2.3,19.4
			c-0.3,3.9,1,7.4,3.5,10.3c2.9,3.2,6.3,5.8,10.5,6.5c9.7,1.9,18.4-2.3,25.5-9.2c6.8-7.1,12.1-15.5,17.6-23.7
			c5.8-9,10.3-18.9,13.4-29.4c3.2-10.5,5.8-21.3,8.7-32.1c2.6-9.2,4.8-19.4,9.2-28.4c0,0.3,0,0.3,0.3,0.3c4.2-2.3,9-4.8,13.4-6.5
			c13.4,6.3,27.3,10.7,41.5,14.5c-0.3,0.3-0.3,0.3,0,0.6c2.1,3.5,2.6,7.9,3.2,11.8c0.6,3.6,1,7.4,1.9,10.7
			c1.9,7.1,4.5,14.7,3.6,22.3c-0.6,4.2-2.1,7.9-3.5,11.8c-1,3.6-2.1,7.4-2.9,11.3c-1,6.1-1.3,11.8-0.3,17.6
			c-9.7,1.6-19.7,6.3-27.3,12.9c-3.5,3.2-6.5,6.8-8.4,10.7c-0.3-0.3-0.6-0.6-0.7-0.3c-11,5.2-21.8,13.4-28.1,24.2
			c-4.2,7.4-10.3,20-2.9,27.3c0.3,0,0.3,0,0.3,0s0,0.3,0.3,0.3c0,0,0,0.3,0.3,0.3c7.7,2.9,16.3-1,23.4-4.2c10.7-5,21.8-10,32.3-15.5
			c6.1-3.2,12.3-6.1,18.4-9.2c6.3-3.2,12.1-6.3,18.1-9.7c2.6-1.6,5.8-3.2,8.7-4.5c2.6-1,5.2-2.3,7.7-3.9c4.5-2.9,7.4-7.1,9.2-12.1
			c1.9-5.2,2.9-10.3,3.6-15.5c1-5.8,2.3-11.8,3.9-17.6c1.6-6.3,3.6-12.6,5.5-18.9c1.3-5.2,2.6-10,4.8-15c5.2-12.3,13.6-25,15-38.6
			c0,0,0.3,0,0.3-0.3c3.6-6.3,8.4-12.3,10.3-19.7c0.7-3.9,1-8.1,0.3-12.3c-1-5.8-3.9-11.3-6.1-16.8c-5-12.6-10.3-25.2-15.5-37.9
			c-9.7-22.3-16.8-47-18.7-71.7c-1-10.5-0.3-20.5,2.3-30.8c2.6-10,6.5-19.4,11.3-28.4c9.4-17.9,21.3-34.1,34.4-49.5
			C883.7,86,883,85.2,883,85.2z M669.8,446.8c0.3-2.3,0-4.5-0.7-6.5c-1-2.1-2.1-3.9-3.5-5.5c-1.6-1.6-3.2-3.2-5-4.5
			c-1.9-1-3.6-2.6-5.8-3.5c-1.6-0.6-3.2-0.6-4.5,0.3c-1.3,0.8-2.3,2.1-3.2,3.5c-2.1,3.5-3.2,7.4-5,10.7c-1,2.1-2.6,4.2-3.5,6.5
			c-0.6,1.3-0.7,2.9-0.3,4.5c0.6,2.1,2.1,3.5,3.5,4.5c1.9,1.3,3.6,2.3,5.8,3.2c2.1,0.7,4.2,1,6.3,1c3.9-0.3,7.7-1.6,10.5-3.9
			c1.3-1.3,2.6-2.6,3.5-4.5C669.1,450.8,669.6,448.7,669.8,446.8z M668,439c2.1,3.9,2.1,9,0.3,13.2c-1.6,3.6-4.8,6.3-8.4,7.7
			c-2.1,0.7-4.2,1-6.1,1c-2.3,0-4.5-0.6-6.5-1.3c-2.1-0.7-3.9-1.9-5.8-3.5c-1.3-1.3-2.3-2.9-2.6-4.8c0-1.9,0.6-3.5,1.3-5
			c1-1.6,2.1-3.2,2.9-4.8c0-0.7,0.6-1.3,0.7-2.1c0.7-1.6,1.6-3.6,2.3-5.5c1-1.9,1.6-3.6,2.9-5c1-1.3,2.3-2.3,3.9-2.3
			c2.1,0,3.9,1,5.5,2.3C662.2,431.6,665.9,434.8,668,439z M669.8,406.2c-5.2-1.9-12.3-4.8-13.6-10.7c0-0.3-0.6,0-0.6,0.3
			c1,6.3,7.7,9.7,12.9,11.8c5.2,2.1,12.3,4.2,18.1,2.9c0.6,0,0.6-1-0.3-1C680.9,409.3,675.1,408.2,669.8,406.2z M662.4,388
			c3.5,2.9,8.1,4.8,12.1,6.8c4.2,2.3,8.4,4.8,11.8,8.1c0,0.6,0.6,0,0.3-0.3c-3.2-3.2-7.1-5.8-11-8.1c-4.2-2.1-8.1-4.8-12.3-7.1
			C662.7,387.2,662.2,388,662.4,388z"/>
	</g>
</g>
<text transform="matrix(1 0 0 1 738.4483 252.6235)" font-family="'FingerPaint-Regular'" font-size="118.4938">R</text>
</svg>
