<?xml version="1.0" encoding="utf-8"?>
<!-- Generator: Adobe Illustrator 18.0.0, SVG Export Plug-In . SVG Version: 6.00 Build 0)  -->
<!DOCTYPE svg PUBLIC "-//W3C//DTD SVG 1.1//EN" "http://www.w3.org/Graphics/SVG/1.1/DTD/svg11.dtd">
<svg version="1.1" id="Layer_1" xmlns="http://www.w3.org/2000/svg" xmlns:xlink="http://www.w3.org/1999/xlink" x="0px" y="0px"
	 viewBox="284.7 8.4 269.2 560.6" enable-background="new 284.7 8.4 269.2 560.6" xml:space="preserve">
<g>
	<g>
		<g>
			<g>
				<path fill="#DBF9DD" d="M469.8,421c-4.8,5.1-11.5,9.8-18.9,12.7c-0.3,0.8-0.6,1.4-0.8,2c-3.9,8.7-8.7,16.6-16.6,22.2
					c-5.6,4.2-12.4,5.3-18.3,9l-45,11c-6.8,0-8.2-9.8-7.6-15.2c2-11,11-16.3,18.6-22.2c5.6-4.8,9.3-10.4,14.4-16
					c4.2-4.2,9.8-6.5,14.6-9.8c4.2-2.5,5.9-5.6,8.7-8.7c2.5-8.7,4.8-19.1,12.4-23.6l40.8,17.7C483,400.5,472.6,417.9,469.8,421z"/>
				<path fill="#C6F6CA" d="M439.4,444.4c-11.5,14.4-23.9,18.6-41.1,23.4l-28.1,7.6c-10.4-15.2,16-31.8,23.9-41.1
					c3.4-4.2,6.5-7,11.8-9.3c4.8-2.5,10.4-2,14.4-4.5c8.7-6.5,4.8-22.5,11.8-29.8c9.6-9.3,24.5,3.7,24.8,14.4
					C457.9,418.5,447.2,434.3,439.4,444.4z"/>
				
					<linearGradient id="SVGID_1_" gradientUnits="userSpaceOnUse" x1="64.0604" y1="-57.0347" x2="60.2543" y2="-43.7132" gradientTransform="matrix(1.6572 -0.8698 -0.8698 -1.6572 271.3881 413.2205)">
					<stop  offset="0" style="stop-color:#9AEFA0"/>
					<stop  offset="1" style="stop-color:#C6F6CA"/>
				</linearGradient>
				<path fill="url(#SVGID_1_)" d="M370.1,474.5c6.2-21.1,31.5-25.3,45.6-38.3c5.6-4.8,10.4-11.5,14.1-18.6
					c2.5-4.8,7.3-25.9,11.5-27.9c8.4-4.5,12.1,15.2,12.1,20.5c-0.6,29.8-31,52.3-57.7,58L370.1,474.5z"/>
			</g>
			<g>
				<path fill="#9AEFA0" d="M370.1,477.9c-7.6,0.3-9.3-9.8-8.7-15.5c1.1-9.3,9-15.5,16-20.8c4.2-3.1,7.9-7,11.5-11
					c3.1-3.7,5.9-7,9.8-9.8c3.7-2.5,7.6-4.5,11-6.8c3.7-2.3,7.6-4.8,9.3-8.7c0.3-0.8,2-0.3,1.4,0.3c-2.8,6.5-10.4,9.8-16,13.2
					c-3.1,2-6.5,3.9-9.3,6.8c-3.7,3.7-6.8,8.2-10.4,12.1c-5.9,6.8-14.6,10.7-19.4,18.6c-2,3.7-2.8,7.9-2.5,12.1c0.3,3.9,2,8.7,6.5,9
					C370.7,477,370.7,477.9,370.1,477.9L370.1,477.9z"/>
			</g>
			<g>
				<path fill="#9AEFA0" d="M417.4,412.9c0.8-2.8,0.8-5.6,1.4-8.4c0.8-3.1,1.4-6.5,2.5-9.6c1.7-4.8,4.2-12.1,9.6-14.1
					c1.4-0.6,2.3,0.8,1.4,2c-2,2-3.7,3.7-5.1,5.9c-1.7,2.5-2.8,5.3-3.7,8.4c-0.8,2.5-1.7,5.3-2.5,8.2c-0.8,2.8-2,5.3-2.8,8.2
					C418.3,413.7,417.1,413.4,417.4,412.9L417.4,412.9z"/>
			</g>
		</g>
		<g>
			<path fill="#DBF9DD" d="M344.8,507.4c-4.5-9.3,1.1-20,8.2-25.3c4.5-3.7,9.8-5.3,14.4-7.6c6.8-3.1,10.4-7,16-12.1
				c6.8-5.9,15.5-7.9,23.4-10.7c7.9-2.8,18-2.5,23.1-9.8c4.2-5.6,4.5-12.1,6.5-18.3c2.5-8.2,8.2-15.5,11.5-23.1
				c0.3-0.6,5.1,6.8,5.3,7.3c1.4,3.4,2,7.3,2,11c0.6,6.5,1.4,12.1,3.1,18.3c3.4,11.3-2.3,20.5-9.8,28.7
				c-15.5,17.7-41.4,33.2-65,35.5L344.8,507.4z"/>
			<path fill="#9AEFA0" d="M344.5,507.4c-4.2-8.7-0.3-18.6,5.9-24.8c4.5-4.5,10.4-6.5,16-9.3c5.9-2.8,10.1-7,14.9-11.5
				c5.3-4.5,11.5-7,18.3-9.3c3.1-0.8,6.2-2,9.3-3.1c3.1-0.8,6.5-1.4,9.3-2.3c3.1-0.8,6.2-2.3,8.7-4.2c2.5-2.3,4.2-5.6,5.1-8.7
				c2-5.6,2.5-11.5,5.1-16.9c2.5-5.6,5.9-11,8.7-16.6c0.6-1.4,1.4-2.8,3.1-1.4c1.1,0.8,2,2.3,2.5,3.4c0.8,1.4,1.7,2.5,2.5,3.7
				c1.4,2.3,1.7,5.3,2,7.6c0.8,6.5,0.8,12.7,2.5,19.1c1.4,5.3,2.3,9.6,1.1,14.9c-0.8,4.8-3.7,9-6.5,12.7
				c-6.5,8.7-15.2,16.3-24.2,22.5c-13.2,9.3-29.3,16.9-45.6,17.7c-0.8,0-0.8-1.4-0.3-1.4c23.6-3.1,46.2-15.5,62.5-32.9
				c7-7.6,14.4-17.2,12.1-27.9c-0.6-2.8-1.4-5.6-2.3-8.7c-0.8-3.1-1.1-6.5-1.4-9.8c-0.6-5.3-0.6-10.7-3.7-14.9c-0.8-0.8-1.4-2-2-3.1
				c-0.3-0.3-0.6-0.8-0.8-1.1c-0.3-0.3-0.8-0.8-0.3-0.6c0.3-0.3,0.8-0.3,1.4-0.3c-0.6,0.3-1.1,2.5-1.4,3.1c-0.8,1.4-1.4,2.5-2.3,3.9
				c-1.7,2.8-3.1,5.9-4.8,8.7c-2.8,5.3-3.9,11.3-5.9,17.2c-1.7,5.3-4.8,9.8-9.8,12.7c-5.3,2.8-11.5,3.4-17.2,5.3
				c-7,2.3-14.1,4.5-20.3,8.4c-5.3,3.4-9.3,8.7-14.6,12.1c-5.6,3.7-12.7,5.3-18.3,9.3c-4.2,3.1-7.6,7.3-9.3,12.1
				c-1.7,4.2-1.7,8.7,0.3,12.9C345.4,507.4,344.8,508,344.5,507.4L344.5,507.4z"/>
			<path fill="#C6F6CA" d="M347.6,501.8c0.8-10.7,8.4-15.2,16.6-18.3c11.8-5.6,19.4-15.5,31-20.5c13.8-5.3,28.4-3.4,37.7-16.6
				c4.2-5.6,9.8-30.4,15.2-31.8c8.7-2,9.8,12.9,9,17.4c-1.4,16-12.1,29.3-25.9,37.7c-23.9,14.6-58,15.5-78.5,36.6L347.6,501.8z"/>
			
				<linearGradient id="SVGID_2_" gradientUnits="userSpaceOnUse" x1="49.0593" y1="-65.6759" x2="49.0593" y2="-55.2094" gradientTransform="matrix(1.6572 -0.8698 -0.8698 -1.6572 271.3881 413.2205)">
				<stop  offset="0" style="stop-color:#9AEFA0"/>
				<stop  offset="1" style="stop-color:#C6F6CA"/>
			</linearGradient>
			<path fill="url(#SVGID_2_)" d="M349,502.4c3.7-6.8,9.3-13.8,16.3-17.7c10.7-5.9,22.5-14.6,34.3-17.7c12.1-2.3,23.6-4.2,32.6-14.4
				c8.2-9.3,8.7-25.3,17.7-34.1c8.2,7.6,2,27.6-2.8,35.2c-18.3,32.6-51.2,32.6-82.7,45L349,502.4z"/>
		</g>
		<g>
			<path fill="#DBF9DD" d="M391.5,521.2c-7,4.2-16.9,3.1-24.8,4.8c-8.7,1.4-26.5,8.2-27-5.3c-1.1-19.4,26.7-31.5,40.8-40
				c11.5-6.2,22.8-9.6,35.2-12.4c5.9-1.4,16.6-5.1,20.8-9.6c7-7,9.8-44.7,23.6-38.8c24.8,10.7,4.2,60.5-6.5,73.2L391.5,521.2z"/>
			<path fill="#C6F6CA" d="M452.6,458.8c-0.8,8.7,0.3,20.3-4.2,28.4c-5.1,9.6-18.3,11.3-27.3,14.6c-12.1,4.2-19.4,11-28.1,18.9
				l-1.7,0.8c-7,4.2-16.9,3.1-24.8,4.8c-8.7,1.4-26.5,8.2-27-5.3c-0.3-5.6,2-10.7,5.3-15.2l1.4,1.1c-2.8,9.8,13.2,8.7,18.3,7.6
				c12.1-2.3,23.6-9.3,33.2-16.6c7.6-5.9,13.5-14.4,22.2-18.9c10.4-4.8,13.2-6.8,16.3-18.3c0.3-0.8,0.6-2,0.8-2.8
				c3.9-5.3,6.5-20.3,11-29.8C457.4,427.2,452.9,455.1,452.6,458.8z"/>
			
				<linearGradient id="SVGID_3_" gradientUnits="userSpaceOnUse" x1="49.5962" y1="-81.2784" x2="43.2445" y2="-59.0469" gradientTransform="matrix(1.6572 -0.8698 -0.8698 -1.6572 271.3881 413.2205)">
				<stop  offset="0" style="stop-color:#9AEFA0"/>
				<stop  offset="1" style="stop-color:#C6F6CA"/>
			</linearGradient>
			<path fill="url(#SVGID_3_)" d="M448.4,455.4c-1.7,9,3.9,31.2-4.8,35.7c-4.8,2.5-11,1.4-16,4.5c-6.5,3.7-13.2,9-19.4,13.5
				c-4.2,3.4-7.6,6.5-11.3,9.3l-5.9,2.5c-7,4.2-16.9,3.1-24.8,4.8c-8.7,1.4-26.5,8.2-27-5.3c-0.3-3.4,0.6-6.5,2-9.6
				c3.7,16.6,27.3,11.5,39.4,5.9c7-3.4,15.5-8.2,21.1-13.2c4.8-3.9,8.7-10.1,13.2-14.9c4.8-4.8,10.7-5.9,15.8-9.8
				c3.7-3.1,6.8-7.3,8.2-11.8c2.5-7.9,3.7-16.6,5.1-24.8c0.3-1.1,0.3-3.4,0.8-5.9c1.4-4.2,2.8-8.2,4.5-11
				C458.5,421.3,448.9,452.6,448.4,455.4z"/>
			<path fill="#9AEFA0" d="M391.5,521.5c-5.3,3.1-11.5,3.7-17.4,4.2c-4.5,0.3-9,1.4-13.2,2.5c-5.9,1.4-14.9,3.9-20-0.8
				c-2.5-2.5-2.8-6.5-2.5-9.8c0.3-3.7,2-7.3,4.2-10.4c4.8-7,12.4-12.4,19.4-16.9c3.7-2.3,7.6-4.5,11.5-6.5c4.2-2.5,8.4-4.8,12.9-7
				c5.9-2.8,12.1-4.8,18.3-6.8c5.6-1.7,11.5-2.8,17.2-4.5c4.8-1.7,10.4-3.7,14.4-7c2-2,3.1-5.1,3.9-7.6c1.1-3.7,2-7.6,3.1-11.3
				c1.1-3.7,2.3-7.6,3.9-11c2-4.8,5.6-11,11.5-9.8c6.5,1.1,11,7.6,12.7,13.2c2.3,7.3,1.4,15.5,0,22.8c-1.7,8.2-4.5,16.3-8.2,23.9
				c-2.5,5.3-5.3,10.7-8.7,15.2c-0.6,0.8-1.7,0-1.1-0.8c4.2-5.3,7.3-11.5,9.8-17.7c3.4-8.2,5.9-16.6,7.3-25
				c1.1-7.6,1.4-15.8-2.5-22.5c-2.8-4.8-9.8-10.4-14.9-5.1c-2.3,2.5-3.7,5.9-4.8,8.7c-1.4,3.7-2.5,7.6-3.9,11.3
				c-1.1,3.7-2.5,7-3.9,10.4c-0.8,2.5-2,4.8-3.7,6.8c-3.4,3.7-8.7,5.9-13.2,7.6c-5.3,2-11,3.1-16.6,4.2c-6.8,1.7-13.2,3.7-19.4,6.5
				c-4.5,2-8.7,4.2-13.2,6.8c-7.9,4.2-15.8,8.7-22.5,14.6c-6.5,5.3-12.1,12.9-11,21.7s12.7,5.9,18.3,4.8c4.2-0.8,8.2-1.7,12.7-2
				c6.5-0.6,13.2-0.3,18.9-3.1c0.3-0.3,0.3-0.3,0.6-0.3C391.5,520.4,392.1,521.2,391.5,521.5L391.5,521.5z"/>
		</g>
	</g>
	<g>
		<path fill="#DBF9DD" d="M517.6,31.6c1.4,2.3,2.5,4.8,3.7,7.6c4.8,12.4,5.3,27.3,13.2,38c4.8,7,20.3,12.7,19.4,22.5
			c-0.8,8.7-18.6,23.4-23.9,31c-17.2,23.6-32.1,51.8-31.2,81.6c0.8,27.6,8.7,57.4,19.4,83.3c7.6,18,14.9,35.5,21.7,53.7
			c4.8,13.2,1.1,24.2-5.3,35.7c-0.8,1.7-2,3.1-3.1,4.5c-0.8,17.7-14.6,33.8-19.1,50.1c-3.4,12.7-7.6,24.8-11,37.4
			c-2.3,11-3.1,24.2-9.6,33.2c-4.8,6.5-12.1,8.7-19.1,12.7c-8.7,4.5-16.9,9.3-25.6,13.5c-15.5,7.3-30.4,14.9-46.2,21.9
			c-7.3,3.4-22.5,11-31,7.6l0.8-0.8l-1.1,0.8c-7.9-8.7,2.5-27.3,7.9-34.3c5.9-7.6,16.6-18,27-20.8c6.2-11.3,21.1-19.7,33.2-23.1
			l3.9-4.8c-0.3-12.4,5.9-29.3,7.6-35.5c3.4-11.5-3.4-25-4.5-36.9c-0.8-5.3-1.7-12.9-3.9-17.2c-4.2-1.4-8.4-3.1-12.1-4.2
			c-11.5-3.7-22.5-7.6-33.5-12.1c-4.8,2.3-9.8,4.8-14.4,7.3l-0.6-0.3c-2,4.5-4.5,8.7-5.9,13.2c-8.2,28.1-11,57.4-27.6,82.2
			c-9.8,14.9-24.5,40.2-46.4,35.5c-6.5-1.4-13.5-8.7-14.4-15.5v-0.3c0-0.3,0-0.6,0-0.8c-0.6-12.1,4.8-25.6,9.3-36.6
			c5.3-13.2,7-31.5,15.5-42.5l-0.6-0.3c0.3,0,0.6-0.3,0.8-0.3c-0.3-1.1-0.3-2.3-0.3-3.7c0.6-15.2,6.2-29.3,7-44.5
			c0.8-15.2,0.6-27,5.9-40.5c-0.6-2.5-0.8-5.3-1.1-8.4c-0.8-6.8-1.4-13.5-2-20.3c-0.8-13.2,0.3-26.5,3.7-39.4
			c6.8-23.9,18.9-45.9,30.4-67.8c5.9-10.7,11.5-21.4,16.9-32.6c5.3-11,9.3-22.5,14.4-33.8c11-25.3,25-49.8,39.4-73.7
			c3.1-5.9,6.8-11,9.8-16c2.8-11.5,8.7-16.3,18.9-22.2C477.9,1.7,504.4,8.2,517.6,31.6z"/>
		<g>
			<path fill="#C6F6CA" d="M369,566l1.1-0.8L369,566c0.6,0.3,0.8,0.3,1.1,0.6c1.1-24.5,24.2-28.1,37.1-40.8
				c2.8-2.8,3.9-8.4,7.6-12.1c6.8-5.6,17.7-6.2,25.6-9.6c10.4-4.5,13.2-7.3,15.5-20c4.8-29.5,15.5-52.9,1.4-80.8
				c-5.6-11.5-11.3-10.4-23.1-14.4c-17.2-5.9-17.7-9.8-7.9-22.5l-0.6-0.6c-10.4,1.4-28.4,5.9-38.3,14.6c2.5-1.4,4.8-2.5,7.3-3.7
				c11,4.8,21.9,8.7,33.5,12.1c3.7,1.1,7.9,2.8,12.1,4.2c2.3,3.9,3.1,11.5,3.9,17.2c1.1,12.1,7.9,25.6,4.5,36.9
				c-2,5.9-7.9,23.1-7.6,35.5l-3.9,4.8c-12.1,3.7-26.7,11.8-33.2,23.1c-10.4,2.8-20.8,13.2-27,20.8C371.3,538.7,361.1,557.2,369,566
				z M484.4,8.8c-9.8-1.1-20.5,1.4-31,7.3c-9.8,5.9-16,10.7-18.9,22.2c-3.1,5.3-7,10.4-9.8,16c-14.1,23.6-28.1,48.4-39.4,73.7
				c-4.8,11.3-9,22.5-14.4,33.8c-5.3,11-11,21.9-16.9,32.6c-11.8,21.7-23.6,43.9-30.4,67.8c-3.7,12.9-4.8,25.9-3.7,39.4
				c0.3,6.8,1.1,13.5,2,20.3c0.3,3.1,0.3,5.9,1.1,8.4c-5.3,13.8-5.3,25.3-5.9,40.5c-0.8,15.2-6.5,29.3-7,44.5c0,1.4,0,2.5,0.3,3.7
				c-0.3,0-0.6,0-0.8,0.3l0.6,0.3c-8.4,11-10.4,29.3-15.5,42.5c-4.2,11-9.8,24.5-9.3,36.6c0,0.3,0,0.6,0,0.8v0.3
				c0.3,2.5,1.4,5.3,3.4,7.9c-0.8-3.4-1.1-5.9,0.8-8.7c-3.9-9.8,11-23.1,15.5-29.8c2.8-3.9,5.3-18.9,16-20.5
				c-9.6-3.9-6.2-14.4,2.8-14.4c-5.1-5.1-5.1-12.1,3.9-12.1c-7.6,0-3.1-27-2-30.4c4.5-13.5,3.7-25.6,12.4-38
				c8.4-11.8,19.1-22.8,21.9-37.7c2.5-13.5-2.5-27,0-40.2c11.8-60.8,44.7-113.7,71.5-168.6c14.6-29.8,28.4-57.7,45.6-85.8
				C479.9,18.3,483.3,13.3,484.4,8.8z"/>
			
				<linearGradient id="SVGID_4_" gradientUnits="userSpaceOnUse" x1="148.5982" y1="-57.3829" x2="131.1539" y2="-2.5129" gradientTransform="matrix(1.6572 -0.8698 -0.8698 -1.6572 271.3881 413.2205)">
				<stop  offset="0" style="stop-color:#C6F6CA"/>
				<stop  offset="1" style="stop-color:#DBF9DD"/>
			</linearGradient>
			<path fill="url(#SVGID_4_)" d="M528.6,367.6c-1.1-28.4-21.4-60.2-32.1-85.8C499.9,313.8,516.2,339.4,528.6,367.6z"/>
			
				<linearGradient id="SVGID_5_" gradientUnits="userSpaceOnUse" x1="168.5428" y1="-27.3337" x2="100.035" y2="24.9987" gradientTransform="matrix(1.6572 -0.8698 -0.8698 -1.6572 271.3881 413.2205)">
				<stop  offset="0" style="stop-color:#EEFCEF"/>
				<stop  offset="1" style="stop-color:#DBF9DD"/>
			</linearGradient>
			<path fill="url(#SVGID_5_)" d="M522.7,41.1c1.4,4.2,2,8.4,2.3,12.7c0.3,3.1,0.6,5.9,1.1,8.7c0.8,3.7,3.7,5.3,5.9,8.4
				c4.2,5.3-1.4,13.8-4.8,18.3c-5.1,7-11.3,12.7-15.8,20c-6.5,11-12.7,21.7-18.3,32.9c-9.8,20-17.4,41.4-21.9,63.3
				c-7.6,34.6-8.2,68.7,3.1,102.2c5.9,18.3,13.2,36,26.7,50.1c5.1,5.3,10.4,10.1,14.9,16c4.8,6.2,7,13.8,7,21.4
				c0,0.8-0.8,1.4-1.4,1.1c-1.7,8.4-6.5,17.2-10.4,23.4c-5.1,8.2-7.9,17.4-9.8,26.7c-2,9.3-4.2,18.3-6.5,27.3
				c-2.5,9.8-5.6,19.7-10.4,28.7c-2,3.7-4.2,7.3-7,10.4c-3.7,3.9-8.4,6.5-13.2,8.7c-11.5,5.3-23.6,9.3-34.9,15.5
				c-10.7,5.9-20.5,13.8-32.1,17.7l0.3,0.6c0,0,0,0,0.3,0c0.6,0,0.6,0.8,0,0.8c-11.5-0.3-1.4-9.8,2.5-13.2
				c4.2-3.7,8.7-6.8,12.9-10.1c5.9-4.2,11-9,17.4-12.1c9.6-4.8,20.5-7,28.1-14.9c7.3-7.6,10.4-18,12.7-27.6c6.5-27,8.7-55.7-6.5-81
				c-7.6-13.2-19.1-18.9-29.3-29.8c-11-11.5-11.8-14.9-28.4-9.6c-9.8,3.1-18.6,9.3-27.6,13.8c-13.8,6.8-22.5,21.1-27.6,35.5
				c0.3,0.3,0.3,0.6,0.3,0.8c-0.8,5.6-1.4,23.6-11.5,21.4c-6.2-1.4-7.3-7-7-12.7c0.3-8.2,2.8-16.6,5.1-24.2
				c1.4-4.2,2.8-8.7,4.2-13.2c1.1-3.9,2-8.2,3.7-12.1c5.1-11.8,17.2-16.6,21.1-29.3c4.5-13.2,4.8-27.3,5.9-41.1
				c2-26.5,13.2-52.6,26.7-75.4c5.9-9.8,8.4-20.5,14.1-30.7c7.3-13.2,15.5-25.9,21.4-39.7c10.4-23.1,20-46.7,29-70.4
				c6.2-16.3,10.1-36,23.9-47.8c5.6-4.8,14.4-7.9,21.7-6.2C516.7,27.9,520.7,35,522.7,41.1z"/>
			<path fill="#D1F8D3" d="M413.8,91.5c-13.8,25.9-25,54-38.6,80.5c-12.1,23.4-24.8,47-35.5,71.2c-5.3,12.1-5.9,24.8-7.6,38
				c-1.1,9.3-6.5,27.9,2.3,33.5c-5.9,17.2-12.7,31-12.7,49.8c0,9.3-0.8,17.7-2.5,27c-1.4,7.3-6.5,17.4-2,24.2
				c-3.4,2.3-2.5,4.8-3.7,7.3c0,0,0.3,2.8-0.3,3.7c-0.6,1.4-3.1,0.8-3.7,2.3c-2.3,5.6-0.3,9.8-2,15.2c-2.5,9.8-11.8,19.4-16.6,29
				v-2.5c1.1-3.1,2.3-5.9,3.4-8.7c5.3-13.2,7-31.5,15.5-42.5l-0.6-0.3c0.3,0,0.6-0.3,0.8-0.3c-0.3-1.1-0.3-2.3-0.3-3.7
				c0.6-15.2,6.2-29.3,7-44.5c0.8-15.2,0.6-27,5.9-40.5c-0.6-2.5-0.8-5.3-1.1-8.4c-0.8-6.8-1.4-13.5-2-20.3
				c-0.8-13.2,0.3-26.5,3.7-39.4c6.8-23.9,18.9-45.9,30.4-67.8c5.9-10.7,11.5-21.4,16.9-32.6c5.3-11,9.3-22.5,14.4-33.8
				c11-25.3,25-49.8,39.4-73.7c3.1-5.9,6.8-11,9.8-16c2.8-11.5,8.7-16.3,18.9-22.2c2-1.1,3.9-2,5.9-3.1c-5.3,12.7-17.2,25.9-23.6,36
				C427.3,62.8,421.4,77.4,413.8,91.5z"/>
		</g>
		<path fill="#9AEFA0" d="M550.2,103.9c-5.9,7-12.1,14.1-17.7,21.4c-13.2,17.2-24.8,35.5-31.2,56.6c-6.8,22.5-4.2,46.2,0.8,68.4
			c2.8,12.7,6.5,25,11,37.1c4.8,13.2,11,26.2,16,39.4c2.8,7,5.3,14.1,8.2,21.1c2,5.1,3.4,10.4,3.1,15.8c-0.3,4.8-2,8.7-3.7,13.2
			c-2,4.2-3.7,8.7-5.9,12.9c0.3-3.4,0-6.8-0.8-10.4c-0.3-0.8-1.1-0.3-1.1,0.3c4.8,18.6-7.6,34.9-14.9,50.7c-2,4.2-3.1,8.7-4.8,13.5
			c-2,6.2-3.7,12.4-5.9,18.6c-2,5.9-3.7,11.8-5.1,18c-1.1,5.3-2,10.4-3.1,15.8c-1.4,5.6-3.4,12.1-7.6,16c-4.8,4.8-11,7.6-16.6,10.4
			c-12.9,7-25.9,13.8-39.1,20c-12.1,5.3-24.2,11.5-36.3,17.2c-4.2,2-8.7,3.9-13.2,5.3c-4.2,1.1-9.3,2.5-13.2,1.1c0,0,0,0-0.3,0l0,0
			c-3.4-4.2-2.5-10.1-1.1-14.9c1.4-5.1,3.9-10.1,6.8-14.6c6.5-10.1,16.6-18.9,27.3-24.2c-2,4.5-2.5,9.6-1.4,14.9
			c0,0.3,0.8,0.3,0.6-0.3c-2.3-10.7,4.8-19.7,12.7-25.9c8.2-6.5,17.2-10.7,27-13.5c0.3,1.4,0.6,2.8,0.8,4.2c0.3,0.3,0.8,0.3,0.6-0.3
			c-1.7-8.7-0.6-18.3,1.7-27c1.1-4.2,2.5-8.7,3.9-12.9c1.1-3.7,2-7,2-11c-0.3-8.2-3.1-15.8-4.5-23.6c-1.4-7.3-1.1-15.8-4.2-22.5
			c2.3,0.6,4.2,1.1,6.5,1.7c0.3,0.3,0.8-0.6,0.3-0.8c-17.7-5.3-35.2-11-52.3-17.7c8.4-3.7,17.2-6.5,26.2-8.7c0.3,0,0.3-0.8-0.3-0.6
			c-7.3,1.4-14.4,3.1-21.4,5.9c-7,2.8-13.8,6.5-20.5,10.1c0.6-1.1,1.4-2.3,2-3.4c0.3-0.3-0.3-0.8-0.6-0.3c-2.8,3.9-5.3,8.2-7,12.7
			c-2,4.8-3.1,9.6-4.5,14.6c-2.5,9.6-3.7,19.1-6.5,28.7c-3.1,11.5-7,23.1-12.7,33.8c-2.5,4.8-5.9,9.6-8.7,14.1
			c-2.8,4.5-5.9,9-9.3,13.2c-6.5,8.2-15.5,17.2-26.5,17.4c-5.3,0.3-10.4-1.4-14.1-5.3c-2.8-2.8-6.5-7.6-6.2-12.1v-0.3
			c0.3-14.4,8.2-27,11.8-40.5c3.7-12.7,5.1-25.9,12.4-37.1c3.7-0.6,7.6,0.8,11,2c3.1,1.1,6.2,2.5,9.3,3.7c0.3,0.3,0.8-0.6,0.3-0.8
			c-5.9-2.8-12.9-7.6-19.7-5.9c0.3-16,7-31.5,7.6-47.6c0.3-7.6,0-14.9,0.8-22.5c0.8-7.9,3.1-14.9,5.9-21.9c0.3-0.3-0.6-0.8-0.8-0.3
			c-0.3,0.8-0.8,1.4-1.1,2.5c0-0.3,0-0.8,0-0.8c-0.8-12.1-2.3-24.2-2-36c0.3-12.7,2.5-24.8,6.8-36.9c8.7-25.9,22.2-49.5,34.9-73.4
			c12.9-24.8,22.2-51.2,34.9-76c6.5-12.4,12.9-24.8,20-36.9c3.4-5.9,7-12.1,10.4-18c3.7-5.9,7.3-11.3,10.4-17.2
			c0.3-0.8-0.8-1.4-1.1-0.8c-0.8,1.7-1.7,3.1-2.8,4.8c-3.7,5.9-7.3,11.5-10.7,17.4c-3.7,5.9-7,12.1-10.7,18
			c-7,12.1-14.1,24.2-20.3,36.6s-11.5,24.8-16.3,37.7c-5.3,13.2-11.5,25.9-18.3,38.8c-12.7,23.6-26.5,46.7-34.3,72.3
			c-3.7,11.8-5.6,23.6-5.3,36c0.3,12.1,2,23.6,3.9,35.7c0,0.3,0.3,0.3,0.3,0.3c-5.3,12.7-6.5,27.3-7,40.8
			c-0.3,8.4-2.3,16.6-3.9,24.8c-1.7,7.9-2.8,15.5-2.3,23.6l0,0c-9.8,9.8-10.4,24.8-14.1,37.4c-2,7.3-5.3,14.4-7.6,21.4
			c-2,6.8-3.1,13.8-2.5,20.8c-0.3,4.2,0.8,7.6,3.7,11c2.8,3.4,6.8,6.5,11.3,7c10.4,2,20-2.5,27.3-9.8c7.6-7.3,13.2-16.3,18.9-25.3
			c6.5-9.8,11-20.5,14.4-31.5c3.7-11.3,6.2-23.1,9.3-34.3c2.8-10.1,4.8-20.8,9.8-30.4c0,0.3,0.3,0.3,0.3,0.3c4.8-2.5,9.6-4.8,14.4-7
			c14.4,7,29.3,11.5,44.5,15.5c0,0.3,0,0.3,0,0.6c2,3.9,2.5,8.4,3.4,12.7c0.6,3.9,1.1,7.6,2,11.5c2,7.6,4.8,16,3.9,23.9
			c-0.6,4.2-2.3,8.4-3.7,12.7c-1.4,3.9-2.5,8.2-3.1,12.1c-1.4,6.5-1.4,12.7-0.3,18.9c-10.4,1.7-21.1,7-29.3,13.8
			c-3.7,3.1-7,7-9,11.5c-0.3-0.3-0.3-0.3-0.8-0.3c-12.1,5.9-23.4,14.4-30.1,25.9c-4.5,7.9-11,21.4-3.1,29.3c0,0,0,0,0.3,0
			c0,0.3,0,0.3,0.3,0.3s0.3,0.3,0.3,0.3c8.2,3.1,17.7-1.1,25-4.5c11.5-5.3,23.4-10.4,34.6-16.6c6.5-3.4,13.2-6.5,19.7-9.8
			c6.5-3.4,12.9-7,19.4-10.4c3.1-1.7,6.2-3.4,9.3-4.8c2.8-1.4,5.6-2.5,8.2-4.2c4.8-3.1,7.9-7.6,9.8-12.9c2-5.3,3.1-11,3.9-16.6
			c1.1-6.5,2.3-12.7,4.2-18.9c2-6.8,3.9-13.5,5.9-20.3c1.4-5.3,2.8-10.7,5.1-16c5.6-13.2,14.9-26.7,16-41.4c0.3,0,0.3,0,0.3-0.3
			c3.7-7,8.7-13.2,11-21.1c1.1-4.2,1.4-8.7,0.3-13.2c-1.4-6.2-4.2-12.1-6.5-18c-5.3-13.5-11-27-16.6-40.5
			c-10.4-24.2-17.7-50.7-20-76.8c-0.8-11-0.3-21.9,2.5-32.9c2.8-10.4,7-20.5,12.1-30.4c10.1-19.1,22.8-36.6,36.9-52.9
			C551.4,104.2,550.8,103.3,550.2,103.9z M322.3,490.3c0.3-2.5-0.3-4.8-0.8-7c-0.8-2-2-4.2-3.7-5.9c-1.4-2-3.4-3.4-5.3-4.8
			c-2-1.4-3.7-3.1-6.2-3.7c-1.4-0.6-3.1-0.3-4.8,0.3c-1.4,0.8-2.5,2.3-3.4,3.7c-2,3.7-3.4,7.9-5.3,11.5c-1.4,2.3-2.8,4.5-3.7,7
			c-0.6,1.4-0.8,3.4-0.3,4.8c0.6,2,2,3.4,3.7,4.8c2,1.4,3.9,2.5,6.2,3.4c2,0.8,4.2,1.1,6.8,1.1c4.2-0.3,8.2-1.4,11.3-4.2
			c1.4-1.4,2.8-2.8,3.7-4.8C321.7,494.8,322.3,492.5,322.3,490.3z M320.3,481.8c2.3,4.2,2.5,9.8,0.3,14.1c-1.7,3.9-5.1,6.8-9,8.2
			c-2,0.8-4.2,1.1-6.5,1.1c-2.5,0-4.8-0.6-7-1.4c-2.3-0.8-4.5-2-6.2-3.7c-1.4-1.4-2.8-3.1-2.8-5.1c-0.3-2,0.6-3.7,1.4-5.3
			c0.8-2,2-3.4,3.1-5.1c0.3-0.8,0.8-1.4,0.8-2.3c0.8-2,1.7-4.2,2.5-5.9c0.8-2,1.7-3.7,3.1-5.3c1.1-1.4,2.5-2.5,4.2-2.5
			c2.3,0,4.2,1.1,5.9,2.5C314.1,474.2,318.4,477.6,320.3,481.8z M322.6,447.2c-5.3-2-12.9-5.3-14.6-11.5c-0.3-0.3-0.8-0.3-0.6,0.3
			c1.1,6.5,8.2,10.4,13.8,12.7c5.9,2.3,13.2,4.5,19.4,3.1c0.8-0.3,0.6-1.1-0.3-1.1C334.4,450.3,328.2,449.2,322.6,447.2z M315,428.1
			c3.7,3.1,8.7,5.1,12.9,7.3c4.5,2.5,9,4.8,12.7,8.7c0.3,0.3,0.8-0.3,0.3-0.3c-3.4-3.7-7.6-6.5-11.8-8.7c-4.5-2.5-9-5.1-13.2-7.6
			C315,426.7,314.4,427.5,315,428.1z"/>
	</g>
</g>
</svg>
