<?xml version="1.0" encoding="utf-8"?>
<!-- Generator: Adobe Illustrator 18.0.0, SVG Export Plug-In . SVG Version: 6.00 Build 0)  -->
<!DOCTYPE svg PUBLIC "-//W3C//DTD SVG 1.1//EN" "http://www.w3.org/Graphics/SVG/1.1/DTD/svg11.dtd">
<svg version="1.1" id="Layer_1" xmlns="http://www.w3.org/2000/svg" xmlns:xlink="http://www.w3.org/1999/xlink" x="0px" y="0px"
	 viewBox="663 -0.3 268.7 560.1" enable-background="new 663 -0.3 268.7 560.1" xml:space="preserve">
<g>
	<g>
		<g>
			<g>
				<path fill="#F6B292" d="M849.3,391.2l-40.8-17.7c-7.6,4.5-9.9,14.9-12.4,23.7c-2.8,3.1-4.5,6.2-8.7,8.7
					c-4.8,3.4-10.4,5.6-14.6,9.9c-5.1,5.6-8.7,11.3-14.4,16.1c-7.6,5.9-16.6,11.3-18.6,22.3c-0.6,5.4,0.8,15.2,7.6,15.2l45.1-11
					c5.9-3.7,12.7-4.8,18.3-9c7.9-5.6,12.7-13.5,16.6-22.3c0.3-0.6,0.6-1.1,0.8-2c7.3-2.8,14.1-7.6,18.9-12.7
					C849.9,409.2,860.3,391.8,849.3,391.2z"/>
				<path fill="#E48C69" d="M834.2,396.3c-0.3-10.7-15.2-23.7-24.8-14.4c-7,7.3-3.1,23.4-11.8,29.9c-3.9,2.5-9.6,2-14.4,4.5
					c-5.4,2.3-8.5,5.1-11.8,9.3c-7.9,9.3-34.4,25.9-23.9,41.1l28.2-7.6c17.2-4.8,29.6-9,41.1-23.4
					C824.9,425.5,835.6,409.8,834.2,396.3z"/>
				
					<linearGradient id="SVGID_1_" gradientUnits="userSpaceOnUse" x1="516.3732" y1="849.2659" x2="512.5671" y2="835.9442" gradientTransform="matrix(1.6571 -0.8698 0.8698 1.6571 -789.6974 -514.9778)">
					<stop  offset="0" style="stop-color:#914533"/>
					<stop  offset="1" style="stop-color:#E48C69"/>
				</linearGradient>
				<path fill="url(#SVGID_1_)" d="M773.3,459.6c26.8-5.6,57.1-28.2,57.6-57.9c0-5.4-3.7-25.1-12.1-20.6c-4.2,2-9,23.1-11.5,27.9
					c-3.7,7-8.5,13.8-14.1,18.6c-14.1,13-39.4,17.2-45.6,38.3L773.3,459.6z"/>
			</g>
			<g>
				<path fill="#914533" d="M747.8,469.1c0.6,0,0.6-0.8-0.8-0.6c-4.5-0.3-6.2-5.1-6.5-9c-0.3-4.2,0.6-8.5,2.5-12.1
					c4.8-7.9,13.5-11.8,19.4-18.6c3.7-3.9,6.8-8.5,10.4-12.1c2.8-2.8,6.2-4.8,9.3-6.8c5.6-3.4,13.2-6.8,16.1-13.2
					c0.6-0.6-1.1-1.1-1.4-0.3c-1.7,3.9-5.6,6.5-9.3,8.7c-3.4,2.3-7.3,4.2-11,6.8c-3.9,2.8-6.8,6.2-9.9,9.9c-3.7,3.9-7.3,7.9-11.5,11
					c-7,5.4-14.9,11.5-16.1,20.8C738.5,459.3,740.2,469.4,747.8,469.1L747.8,469.1z"/>
			</g>
			<g>
				<path fill="#914533" d="M794.8,404.2c0,0.6,0.8,0.8,0.8,0.6c0.8-2.8,2-5.4,2.8-8.2c0.8-2.8,1.7-5.6,2.5-8.2
					c0.8-3.1,2-5.9,3.7-8.5c1.4-2.3,3.1-3.9,5.1-5.9c0.8-1.1,0-2.5-1.4-2c-5.4,2-7.9,9.3-9.6,14.1c-1.1,3.1-1.7,6.5-2.5,9.6
					C795.6,398.5,795.6,401.3,794.8,404.2L794.8,404.2z"/>
			</g>
		</g>
		<g>
			<path fill="#F6B292" d="M760.7,492.5c23.7-2.3,49.5-17.7,65-35.5c7.6-8.2,13.2-17.5,9.9-28.7c-1.7-6.2-2.5-11.8-3.1-18.3
				c0-3.7-0.6-7.6-2-11c-0.3-0.6-5.1-7.9-5.4-7.3c-3.4,7.6-9,14.9-11.5,23.1c-2,6.2-2.3,12.7-6.5,18.3c-5.1,7.3-15.2,7-23.1,9.9
				c-7.9,2.8-16.6,4.8-23.4,10.7c-5.6,5.1-9.3,9-16.1,12.1c-4.5,2.3-9.9,3.9-14.4,7.6c-7,5.4-12.7,16.1-8.2,25.4L760.7,492.5z"/>
			<path fill="#914533" d="M722.2,498.7c0,0.6,0.6,0,0.6-1.4c-2-4.2-2-8.7-0.3-13c1.7-4.8,5.1-9,9.3-12.1c5.6-3.9,12.7-5.6,18.3-9.3
				c5.4-3.4,9.3-8.7,14.6-12.1c6.2-3.9,13.2-6.2,20.3-8.5c5.6-2,11.8-2.5,17.2-5.4c5.1-2.8,8.2-7.3,9.9-12.7
				c2-5.9,3.1-11.8,5.9-17.2c1.7-2.8,3.1-5.9,4.8-8.7c0.8-1.4,1.4-2.5,2.3-3.9c0.3-0.6,0.8-2.8,1.4-3.1c-0.6,0-1.1,0-1.4,0.3
				c-0.6-0.3,0,0.3,0.3,0.6c0.3,0.3,0.6,0.8,0.8,1.1c0.6,1.1,1.1,2.3,2,3.1c3.1,4.2,3.1,9.6,3.7,14.9c0.3,3.4,0.6,6.8,1.4,9.9
				c0.8,3.1,1.7,5.9,2.3,8.7c2.3,10.7-5.1,20.3-12.1,27.9c-16.3,17.5-38.9,29.9-62.4,33c-0.6,0-0.6,1.4,0.3,1.4
				c16.3-0.8,32.4-8.5,45.6-17.7c9-6.2,17.7-13.8,24.2-22.5c2.8-3.7,5.6-7.9,6.5-12.7c1.1-5.4,0.3-9.6-1.1-14.9
				c-1.7-6.5-1.7-12.7-2.5-19.2c-0.3-2.3-0.6-5.4-2-7.6c-0.8-1.1-1.7-2.3-2.5-3.7c-0.6-1.1-1.4-2.5-2.5-3.4c-1.7-1.4-2.5,0-3.1,1.4
				c-2.8,5.6-6.2,11-8.7,16.6c-2.5,5.4-3.1,11.3-5.1,16.9c-0.8,3.1-2.5,6.5-5.1,8.7c-2.5,2-5.6,3.4-8.7,4.2
				c-2.8,0.8-6.2,1.4-9.3,2.3c-3.1,1.1-6.2,2.3-9.3,3.1c-6.8,2.3-13,4.8-18.3,9.3c-4.8,4.5-9,8.7-14.9,11.5
				c-5.6,2.8-11.5,4.8-16.1,9.3C721.9,480.1,718,490,722.2,498.7L722.2,498.7z"/>
			<path fill="#E48C69" d="M730.1,497.6c20.6-21.1,54.5-22,78.5-36.6c13.8-8.5,24.5-21.7,25.9-37.7c0.8-4.5-0.3-19.4-9-17.5
				c-5.4,1.4-11,26.2-15.2,31.8c-9.3,13.2-23.9,11.3-37.7,16.6c-11.5,5.1-19.2,14.9-31,20.6c-8.2,3.1-15.8,7.6-16.6,18.3
				L730.1,497.6z"/>
			
				<linearGradient id="SVGID_2_" gradientUnits="userSpaceOnUse" x1="501.4319" y1="857.915" x2="501.4319" y2="847.4484" gradientTransform="matrix(1.6571 -0.8698 0.8698 1.6571 -789.6974 -514.9778)">
				<stop  offset="0" style="stop-color:#914533"/>
				<stop  offset="1" style="stop-color:#E48C69"/>
			</linearGradient>
			<path fill="url(#SVGID_2_)" d="M742.2,490c31.5-12.4,64.4-12.4,82.7-45.1c4.8-7.6,11-27.6,2.8-35.2c-9,8.7-9.6,24.8-17.7,34.1
				c-9,10.1-20.6,12.1-32.7,14.4c-11.8,3.1-23.7,11.8-34.4,17.7c-7,3.9-12.7,11-16.3,17.7L742.2,490z"/>
		</g>
		<g>
			<path fill="#F6B292" d="M831.1,484.3c10.7-12.7,31.3-62.4,6.5-73.1c-13.8-5.9-16.6,31.8-23.7,38.9c-4.2,4.5-14.9,8.2-20.8,9.6
				c-12.4,2.8-23.7,6.2-35.2,12.4c-14.1,8.5-42,20.6-40.8,40c0.6,13.5,18.3,6.8,27,5.4c7.9-1.7,17.7-0.6,24.8-4.8L831.1,484.3z"/>
			<path fill="#E48C69" d="M825.5,419.4c-4.5,9.6-7,24.5-11,29.9c-0.3,0.8-0.6,2-0.8,2.8c-3.1,11.5-5.9,13.5-16.3,18.3
				c-8.7,4.5-14.6,13-22.3,18.9c-9.6,7.3-21.1,14.4-33.2,16.6c-5.1,1.1-21.1,2.3-18.3-7.6l-1.4-1.1c-3.4,4.5-5.6,9.6-5.4,15.2
				c0.6,13.5,18.3,6.8,27,5.4c7.9-1.7,17.7-0.6,24.8-4.8l1.7-0.8c8.7-7.9,16.1-14.6,28.2-18.9c9-3.4,22.3-5.1,27.3-14.6
				c4.5-8.2,3.4-19.7,4.2-28.5C830.5,446.3,835,418.5,825.5,419.4z"/>
			
				<linearGradient id="SVGID_3_" gradientUnits="userSpaceOnUse" x1="501.8477" y1="873.5272" x2="495.496" y2="851.2957" gradientTransform="matrix(1.6571 -0.8698 0.8698 1.6571 -789.6974 -514.9778)">
				<stop  offset="0" style="stop-color:#914533"/>
				<stop  offset="1" style="stop-color:#E48C69"/>
			</linearGradient>
			<path fill="url(#SVGID_3_)" d="M826.6,416.6c-1.7,2.8-3.1,6.8-4.5,11c-0.6,2.5-0.6,4.8-0.8,5.9c-1.4,8.2-2.5,16.9-5.1,24.8
				c-1.4,4.5-4.5,8.7-8.2,11.8c-5.1,3.9-11,5.1-15.8,9.9c-4.5,4.8-8.5,11-13.2,14.9c-5.6,5.1-14.1,9.9-21.1,13.2
				c-12.1,5.6-35.8,10.7-39.4-5.9c-1.4,3.1-2.3,6.2-2,9.6c0.6,13.5,18.3,6.8,27,5.4c7.9-1.7,17.7-0.6,24.8-4.8l5.9-2.5
				c3.7-2.8,7-5.9,11.3-9.3c6.2-4.5,13-9.9,19.4-13.5c5.1-3.1,11.3-2,16.1-4.5c8.7-4.5,3.1-26.8,4.8-35.8
				C826.3,443.8,835.9,412.6,826.6,416.6z"/>
			<path fill="#914533" d="M769.1,512.8c0.3-0.3,0-1.1-0.3-0.8c-0.3,0-0.3,0-0.6,0.3c-5.6,2.8-12.4,2.5-18.9,3.1
				c-4.5,0.3-8.5,1.1-12.7,2c-5.6,1.1-17.2,3.9-18.3-4.8c-1.1-8.7,4.5-16.3,11-21.7c6.8-5.9,14.6-10.4,22.5-14.6
				c4.5-2.5,8.7-4.8,13.2-6.8c6.2-2.8,12.7-4.8,19.4-6.5c5.6-1.1,11.3-2.3,16.6-4.2c4.5-1.7,9.9-3.9,13.2-7.6c1.7-2,2.8-4.2,3.7-6.8
				c1.4-3.4,2.8-6.8,3.9-10.4c1.4-3.7,2.5-7.6,3.9-11.3c1.1-2.8,2.5-6.2,4.8-8.7c5.1-5.4,12.1,0.3,14.9,5.1
				c3.9,6.8,3.7,14.9,2.5,22.5c-1.4,8.5-3.9,16.9-7.3,25.1c-2.5,6.2-5.6,12.4-9.9,17.7c-0.6,0.8,0.6,1.7,1.1,0.8
				c3.4-4.5,6.2-9.9,8.7-15.2c3.7-7.6,6.5-15.8,8.2-23.9c1.4-7.3,2.3-15.5,0-22.8c-1.7-5.6-6.2-12.1-12.7-13.2
				c-5.9-1.1-9.6,5.1-11.5,9.9c-1.7,3.4-2.8,7.3-3.9,11c-1.1,3.7-2,7.6-3.1,11.3c-0.8,2.5-2,5.6-3.9,7.6c-3.9,3.4-9.6,5.4-14.4,7
				c-5.6,1.7-11.5,2.8-17.2,4.5c-6.2,2-12.4,3.9-18.3,6.8c-4.5,2.3-8.7,4.5-13,7c-3.9,2-7.9,4.2-11.5,6.5c-7,4.5-14.6,9.9-19.4,16.9
				c-2.3,3.1-3.9,6.8-4.2,10.4c-0.3,3.4,0,7.3,2.5,9.9c5.1,4.8,14.1,2.3,20,0.8c4.2-1.1,8.7-2.3,13.2-2.5
				C757.6,516.4,763.8,515.8,769.1,512.8L769.1,512.8z"/>
		</g>
	</g>
	<g>
		<path fill="#F6B292" d="M831.4,7.1c-10.1,5.9-16.1,10.7-18.9,22.3c-3.1,5.1-6.8,10.1-9.9,16.1c-14.4,23.9-28.5,48.4-39.4,73.7
			c-5.1,11.3-9,22.8-14.4,33.8c-5.4,11.3-11,22-16.9,32.7c-11.5,22-23.7,43.9-30.4,67.8c-3.4,13-4.5,26.2-3.7,39.4
			c0.6,6.8,1.1,13.5,2,20.3c0.3,3.1,0.6,5.9,1.1,8.5c-5.4,13.5-5.1,25.4-5.9,40.6s-6.5,29.3-7,44.5c0,1.4,0,2.5,0.3,3.7
			c-0.3,0-0.6,0.3-0.8,0.3l0.6,0.3c-8.5,11-10.1,29.3-15.5,42.5c-4.5,11-9.9,24.5-9.3,36.6c0,0.3,0,0.6,0,0.8v0.3
			c0.8,6.8,7.9,14.1,14.4,15.5c22,4.8,36.6-20.6,46.5-35.5c16.6-24.8,19.4-54,27.6-82.2c1.4-4.5,3.9-8.7,5.9-13.2l0.6,0.3
			c4.5-2.5,9.6-5.1,14.4-7.3c11,4.5,22,8.5,33.5,12.1c3.7,1.1,7.9,2.8,12.1,4.2c2.3,4.2,3.1,11.8,3.9,17.2
			c1.1,11.8,7.9,25.4,4.5,36.9c-1.7,6.2-7.9,23.1-7.6,35.5l-3.9,4.8c-12.1,3.4-27,11.8-33.2,23.1c-10.4,2.8-21.1,13.2-27,20.8
			c-5.4,7-15.8,25.6-7.9,34.4l1.1-0.8l-0.8,0.8c8.5,3.4,23.7-4.2,31-7.6c15.8-7,30.7-14.6,46.2-22c8.7-4.2,16.9-9,25.6-13.5
			c7-3.9,14.4-6.2,19.2-12.7c6.5-9,7.3-22.3,9.6-33.2c3.4-12.7,7.6-24.8,11-37.5c4.5-16.3,18.3-32.4,19.2-50
			c1.1-1.4,2.3-2.8,3.1-4.5c6.5-11.5,10.1-22.5,5.4-35.8c-6.8-18.3-14.1-35.8-21.7-53.7c-10.7-25.9-18.6-55.7-19.4-83.3
			c-0.8-29.9,14.1-57.9,31.3-81.6c5.4-7.6,23.1-22.3,23.9-31c0.8-9.9-14.6-15.5-19.4-22.5c-7.9-10.7-8.5-25.6-13.2-38
			c-1.1-2.8-2.3-5.4-3.7-7.6C881.7-0.5,855.2-7,831.4,7.1z"/>
		<g>
			<path fill="#E48C69" d="M746.1,557.8l1.1-0.8l-0.8,0.8c0.3,0,0.6,0.3,0.8,0.3c1.1-24.5,24.5-28.2,37.2-40.8
				c3.1-3.1,4.2-8.7,7.6-12.1c6.8-5.6,17.5-6.2,25.6-9.6c10.1-4.5,13.2-7.3,15.5-20c4.5-29.6,15.5-52.9,1.4-80.7
				c-5.4-11.5-11-10.4-23.1-14.4c-17.2-5.4-17.7-9.3-7.9-22.5l-0.6-0.6c-10.7,1.4-28.5,5.9-38.3,14.6c2.5-1.4,4.8-2.5,7.3-3.7
				c11,4.5,22,8.5,33.5,12.1c3.7,1.1,7.9,2.8,12.1,4.2c2.3,4.2,3.1,11.8,3.9,17.2c1.1,11.8,7.9,25.4,4.5,36.9
				c-1.7,6.2-7.9,23.1-7.6,35.5l-3.9,4.8c-12.1,3.4-27,11.8-33.2,23.1c-10.4,2.8-21.1,13.2-27,20.8
				C748.9,529.9,738.5,548.5,746.1,557.8z M862.3,0.1c-10.1-1.1-20.6,1.1-31,7.3c-10.1,5.9-16.1,10.7-18.9,22.3
				c-3.1,5.1-6.8,10.1-9.9,16.1c-14.4,23.9-28.5,48.4-39.4,73.7c-5.1,11.3-9,22.8-14.4,33.8c-5.4,11.3-11,22-16.9,32.7
				c-11.5,22-23.7,43.9-30.4,67.8c-3.4,13-4.5,26.2-3.7,39.4c0.6,6.8,1.1,13.5,2,20.3c0.3,3.1,0.6,5.9,1.1,8.5
				c-5.4,13.5-5.1,25.4-5.9,40.6s-6.5,29.3-7,44.5c0,1.4,0,2.5,0.3,3.7c-0.3,0-0.6,0.3-0.8,0.3l0.6,0.3c-8.5,11-10.1,29.3-15.5,42.5
				c-4.5,11-9.9,24.5-9.3,36.6c0,0.3,0,0.6,0,0.8v0.3c0.3,2.5,1.4,5.4,3.4,7.9c-0.6-3.4-1.1-6.2,0.8-8.7c-3.9-9.3,11-23.1,15.5-29.9
				c2.8-3.9,5.1-18.9,16.1-20.6c-9.9-4.2-6.5-14.4,2.8-14.4c-5.4-5.4-5.4-12.1,3.9-12.1c-7.3,0-3.1-27-2-30.4
				c4.5-13.5,3.7-25.6,12.4-38c8.7-11.8,19.2-22.8,22-37.7c2.5-13.2-2.5-26.8,0-40.3c11.8-60.5,44.8-114,71.4-168.5
				c14.6-29.6,28.5-57.6,45.6-85.8C857.2,9.6,860.6,4.6,862.3,0.1z"/>
			
				<linearGradient id="SVGID_4_" gradientUnits="userSpaceOnUse" x1="600.9465" y1="849.6017" x2="583.5022" y2="794.7319" gradientTransform="matrix(1.6571 -0.8698 0.8698 1.6571 -789.6974 -514.9778)">
				<stop  offset="0" style="stop-color:#E48C69"/>
				<stop  offset="1" style="stop-color:#F6B292"/>
			</linearGradient>
			<path fill="url(#SVGID_4_)" d="M874.1,273c10.7,25.6,31,57.4,32.1,85.8C893.8,330.6,877.5,305.1,874.1,273z"/>
			
				<linearGradient id="SVGID_5_" gradientUnits="userSpaceOnUse" x1="620.8414" y1="819.5552" x2="552.3336" y2="767.2225" gradientTransform="matrix(1.6571 -0.8698 0.8698 1.6571 -789.6974 -514.9778)">
				<stop  offset="0" style="stop-color:#FADBCA"/>
				<stop  offset="1" style="stop-color:#F6B292"/>
			</linearGradient>
			<path fill="url(#SVGID_5_)" d="M887.9,17.8c-7.3-1.7-16.1,1.4-21.7,6.2c-13.8,11.8-17.7,31.5-23.9,47.8
				c-9,23.7-18.6,47.2-29,70.3c-5.9,13.8-14.1,26.5-21.4,39.7c-5.6,10.1-8.2,20.8-14.1,30.7c-13.5,22.8-24.8,48.9-26.8,75.4
				c-1.1,13.8-1.4,27.9-5.9,41.1c-3.9,12.7-16.1,17.5-21.1,29.3c-1.7,3.9-2.5,8.2-3.7,12.1c-1.4,4.5-2.8,9-4.2,13.2
				c-2.3,7.6-4.8,16.1-5.1,24.2c-0.3,5.6,0.8,11.3,7,12.7c10.1,2.3,10.7-15.8,11.5-21.4c0-0.3,0-0.6-0.3-0.8
				c5.1-14.4,13.8-28.7,27.6-35.5c9-4.5,17.7-10.7,27.6-13.8c16.6-5.4,17.5-2,28.5,9.6c10.1,11,21.7,16.6,29.3,29.9
				c15.2,25.4,13,54,6.5,81c-2.3,9.6-5.4,20-12.7,27.6c-7.6,7.9-18.6,10.1-28.2,14.9c-6.5,3.1-11.5,7.9-17.5,12.1
				c-4.2,3.4-8.7,6.5-13,10.1c-3.9,3.4-14.1,13-2.5,13.2c0.6,0,0.6-0.8,0-0.8c-0.3,0-0.3,0-0.3,0l-0.3-0.6
				c11.5-3.9,21.4-11.8,32.1-17.7c11.3-6.2,23.4-10.1,34.9-15.5c4.8-2.3,9.6-4.8,13.2-8.7c2.8-3.1,5.1-6.8,7-10.4
				c4.8-9,7.9-18.9,10.4-28.7c2.3-9,4.5-18,6.5-27.3c2-9.3,4.8-18.6,9.9-26.8c3.9-6.2,8.7-14.9,10.4-23.4c0.6,0.3,1.4-0.3,1.4-1.1
				c0-7.6-2.3-15.2-7-21.4c-4.5-5.9-9.9-10.7-14.9-16.1c-13.5-14.1-20.8-31.8-26.8-50c-11.3-33.5-10.7-67.5-3.1-102.2
				c4.5-22,12.1-43.4,22-63.3c5.6-11.3,11.8-22,18.3-33c4.5-7.3,10.7-13,15.8-20c3.4-4.5,9-13,4.8-18.3c-2.3-3.1-5.1-4.8-5.9-8.5
				c-0.6-2.8-0.8-5.6-1.1-8.7c-0.3-4.2-0.8-8.5-2.3-12.7C898,26.3,894.4,19.2,887.9,17.8z"/>
			<path fill="#EE9F7F" d="M813.1,40.1C819.6,30,831.4,16.7,836.8,4c-2,1.1-3.9,2-5.9,3.1C820.8,13,814.8,17.8,812,29.4
				c-3.1,5.1-6.8,10.1-9.9,16.1c-14.4,23.9-28.5,48.3-39.5,73.6c-5.1,11.3-9,22.8-14.4,33.8c-5.4,11.3-11,22-16.9,32.7
				c-11.5,22-23.7,43.9-30.4,67.8c-3.4,13-4.5,26.2-3.7,39.4c0.6,6.8,1.1,13.5,2,20.3c0.3,3.1,0.6,5.9,1.1,8.5
				c-5.4,13.5-5.1,25.4-5.9,40.6s-6.5,29.3-7,44.5c0,1.4,0,2.5,0.3,3.7c-0.3,0-0.6,0.3-0.8,0.3l0.6,0.3c-8.5,11-10.1,29.3-15.5,42.5
				c-1.1,2.8-2.3,5.6-3.4,8.7v2.5c4.8-9.6,14.1-19.2,16.6-29c1.7-5.4-0.3-9.6,2-15.2c0.6-1.4,3.1-0.8,3.7-2.3
				c0.6-0.8,0.3-3.7,0.3-3.7c1.1-2.5,0.3-5.1,3.7-7.3c-4.5-6.8,0.6-16.9,2-24.2c1.7-9.3,2.5-17.7,2.5-27c0-18.9,6.8-32.7,12.7-49.8
				c-8.7-5.6-3.4-24.2-2.3-33.5c1.7-13.2,2.3-25.9,7.6-38c10.7-24.2,23.4-47.8,35.5-71.2c13.5-26.5,24.8-54.5,38.6-80.5
				C798.7,68.7,804.9,54,813.1,40.1z"/>
		</g>
		<path fill="#914533" d="M928.2,94.6c-6.2,7-12.1,14.1-17.7,21.4c-13.2,17.2-25.1,35.8-31.3,56.5c-6.8,22.3-4.2,45.9,0.8,68.4
			c2.8,12.7,6.5,25.1,11,37.2c5.1,13.2,10.7,26.2,16.1,39.4c2.8,7,5.6,14.1,8.2,21.1c2,5.1,3.7,10.1,3.1,15.8
			c-0.3,4.8-1.7,9-3.7,13.2c-1.7,4.5-3.9,8.7-5.9,13c0.3-3.4,0-6.8-0.8-10.4c-0.3-0.6-1.4-0.6-1.1,0.3C911.7,389,899,405,892,421
			c-2.3,4.5-3.4,9-4.8,13.5c-2,6.2-3.9,12.4-5.9,18.6c-2,5.9-3.9,11.8-5.1,18c-1.1,5.4-1.7,10.4-3.1,15.8
			c-1.4,5.6-3.4,11.8-7.6,16.1c-4.8,4.5-11,7.3-16.6,10.4c-13,7-25.9,14.1-39.2,20c-12.1,5.6-24.2,11.5-36.3,17.2
			c-4.2,2-8.5,3.9-13.2,5.4c-3.9,1.1-9,2.5-13.2,1.1c-0.3,0-0.3,0-0.3,0l0,0c-3.4-4.2-2.5-10.1-1.1-14.9c1.4-5.4,3.9-10.1,6.8-14.6
			c6.5-10.1,16.6-18.6,27.3-24.2c-1.7,4.8-2.5,9.6-1.4,14.9c0,0.3,0.6,0,0.6-0.3c-2.3-10.4,4.8-19.4,12.7-25.9s17.2-11,27-13.5
			c0,1.4,0.6,2.8,0.8,4.2c0,0.3,0.6,0,0.6-0.3c-1.4-8.7-0.6-18.3,1.7-27c1.1-4.2,2.5-8.7,3.9-13c1.1-3.7,2.3-7,2-11
			c-0.3-7.9-3.1-15.8-4.5-23.7c-1.1-7-1.1-15.5-4.2-22.5c2.3,0.6,4.2,1.1,6.5,1.7c0.6,0,0.6-0.6,0.3-0.8
			c-17.7-5.4-35.2-11-52.3-17.7c8.5-3.9,17.2-6.8,26.2-8.7c0.3,0,0-0.6-0.3-0.6c-7.3,1.4-14.4,3.1-21.4,5.9
			c-7.3,2.8-14.1,6.5-20.6,10.1c0.6-1.1,1.1-2.3,2-3.4c0.3-0.3-0.3-0.6-0.6-0.3c-2.8,3.9-5.1,8.2-7,12.7c-2,4.8-3.1,9.9-4.5,14.6
			c-2.5,9.6-3.9,19.2-6.5,28.7c-3.1,11.8-6.8,23.4-12.7,33.8c-2.5,4.8-5.6,9.3-8.7,14.1c-2.8,4.5-5.9,9-9.3,13.2
			c-6.5,8.2-15.2,17.2-26.5,17.5c-5.4,0-10.1-1.4-14.1-5.4c-3.1-3.1-6.5-7.9-6.2-12.1v-0.3c0.3-14.4,8.2-27.3,11.8-40.6
			c3.7-12.7,5.1-25.6,12.4-37.2c3.7-0.6,7.6,0.8,11,2c3.4,1.1,6.2,2.3,9.3,3.7c0.3,0,0.6-0.6,0.3-0.8c-5.9-2.8-13-7.3-19.7-5.9
			c0.6-16.1,6.8-31.5,7.6-47.5c0.6-7.6,0-14.9,0.8-22.5c0.6-7.6,2.8-14.6,5.9-22c0-0.3-0.6-0.6-0.8-0.3c-0.3,0.8-0.8,1.7-1.1,2.5
			c0,0,0-0.6,0-0.8c-0.6-11.8-2.3-23.9-2-36.1c0.3-12.7,2.5-24.8,6.8-36.9c8.7-25.6,22.3-49.5,34.9-73.4c13-24.8,22.3-51.2,34.9-76
			c6.5-12.7,13-24.8,20-36.9c3.4-5.9,6.8-12.1,10.4-18c3.4-5.6,7.3-11.3,10.4-17.2c0.3-0.8-0.8-1.7-1.1-0.8c-0.8,1.7-2,3.4-2.8,4.8
			c-3.7,5.9-7,11.5-10.7,17.5c-3.7,5.9-7,12.1-10.7,18c-7,12.1-14.1,23.9-20.3,36.6c-5.9,12.4-11.5,25.1-16.3,37.7
			c-5.1,13.5-11.5,26.2-18.3,38.9c-12.4,23.7-26.2,46.7-34.4,72.3c-3.4,11.8-5.6,23.7-5.4,36.1c0.3,12.1,2,23.9,3.9,35.8
			c0,0,0,0.3,0.3,0.3c-5.6,12.7-6.5,27.3-7,40.8c-0.3,8.2-2.3,16.6-3.9,24.8c-1.4,7.9-2.5,15.5-2.3,23.7l0,0
			c-9.9,9.9-10.4,24.8-14.1,37.5c-2.3,7-5.4,14.1-7.6,21.4c-1.7,6.8-2.8,13.8-2.5,20.8c-0.3,4.2,1.1,7.9,3.7,11
			c3.1,3.4,6.8,6.2,11.3,7c10.4,2,19.7-2.5,27.3-9.9c7.3-7.6,13-16.6,18.9-25.4c6.2-9.6,11-20.3,14.4-31.5
			c3.4-11.3,6.2-22.8,9.3-34.4c2.8-9.9,5.1-20.8,9.9-30.4c0,0.3,0,0.3,0.3,0.3c4.5-2.5,9.6-5.1,14.4-7c14.4,6.8,29.3,11.5,44.5,15.5
			c-0.3,0.3-0.3,0.3,0,0.6c2.3,3.7,2.8,8.5,3.4,12.7c0.6,3.9,1.1,7.9,2,11.5c2,7.6,4.8,15.8,3.9,23.9c-0.6,4.5-2.3,8.5-3.7,12.7
			c-1.1,3.9-2.3,7.9-3.1,12.1c-1.1,6.5-1.4,12.7-0.3,18.9c-10.4,1.7-21.1,6.8-29.3,13.8c-3.7,3.4-7,7.3-9,11.5
			c-0.3-0.3-0.6-0.6-0.8-0.3c-11.8,5.6-23.4,14.4-30.1,25.9c-4.5,7.9-11,21.4-3.1,29.3c0.3,0,0.3,0,0.3,0s0,0.3,0.3,0.3
			c0,0,0,0.3,0.3,0.3c8.2,3.1,17.5-1.1,25.1-4.5c11.5-5.4,23.4-10.7,34.6-16.6c6.5-3.4,13.2-6.5,19.7-9.9c6.8-3.4,13-6.8,19.4-10.4
			c2.8-1.7,6.2-3.4,9.3-4.8c2.8-1.1,5.6-2.5,8.2-4.2c4.8-3.1,7.9-7.6,9.9-13c2-5.6,3.1-11,3.9-16.6c1.1-6.2,2.5-12.7,4.2-18.9
			c1.7-6.8,3.9-13.5,5.9-20.3c1.4-5.6,2.8-10.7,5.1-16.1c5.6-13.2,14.6-26.8,16.1-41.4c0,0,0.3,0,0.3-0.3c3.9-6.8,9-13.2,11-21.1
			c0.8-4.2,1.1-8.7,0.3-13.2c-1.1-6.2-4.2-12.1-6.5-18c-5.4-13.5-11-27-16.6-40.6c-10.4-23.9-18-50.3-20-76.8
			c-1.1-11.3-0.3-22,2.5-33c2.8-10.7,7-20.8,12.1-30.4c10.1-19.2,22.8-36.6,36.9-52.9C929,95.4,928.2,94.6,928.2,94.6z M699.9,481.8
			c0.3-2.5,0-4.8-0.8-7c-1.1-2.3-2.3-4.2-3.7-5.9c-1.7-1.7-3.4-3.4-5.4-4.8c-2-1.1-3.9-2.8-6.2-3.7c-1.7-0.6-3.4-0.6-4.8,0.3
			c-1.4,0.9-2.5,2.3-3.4,3.7c-2.3,3.7-3.4,7.9-5.4,11.5c-1.1,2.3-2.8,4.5-3.7,7c-0.6,1.4-0.8,3.1-0.3,4.8c0.6,2.3,2.3,3.7,3.7,4.8
			c2,1.4,3.9,2.5,6.2,3.4c2.3,0.8,4.5,1.1,6.8,1.1c4.2-0.3,8.2-1.7,11.3-4.2c1.4-1.4,2.8-2.8,3.7-4.8
			C699.1,486,699.6,483.8,699.9,481.8z M698,473.4c2.3,4.2,2.3,9.6,0.3,14.1c-1.7,3.9-5.1,6.8-9,8.2c-2.3,0.8-4.5,1.1-6.5,1.1
			c-2.5,0-4.8-0.6-7-1.4c-2.2-0.8-4.2-2-6.2-3.7c-1.4-1.4-2.5-3.1-2.8-5.1c0-2,0.6-3.7,1.4-5.4c1.1-1.7,2.3-3.4,3.1-5.1
			c0-0.8,0.6-1.4,0.8-2.3c0.8-1.7,1.7-3.9,2.5-5.9c1.1-2,1.7-3.9,3.1-5.4c1.1-1.4,2.5-2.5,4.2-2.5c2.3,0,4.2,1.1,5.9,2.5
			C691.8,465.5,695.7,468.9,698,473.4z M699.9,438.1c-5.6-2-13.2-5.1-14.6-11.5c0-0.3-0.6,0-0.6,0.3c1.1,6.8,8.2,10.4,13.8,12.7
			c5.6,2.3,13.2,4.5,19.4,3.1c0.6,0,0.6-1.1-0.3-1.1C711.8,441.5,705.6,440.4,699.9,438.1z M692,418.8c3.7,3.1,8.7,5.1,13,7.3
			c4.5,2.5,9,5.1,12.7,8.7c0,0.6,0.6,0,0.3-0.3c-3.4-3.4-7.6-6.2-11.8-8.7c-4.5-2.3-8.7-5.1-13.2-7.6
			C692.3,418,691.8,418.8,692,418.8z"/>
	</g>
</g>
<text transform="matrix(1 0 0 1 750.5273 273.0029)" font-family="'FingerPaint-Regular'" font-size="126.8641">R</text>
</svg>
