<?xml version="1.0" encoding="UTF-8" standalone="no"?>
<svg
   xmlns:dc="http://purl.org/dc/elements/1.1/"
   xmlns:cc="http://creativecommons.org/ns#"
   xmlns:rdf="http://www.w3.org/1999/02/22-rdf-syntax-ns#"
   xmlns:svg="http://www.w3.org/2000/svg"
   xmlns="http://www.w3.org/2000/svg"
   xmlns:sodipodi="http://sodipodi.sourceforge.net/DTD/sodipodi-0.dtd"
   xmlns:inkscape="http://www.inkscape.org/namespaces/inkscape"
   id="svg2"
   viewBox="0 0 168.12954 361.65719"
   version="1.1"
   sodipodi:docname="two_hands_highlight.svg"
   inkscape:version="0.92.4 (5da689c313, 2019-01-14)"
   width="168.12955"
   height="361.6572">
  <defs
     id="defs9" />
  <sodipodi:namedview
     pagecolor="#ffffff"
     bordercolor="#666666"
     borderopacity="1"
     objecttolerance="10"
     gridtolerance="10"
     guidetolerance="10"
     inkscape:pageopacity="0"
     inkscape:pageshadow="2"
     inkscape:window-width="1440"
     inkscape:window-height="837"
     id="namedview7"
     showgrid="false"
     inkscape:zoom="0.65254658"
     inkscape:cx="84.071492"
     inkscape:cy="180.83371"
     inkscape:window-x="-8"
     inkscape:window-y="-8"
     inkscape:window-maximized="1"
     inkscape:current-layer="svg2" />
  <g
     id="layer1"
     transform="translate(-319.24351,-469.15651)"
     style="fill:#00ff00">
    <path
       id="path2860"
       d="m 370.02,829.8 c -0.3442,-0.55693 -1.236,-6.9694 -1.9818,-14.25 -0.74575,-7.2806 -1.6546,-16.162 -2.0197,-19.737 -0.36506,-3.575 -0.8443,-9.65 -1.065,-13.5 -0.22069,-3.85 -0.62424,-8.8 -0.89679,-11 -0.27256,-2.2 -0.76487,-6.25 -1.094,-9 -1.6263,-13.586 -7.6171,-29.562 -14.168,-37.782 -9.2283,-11.579 -18.697,-27.841 -22.287,-38.277 -0.9659,-2.8074 -2.9955,-12.106 -4.5102,-20.664 l -2.754,-15.56 1.7709,-7.5199 c 1.4148,-6.0076 1.5439,-8.171 0.64232,-10.757 -2.0542,-5.8925 -1.3913,-12.235 1.9424,-18.587 1.689,-3.2184 4.0516,-6.9234 5.25,-8.2335 2.9278,-3.2005 9.3817,-6.0692 13.715,-6.0961 l 3.5357,-0.022 0.0294,-5.25 c 0.0525,-9.3768 5.8032,-17.184 14.899,-20.227 7.3937,-2.4734 12.888,-1.3712 17.837,3.5786 l 3.9164,3.9164 -0.65979,-3.2592 c -0.36289,-1.7925 -1.7894,-10.009 -3.1701,-18.259 -5.6012,-33.469 -9.5378,-52.567 -12.887,-62.517 -4.4838,-13.322 -4.5796,-17.726 -0.48719,-22.387 5.8364,-6.6473 14.261,-7.0199 21.003,-0.92899 2.6918,2.4319 4.8969,6.1297 7.8181,13.11 11.212,26.794 15.356,41.967 18.177,66.561 1.0826,9.4389 2.3032,18.394 2.7125,19.901 l 0.74412,2.7397 3.2208,-1.9587 c 1.7714,-1.0773 3.4248,-2.9852 3.6742,-4.2397 5.2866,-26.6 6.5806,-37.878 7.2533,-63.218 0.31333,-11.804 0.93833,-19.043 1.8281,-21.172 1.8848,-4.5109 5.7683,-6.7759 11.618,-6.7759 11.513,0 16.053,11.888 17.879,46.817 1.0638,20.343 0.69945,28.246 -2.4697,53.568 -0.79158,6.325 -1.7228,18.7 -2.0695,27.5 l -0.63021,16 2.6928,2.5 c 4.0176,3.7299 6.4982,9.3088 6.4982,14.615 0,4.297 -4.9495,26.16 -6.992,30.885 -3.7198,8.6056 -8.3203,24.535 -9.6374,33.37 -1.9841,13.309 -1.291,21.071 2.6498,29.675 6.9352,15.142 17.863,43.858 26.525,69.705 l 9.3004,27.75 h -58.364 c -38.315,0 -58.579,-0.34784 -58.99,-1.0126 z"
       inkscape:connector-curvature="0"
       style="fill:#00ff00" />
  </g>
  <metadata
     id="metadata4">
    <rdf:RDF>
      <cc:Work>
        <dc:format>image/svg+xml</dc:format>
        <dc:type
           rdf:resource="http://purl.org/dc/dcmitype/StillImage" />
        <cc:license
           rdf:resource="http://creativecommons.org/licenses/publicdomain/" />
        <dc:publisher>
          <cc:Agent
             rdf:about="http://openclipart.org/">
            <dc:title>Openclipart</dc:title>
          </cc:Agent>
        </dc:publisher>
        <dc:title></dc:title>
        <dc:date>2010-12-30T23:02:30</dc:date>
        <dc:description>clip art, clipart, finger, hand, love, peace, </dc:description>
        <dc:source>http://openclipart.org/detail/102691/peace-by-worker</dc:source>
        <dc:creator>
          <cc:Agent>
            <dc:title>worker</dc:title>
          </cc:Agent>
        </dc:creator>
        <dc:subject>
          <rdf:Bag>
            <rdf:li>clip art</rdf:li>
            <rdf:li>clipart</rdf:li>
            <rdf:li>finger</rdf:li>
            <rdf:li>hand</rdf:li>
            <rdf:li>love</rdf:li>
            <rdf:li>peace</rdf:li>
          </rdf:Bag>
        </dc:subject>
      </cc:Work>
      <cc:License
         rdf:about="http://creativecommons.org/licenses/publicdomain/">
        <cc:permits
           rdf:resource="http://creativecommons.org/ns#Reproduction" />
        <cc:permits
           rdf:resource="http://creativecommons.org/ns#Distribution" />
        <cc:permits
           rdf:resource="http://creativecommons.org/ns#DerivativeWorks" />
      </cc:License>
    </rdf:RDF>
  </metadata>
</svg>
