<?xml version="1.0" encoding="utf-8"?>
<!-- Generator: Adobe Illustrator 18.0.0, SVG Export Plug-In . SVG Version: 6.00 Build 0)  -->
<!DOCTYPE svg PUBLIC "-//W3C//DTD SVG 1.1//EN" "http://www.w3.org/Graphics/SVG/1.1/DTD/svg11.dtd">
<svg version="1.1" id="Layer_1" xmlns="http://www.w3.org/2000/svg" xmlns:xlink="http://www.w3.org/1999/xlink" x="0px" y="0px"
	 viewBox="262.1 1 553.9 560.3" enable-background="new 262.1 1 553.9 560.3" xml:space="preserve">
<g>
	<g>
		<g>
			<g>
				<path fill="#F6B292" d="M346.1,413.9c4.8,5.1,11.5,9.9,18.8,12.7c0.3,0.8,0.6,1.4,0.8,2c3.9,8.7,8.7,16.6,16.6,22.2
					c5.6,4.2,12.4,5.4,18.2,9l45,11c6.8,0,8.2-9.9,7.6-15.2c-2-11-11-16.3-18.5-22.2c-5.6-4.8-9.3-10.4-14.4-16.1
					c-4.2-4.2-9.9-6.5-14.6-9.9c-4.2-2.5-5.9-5.6-8.7-8.7c-2.5-8.7-4.8-19.1-12.4-23.6l-40.8,17.7
					C332.8,393.5,343.2,410.8,346.1,413.9z"/>
				<path fill="#E48C69" d="M376.3,437.3c11.5,14.4,23.8,18.5,41,23.3l28.1,7.6c10.4-15.2-16.1-31.7-23.8-41
					c-3.4-4.2-6.5-7-11.8-9.3c-4.8-2.5-10.4-2-14.4-4.5c-8.7-6.5-4.8-22.4-11.8-29.8c-9.6-9.3-24.4,3.7-24.7,14.4
					C357.4,411.4,368.1,427.2,376.3,437.3z"/>
				
					<linearGradient id="SVGID_1_" gradientUnits="userSpaceOnUse" x1="801.4826" y1="-440.5757" x2="797.6765" y2="-427.2541" gradientTransform="matrix(-1.6524 -0.8673 0.8673 -1.6524 2094.6738 411.8244)">
					<stop  offset="0" style="stop-color:#914533"/>
					<stop  offset="1" style="stop-color:#E48C69"/>
				</linearGradient>
				<path fill="url(#SVGID_1_)" d="M445,467.3c-6.2-21-31.4-25.3-45.5-38.2c-5.6-4.8-10.4-11.5-14.1-18.5
					c-2.5-4.8-7.3-25.8-11.5-27.8c-8.5-4.5-12.1,15.2-12.1,20.5c0.6,29.8,30.9,52.2,57.4,57.7L445,467.3z"/>
			</g>
			<g>
				<path fill="#914533" d="M445,470.6c7.6,0.3,9.3-9.9,8.7-15.5c-1.1-9.3-9-15.5-16.1-20.7c-4.2-3.1-7.9-7-11.5-11
					c-3.1-3.7-5.9-7-9.9-9.9c-3.7-2.5-7.6-4.5-11-6.8c-3.7-2.3-7.6-4.8-9.3-8.7c-0.3-0.8-2-0.3-1.4,0.3c2.8,6.5,10.4,9.9,16.1,13.2
					c3.1,2,6.5,3.9,9.3,6.8c3.7,3.7,6.8,8.2,10.4,12.1c5.9,6.8,14.6,10.7,19.3,18.5c2,3.7,2.8,7.9,2.5,12.1c-0.3,3.9-2,8.7-6.5,9
					C444.4,469.8,444.4,470.6,445,470.6L445,470.6z"/>
			</g>
			<g>
				<path fill="#914533" d="M398.2,405.8c-0.8-2.8-0.8-5.6-1.4-8.5c-0.8-3.1-1.4-6.5-2.5-9.6c-1.7-4.8-4.2-12.1-9.6-14.1
					c-1.4-0.6-2.3,0.8-1.4,2c2,2,3.7,3.7,5.1,5.9c1.7,2.5,2.8,5.4,3.7,8.5c0.8,2.5,1.7,5.4,2.5,8.2c0.8,2.8,2,5.4,2.8,8.2
					C397.3,406.6,398.2,406.3,398.2,405.8L398.2,405.8z"/>
			</g>
		</g>
		<g>
			<path fill="#F6B292" d="M470.5,500.1c4.5-9.3-1.1-19.9-8.2-25.3c-4.5-3.7-9.9-5.4-14.4-7.6c-6.8-3.1-10.4-7-16.1-12.1
				c-6.8-5.9-15.5-7.9-23.3-10.7c-7.9-2.8-17.9-2.5-23-9.9c-4.2-5.6-4.5-12.1-6.5-18.2c-2.5-8.2-8.2-15.5-11.5-23
				c-0.3-0.6-5.1,6.8-5.4,7.3c-1.4,3.4-2,7.3-2,11c-0.6,6.5-1.4,12.1-3.1,18.2c-3.4,11.3,2.3,20.5,9.9,28.6
				c15.5,17.6,41.3,33.1,64.8,35.4L470.5,500.1z"/>
			<path fill="#914533" d="M470.5,500.1c4.2-8.7,0.3-18.5-5.9-24.7c-4.5-4.5-10.4-6.5-16.1-9.3c-5.9-2.8-10.1-7-14.9-11.5
				c-5.4-4.5-11.5-7-18.2-9.3c-3.1-0.8-6.2-2-9.3-3.1c-3.1-0.8-6.5-1.4-9.3-2.3c-3.1-0.8-6.2-2.3-8.7-4.2c-2.5-2.3-4.2-5.6-5.1-8.7
				c-2-5.6-2.5-11.5-5.1-16.9c-2.5-5.6-5.9-11-8.7-16.6c-0.6-1.4-1.4-2.8-3.1-1.4c-1.1,0.8-2,2.3-2.5,3.4c-0.8,1.4-1.7,2.5-2.5,3.7
				c-1.4,2.3-1.7,5.4-2,7.6c-0.8,6.5-0.8,12.7-2.5,19.1c-1.4,5.4-2.3,9.6-1.1,14.9c0.8,4.8,3.7,9,6.5,12.7
				c6.5,8.7,15.2,16.3,24.1,22.4c13.2,9.3,29.2,16.9,45.5,17.6c0.8,0,0.8-1.4,0.3-1.4c-23.6-3.1-46.1-15.5-62.2-32.9
				c-7-7.6-14.4-17.2-12.1-27.8c0.6-2.8,1.4-5.6,2.3-8.7c0.9-3.1,1.1-6.5,1.4-9.9c0.6-5.4,0.6-10.7,3.7-14.9c0.8-0.8,1.4-2,2-3.1
				c0.3-0.3,0.6-0.8,0.8-1.1c0.3-0.3,0.8-0.8,0.3-0.6c-0.3-0.3-0.8-0.3-1.4-0.3c0.6,0.3,1.1,2.5,1.4,3.1c0.8,1.4,1.4,2.5,2.3,3.9
				c1.7,2.8,3.1,5.9,4.8,8.7c2.8,5.4,3.9,11.3,5.9,17.2c1.7,5.4,4.8,9.9,9.9,12.7c5.4,2.8,11.5,3.4,17.2,5.4
				c7,2.3,14.1,4.5,20.2,8.5c5.4,3.4,9.3,8.7,14.6,12.1c5.6,3.7,12.7,5.4,18.2,9.3c4.2,3.1,7.6,7.3,9.3,12.1c1.7,4.2,1.7,8.7-0.3,13
				C470,500.1,470.5,500.7,470.5,500.1L470.5,500.1z"/>
			<path fill="#E48C69" d="M467.7,494.5c-0.8-10.7-8.5-15.2-16.6-18.2c-11.8-5.6-19.3-15.5-30.9-20.5c-13.8-5.4-28.4-3.4-37.6-16.6
				c-4.2-5.6-9.9-30.3-15.2-31.7c-8.7-2-9.9,13-9,17.5c1.4,16.1,12.1,29.2,25.8,37.6c23.8,14.6,57.7,15.5,78.3,36.5L467.7,494.5z"/>
			
				<linearGradient id="SVGID_2_" gradientUnits="userSpaceOnUse" x1="786.5279" y1="-449.2383" x2="786.5279" y2="-438.7717" gradientTransform="matrix(-1.6524 -0.8673 0.8673 -1.6524 2094.6738 411.8244)">
				<stop  offset="0" style="stop-color:#914533"/>
				<stop  offset="1" style="stop-color:#E48C69"/>
			</linearGradient>
			<path fill="url(#SVGID_2_)" d="M466,495c-3.7-6.8-9.3-13.8-16.3-17.6c-10.7-5.9-22.4-14.6-34.3-17.6
				c-12.1-2.3-23.6-4.2-32.6-14.4c-8.2-9.3-8.7-25.3-17.6-34c-8.2,7.6-2,27.5,2.8,35.1c18.2,32.6,51.1,32.6,82.5,45L466,495z"/>
		</g>
		<g>
			<path fill="#F6B292" d="M424,513.8c7,4.2,16.9,3.1,24.7,4.8c8.7,1.4,26.4,8.2,26.9-5.4c1.1-19.3-26.7-31.4-40.7-39.9
				c-11.5-6.2-22.7-9.6-35.1-12.4c-5.9-1.4-16.6-5.1-20.7-9.6c-7-7-9.9-44.7-23.6-38.8c-24.7,10.7-4.2,60.3,6.5,72.9L424,513.8z"/>
			<path fill="#E48C69" d="M363,451.5c0.8,8.7-0.3,20.2,4.2,28.4c5.1,9.6,18.2,11.3,27.2,14.6c12.1,4.2,19.3,11,28.1,18.8l1.7,0.8
				c7,4.2,16.9,3.1,24.7,4.8c8.7,1.4,26.4,8.2,26.9-5.4c0.3-5.6-2-10.7-5.4-15.2l-1.4,1.1c2.8,9.9-13.2,8.7-18.2,7.6
				c-12.1-2.3-23.6-9.3-33.1-16.6c-7.6-5.9-13.5-14.4-22.2-18.8c-10.4-4.8-13.2-6.8-16.3-18.2c-0.3-0.8-0.6-2-0.8-2.8
				c-3.9-5.4-6.5-20.2-11-29.8C358,420.1,362.5,447.8,363,451.5z"/>
			
				<linearGradient id="SVGID_3_" gradientUnits="userSpaceOnUse" x1="786.8696" y1="-464.862" x2="780.5179" y2="-442.6306" gradientTransform="matrix(-1.6524 -0.8673 0.8673 -1.6524 2094.6738 411.8244)">
				<stop  offset="0" style="stop-color:#914533"/>
				<stop  offset="1" style="stop-color:#E48C69"/>
			</linearGradient>
			<path fill="url(#SVGID_3_)" d="M367.3,448.1c1.7,9-3.9,31.2,4.8,35.7c4.8,2.5,11,1.4,16.1,4.5c6.5,3.7,13.2,9,19.3,13.5
				c4.2,3.4,7.6,6.5,11.3,9.3l5.9,2.5c7,4.2,16.9,3.1,24.7,4.8c8.7,1.4,26.4,8.2,26.9-5.4c0.3-3.4-0.6-6.5-2-9.6
				c-3.7,16.6-27.2,11.5-39.3,5.9c-7-3.4-15.5-8.2-21-13.2c-4.8-3.9-8.7-10.1-13.2-14.9c-4.8-4.8-10.7-5.9-15.8-9.9
				c-3.7-3.1-6.8-7.3-8.2-11.8c-2.5-7.9-3.7-16.6-5.1-24.7c-0.3-1.1-0.3-3.4-0.8-5.9c-1.4-4.2-2.8-8.2-4.5-11
				C357.1,414.2,366.7,445.3,367.3,448.1z"/>
			<path fill="#914533" d="M423.7,514.1c5.4,3.1,11.5,3.7,17.5,4.2c4.5,0.3,9,1.4,13.2,2.5c5.9,1.4,14.9,3.9,19.9-0.8
				c2.5-2.5,2.8-6.5,2.5-9.9c-0.3-3.7-2-7.3-4.2-10.4c-4.8-7-12.4-12.4-19.3-16.9c-3.7-2.3-7.6-4.5-11.5-6.5c-4.2-2.5-8.5-4.8-13-7
				c-5.9-2.8-12.1-4.8-18.2-6.8c-5.6-1.7-11.5-2.8-17.2-4.5c-4.8-1.7-10.4-3.7-14.4-7c-2-2-3.1-5.1-3.9-7.6c-1.1-3.7-2-7.6-3.1-11.3
				c-1.1-3.7-2.3-7.6-3.9-11c-2-4.8-5.6-11-11.5-9.9c-6.5,1.1-11,7.6-12.7,13.2c-2.3,7.3-1.4,15.5,0,22.7c1.7,8.2,4.5,16.3,8.2,23.8
				c2.5,5.4,5.4,10.7,8.7,15.2c0.6,0.8,1.7,0,1.1-0.8c-4.2-5.4-7.3-11.5-9.9-17.6c-3.4-8.2-5.9-16.6-7.3-25
				c-1.1-7.6-1.4-15.8,2.5-22.4c2.8-4.8,9.9-10.4,14.9-5.1c2.3,2.5,3.7,5.9,4.8,8.7c1.4,3.7,2.5,7.6,3.9,11.3
				c1.1,3.7,2.5,7,3.9,10.4c0.8,2.5,2,4.8,3.7,6.8c3.4,3.7,8.7,5.9,13.2,7.6c5.4,2,11,3.1,16.6,4.2c6.8,1.7,13.2,3.7,19.3,6.5
				c4.5,2,8.7,4.2,13.2,6.8c7.9,4.2,15.8,8.7,22.4,14.6c6.5,5.4,12.1,13,11,21.6c-1.1,8.7-12.7,5.9-18.2,4.8
				c-4.2-0.8-8.2-1.7-12.7-2c-6.5-0.6-13.2-0.3-18.8-3.1c-0.3-0.3-0.3-0.3-0.6-0.3C423.7,513,423.4,513.8,423.7,514.1L423.7,514.1z"
				/>
		</g>
	</g>
	<g>
		<path fill="#F6B292" d="M298.3,25.6c-1.4,2.3-2.5,4.8-3.7,7.6c-4.8,12.4-5.4,27.2-13.2,37.9c-4.8,7-20.2,12.7-19.3,22.4
			c0.8,8.7,18.5,23.3,23.8,30.9c17.2,23.6,32,51.6,31.2,81.4c-0.8,27.5-8.7,57.2-19.3,83.1c-7.6,17.9-14.9,35.4-21.6,53.5
			c-4.8,13.2-1.1,24.1,5.4,35.7c0.8,1.7,2,3.1,3.1,4.5c0.8,17.6,14.6,33.7,19.1,49.9c3.4,12.7,7.6,24.7,11,37.4
			c2.3,11,3.1,24.1,9.6,33.1c4.8,6.5,12.1,8.7,19.1,12.7c8.7,4.5,16.9,9.3,25.5,13.5c15.5,7.3,30.3,14.9,46.1,21.9
			c7.3,3.4,22.4,11,30.9,7.6l-0.8-0.8l1.1,0.8c7.9-8.7-2.5-27.2-7.9-34.3c-5.9-7.6-16.6-17.9-26.9-20.7c-6.2-11.3-21-19.6-33.1-23
			l-3.9-4.8c0.3-12.4-5.9-29.2-7.6-35.4c-3.4-11.5,3.4-25,4.5-36.8c0.8-5.4,1.7-13,3.9-17.2c4.2-1.4,8.5-3.1,12.1-4.2
			c11.5-3.7,22.4-7.6,33.4-12.1c4.8,2.3,9.9,4.8,14.4,7.3l0.6-0.3c2,4.5,4.5,8.7,5.9,13.2c8.2,28.1,11,57.2,27.5,82
			c9.9,14.9,24.4,40.2,46.4,35.4c6.5-1.4,13.5-8.7,14.4-15.5v-0.3c0-0.3,0-0.6,0-0.8c0.6-12.1-4.8-25.5-9.3-36.5
			c-5.4-13.2-7-31.4-15.5-42.4l0.6-0.3c-0.3,0-0.6-0.3-0.8-0.3c0.3-1.1,0.3-2.3,0.3-3.7c-0.6-15.2-6.2-29.2-7-44.4
			c-0.8-15.2-0.6-26.9-5.9-40.5c0.6-2.5,0.8-5.4,1.1-8.5c0.8-6.8,1.4-13.5,2-20.2c0.8-13.2-0.3-26.4-3.7-39.3
			c-6.8-23.8-18.8-45.8-30.3-67.6c-5.9-10.7-11.5-21.3-16.9-32.6c-5.4-11-9.3-22.4-14.4-33.7c-11-25.3-25-49.7-39.3-73.5
			c-3.1-5.9-6.8-11-9.9-16.1c-3.3-11.4-9.2-16.2-19.3-22C337.9-4.2,311.4,2.3,298.3,25.6z"/>
		<g>
			<path fill="#E48C69" d="M438.6,524.2c-5.9-7.6-16.6-17.9-26.9-20.7c-6.2-11.3-21-19.6-33.1-23l-3.9-4.8
				c0.3-12.4-5.9-29.2-7.6-35.4c-3.4-11.5,3.4-25,4.5-36.8c0.8-5.4,1.7-13,3.9-17.2c4.2-1.4,8.5-3.1,12.1-4.2
				c11.5-3.7,22.4-7.6,33.4-12.1c2.5,1.1,4.8,2.3,7.3,3.7c-9.9-8.7-27.5-13.2-38.2-14.6l-0.6,0.6c9.9,13.2,9.3,17.2-7.9,22.4
				c-12.1,3.9-17.6,2.8-23,14.4c-14.1,27.8-3.1,51.1,1.4,80.5c2.3,12.7,5.4,15.5,15.5,19.9c8.2,3.4,18.8,3.9,25.5,9.6
				c3.4,3.4,4.5,9,7.6,12.1c12.7,12.7,36,16.3,37.1,40.7c0.3,0,0.6-0.3,0.8-0.3l-0.8-0.8l1.1,0.8
				C454.2,549.7,443.9,531.3,438.6,524.2z M337.9,15.5c17.2,28.1,30.9,56,45.5,85.6c26.7,54.3,59.4,107.8,71.2,168
				c2.5,13.5-2.5,26.9,0,40.2c2.8,14.9,13.2,25.8,21.9,37.6c8.7,12.4,7.9,24.4,12.4,37.9c1.1,3.4,5.4,30.3-2,30.3
				c9.3,0,9.3,6.8,3.9,12.1c9.3,0,12.7,10.1,2.8,14.4c11,1.7,13.2,16.6,16.1,20.5c4.5,6.8,19.3,20.5,15.5,29.8
				c2,2.5,1.4,5.4,0.8,8.7c2-2.5,3.1-5.4,3.4-7.9v-0.3c0-0.3,0-0.6,0-0.8c0.6-12.1-4.8-25.5-9.3-36.5c-5.4-13.2-7-31.4-15.5-42.4
				l0.6-0.3c-0.3,0-0.6-0.3-0.8-0.3c0.3-1.1,0.3-2.3,0.3-3.7c-0.6-15.2-6.2-29.2-7-44.4c-0.8-15.2-0.6-26.9-5.9-40.5
				c0.6-2.5,0.8-5.4,1.1-8.5c0.8-6.8,1.4-13.5,2-20.2c0.8-13.2-0.3-26.4-3.7-39.3c-6.8-23.8-18.8-45.8-30.3-67.6
				c-5.9-10.7-11.5-21.3-16.9-32.6c-5.4-11-9.3-22.4-14.4-33.7c-11-25.3-25-49.7-39.3-73.5c-3.1-5.9-6.8-11-9.9-16.1
				c-2.8-11.5-8.7-16.3-18.8-22.2c-10.4-6.2-20.7-8.5-30.9-7.3C332.5,7.4,335.9,12.4,337.9,15.5z"/>
			
				<linearGradient id="SVGID_4_" gradientUnits="userSpaceOnUse" x1="886.003" y1="-440.927" x2="868.5587" y2="-386.0571" gradientTransform="matrix(-1.6524 -0.8673 0.8673 -1.6524 2094.6738 411.8244)">
				<stop  offset="0" style="stop-color:#E48C69"/>
				<stop  offset="1" style="stop-color:#F6B292"/>
			</linearGradient>
			<path fill="url(#SVGID_4_)" d="M287,360.6c1.1-28.4,21.3-60,32-85.6C315.6,307,299.4,332.6,287,360.6z"/>
			
				<linearGradient id="SVGID_5_" gradientUnits="userSpaceOnUse" x1="905.7775" y1="-411.0437" x2="837.2696" y2="-358.711" gradientTransform="matrix(-1.6524 -0.8673 0.8673 -1.6524 2094.6738 411.8244)">
				<stop  offset="0" style="stop-color:#FADBCA"/>
				<stop  offset="1" style="stop-color:#F6B292"/>
			</linearGradient>
			<path fill="url(#SVGID_5_)" d="M293.2,35.2c-1.4,4.2-2,8.5-2.3,12.7c-0.3,3.1-0.6,5.9-1.1,8.7c-0.8,3.7-3.7,5.4-5.9,8.5
				c-4.2,5.4,1.4,13.8,4.8,18.2c5.1,7,11.3,12.7,15.8,19.9c6.5,11,12.7,21.6,18.2,32.9c9.9,19.9,17.5,41.3,21.9,63.1
				c7.6,34.5,8.2,68.4-3.1,101.9c-5.9,18.2-13.2,36-26.7,49.9c-5.1,5.4-10.4,10.1-14.9,16.1c-4.8,6.2-7,13.8-7,21.3
				c0,0.8,0.8,1.4,1.4,1.1c1.7,8.5,6.5,17.2,10.4,23.3c5.1,8.2,7.9,17.5,9.9,26.7s4.2,18.2,6.5,27.2c2.5,9.9,5.6,19.6,10.4,28.6
				c2,3.7,4.2,7.3,7,10.4c3.7,3.9,8.5,6.5,13.2,8.7c11.5,5.4,23.6,9.3,34.8,15.5c10.7,5.9,20.5,13.8,32,17.6l-0.3,0.6c0,0,0,0-0.3,0
				c-0.6,0-0.6,0.8,0,0.8c11.5-0.3,1.4-9.9-2.5-13.2c-4.2-3.7-8.7-6.8-13-10.1c-5.9-4.2-11-9-17.5-12.1c-9.6-4.8-20.5-7-28.1-14.9
				c-7.3-7.6-10.4-17.9-12.7-27.5c-6.5-26.9-8.7-55.5,6.5-80.8c7.6-13.2,19.1-18.8,29.2-29.8c11-11.5,11.8-14.9,28.4-9.6
				c9.9,3.1,18.5,9.3,27.5,13.8c13.8,6.8,22.4,21,27.5,35.4c-0.3,0.3-0.3,0.6-0.3,0.8c0.8,5.6,1.4,23.6,11.5,21.3
				c6.2-1.4,7.3-7,7-12.7c-0.3-8.2-2.8-16.6-5.1-24.1c-1.4-4.2-2.8-8.7-4.2-13.2c-1.1-3.9-2-8.2-3.7-12.1
				c-5.1-11.8-17.2-16.6-21-29.2c-4.5-13.2-4.8-27.2-5.9-41c-2-26.4-13.2-52.5-26.7-75.2c-5.9-9.9-8.5-20.5-14.1-30.6
				c-7.3-13.2-15.5-25.8-21.3-39.6c-10.4-23-19.9-46.6-28.9-70.1c-6.2-16.3-10.1-36-23.8-47.7c-5.6-4.8-14.4-7.9-21.6-6.2
				C298.8,21.9,295.2,29,293.2,35.2z"/>
			<path fill="#EE9F7F" d="M401.5,85.4c13.8,25.8,25,53.8,38.5,80.3c12.1,23.3,24.7,46.8,35.4,71c5.4,12.1,5.9,24.7,7.6,37.9
				c1.1,9.3,6.5,27.8-2.3,33.4c5.9,17.2,12.7,30.9,12.7,49.7c0,9.3,0.8,17.6,2.5,26.9c1.4,7.3,6.5,17.5,2,24.1
				c3.4,2.3,2.5,4.8,3.7,7.3c0,0-0.3,2.8,0.3,3.7c0.6,1.4,3.1,0.8,3.7,2.3c2.3,5.6,0.3,9.9,2,15.2c2.5,9.9,11.8,19.3,16.6,28.9v-2.5
				c-1.1-3.1-2.3-5.9-3.4-8.7c-5.4-13.2-7-31.4-15.5-42.4l0.6-0.3c-0.3,0-0.6-0.3-0.8-0.3c0.3-1.1,0.3-2.3,0.3-3.7
				c-0.6-15.2-6.2-29.2-7-44.4s-0.6-26.9-5.9-40.5c0.6-2.5,0.8-5.4,1.1-8.5c0.8-6.8,1.4-13.5,2-20.2c0.8-13.2-0.3-26.4-3.7-39.3
				c-6.8-23.8-18.8-45.8-30.3-67.6c-5.9-10.7-11.5-21.3-16.9-32.6c-5.4-11-9.3-22.4-14.4-33.7c-11-25.3-25-49.7-39.3-73.5
				c-3.1-5.9-6.8-11-9.9-16.1c-2.8-11.5-8.7-16.3-18.8-22.2c-2-1.1-3.9-2-5.9-3.1c5.4,12.7,17.2,25.8,23.6,36
				C388,56.7,394.2,71.3,401.5,85.4z"/>
		</g>
		<path fill="#914533" d="M264.9,98.5c14.1,16.3,26.7,33.7,36.8,52.7c5.1,9.6,9.3,19.6,12.1,30.3c2.8,11,3.7,21.6,2.5,32.9
			c-2,26.4-9.6,52.7-19.9,76.6c-5.6,13.5-11.3,26.9-16.6,40.5c-2.3,5.9-5.4,11.8-6.5,17.9c-0.8,4.5-0.6,9,0.3,13.2
			c2,7.9,7,14.4,11,21c0,0.3,0.3,0.3,0.3,0.3c1.4,14.6,10.4,28.1,16.1,41.3c2.3,5.4,3.7,10.4,5.1,16.1c2,6.8,4.2,13.5,5.9,20.2
			c1.7,6.2,3.1,12.7,4.2,18.8c0.8,5.6,2,11,3.9,16.6c2,5.4,5.1,9.9,9.9,13c2.5,1.7,5.4,3.1,8.2,4.2c3.1,1.4,6.5,3.1,9.3,4.8
			c6.5,3.7,12.7,7,19.3,10.4c6.5,3.4,13.2,6.5,19.6,9.9c11.3,5.9,23,11.3,34.5,16.6c7.6,3.4,16.9,7.6,25,4.5c0.3,0,0.3-0.3,0.3-0.3
			c0.3,0,0.3-0.3,0.3-0.3s0,0,0.3,0c7.9-7.9,1.4-21.3-3.1-29.2c-6.8-11.5-18.2-20.2-30-25.8c-0.3-0.3-0.6,0-0.8,0.3
			c-2-4.2-5.4-8.2-9-11.5c-8.2-7-18.8-12.1-29.2-13.8c1.1-6.2,0.8-12.4-0.3-18.8c-0.8-4.2-2-8.2-3.1-12.1c-1.4-4.2-3.1-8.2-3.7-12.7
			c-0.8-8.2,2-16.3,3.9-23.8c0.8-3.7,1.4-7.6,2-11.5c0.6-4.2,1.1-9,3.4-12.7c0.3-0.3,0.3-0.3,0-0.6c15.2-3.9,30-8.7,44.4-15.5
			c4.8,2,9.9,4.5,14.4,7c0.3,0,0.3,0,0.3-0.3c4.8,9.6,7,20.5,9.9,30.3c3.1,11.5,5.9,23,9.3,34.3c3.4,11.3,8.2,21.9,14.4,31.4
			c5.9,8.7,11.5,17.6,18.8,25.3c7.6,7.3,16.9,11.8,27.2,9.9c4.5-0.8,8.2-3.7,11.3-7c2.5-3.1,3.9-6.8,3.7-11c0.3-7-0.8-14.1-2.5-20.7
			c-2.3-7.3-5.4-14.4-7.6-21.3c-3.7-12.7-4.2-27.5-14.1-37.4l0,0c0.3-8.2-0.8-15.8-2.3-23.6c-1.7-8.2-3.7-16.6-3.9-24.7
			c-0.6-13.5-1.4-28.1-7-40.7c0.3,0,0.3-0.3,0.3-0.3c2-11.8,3.7-23.6,3.9-35.7c0.3-12.4-2-24.1-5.4-36
			c-8.2-25.5-21.9-48.5-34.3-72.1c-6.8-12.7-13.2-25.3-18.2-38.8c-4.8-12.7-10.4-25.3-16.3-37.6c-6.5-12.8-13.6-24.5-20.5-36.6
			c-3.7-5.9-7-12.1-10.7-17.9s-7-11.5-10.7-17.5c-0.8-1.4-2-3.1-2.8-4.8c-0.3-0.8-1.4,0-1.1,0.8c3.1,5.9,7,11.5,10.4,17.2
			c3.7,5.9,7,12.1,10.4,17.9c7,12.1,13.5,24.1,19.9,36.8c12.7,24.7,21.9,51.1,34.8,75.8c12.7,23.8,26.1,47.7,34.8,73.2
			c4.2,12.1,6.5,24.1,6.8,36.8c0.3,12.1-1.4,24.1-2,36c0,0.3,0,0.8,0,0.8c-0.3-0.8-0.8-1.7-1.1-2.5c-0.3-0.3-0.8,0-0.8,0.3
			c3.1,7.3,5.4,14.4,5.9,21.9c0.8,7.6,0.3,14.9,0.8,22.4c0.8,16.1,7,31.4,7.6,47.4c-6.8-1.4-13.8,3.1-19.6,5.9
			c-0.3,0.3,0,0.8,0.3,0.8c3.1-1.4,5.9-2.5,9.3-3.7c3.4-1.1,7.3-2.5,11-2c7.3,11.5,8.7,24.4,12.4,37.1c3.7,13.2,11.5,26.1,11.8,40.5
			v0.3c0.3,4.2-3.1,9-6.2,12.1c-3.9,3.9-8.7,5.4-14.1,5.4c-11.3-0.3-19.9-9.3-26.4-17.5c-3.4-4.2-6.5-8.7-9.3-13.2
			c-3.1-4.8-6.2-9.3-8.7-14.1c-5.9-10.4-9.6-21.9-12.7-33.7c-2.5-9.6-3.9-19.1-6.5-28.6c-1.4-4.8-2.5-9.9-4.5-14.6
			c-2-4.5-4.2-8.7-7-12.7c-0.3-0.3-0.8,0-0.6,0.3c0.8,1.1,1.4,2.3,2,3.4c-6.5-3.7-13.2-7.3-20.5-10.1c-7-2.8-14.1-4.5-21.3-5.9
			c-0.3,0-0.6,0.6-0.3,0.6c9,2,17.6,4.8,26.1,8.7c-17.2,6.8-34.5,12.4-52.2,17.6c-0.3,0.3-0.3,0.8,0.3,0.8c2.3-0.6,4.2-1.1,6.5-1.7
			c-3.1,7-3.1,15.5-4.2,22.4c-1.4,7.9-4.2,15.8-4.5,23.6c-0.3,3.9,0.8,7.3,2,11c1.4,4.2,2.8,8.7,3.9,13c2.3,8.7,3.1,18.2,1.7,26.9
			c0,0.3,0.6,0.6,0.6,0.3c0.3-1.4,0.8-2.8,0.8-4.2c9.9,2.5,19.1,7,26.9,13.5c7.9,6.5,14.9,15.5,12.7,25.8c0,0.3,0.6,0.6,0.6,0.3
			c1.1-5.4,0.3-10.1-1.4-14.9c10.7,5.6,20.7,14.1,27.2,24.1c2.8,4.5,5.4,9.3,6.8,14.6c1.4,4.8,2.3,10.7-1.1,14.9l0,0c0,0,0,0-0.3,0
			c-4.2,1.4-9.3,0-13.2-1.1c-4.8-1.4-9-3.4-13.2-5.4c-12.1-5.6-24.1-11.5-36.2-17.2c-13.2-5.9-26.1-13-39.1-19.9
			c-5.6-3.1-11.8-5.9-16.6-10.4c-4.2-4.2-6.2-10.4-7.6-16.1c-1.4-5.4-2-10.4-3.1-15.8c-1.1-6.2-3.1-12.1-5.1-17.9
			c-2-6.2-3.9-12.4-5.9-18.5c-1.4-4.5-2.5-9-4.8-13.5c-7-16.1-19.6-32-14.9-50.5c0.3-0.8-0.8-0.8-1.1-0.3c-0.8,3.7-1.1,7-0.8,10.4
			c-2-4.2-4.2-8.5-5.9-13c-2-4.2-3.4-8.5-3.7-13.2c-0.6-5.6,1.1-10.7,3.1-15.8c2.5-7,5.4-14.1,8.2-21c5.4-13.2,11-26.1,16.1-39.3
			c4.5-12.1,8.2-24.4,11-37.1c5.1-22.4,7.6-46.1,0.8-68.2c-6.2-20.7-17.9-39.3-31.2-56.3c-5.6-7.3-11.5-14.4-17.6-21.3
			C265.1,97.1,264.3,97.9,264.9,98.5z M494.7,489.4c0.8,2,2.3,3.4,3.7,4.8c3.1,2.5,7,3.9,11.3,4.2c2.3,0,4.5-0.3,6.8-1.1
			c2.3-0.8,4.2-2,6.2-3.4c1.4-1.1,3.1-2.5,3.7-4.8c0.6-1.7,0.3-3.4-0.3-4.8c-0.8-2.5-2.5-4.8-3.7-7c-2-3.7-3.1-7.9-5.4-11.5
			c-0.8-1.4-2-2.8-3.4-3.7c-1.4-0.9-3.1-0.8-4.8-0.3c-2.3,0.8-4.2,2.5-6.2,3.7c-2,1.4-3.7,3.1-5.4,4.8c-1.4,1.7-2.5,3.7-3.7,5.9
			c-0.8,2.3-1.1,4.5-0.8,7C493,485.2,493.5,487.4,494.7,489.4z M504.8,464.2c1.7-1.4,3.7-2.5,5.9-2.5c1.7,0,3.1,1.1,4.2,2.5
			c1.4,1.4,2,3.4,3.1,5.4c0.8,2,1.7,4.2,2.5,5.9c0.3,0.8,0.8,1.4,0.8,2.3c0.8,1.7,2,3.4,3.1,5.1c0.8,1.7,1.4,3.4,1.4,5.4
			c-0.3,2-1.4,3.7-2.8,5.1c-2,1.7-3.9,2.8-6.2,3.7c-2.3,0.9-4.5,1.4-7,1.4c-2,0-4.2-0.3-6.5-1.1c-3.9-1.4-7.3-4.2-9-8.2
			c-2-4.5-2-9.9,0.3-14.1C496.9,470.4,500.9,467,504.8,464.2z M475,443.1c-0.8,0-0.8,1.1-0.3,1.1c6.2,1.4,13.8-0.8,19.3-3.1
			c5.6-2.3,12.7-5.9,13.8-12.7c0-0.3-0.6-0.6-0.6-0.3c-1.4,6.5-9,9.6-14.6,11.5C487,442,481,443.1,475,443.1z M499.7,419.8
			c-4.5,2.5-8.7,5.4-13.2,7.6c-4.2,2.5-8.5,5.4-11.8,8.7c-0.3,0.3,0.3,0.8,0.3,0.3c3.7-3.7,8.2-6.2,12.7-8.7c4.2-2.3,9.3-4.2,13-7.3
			C500.9,420.4,500.3,419.6,499.7,419.8z"/>
	</g>
</g>
<text transform="matrix(1 0 0 1 349.5684 275.0435)" font-family="'FingerPaint-Regular'" font-size="126.5027">L</text>
<g>
	<g>
		<g>
			<g>
				<path fill="#F6B292" d="M733.7,391.8l-40.7-17.6c-7.6,4.5-9.9,14.9-12.4,23.6c-2.8,3.1-4.5,6.2-8.7,8.7
					c-4.8,3.4-10.4,5.6-14.6,9.9c-5.1,5.6-8.7,11.3-14.4,16.1c-7.6,5.9-16.6,11.3-18.5,22.2c-0.6,5.4,0.8,15.2,7.6,15.2l45-11
					c5.9-3.7,12.7-4.8,18.2-9c7.9-5.6,12.7-13.5,16.6-22.2c0.3-0.6,0.6-1.1,0.8-2c7.3-2.8,14.1-7.6,18.8-12.7
					C734.3,409.7,744.7,392.4,733.7,391.8z"/>
				<path fill="#E48C69" d="M718.6,396.9c-0.3-10.7-15.2-23.6-24.7-14.4c-7,7.3-3.1,23.3-11.8,29.8c-3.9,2.5-9.6,2-14.4,4.5
					c-5.4,2.3-8.5,5.1-11.8,9.3c-7.9,9.3-34.3,25.8-23.8,41l28.1-7.6c17.2-4.8,29.5-9,41-23.3C709.3,426.1,720,410.3,718.6,396.9z"
					/>
				
					<linearGradient id="SVGID_6_" gradientUnits="userSpaceOnUse" x1="529.3182" y1="856.8122" x2="525.5121" y2="843.4907" gradientTransform="matrix(1.6542 -0.8682 0.8682 1.6542 -930.3 -514.0577)">
					<stop  offset="0" style="stop-color:#914533"/>
					<stop  offset="1" style="stop-color:#E48C69"/>
				</linearGradient>
				<path fill="url(#SVGID_6_)" d="M657.9,460c26.7-5.6,57-28.1,57.5-57.8c0-5.4-3.7-25-12.1-20.5c-4.2,2-9,23-11.5,27.8
					c-3.7,7-8.5,13.8-14.1,18.5c-14.1,13-39.3,17.2-45.5,38.2L657.9,460z"/>
			</g>
			<g>
				<path fill="#914533" d="M632.3,469.6c0.6,0,0.6-0.8-0.8-0.6c-4.5-0.3-6.2-5.1-6.5-9c-0.3-4.2,0.6-8.5,2.5-12.1
					c4.8-7.9,13.5-11.8,19.3-18.5c3.7-3.9,6.8-8.5,10.4-12.1c2.8-2.8,6.2-4.8,9.3-6.8c5.6-3.4,13.2-6.8,16.1-13.2
					c0.6-0.6-1.1-1.1-1.4-0.3c-1.7,3.9-5.6,6.5-9.3,8.7c-3.4,2.3-7.3,4.2-11,6.8c-3.9,2.8-6.8,6.2-9.9,9.9c-3.7,3.9-7.3,7.9-11.5,11
					c-7,5.4-14.9,11.5-16.1,20.7C623.1,459.8,624.8,469.9,632.3,469.6L632.3,469.6z"/>
			</g>
			<g>
				<path fill="#914533" d="M679.3,404.7c0,0.6,0.8,0.8,0.8,0.6c0.8-2.8,2-5.4,2.8-8.2c0.8-2.8,1.7-5.6,2.5-8.2
					c0.8-3.1,2-5.9,3.7-8.5c1.4-2.3,3.1-3.9,5.1-5.9c0.8-1.1,0-2.5-1.4-2c-5.4,2-7.9,9.3-9.6,14.1c-1.1,3.1-1.7,6.5-2.5,9.6
					C680.1,399.1,680.1,401.9,679.3,404.7L679.3,404.7z"/>
			</g>
		</g>
		<g>
			<path fill="#F6B292" d="M645.3,492.9c23.6-2.3,49.5-17.6,64.9-35.4c7.6-8.2,13.2-17.5,9.9-28.6c-1.7-6.2-2.5-11.8-3.1-18.2
				c0-3.7-0.6-7.6-2-11c-0.3-0.6-5.1-7.9-5.4-7.3c-3.4,7.6-9,14.9-11.5,23c-2,6.2-2.3,12.7-6.5,18.2c-5.1,7.3-15.2,7-23,9.9
				c-7.9,2.9-16.6,4.8-23.3,10.7c-5.6,5.1-9.3,9-16.1,12.1c-4.5,2.3-9.9,3.9-14.4,7.6c-7,5.4-12.7,16.1-8.2,25.3L645.3,492.9z"/>
			<path fill="#914533" d="M606.8,499.1c0,0.6,0.6,0,0.6-1.4c-2-4.2-2-8.7-0.3-13c1.7-4.8,5.1-9,9.3-12.1c5.6-3.9,12.7-5.6,18.2-9.3
				c5.4-3.4,9.3-8.7,14.6-12.1c6.2-3.9,13.2-6.2,20.2-8.5c5.6-2,11.8-2.5,17.2-5.4c5.1-2.8,8.2-7.3,9.9-12.7
				c2-5.9,3.1-11.8,5.9-17.2c1.7-2.8,3.1-5.9,4.8-8.7c0.8-1.4,1.4-2.5,2.3-3.9c0.3-0.6,0.8-2.8,1.4-3.1c-0.6,0-1.1,0-1.4,0.3
				c-0.6-0.3,0,0.3,0.3,0.6c0.3,0.3,0.6,0.8,0.8,1.1c0.6,1.1,1.1,2.3,2,3.1c3.1,4.2,3.1,9.6,3.7,14.9c0.3,3.4,0.6,6.8,1.4,9.9
				c0.8,3.1,1.7,5.9,2.3,8.7c2.3,10.7-5.1,20.2-12.1,27.8c-16.3,17.5-38.8,29.8-62.3,32.9c-0.6,0-0.6,1.4,0.3,1.4
				c16.3-0.8,32.3-8.5,45.5-17.6c9-6.2,17.6-13.8,24.1-22.4c2.8-3.7,5.6-7.9,6.5-12.7c1.1-5.4,0.3-9.6-1.1-14.9
				c-1.7-6.5-1.7-12.7-2.5-19.1c-0.3-2.3-0.6-5.4-2-7.6c-0.8-1.1-1.7-2.3-2.5-3.7c-0.6-1.1-1.4-2.5-2.5-3.4c-1.7-1.4-2.5,0-3.1,1.4
				c-2.8,5.6-6.2,11-8.7,16.6c-2.5,5.4-3.1,11.3-5.1,16.9c-0.8,3.1-2.5,6.5-5.1,8.7c-2.5,2-5.6,3.4-8.7,4.2
				c-2.8,0.8-6.2,1.4-9.3,2.3c-3.1,1.1-6.2,2.3-9.3,3.1c-6.8,2.3-13,4.8-18.2,9.3c-4.8,4.5-9,8.7-14.9,11.5
				c-5.6,2.8-11.5,4.8-16.1,9.3C606.5,480.5,602.6,490.4,606.8,499.1L606.8,499.1z"/>
			<path fill="#E48C69" d="M614.7,498c20.5-21,54.4-21.9,78.4-36.5c13.8-8.5,24.4-21.6,25.8-37.6c0.8-4.5-0.3-19.3-9-17.5
				c-5.4,1.4-11,26.1-15.2,31.7c-9.3,13.2-23.8,11.3-37.6,16.6c-11.5,5.1-19.1,14.9-30.9,20.5c-8.2,3.1-15.8,7.6-16.6,18.2
				L614.7,498z"/>
			
				<linearGradient id="SVGID_7_" gradientUnits="userSpaceOnUse" x1="514.3425" y1="865.4706" x2="514.3425" y2="855.0041" gradientTransform="matrix(1.6542 -0.8682 0.8682 1.6542 -930.3 -514.0577)">
				<stop  offset="0" style="stop-color:#914533"/>
				<stop  offset="1" style="stop-color:#E48C69"/>
			</linearGradient>
			<path fill="url(#SVGID_7_)" d="M626.7,490.4c31.4-12.4,64.3-12.4,82.6-45c4.8-7.6,11-27.5,2.8-35.1c-9,8.7-9.6,24.7-17.6,34
				c-9,10.1-20.5,12.1-32.6,14.4c-11.8,3.1-23.6,11.8-34.3,17.6c-7,3.9-12.7,11-16.3,17.6L626.7,490.4z"/>
		</g>
		<g>
			<path fill="#F6B292" d="M715.5,484.7c10.7-12.7,31.2-62.3,6.5-73c-13.8-5.9-16.6,31.7-23.6,38.8c-4.2,4.5-14.9,8.2-20.7,9.6
				c-12.4,2.8-23.6,6.2-35.1,12.4c-14.1,8.5-41.9,20.5-40.7,39.9c0.6,13.5,18.2,6.8,26.9,5.4c7.9-1.7,17.6-0.6,24.7-4.8L715.5,484.7
				z"/>
			<path fill="#E48C69" d="M709.9,419.9c-4.5,9.6-7,24.4-11,29.8c-0.3,0.8-0.6,2-0.8,2.8c-3.1,11.5-5.9,13.5-16.3,18.2
				c-8.7,4.5-14.6,13-22.2,18.8c-9.6,7.3-21,14.4-33.1,16.6c-5.1,1.1-21,2.3-18.2-7.6l-1.4-1.1c-3.4,4.5-5.6,9.6-5.4,15.2
				c0.6,13.5,18.2,6.8,26.9,5.4c7.9-1.7,17.6-0.6,24.7-4.8l1.7-0.8c8.7-7.9,16.1-14.6,28.1-18.8c9-3.4,22.2-5.1,27.2-14.6
				c4.5-8.2,3.4-19.6,4.2-28.4C714.9,446.8,719.4,419,709.9,419.9z"/>
			
				<linearGradient id="SVGID_8_" gradientUnits="userSpaceOnUse" x1="514.7864" y1="881.0754" x2="508.4346" y2="858.8439" gradientTransform="matrix(1.6542 -0.8682 0.8682 1.6542 -930.3 -514.0577)">
				<stop  offset="0" style="stop-color:#914533"/>
				<stop  offset="1" style="stop-color:#E48C69"/>
			</linearGradient>
			<path fill="url(#SVGID_8_)" d="M711,417c-1.7,2.8-3.1,6.8-4.5,11c-0.6,2.5-0.6,4.8-0.8,5.9c-1.4,8.2-2.5,16.9-5.1,24.7
				c-1.4,4.5-4.5,8.7-8.2,11.8c-5.1,3.9-11,5.1-15.8,9.9c-4.5,4.8-8.5,11-13.2,14.9c-5.6,5.1-14.1,9.9-21,13.2
				c-12.1,5.6-35.7,10.7-39.3-5.9c-1.4,3.1-2.3,6.2-2,9.6c0.6,13.5,18.2,6.8,26.9,5.4c7.9-1.7,17.6-0.6,24.7-4.8l5.9-2.5
				c3.7-2.8,7-5.9,11.3-9.3c6.2-4.5,13-9.9,19.3-13.5c5.1-3.1,11.3-2,16.1-4.5c8.7-4.5,3.1-26.7,4.8-35.7
				C710.7,444.3,720.3,413.1,711,417z"/>
			<path fill="#914533" d="M653.7,513.1c0.3-0.3,0-1.1-0.3-0.8c-0.3,0-0.3,0-0.6,0.3c-5.6,2.8-12.4,2.5-18.8,3.1
				c-4.5,0.3-8.5,1.1-12.7,2c-5.6,1.1-17.2,3.9-18.2-4.8c-1.1-8.7,4.5-16.3,11-21.6c6.8-5.9,14.6-10.4,22.4-14.6
				c4.5-2.5,8.7-4.8,13.2-6.8c6.2-2.8,12.7-4.8,19.3-6.5c5.6-1.1,11.3-2.3,16.6-4.2c4.5-1.7,9.9-3.9,13.2-7.6c1.7-2,2.8-4.2,3.7-6.8
				c1.4-3.4,2.8-6.8,3.9-10.4c1.4-3.7,2.5-7.6,3.9-11.3c1.1-2.8,2.5-6.2,4.8-8.7c5.1-5.4,12.1,0.3,14.9,5.1
				c3.9,6.8,3.7,14.9,2.5,22.4c-1.4,8.5-3.9,16.9-7.3,25c-2.5,6.2-5.6,12.4-9.9,17.6c-0.6,0.8,0.6,1.7,1.1,0.8
				c3.4-4.5,6.2-9.9,8.7-15.2c3.7-7.6,6.5-15.8,8.2-23.8c1.4-7.3,2.3-15.5,0-22.7c-1.7-5.6-6.2-12.1-12.7-13.2
				c-5.9-1.1-9.6,5.1-11.5,9.9c-1.7,3.4-2.8,7.3-3.9,11c-1.1,3.7-2,7.6-3.1,11.3c-0.8,2.5-2,5.6-3.9,7.6c-3.9,3.4-9.6,5.4-14.4,7
				c-5.6,1.7-11.5,2.8-17.2,4.5c-6.2,2-12.4,3.9-18.2,6.8c-4.5,2.3-8.7,4.5-13,7c-3.9,2-7.9,4.2-11.5,6.5c-7,4.5-14.6,9.9-19.3,16.9
				c-2.3,3.1-3.9,6.8-4.2,10.4c-0.3,3.4,0,7.3,2.5,9.9c5.1,4.8,14.1,2.3,19.9,0.8c4.2-1.1,8.7-2.3,13.2-2.5
				C642.2,516.7,648.4,516.2,653.7,513.1L653.7,513.1z"/>
		</g>
	</g>
	<g>
		<path fill="#F6B292" d="M715.8,8.4c-10.1,5.9-16.1,10.7-18.8,22.2c-3.1,5.1-6.8,10.1-9.9,16.1c-14.4,23.8-28.4,48.4-39.3,73.6
			c-5.1,11.3-9,22.7-14.4,33.7c-5.4,11.3-11,21.9-16.9,32.6c-11.5,21.9-23.6,43.8-30.3,67.7c-3.4,13-4.5,26.1-3.7,39.3
			c0.6,6.8,1.1,13.5,2,20.2c0.3,3.1,0.6,5.9,1.1,8.5c-5.4,13.5-5.1,25.3-5.9,40.5c-0.8,15.2-6.5,29.2-7,44.4c0,1.4,0,2.5,0.3,3.7
			c-0.3,0-0.6,0.3-0.8,0.3l0.6,0.3c-8.5,11-10.1,29.2-15.5,42.4c-4.5,11-9.9,24.4-9.3,36.5c0,0.3,0,0.6,0,0.8v0.3
			c0.8,6.8,7.9,14.1,14.4,15.5c21.9,4.8,36.5-20.5,46.4-35.4c16.6-24.7,19.3-53.9,27.5-82.1c1.4-4.5,3.9-8.7,5.9-13.2l0.6,0.3
			c4.5-2.5,9.6-5.1,14.4-7.3c11,4.5,21.9,8.5,33.4,12.1c3.7,1.1,7.9,2.8,12.1,4.2c2.3,4.2,3.1,11.8,3.9,17.2
			c1.1,11.8,7.9,25.3,4.5,36.8c-1.7,6.2-7.9,23-7.6,35.4l-3.9,4.8c-12.1,3.4-26.9,11.8-33.1,23c-10.4,2.8-21,13.2-26.9,20.7
			c-5.4,7-15.8,25.5-7.9,34.3l1.1-0.8l-0.8,0.8c8.5,3.4,23.6-4.2,30.9-7.6c15.8-7,30.6-14.6,46.1-21.9c8.7-4.2,16.9-9,25.5-13.5
			c7-3.9,14.4-6.2,19.1-12.7c6.5-9,7.3-22.2,9.6-33.1c3.4-12.7,7.6-24.7,11-37.4c4.5-16.3,18.2-32.3,19.1-50
			c1.1-1.4,2.3-2.8,3.1-4.5c6.5-11.5,10.1-22.4,5.4-35.7c-6.8-18.2-14.1-35.7-21.6-53.6c-10.7-25.8-18.5-55.6-19.3-83.2
			c-0.8-29.8,14.1-57.8,31.2-81.5c5.4-7.6,23-22.2,23.8-30.9c0.8-9.9-14.6-15.5-19.3-22.4c-7.9-10.7-8.5-25.5-13.2-37.9
			c-1.1-2.8-2.3-5.4-3.7-7.6C766.1,0.8,739.6-5.7,715.8,8.4z"/>
		<g>
			<path fill="#E48C69" d="M630.6,558.1l1.1-0.8l-0.8,0.8c0.3,0,0.6,0.3,0.8,0.3c1.1-24.4,24.4-28.1,37.1-40.7
				c3.1-3.1,4.2-8.7,7.6-12.1c6.8-5.6,17.5-6.2,25.5-9.6c10.1-4.5,13.2-7.3,15.5-19.9c4.5-29.5,15.5-52.8,1.4-80.6
				c-5.4-11.5-11-10.4-23-14.4c-17.2-5.4-17.6-9.3-7.9-22.4l-0.6-0.6c-10.7,1.4-28.4,5.9-38.2,14.6c2.5-1.4,4.8-2.5,7.3-3.7
				c11,4.5,21.9,8.5,33.4,12.1c3.7,1.1,7.9,2.8,12.1,4.2c2.3,4.2,3.1,11.8,3.9,17.2c1.1,11.8,7.9,25.3,4.5,36.8
				c-1.7,6.2-7.9,23-7.6,35.4l-3.9,4.8c-12.1,3.4-26.9,11.8-33.1,23c-10.4,2.8-21,13.2-26.9,20.7
				C633.4,530.3,623.1,548.8,630.6,558.1z M746.7,1.3c-10.1-1.1-20.5,1.1-30.9,7.3c-10.1,5.9-16.1,10.7-18.8,22.2
				c-3.1,5.1-6.8,10.1-9.9,16.1c-14.4,23.8-28.4,48.4-39.3,73.6c-5.1,11.3-9,22.7-14.4,33.7c-5.4,11.3-11,21.9-16.9,32.6
				c-11.5,21.9-23.6,43.8-30.3,67.7c-3.4,13-4.5,26.1-3.7,39.3c0.6,6.8,1.1,13.5,2,20.2c0.3,3.1,0.6,5.9,1.1,8.5
				c-5.4,13.5-5.1,25.3-5.9,40.5c-0.8,15.2-6.5,29.2-7,44.4c0,1.4,0,2.5,0.3,3.7c-0.3,0-0.6,0.3-0.8,0.3l0.6,0.3
				c-8.5,11-10.1,29.2-15.5,42.4c-4.5,11-9.9,24.4-9.3,36.5c0,0.3,0,0.6,0,0.8v0.3c0.3,2.5,1.4,5.4,3.4,7.9
				c-0.6-3.4-1.1-6.2,0.8-8.7c-3.9-9.3,11-23,15.5-29.8c2.8-3.9,5.1-18.8,16.1-20.5c-9.9-4.2-6.5-14.4,2.8-14.4
				c-5.4-5.4-5.4-12.1,3.9-12.1c-7.3,0-3.1-26.9-2-30.3c4.5-13.5,3.7-25.5,12.4-37.9c8.7-11.8,19.1-22.7,21.9-37.6
				c2.5-13.2-2.5-26.7,0-40.2c11.8-60.4,44.7-113.8,71.3-168.2c14.6-29.5,28.4-57.5,45.5-85.7C741.6,10.9,745,5.9,746.7,1.3z"/>
			
				<linearGradient id="SVGID_9_" gradientUnits="userSpaceOnUse" x1="613.8561" y1="857.1584" x2="596.4117" y2="802.2885" gradientTransform="matrix(1.6542 -0.8682 0.8682 1.6542 -930.3 -514.0577)">
				<stop  offset="0" style="stop-color:#E48C69"/>
				<stop  offset="1" style="stop-color:#F6B292"/>
			</linearGradient>
			<path fill="url(#SVGID_9_)" d="M758.5,273.8c10.7,25.5,30.9,57.3,32,85.7C778.1,331.4,761.9,305.8,758.5,273.8z"/>
			
				<linearGradient id="SVGID_10_" gradientUnits="userSpaceOnUse" x1="633.7513" y1="827.1146" x2="565.2434" y2="774.7819" gradientTransform="matrix(1.6542 -0.8682 0.8682 1.6542 -930.3 -514.0577)">
				<stop  offset="0" style="stop-color:#FADBCA"/>
				<stop  offset="1" style="stop-color:#F6B292"/>
			</linearGradient>
			<path fill="url(#SVGID_10_)" d="M772.2,19c-7.3-1.7-16.1,1.4-21.6,6.2C736.8,37,732.9,56.6,726.8,73c-9,23.6-18.5,47.2-28.9,70.2
				c-5.9,13.8-14.1,26.4-21.3,39.6c-5.6,10.1-8.2,20.7-14.1,30.6c-13.5,22.7-24.7,48.9-26.7,75.3c-1.1,13.8-1.4,27.8-5.9,41
				c-3.9,12.7-16.1,17.5-21,29.2c-1.7,3.9-2.5,8.2-3.7,12.1c-1.4,4.5-2.8,9-4.2,13.2c-2.3,7.6-4.8,16.1-5.1,24.1
				c-0.3,5.6,0.8,11.3,7,12.7c10.1,2.3,10.7-15.8,11.5-21.3c0-0.3,0-0.6-0.3-0.8c5.1-14.4,13.8-28.6,27.5-35.4
				c9-4.5,17.6-10.7,27.5-13.8c16.6-5.4,17.5-2,28.4,9.6c10.1,11,21.6,16.6,29.2,29.8c15.2,25.3,13,53.9,6.5,80.9
				c-2.3,9.6-5.4,19.9-12.7,27.5c-7.6,7.9-18.5,10.1-28.1,14.9c-6.5,3.1-11.5,7.9-17.5,12.1c-4.2,3.4-8.7,6.5-13,10.1
				c-3.9,3.4-14.1,13-2.5,13.2c0.6,0,0.6-0.8,0-0.8c-0.3,0-0.3,0-0.3,0l-0.3-0.6c11.5-3.9,21.3-11.8,32-17.6
				c11.3-6.2,23.3-10.1,34.8-15.5c4.8-2.3,9.6-4.8,13.2-8.7c2.8-3.1,5.1-6.8,7-10.4c4.8-9,7.9-18.8,10.4-28.6
				c2.3-9,4.5-17.9,6.5-27.2c2-9.3,4.8-18.5,9.9-26.7c3.9-6.2,8.7-14.9,10.4-23.3c0.6,0.3,1.4-0.3,1.4-1.1c0-7.6-2.3-15.2-7-21.3
				c-4.5-5.9-9.9-10.7-14.9-16.1c-13.5-14.1-20.7-31.7-26.7-50c-11.3-33.4-10.7-67.4-3.1-102c4.5-21.9,12.1-43.3,21.9-63.2
				c5.6-11.3,11.8-21.9,18.2-32.9c4.5-7.3,10.7-13,15.8-19.9c3.4-4.5,9-13,4.8-18.2c-2.3-3.1-5.1-4.8-5.9-8.5
				c-0.6-2.8-0.8-5.6-1.1-8.7c-0.3-4.2-0.8-8.5-2.3-12.7C782.3,27.4,778.7,20.4,772.2,19z"/>
			<path fill="#EE9F7F" d="M697.5,41.2c6.5-10.1,18.2-23.3,23.6-36c-2,1.1-3.9,2-5.9,3.1c-10.1,5.9-16.1,10.7-18.8,22.2
				c-3.1,5.1-6.8,10.1-9.9,16.1c-14.4,23.8-28.4,48.3-39.4,73.6c-5.1,11.3-9,22.7-14.4,33.7c-5.4,11.3-11,21.9-16.9,32.6
				c-11.5,21.9-23.6,43.8-30.3,67.7c-3.4,13-4.5,26.1-3.7,39.3c0.6,6.8,1.1,13.5,2,20.2c0.3,3.1,0.6,5.9,1.1,8.5
				c-5.4,13.5-5.1,25.3-5.9,40.5s-6.5,29.2-7,44.4c0,1.4,0,2.5,0.3,3.7c-0.3,0-0.6,0.3-0.8,0.3l0.6,0.3c-8.5,11-10.1,29.2-15.5,42.4
				c-1.1,2.8-2.3,5.6-3.4,8.7v2.5c4.8-9.6,14.1-19.1,16.6-28.9c1.7-5.4-0.3-9.6,2-15.2c0.6-1.4,3.1-0.8,3.7-2.3
				c0.6-0.8,0.3-3.7,0.3-3.7c1.1-2.5,0.3-5.1,3.7-7.3c-4.5-6.8,0.6-16.9,2-24.1c1.7-9.3,2.5-17.6,2.5-26.9
				c0-18.8,6.8-32.6,12.7-49.8c-8.7-5.6-3.4-24.1-2.3-33.4c1.7-13.2,2.3-25.8,7.6-37.9c10.7-24.1,23.3-47.8,35.4-71.1
				C651,137.9,662.2,109.9,676,84C683.2,69.9,689.4,55.2,697.5,41.2z"/>
		</g>
		<path fill="#914533" d="M812.4,95.7c-6.2,7-12.1,14.1-17.6,21.3c-13.2,17.2-25,35.7-31.2,56.4c-6.8,22.2-4.2,45.8,0.8,68.3
			c2.8,12.7,6.5,25,11,37.1c5.1,13.2,10.7,26.1,16.1,39.3c2.8,7,5.6,14.1,8.2,21c2,5.1,3.7,10.1,3.1,15.8c-0.3,4.8-1.7,9-3.7,13.2
			c-1.7,4.5-3.9,8.7-5.9,13c0.3-3.4,0-6.8-0.8-10.4c-0.3-0.6-1.4-0.6-1.1,0.3c4.8,18.5-7.9,34.5-14.9,50.6c-2.3,4.5-3.4,9-4.8,13.5
			c-2,6.2-3.9,12.4-5.9,18.5c-2,5.9-3.9,11.8-5.1,17.9c-1.1,5.4-1.7,10.4-3.1,15.8c-1.4,5.6-3.4,11.8-7.6,16.1
			c-4.8,4.5-11,7.3-16.6,10.4c-13,7-25.8,14.1-39.1,19.9c-12.1,5.6-24.1,11.5-36.2,17.2c-4.2,2-8.5,3.9-13.2,5.4
			c-3.9,1.1-9,2.5-13.2,1.1c-0.3,0-0.3,0-0.3,0l0,0c-3.4-4.2-2.5-10.1-1.1-14.9c1.4-5.4,3.9-10.1,6.8-14.6
			c6.5-10.1,16.6-18.5,27.2-24.1c-1.7,4.8-2.5,9.6-1.4,14.9c0,0.3,0.6,0,0.6-0.3c-2.3-10.4,4.8-19.3,12.7-25.8s17.2-11,26.9-13.5
			c0,1.4,0.6,2.8,0.8,4.2c0,0.3,0.6,0,0.6-0.3c-1.4-8.7-0.6-18.2,1.7-26.9c1.1-4.2,2.5-8.7,3.9-13c1.1-3.7,2.3-7,2-11
			c-0.3-7.9-3.1-15.8-4.5-23.6c-1.1-7-1.1-15.5-4.2-22.4c2.3,0.6,4.2,1.1,6.5,1.7c0.6,0,0.6-0.6,0.3-0.8
			c-17.6-5.4-35.1-11-52.3-17.6c8.5-3.9,17.2-6.8,26.1-8.7c0.3,0,0-0.6-0.3-0.6c-7.3,1.4-14.4,3.1-21.3,5.9
			c-7.3,2.8-14.1,6.5-20.5,10.1c0.6-1.1,1.1-2.3,2-3.4c0.3-0.3-0.3-0.6-0.6-0.3c-2.8,3.9-5.1,8.2-7,12.7c-2,4.8-3.1,9.9-4.5,14.6
			c-2.5,9.6-3.9,19.1-6.5,28.6c-3.1,11.8-6.8,23.3-12.7,33.7c-2.5,4.8-5.6,9.3-8.7,14.1c-2.8,4.5-5.9,9-9.3,13.2
			c-6.5,8.2-15.2,17.2-26.4,17.5c-5.4,0-10.1-1.4-14.1-5.4c-3.1-3.1-6.5-7.9-6.2-12.1v-0.3c0.3-14.4,8.2-27.2,11.8-40.5
			c3.7-12.7,5.1-25.5,12.4-37.1c3.7-0.6,7.6,0.8,11,2s6.2,2.3,9.3,3.7c0.3,0,0.6-0.6,0.3-0.8c-5.9-2.8-13-7.3-19.6-5.9
			c0.6-16.1,6.8-31.4,7.6-47.5c0.6-7.6,0-14.9,0.8-22.4c0.6-7.6,2.8-14.6,5.9-21.9c0-0.3-0.6-0.6-0.8-0.3c-0.3,0.8-0.8,1.7-1.1,2.5
			c0,0,0-0.6,0-0.8c-0.6-11.8-2.3-23.8-2-36c0.3-12.7,2.5-24.7,6.8-36.8c8.7-25.5,22.2-49.5,34.8-73.3c13-24.7,22.2-51.2,34.8-75.9
			c6.5-12.7,13-24.7,19.9-36.8c3.4-5.9,6.8-12.1,10.4-17.9c3.4-5.6,7.3-11.3,10.4-17.2c0.3-0.8-0.8-1.7-1.1-0.8
			c-0.8,1.7-2,3.4-2.8,4.8c-3.7,5.9-7,11.5-10.7,17.5c-3.7,5.9-7,12.1-10.7,17.9c-7,12.1-14.1,23.8-20.2,36.5
			c-5.9,12.4-11.5,25-16.3,37.6c-5.1,13.5-11.5,26.1-18.2,38.8c-12.4,23.6-26.1,46.7-34.3,72.2c-3.4,11.8-5.6,23.6-5.4,36
			c0.3,12.1,2,23.8,3.9,35.7c0,0,0,0.3,0.3,0.3c-5.6,12.7-6.5,27.2-7,40.7c-0.3,8.2-2.3,16.6-3.9,24.7c-1.4,7.9-2.5,15.5-2.3,23.6
			l0,0c-9.9,9.9-10.4,24.7-14.1,37.4c-2.3,7-5.4,14.1-7.6,21.3c-1.7,6.8-2.8,13.8-2.5,20.7c-0.3,4.2,1.1,7.9,3.7,11
			c3.1,3.4,6.8,6.2,11.3,7c10.4,2,19.6-2.5,27.2-9.9c7.3-7.6,13-16.6,18.8-25.3c6.2-9.6,11-20.2,14.4-31.4
			c3.4-11.3,6.2-22.7,9.3-34.3c2.8-9.9,5.1-20.7,9.9-30.3c0,0.3,0,0.3,0.3,0.3c4.5-2.5,9.6-5.1,14.4-7c14.4,6.8,29.2,11.5,44.4,15.5
			c-0.3,0.3-0.3,0.3,0,0.6c2.3,3.7,2.8,8.5,3.4,12.7c0.6,3.9,1.1,7.9,2,11.5c2,7.6,4.8,15.8,3.9,23.8c-0.6,4.5-2.3,8.5-3.7,12.7
			c-1.1,3.9-2.3,7.9-3.1,12.1c-1.1,6.5-1.4,12.7-0.3,18.8c-10.4,1.7-21,6.8-29.2,13.8c-3.7,3.4-7,7.3-9,11.5
			c-0.3-0.3-0.6-0.6-0.8-0.3c-11.8,5.6-23.3,14.4-30,25.8c-4.5,7.9-11,21.3-3.1,29.2c0.3,0,0.3,0,0.3,0s0,0.3,0.3,0.3
			c0,0,0,0.3,0.3,0.3c8.2,3.1,17.5-1.1,25-4.5c11.5-5.4,23.3-10.7,34.5-16.6c6.5-3.4,13.2-6.5,19.6-9.9c6.8-3.4,13-6.8,19.3-10.4
			c2.8-1.7,6.2-3.4,9.3-4.8c2.8-1.1,5.6-2.5,8.2-4.2c4.8-3.1,7.9-7.6,9.9-13c2-5.6,3.1-11,3.9-16.6c1.1-6.2,2.5-12.7,4.2-18.8
			c1.7-6.8,3.9-13.5,5.9-20.2c1.4-5.6,2.8-10.7,5.1-16.1c5.6-13.2,14.6-26.7,16.1-41.3c0,0,0.3,0,0.3-0.3c3.9-6.8,9-13.2,11-21
			c0.8-4.2,1.1-8.7,0.3-13.2c-1.1-6.2-4.2-12.1-6.5-17.9c-5.4-13.5-11-26.9-16.6-40.5c-10.4-23.8-17.9-50.3-19.9-76.7
			c-1.1-11.3-0.3-21.9,2.5-32.9c2.8-10.7,7-20.7,12.1-30.3c10.1-19.1,22.7-36.5,36.8-52.8C813.2,96.5,812.4,95.7,812.4,95.7z
			 M584.6,482.2c0.3-2.5,0-4.8-0.8-7c-1.1-2.3-2.3-4.2-3.7-5.9c-1.7-1.7-3.4-3.4-5.4-4.8c-2-1.1-3.9-2.8-6.2-3.7
			c-1.7-0.6-3.4-0.6-4.8,0.3c-1.4,0.9-2.5,2.3-3.4,3.7c-2.3,3.7-3.4,7.9-5.4,11.5c-1.1,2.3-2.8,4.5-3.7,7c-0.6,1.4-0.8,3.1-0.3,4.8
			c0.6,2.3,2.3,3.7,3.7,4.8c2,1.4,3.9,2.5,6.2,3.4c2.3,0.8,4.5,1.1,6.8,1.1c4.2-0.3,8.2-1.7,11.3-4.2c1.4-1.4,2.8-2.8,3.7-4.8
			C583.8,486.4,584.3,484.2,584.6,482.2z M582.7,473.7c2.3,4.2,2.3,9.6,0.3,14.1c-1.7,3.9-5.1,6.8-9,8.2c-2.3,0.8-4.5,1.1-6.5,1.1
			c-2.5,0-4.8-0.6-7-1.4c-2.2-0.8-4.2-2-6.2-3.7c-1.4-1.4-2.5-3.1-2.8-5.1c0-2,0.6-3.7,1.4-5.4c1.1-1.7,2.3-3.4,3.1-5.1
			c0-0.8,0.6-1.4,0.8-2.3c0.8-1.7,1.7-3.9,2.5-5.9c1.1-2,1.7-3.9,3.1-5.4c1.1-1.4,2.5-2.5,4.2-2.5c2.3,0,4.2,1.1,5.9,2.5
			C576.5,466,580.4,469.3,582.7,473.7z M584.6,438.6c-5.6-2-13.2-5.1-14.6-11.5c0-0.3-0.6,0-0.6,0.3c1.1,6.8,8.2,10.4,13.8,12.7
			s13.2,4.5,19.3,3.1c0.6,0,0.6-1.1-0.3-1.1C596.4,442,590.3,440.9,584.6,438.6z M576.7,419.3c3.7,3.1,8.7,5.1,13,7.3
			c4.5,2.5,9,5.1,12.7,8.7c0,0.6,0.6,0,0.3-0.3c-3.4-3.4-7.6-6.2-11.8-8.7c-4.5-2.3-8.7-5.1-13.2-7.6
			C577,418.5,576.5,419.3,576.7,419.3z"/>
	</g>
</g>
<text transform="matrix(1 0 0 1 635.1025 273.8071)" font-family="'FingerPaint-Regular'" font-size="126.6382">R</text>
</svg>
