<?xml version="1.0" encoding="utf-8"?>
<!-- Generator: Adobe Illustrator 18.0.0, SVG Export Plug-In . SVG Version: 6.00 Build 0)  -->
<!DOCTYPE svg PUBLIC "-//W3C//DTD SVG 1.1//EN" "http://www.w3.org/Graphics/SVG/1.1/DTD/svg11.dtd">
<svg version="1.1" id="Layer_1" xmlns="http://www.w3.org/2000/svg" xmlns:xlink="http://www.w3.org/1999/xlink" x="0px" y="0px"
	 viewBox="0 0 49.7 275.1" enable-background="new 0 0 49.7 275.1" xml:space="preserve">
<rect x="0.8" y="177.1" fill="none" width="48" height="27"/>
<g>
	<g>
		<g>
			<linearGradient id="SVGID_1_" gradientUnits="userSpaceOnUse" x1="5.5859" y1="28.1185" x2="45.9551" y2="28.1185">
				<stop  offset="0" style="stop-color:#A2A9AC"/>
				<stop  offset="3.634416e-002" style="stop-color:#B4B9BC"/>
				<stop  offset="0.1058" style="stop-color:#CFD3D4"/>
				<stop  offset="0.1813" style="stop-color:#E4E6E7"/>
				<stop  offset="0.2647" style="stop-color:#F3F4F5"/>
				<stop  offset="0.3624" style="stop-color:#FCFCFD"/>
				<stop  offset="0.5085" style="stop-color:#FFFFFF"/>
				<stop  offset="0.7288" style="stop-color:#FDFDFD"/>
				<stop  offset="0.8507" style="stop-color:#F5F5F6"/>
				<stop  offset="0.9483" style="stop-color:#E7E9EA"/>
				<stop  offset="1" style="stop-color:#DCDFE0"/>
			</linearGradient>
			<path fill="url(#SVGID_1_)" d="M8.6,3.8c0,0,16.8,5.1,30.5-0.5L46,48.5c0,0-30.7,9.6-40.4,0.5"/>
			<polyline fill="#720400" points="8.6,1.5 9.4,5.6 7.6,49 2,48.5 			"/>
			<linearGradient id="SVGID_2_" gradientUnits="userSpaceOnUse" x1="-30.0642" y1="246.0707" x2="66.9325" y2="91.0923">
				<stop  offset="0" style="stop-color:#4A0000"/>
				<stop  offset="0.1779" style="stop-color:#510000"/>
				<stop  offset="0.4424" style="stop-color:#650000"/>
				<stop  offset="0.7589" style="stop-color:#860000"/>
				<stop  offset="1" style="stop-color:#A40000"/>
			</linearGradient>
			<path fill="url(#SVGID_2_)" d="M0,47.7c0,0,26.9,7.1,49.3-0.5v222.4c0,0-31.5,12.7-49.3-0.5V47.7z"/>
			<path fill="#983327" d="M0,47.7L6.1,0.5h2.8L4.1,47.7c0,0,24.9,3.6,40.9-0.8L38.6,0h3l7.6,47.2C49.3,47.2,27.9,58.4,0,47.7z"/>
			
				<linearGradient id="SVGID_3_" gradientUnits="userSpaceOnUse" x1="-8.7265" y1="4.4157" x2="39.2631" y2="4.4157" gradientTransform="matrix(0.9934 -0.115 0.115 0.9934 9.6362 60.5761)">
				<stop  offset="0" style="stop-color:#FFC99F"/>
				<stop  offset="7.388758e-003" style="stop-color:#FEC59A"/>
				<stop  offset="0.1444" style="stop-color:#EF863B"/>
				<stop  offset="0.2061" style="stop-color:#E96D16"/>
				<stop  offset="0.2303" style="stop-color:#D05814"/>
				<stop  offset="0.6" style="stop-color:#AB3800"/>
				<stop  offset="0.7576" style="stop-color:#BC4612"/>
				<stop  offset="1" style="stop-color:#A22E0F"/>
			</linearGradient>
			<path fill="url(#SVGID_3_)" d="M1.9,58.7c0,0,11.3,10.6,45.8,2.5c0,0,3.8,3.1,0.6,5.2C30.5,72,7.5,70.6,2,64
				C-0.3,61.2,1.9,58.7,1.9,58.7z"/>
			
				<linearGradient id="SVGID_4_" gradientUnits="userSpaceOnUse" x1="-11.4097" y1="27.5936" x2="36.5799" y2="27.5936" gradientTransform="matrix(0.9934 -0.115 0.115 0.9934 9.6362 60.5761)">
				<stop  offset="0" style="stop-color:#FFC99F"/>
				<stop  offset="7.388758e-003" style="stop-color:#FEC59A"/>
				<stop  offset="0.1444" style="stop-color:#EF863B"/>
				<stop  offset="0.2061" style="stop-color:#E96D16"/>
				<stop  offset="0.2303" style="stop-color:#D05814"/>
				<stop  offset="0.6" style="stop-color:#AB3800"/>
				<stop  offset="0.7576" style="stop-color:#BC4612"/>
				<stop  offset="1" style="stop-color:#A22E0F"/>
			</linearGradient>
			<path fill="url(#SVGID_4_)" d="M1.9,82.1c0,0,11.3,10.6,45.8,2.5c0,0,3.8,3.1,0.6,5.2C30.5,95.3,7.5,93.9,2,87.3
				C-0.3,84.5,1.9,82.1,1.9,82.1z"/>
			
				<linearGradient id="SVGID_5_" gradientUnits="userSpaceOnUse" x1="-31.161" y1="192.4109" x2="16.8286" y2="192.4109" gradientTransform="matrix(0.9934 -0.115 0.115 0.9934 9.6362 60.5761)">
				<stop  offset="0" style="stop-color:#FFC99F"/>
				<stop  offset="7.388758e-003" style="stop-color:#FEC59A"/>
				<stop  offset="0.1444" style="stop-color:#EF863B"/>
				<stop  offset="0.2061" style="stop-color:#E96D16"/>
				<stop  offset="0.2303" style="stop-color:#D05814"/>
				<stop  offset="0.6" style="stop-color:#AB3800"/>
				<stop  offset="0.7576" style="stop-color:#BC4612"/>
				<stop  offset="1" style="stop-color:#A22E0F"/>
			</linearGradient>
			<path fill="url(#SVGID_5_)" d="M1.2,248.1c0,0,11.3,10.6,45.8,2.5c0,0,3.8,3.1,0.6,5.2c-17.9,5.4-40.8,4.1-46.3-2.5
				C-1,250.5,1.2,248.1,1.2,248.1z"/>
			<line fill="none" stroke="#6A0000" stroke-width="2" stroke-miterlimit="10" x1="1.3" y1="48.3" x2="1.3" y2="269.7"/>
			<line fill="none" stroke="#6A0000" stroke-width="2" stroke-miterlimit="10" x1="48.7" y1="48" x2="48.7" y2="269.3"/>
		</g>
	</g>
	<line fill="none" stroke="#000000" stroke-width="0.3" x1="0" y1="-54" x2="0" y2="-18"/>
	<line fill="none" stroke="#000000" stroke-width="0.3" x1="-54" y1="0" x2="-18" y2="0"/>
	<line fill="none" stroke="#000000" stroke-width="0.3" x1="-54" y1="275.1" x2="-18" y2="275.1"/>
	<line fill="none" stroke="#000000" stroke-width="0.3" x1="0" y1="329.1" x2="0" y2="293.1"/>
	<line fill="none" stroke="#000000" stroke-width="0.3" x1="49.7" y1="-54" x2="49.7" y2="-18"/>
	<line fill="none" stroke="#000000" stroke-width="0.3" x1="103.7" y1="0" x2="67.7" y2="0"/>
	<line fill="none" stroke="#000000" stroke-width="0.3" x1="103.7" y1="275.1" x2="67.7" y2="275.1"/>
	<line fill="none" stroke="#000000" stroke-width="0.3" x1="49.7" y1="329.1" x2="49.7" y2="293.1"/>
</g>
</svg>
